<svg width="304" height="300" xmlns="http://www.w3.org/2000/svg">

 <g>
  <title>background</title>
  <rect fill="none" id="canvas_background" height="302" width="306" y="-1" x="-1"/>
 </g>
 <g>
  <title>Layer 1</title>
  <g stroke="null" id="svg_292">
   <g stroke="null" id="svg_293">
    <g stroke="null" id="svg_294">
     <path stroke="null" id="svg_295" d="m202.55227,131.68973c-0.68119,0 -1.35497,-0.26362 -1.87327,-0.7762c-1.02919,-1.01785 -1.02919,-2.68741 0,-3.70526l9.81799,-9.71714c1.03659,-1.02517 2.71735,-1.02517 3.74653,0c1.02919,1.01785 1.02919,2.68741 0,3.70526l-9.82539,9.71714c-0.51829,0.51258 -1.19948,0.7762 -1.86586,0.7762z" fill="#FFB300" clip-rule="evenodd" fill-rule="evenodd"/>
    </g>
    <g stroke="null" id="svg_296">
     <path stroke="null" id="svg_297" d="m107.50439,225.69047c-0.68119,0 -1.35497,-0.26362 -1.88067,-0.7762c-1.02919,-1.01785 -1.02919,-2.68741 0,-3.70526l9.82539,-9.71714c1.02919,-1.01785 2.71735,-1.01785 3.74653,0c1.03659,1.01785 1.03659,2.68741 0,3.70526l-9.82539,9.71714c-0.51089,0.51991 -1.19208,0.7762 -1.86586,0.7762z" fill="#FFB300" clip-rule="evenodd" fill-rule="evenodd"/>
    </g>
    <g stroke="null" id="svg_298">
     <path stroke="null" id="svg_299" d="m234.08681,173.82421l-13.90511,0c-1.46603,0 -2.6433,-1.1643 -2.6433,-2.61418c0,-1.44256 1.17727,-2.61418 2.6433,-2.61418l13.90511,0c1.46603,0 2.6433,1.17162 2.6433,2.61418c0.0074,1.44988 -1.16246,2.61418 -2.6433,2.61418z" fill="#FFB300" clip-rule="evenodd" fill-rule="evenodd"/>
    </g>
    <g stroke="null" id="svg_300">
     <path stroke="null" id="svg_301" d="m99.67813,173.82421l-13.90511,0c-1.45863,0 -2.6433,-1.1643 -2.6433,-2.61418c0,-1.44256 1.18467,-2.61418 2.6433,-2.61418l13.90511,0c1.46603,0 2.6433,1.17162 2.6433,2.61418c0,1.44988 -1.17727,2.61418 -2.6433,2.61418z" fill="#FFB300" clip-rule="evenodd" fill-rule="evenodd"/>
    </g>
    <g stroke="null" id="svg_302">
     <path stroke="null" id="svg_303" d="m159.93362,114.23988c-1.45863,0 -2.6433,-1.1643 -2.6433,-2.61418l0,-13.75192c0,-1.44256 1.18467,-2.61418 2.6433,-2.61418c1.46603,0 2.6433,1.17162 2.6433,2.61418l0,13.75192c0.01481,1.43524 -1.18467,2.61418 -2.6433,2.61418z" fill="#FFB300" clip-rule="evenodd" fill-rule="evenodd"/>
    </g>
    <g stroke="null" id="svg_304">
     <path stroke="null" id="svg_305" d="m159.93362,247.16046c-1.45863,0 -2.6433,-1.1643 -2.6433,-2.61418l0,-13.75192c0,-1.44988 1.18467,-2.61418 2.6433,-2.61418c1.46603,0 2.6433,1.1643 2.6433,2.61418l0,13.75192c0.01481,1.44988 -1.18467,2.61418 -2.6433,2.61418z" fill="#FFB300" clip-rule="evenodd" fill-rule="evenodd"/>
    </g>
    <g stroke="null" id="svg_306">
     <path stroke="null" id="svg_307" d="m117.32237,131.68973c-0.68119,0 -1.35497,-0.26362 -1.87327,-0.7762l-9.82539,-9.71714c-1.02919,-1.01785 -1.02919,-2.68741 0,-3.70526c1.03659,-1.02517 2.71735,-1.02517 3.74653,0l9.82539,9.71714c1.03659,1.01785 1.03659,2.68741 0,3.70526c-0.50349,0.51258 -1.18467,0.7762 -1.87327,0.7762z" fill="#FFB300" clip-rule="evenodd" fill-rule="evenodd"/>
    </g>
    <g stroke="null" id="svg_308">
     <path stroke="null" id="svg_309" d="m212.37766,225.69047c-0.68119,0 -1.34757,-0.26362 -1.87327,-0.7762l-9.81799,-9.71714c-1.02919,-1.01785 -1.02919,-2.68741 0,-3.70526c1.02919,-1.01785 2.70994,-1.01785 3.74653,0l9.82539,9.71714c1.02919,1.01785 1.02919,2.68741 0,3.70526c-0.5331,0.51991 -1.19948,0.7762 -1.88067,0.7762z" fill="#FFB300" clip-rule="evenodd" fill-rule="evenodd"/>
    </g>
   </g>
   <g stroke="null" id="svg_310">
    <path stroke="null" id="svg_311" d="m166.90098,165.89379c-0.68119,0 -1.34757,-0.26362 -1.87327,-0.7762c-1.02919,-1.01785 -1.02919,-2.68741 0,-3.70526l14.97872,-14.8137c1.03659,-1.02517 2.71735,-1.02517 3.74653,0c1.02919,1.01785 1.02919,2.68741 0,3.70526l-14.97872,14.8137c-0.51829,0.51258 -1.19208,0.7762 -1.87327,0.7762z" fill="#FFB300" clip-rule="evenodd" fill-rule="evenodd"/>
   </g>
   <g stroke="null" id="svg_312">
    <path stroke="null" id="svg_313" d="m145.11039,187.45164c-0.68119,0 -1.35497,-0.26362 -1.87327,-0.7762c-1.02919,-1.01785 -1.02919,-2.68009 0,-3.70526l6.80447,-6.72951c1.02919,-1.02517 2.71735,-1.02517 3.74653,0c1.02919,1.01785 1.02919,2.68741 0,3.70526l-6.80447,6.72951c-0.5257,0.51991 -1.20689,0.7762 -1.87327,0.7762z" fill="#FFB300" clip-rule="evenodd" fill-rule="evenodd"/>
   </g>
   <g stroke="null" id="svg_314">
    <path stroke="null" id="svg_315" d="m159.93362,247.16046c-42.3521,0 -76.7965,-34.07957 -76.7965,-75.95043c0,-41.87086 34.45921,-75.95043 76.7965,-75.95043s76.7965,34.07957 76.7965,75.95043c0.0074,41.87086 -34.43699,75.95043 -76.7965,75.95043l0,0zm0,-146.6725c-39.42743,0 -71.50989,31.729 -71.50989,70.72207c0,38.99306 32.08245,70.72207 71.50989,70.72207s71.50989,-31.729 71.50989,-70.72207c0,-38.99306 -32.08245,-70.72207 -71.50989,-70.72207z" clip-rule="evenodd" fill-rule="evenodd"/>
   </g>
   <g stroke="null" id="svg_316">
    <path stroke="null" id="svg_317" d="m159.93362,268.1325c-54.02854,0 -98.00216,-43.47452 -98.00216,-96.92247s43.95881,-96.92247 98.00216,-96.92247s98.00216,43.47452 98.00216,96.92247s-43.96622,96.92247 -98.00216,96.92247l0,0zm0,-188.59462c-51.10388,0 -92.70075,41.12395 -92.70075,91.67214c0,50.54819 41.58946,91.67946 92.70075,91.67946c51.11128,0 92.70075,-41.13127 92.70075,-91.67946c0,-50.54819 -41.57466,-91.67214 -92.70075,-91.67214z" clip-rule="evenodd" fill-rule="evenodd"/>
   </g>
   <path stroke="null" id="svg_318" d="m159.40792,183.77568c-3.39853,0 -6.78226,-1.27414 -9.36633,-3.82974c-5.16074,-5.10388 -5.16074,-13.4224 0,-18.52628c5.16074,-5.10388 13.57192,-5.10388 18.73266,0l0,0c5.16074,5.10388 5.16074,13.41508 0,18.52628c-2.58407,2.54828 -5.9752,3.82974 -9.36633,3.82974z" fill="#FFB300" clip-rule="evenodd" fill-rule="evenodd"/>
   <g stroke="null" id="svg_319">
    <path stroke="null" id="svg_320" d="m170.54386,80.11637c-1.45863,0 -2.6433,-1.17162 -2.6433,-2.61418l0,-19.44161l-15.90425,0l0,19.44161c0,1.44256 -1.17727,2.61418 -2.6433,2.61418c-1.46603,0 -2.6433,-1.17162 -2.6433,-2.61418l0,-22.05579c0,-1.44256 1.17727,-2.61418 2.6433,-2.61418l21.18345,0c1.46603,0 2.6433,1.17162 2.6433,2.61418l0,22.07044c0.0074,1.42791 -1.18467,2.59954 -2.6359,2.59954z" clip-rule="evenodd" fill-rule="evenodd"/>
   </g>
   <g stroke="null" id="svg_321">
    <path stroke="null" id="svg_322" d="m99.02656,55.43175l-39.7162,0c-1.46603,0 -2.6433,-1.1643 -2.6433,-2.61418c0,-1.44256 1.17727,-2.61418 2.6433,-2.61418l39.7162,0c1.46603,0 2.6433,1.17162 2.6433,2.61418c0.0074,1.44256 -1.18467,2.61418 -2.6433,2.61418z" fill="#666666" clip-rule="evenodd" fill-rule="evenodd"/>
   </g>
   <g stroke="null" id="svg_323">
    <path stroke="null" id="svg_324" d="m104.32058,68.53928l-55.62045,0c-1.46603,0 -2.6433,-1.1643 -2.6433,-2.61418c0,-1.44256 1.17727,-2.61418 2.6433,-2.61418l55.61304,-0.00732c1.45863,0 2.6433,1.17162 2.6433,2.61418c0.02221,1.44256 -1.18467,2.62151 -2.6359,2.62151z" fill="#666666" clip-rule="evenodd" fill-rule="evenodd"/>
   </g>
   <g stroke="null" id="svg_325">
    <path stroke="null" id="svg_326" d="m88.43113,81.62484l-47.66832,0c-1.45863,0 -2.6433,-1.1643 -2.6433,-2.61418c0,-1.44988 1.18467,-2.61418 2.6433,-2.61418l47.66832,0c1.45863,0 2.6433,1.1643 2.6433,2.61418c0,1.44988 -1.17727,2.61418 -2.6433,2.61418z" fill="#666666" clip-rule="evenodd" fill-rule="evenodd"/>
   </g>
   <g stroke="null" id="svg_327">
    <path stroke="null" id="svg_328" d="m72.54169,94.71772l-23.84157,0c-1.46603,0 -2.6433,-1.17162 -2.6433,-2.61418c0,-1.44988 1.17727,-2.61418 2.6433,-2.61418l23.84157,0c1.45863,0 2.6433,1.1643 2.6433,2.61418c0,1.44256 -1.18467,2.61418 -2.6433,2.61418z" fill="#666666" clip-rule="evenodd" fill-rule="evenodd"/>
   </g>
   <g stroke="null" id="svg_329">
    <path stroke="null" id="svg_330" d="m244.69705,79.01798c-11.67644,0 -21.17605,-9.40227 -21.17605,-20.95008s9.49961,-20.95008 21.17605,-20.95008c11.67644,0 21.18345,9.40227 21.18345,20.95008c-0.0074,11.54048 -9.50701,20.95008 -21.18345,20.95008l0,0zm0,-36.67911c-8.76659,0 -15.88944,7.04438 -15.88944,15.72171c0,8.67001 7.12285,15.72171 15.88944,15.72171c8.76659,0 15.89685,-7.0517 15.89685,-15.72171c-0.02221,-8.67001 -7.14507,-15.72171 -15.89685,-15.72171z" fill="#FFB300" clip-rule="evenodd" fill-rule="evenodd"/>
   </g>
   <g stroke="null" id="svg_331">
    <path stroke="null" id="svg_332" d="m61.95367,257.11925c-7.30796,0 -13.23873,-5.88008 -13.23873,-13.09288c0,-7.20548 5.94558,-13.08556 13.23873,-13.08556c7.30796,0 13.23133,5.88008 13.23133,13.08556c0,7.2128 -5.94558,13.09288 -13.23133,13.09288l0,0zm0,-20.95008c-4.3907,0 -7.94472,3.52219 -7.94472,7.85719s3.56883,7.85719 7.94472,7.85719c4.38329,0 7.94472,-3.52951 7.94472,-7.85719s-3.57623,-7.85719 -7.94472,-7.85719z" fill="#666666" clip-rule="evenodd" fill-rule="evenodd"/>
   </g>
   <path stroke="null" id="svg_333" d="m189.0766,58.05326l-58.26375,0c-1.46603,0 -2.6433,-1.1643 -2.6433,-2.61418l0,-20.95008c0,-1.44256 1.17727,-2.61418 2.6433,-2.61418l58.26375,-0.00732c1.46603,0 2.6433,1.1643 2.6433,2.61418l0,20.94275c0,1.44988 -1.17727,2.62883 -2.6433,2.62883z" clip-rule="evenodd" fill-rule="evenodd"/>
  </g>
  <path id="svg_650" d="m-140.001,308.157c0.504,-0.084 1.164,-0.155 2.003,-0.155c1.032,0 1.787,0.239 2.268,0.672c0.443,0.383 0.707,0.971 0.707,1.69c0,0.732 -0.216,1.308 -0.624,1.728c-0.551,0.587 -1.451,0.887 -2.47,0.887c-0.313,0 -0.601,-0.012 -0.84,-0.072l0,3.238l-1.044,0l0,-7.988zm1.044,3.897c0.228,0.06 0.516,0.084 0.863,0.084c1.26,0 2.027,-0.611 2.027,-1.727c0,-1.067 -0.756,-1.583 -1.907,-1.583c-0.456,0 -0.804,0.036 -0.983,0.084l0,3.142z" fill="#6D6E71"/>
  <path id="svg_651" d="m-133.844,312.151c0,-0.684 -0.013,-1.271 -0.049,-1.811l0.924,0l0.036,1.14l0.048,0c0.264,-0.779 0.899,-1.27 1.607,-1.27c0.12,0 0.203,0.012 0.3,0.035l0,0.996c-0.108,-0.024 -0.216,-0.037 -0.36,-0.037c-0.743,0 -1.271,0.565 -1.415,1.355c-0.023,0.145 -0.048,0.313 -0.048,0.492l0,3.094l-1.043,0l0,-3.994z" fill="#6D6E71"/>
  <text id="svg_731" font-size="2.0198" font-family="'Arial-BoldMT'" fill="#666666" transform="matrix(1,0,0,1,201.6066,233.7194) "/>
  <g id="svg_1101">
   <g id="svg_1102">
    <path id="svg_1103" d="m-21.123,-185.963l-0.591,0c-0.13,0 -0.236,-0.105 -0.236,-0.236c0,-0.13 0.105,-0.236 0.236,-0.236l0.591,0c0.13,0 0.236,0.105 0.236,0.236c0,0.13 -0.105,0.236 -0.236,0.236z" fill="#666666"/>
   </g>
   <g id="svg_1104">
    <path id="svg_1105" d="m0.904,-185.963l-21.32,0c-0.13,0 -0.236,-0.105 -0.236,-0.236c0,-0.13 0.105,-0.236 0.236,-0.236l21.32,0c0.13,0 0.236,0.105 0.236,0.236c0,0.13 -0.105,0.236 -0.236,0.236z" fill="#666666"/>
   </g>
  </g>
  <g id="svg_1256">
   <g id="svg_1257">
    <path id="svg_1258" d="m262.884,287.809l-9.552,0c-0.06,0 -0.108,-0.048 -0.108,-0.108s0.048,-0.108 0.108,-0.108l9.552,0c0.06,0 0.108,0.048 0.108,0.108s-0.048,0.108 -0.108,0.108z" fill="#666666"/>
   </g>
   <g id="svg_1259">
    <path id="svg_1260" d="m263.694,287.809l-0.394,0c-0.06,0 -0.108,-0.048 -0.108,-0.108s0.048,-0.108 0.108,-0.108l0.395,0c0.06,0 0.108,0.048 0.108,0.108s-0.049,0.108 -0.109,0.108z" fill="#666666"/>
   </g>
  </g>
  <path id="svg_1369" d="m20.867,-132.727l-0.796,0l0,-0.287l1.938,0l0,0.287l-0.8,0l0,2.33l-0.342,0l0,-2.33z" fill="#6D6E71"/>
  <path id="svg_1370" d="m22.624,-132.805c0.004,0.117 -0.082,0.21 -0.218,0.21c-0.12,0 -0.206,-0.093 -0.206,-0.21c0,-0.12 0.089,-0.213 0.214,-0.213c0.128,0 0.21,0.093 0.21,0.213zm-0.38,2.408l0,-1.88l0.342,0l0,1.88l-0.342,0z" fill="#6D6E71"/>
  <path id="svg_1371" d="m23.153,-131.768c0,-0.194 -0.004,-0.353 -0.016,-0.508l0.299,0l0.015,0.303l0.012,0c0.105,-0.179 0.28,-0.346 0.59,-0.346c0.256,0 0.45,0.155 0.532,0.377l0.008,0c0.058,-0.105 0.132,-0.187 0.21,-0.245c0.113,-0.085 0.237,-0.132 0.416,-0.132c0.249,0 0.618,0.163 0.618,0.816l0,1.107l-0.334,0l0,-1.064c0,-0.361 -0.132,-0.579 -0.408,-0.579c-0.194,0 -0.346,0.144 -0.404,0.311c-0.015,0.047 -0.027,0.109 -0.027,0.171l0,1.161l-0.334,0l0,-1.126c0,-0.299 -0.132,-0.516 -0.392,-0.516c-0.213,0 -0.369,0.171 -0.423,0.342c-0.02,0.05 -0.027,0.108 -0.027,0.167l0,1.134l-0.334,0l0,-1.373l-0.001,0z" fill="#6D6E71"/>
  <path id="svg_1372" d="m26.583,-131.274c0.008,0.462 0.303,0.652 0.645,0.652c0.245,0 0.392,-0.043 0.52,-0.097l0.058,0.245c-0.12,0.054 -0.326,0.117 -0.625,0.117c-0.579,0 -0.924,-0.381 -0.924,-0.948c0,-0.567 0.334,-1.013 0.882,-1.013c0.613,0 0.777,0.54 0.777,0.885c0,0.07 -0.008,0.124 -0.012,0.159l-1.321,0zm1.003,-0.245c0.004,-0.217 -0.089,-0.555 -0.474,-0.555c-0.346,0 -0.497,0.318 -0.524,0.555l0.998,0z" fill="#6D6E71"/>
  <path id="svg_1373" d="m31.381,-131.546c-0.019,-0.365 -0.043,-0.804 -0.039,-1.13l-0.012,0c-0.089,0.307 -0.198,0.633 -0.33,0.994l-0.462,1.27l-0.256,0l-0.423,-1.247c-0.124,-0.369 -0.229,-0.707 -0.303,-1.017l-0.008,0c-0.008,0.326 -0.027,0.765 -0.05,1.157l-0.07,1.123l-0.323,0l0.183,-2.618l0.431,0l0.447,1.266c0.109,0.322 0.198,0.61 0.264,0.882l0.012,0c0.066,-0.264 0.159,-0.551 0.276,-0.882l0.466,-1.266l0.431,0l0.163,2.618l-0.33,0l-0.067,-1.15z" fill="#6D6E71"/>
  <path id="svg_1374" d="m33.352,-130.397l-0.027,-0.237l-0.012,0c-0.105,0.147 -0.307,0.28 -0.575,0.28c-0.38,0 -0.575,-0.268 -0.575,-0.54c0,-0.454 0.404,-0.703 1.13,-0.699l0,-0.039c0,-0.155 -0.043,-0.435 -0.427,-0.435c-0.175,0 -0.357,0.054 -0.49,0.14l-0.077,-0.225c0.155,-0.101 0.38,-0.167 0.617,-0.167c0.575,0 0.715,0.392 0.715,0.769l0,0.703c0,0.163 0.008,0.322 0.031,0.451l-0.31,0l0,-0.001zm-0.051,-0.959c-0.373,-0.008 -0.796,0.058 -0.796,0.423c0,0.221 0.147,0.326 0.322,0.326c0.245,0 0.4,-0.156 0.454,-0.315c0.012,-0.035 0.019,-0.074 0.019,-0.109l0,-0.325l0.001,0z" fill="#6D6E71"/>
  <path id="svg_1375" d="m34.184,-131.768c0,-0.194 -0.004,-0.353 -0.016,-0.508l0.303,0l0.02,0.311l0.008,0c0.093,-0.179 0.311,-0.353 0.621,-0.353c0.26,0 0.664,0.155 0.664,0.8l0,1.123l-0.342,0l0,-1.084c0,-0.303 -0.113,-0.555 -0.435,-0.555c-0.225,0 -0.4,0.159 -0.458,0.349c-0.015,0.043 -0.023,0.101 -0.023,0.159l0,1.13l-0.342,0l0,-1.372z" fill="#6D6E71"/>
  <path id="svg_1376" d="m37.381,-130.397l-0.027,-0.237l-0.012,0c-0.105,0.147 -0.307,0.28 -0.575,0.28c-0.38,0 -0.575,-0.268 -0.575,-0.54c0,-0.454 0.404,-0.703 1.13,-0.699l0,-0.039c0,-0.155 -0.043,-0.435 -0.427,-0.435c-0.175,0 -0.357,0.054 -0.49,0.14l-0.077,-0.225c0.155,-0.101 0.38,-0.167 0.617,-0.167c0.575,0 0.715,0.392 0.715,0.769l0,0.703c0,0.163 0.008,0.322 0.031,0.451l-0.31,0l0,-0.001zm-0.05,-0.959c-0.373,-0.008 -0.796,0.058 -0.796,0.423c0,0.221 0.147,0.326 0.322,0.326c0.245,0 0.4,-0.156 0.454,-0.315c0.012,-0.035 0.019,-0.074 0.019,-0.109l0,-0.325l0.001,0z" fill="#6D6E71"/>
  <path id="svg_1377" d="m39.833,-132.276c-0.008,0.136 -0.015,0.287 -0.015,0.516l0,1.091c0,0.431 -0.085,0.695 -0.268,0.858c-0.182,0.171 -0.447,0.225 -0.683,0.225c-0.225,0 -0.474,-0.054 -0.625,-0.155l0.085,-0.26c0.124,0.077 0.318,0.147 0.551,0.147c0.349,0 0.606,-0.182 0.606,-0.656l0,-0.21l-0.008,0c-0.105,0.175 -0.307,0.315 -0.598,0.315c-0.466,0 -0.8,-0.396 -0.8,-0.916c0,-0.637 0.416,-0.998 0.847,-0.998c0.326,0 0.505,0.171 0.586,0.326l0.008,0l0.015,-0.283l0.299,0zm-0.354,0.741c0,-0.058 -0.004,-0.109 -0.019,-0.155c-0.062,-0.198 -0.229,-0.361 -0.478,-0.361c-0.326,0 -0.559,0.276 -0.559,0.711c0,0.369 0.186,0.676 0.555,0.676c0.21,0 0.4,-0.132 0.474,-0.349c0.02,-0.058 0.027,-0.124 0.027,-0.182l0,-0.34z" fill="#6D6E71"/>
  <path id="svg_1378" d="m40.576,-131.274c0.008,0.462 0.303,0.652 0.645,0.652c0.245,0 0.392,-0.043 0.52,-0.097l0.058,0.245c-0.12,0.054 -0.326,0.117 -0.625,0.117c-0.579,0 -0.924,-0.381 -0.924,-0.948c0,-0.567 0.334,-1.013 0.882,-1.013c0.613,0 0.777,0.54 0.777,0.885c0,0.07 -0.008,0.124 -0.012,0.159l-1.321,0zm1.002,-0.245c0.004,-0.217 -0.089,-0.555 -0.474,-0.555c-0.346,0 -0.497,0.318 -0.524,0.555l0.998,0z" fill="#6D6E71"/>
  <path id="svg_1379" d="m42.332,-131.768c0,-0.194 -0.004,-0.353 -0.016,-0.508l0.299,0l0.015,0.303l0.012,0c0.105,-0.179 0.28,-0.346 0.59,-0.346c0.256,0 0.45,0.155 0.532,0.377l0.008,0c0.058,-0.105 0.132,-0.187 0.21,-0.245c0.113,-0.085 0.237,-0.132 0.416,-0.132c0.249,0 0.618,0.163 0.618,0.816l0,1.107l-0.334,0l0,-1.064c0,-0.361 -0.132,-0.579 -0.408,-0.579c-0.194,0 -0.346,0.144 -0.404,0.311c-0.015,0.047 -0.027,0.109 -0.027,0.171l0,1.161l-0.334,0l0,-1.126c0,-0.299 -0.132,-0.516 -0.392,-0.516c-0.213,0 -0.369,0.171 -0.423,0.342c-0.02,0.05 -0.027,0.108 -0.027,0.167l0,1.134l-0.334,0l0,-1.373l-0.001,0z" fill="#6D6E71"/>
  <path id="svg_1380" d="m45.763,-131.274c0.008,0.462 0.303,0.652 0.645,0.652c0.245,0 0.392,-0.043 0.52,-0.097l0.058,0.245c-0.12,0.054 -0.326,0.117 -0.625,0.117c-0.579,0 -0.924,-0.381 -0.924,-0.948c0,-0.567 0.334,-1.013 0.882,-1.013c0.613,0 0.777,0.54 0.777,0.885c0,0.07 -0.008,0.124 -0.012,0.159l-1.321,0zm1.002,-0.245c0.004,-0.217 -0.089,-0.555 -0.474,-0.555c-0.346,0 -0.497,0.318 -0.524,0.555l0.998,0z" fill="#6D6E71"/>
  <path id="svg_1381" d="m47.52,-131.768c0,-0.194 -0.004,-0.353 -0.016,-0.508l0.303,0l0.02,0.311l0.008,0c0.093,-0.179 0.311,-0.353 0.621,-0.353c0.26,0 0.664,0.155 0.664,0.8l0,1.123l-0.342,0l0,-1.084c0,-0.303 -0.113,-0.555 -0.435,-0.555c-0.225,0 -0.4,0.159 -0.458,0.349c-0.015,0.043 -0.023,0.101 -0.023,0.159l0,1.13l-0.342,0l0,-1.372z" fill="#6D6E71"/>
  <path id="svg_1382" d="m50.072,-132.816l0,0.54l0.49,0l0,0.26l-0.49,0l0,1.014c0,0.233 0.066,0.365 0.256,0.365c0.089,0 0.155,-0.012 0.198,-0.023l0.015,0.256c-0.066,0.027 -0.171,0.047 -0.303,0.047c-0.159,0 -0.287,-0.051 -0.369,-0.144c-0.097,-0.101 -0.132,-0.268 -0.132,-0.489l0,-1.025l-0.291,0l0,-0.26l0.291,0l0,-0.451l0.335,-0.09z" fill="#6D6E71"/>
 </g>
</svg>