<svg width="300" height="300" xmlns="http://www.w3.org/2000/svg">

 <g>
  <title>background</title>
  <rect fill="none" id="canvas_background" height="302" width="302" y="-1" x="-1"/>
 </g>
 <g>
  <title>Layer 1</title>
  <path id="svg_427" d="m380.345,117.284l-2.237,0c-0.21,0 -0.379,0.17 -0.379,0.379c0,0.21 0.17,0.379 0.379,0.379l2.237,0c0.21,0 0.379,-0.17 0.379,-0.379c0,-0.209 -0.17,-0.379 -0.379,-0.379z"/>
  <path id="svg_650" d="m-140.001,308.157c0.504,-0.084 1.164,-0.155 2.003,-0.155c1.032,0 1.787,0.239 2.268,0.672c0.443,0.383 0.707,0.971 0.707,1.69c0,0.732 -0.216,1.308 -0.624,1.728c-0.551,0.587 -1.451,0.887 -2.47,0.887c-0.313,0 -0.601,-0.012 -0.84,-0.072l0,3.238l-1.044,0l0,-7.988zm1.044,3.897c0.228,0.06 0.516,0.084 0.863,0.084c1.26,0 2.027,-0.611 2.027,-1.727c0,-1.067 -0.756,-1.583 -1.907,-1.583c-0.456,0 -0.804,0.036 -0.983,0.084l0,3.142z" fill="#6D6E71"/>
  <path id="svg_651" d="m-133.844,312.151c0,-0.684 -0.013,-1.271 -0.049,-1.811l0.924,0l0.036,1.14l0.048,0c0.264,-0.779 0.899,-1.27 1.607,-1.27c0.12,0 0.203,0.012 0.3,0.035l0,0.996c-0.108,-0.024 -0.216,-0.037 -0.36,-0.037c-0.743,0 -1.271,0.565 -1.415,1.355c-0.023,0.145 -0.048,0.313 -0.048,0.492l0,3.094l-1.043,0l0,-3.994z" fill="#6D6E71"/>
  <g id="svg_1101">
   <g id="svg_1102">
    <path id="svg_1103" d="m-21.123,-185.963l-0.591,0c-0.13,0 -0.236,-0.105 -0.236,-0.236c0,-0.13 0.105,-0.236 0.236,-0.236l0.591,0c0.13,0 0.236,0.105 0.236,0.236c0,0.13 -0.105,0.236 -0.236,0.236z" fill="#666666"/>
   </g>
   <g id="svg_1104">
    <path id="svg_1105" d="m0.904,-185.963l-21.32,0c-0.13,0 -0.236,-0.105 -0.236,-0.236c0,-0.13 0.105,-0.236 0.236,-0.236l21.32,0c0.13,0 0.236,0.105 0.236,0.236c0,0.13 -0.105,0.236 -0.236,0.236z" fill="#666666"/>
   </g>
  </g>
  <g id="svg_1256">
   <g id="svg_1257">
    <path id="svg_1258" d="m262.884,287.809l-9.552,0c-0.06,0 -0.108,-0.048 -0.108,-0.108s0.048,-0.108 0.108,-0.108l9.552,0c0.06,0 0.108,0.048 0.108,0.108s-0.048,0.108 -0.108,0.108z" fill="#666666"/>
   </g>
   <g id="svg_1259">
    <path id="svg_1260" d="m263.694,287.809l-0.394,0c-0.06,0 -0.108,-0.048 -0.108,-0.108s0.048,-0.108 0.108,-0.108l0.395,0c0.06,0 0.108,0.048 0.108,0.108s-0.049,0.108 -0.109,0.108z" fill="#666666"/>
   </g>
  </g>
  <g id="svg_1346">
   <circle id="svg_1347" r="0.339" cy="282.064" cx="152.962" fill="#41A700"/>
  </g>
  <path id="svg_1369" d="m20.867,-132.727l-0.796,0l0,-0.287l1.938,0l0,0.287l-0.8,0l0,2.33l-0.342,0l0,-2.33z" fill="#6D6E71"/>
  <path id="svg_1370" d="m22.624,-132.805c0.004,0.117 -0.082,0.21 -0.218,0.21c-0.12,0 -0.206,-0.093 -0.206,-0.21c0,-0.12 0.089,-0.213 0.214,-0.213c0.128,0 0.21,0.093 0.21,0.213zm-0.38,2.408l0,-1.88l0.342,0l0,1.88l-0.342,0z" fill="#6D6E71"/>
  <path id="svg_1371" d="m23.153,-131.768c0,-0.194 -0.004,-0.353 -0.016,-0.508l0.299,0l0.015,0.303l0.012,0c0.105,-0.179 0.28,-0.346 0.59,-0.346c0.256,0 0.45,0.155 0.532,0.377l0.008,0c0.058,-0.105 0.132,-0.187 0.21,-0.245c0.113,-0.085 0.237,-0.132 0.416,-0.132c0.249,0 0.618,0.163 0.618,0.816l0,1.107l-0.334,0l0,-1.064c0,-0.361 -0.132,-0.579 -0.408,-0.579c-0.194,0 -0.346,0.144 -0.404,0.311c-0.015,0.047 -0.027,0.109 -0.027,0.171l0,1.161l-0.334,0l0,-1.126c0,-0.299 -0.132,-0.516 -0.392,-0.516c-0.213,0 -0.369,0.171 -0.423,0.342c-0.02,0.05 -0.027,0.108 -0.027,0.167l0,1.134l-0.334,0l0,-1.373l-0.001,0z" fill="#6D6E71"/>
  <path id="svg_1372" d="m26.583,-131.274c0.008,0.462 0.303,0.652 0.645,0.652c0.245,0 0.392,-0.043 0.52,-0.097l0.058,0.245c-0.12,0.054 -0.326,0.117 -0.625,0.117c-0.579,0 -0.924,-0.381 -0.924,-0.948c0,-0.567 0.334,-1.013 0.882,-1.013c0.613,0 0.777,0.54 0.777,0.885c0,0.07 -0.008,0.124 -0.012,0.159l-1.321,0zm1.003,-0.245c0.004,-0.217 -0.089,-0.555 -0.474,-0.555c-0.346,0 -0.497,0.318 -0.524,0.555l0.998,0z" fill="#6D6E71"/>
  <path id="svg_1373" d="m31.381,-131.546c-0.019,-0.365 -0.043,-0.804 -0.039,-1.13l-0.012,0c-0.089,0.307 -0.198,0.633 -0.33,0.994l-0.462,1.27l-0.256,0l-0.423,-1.247c-0.124,-0.369 -0.229,-0.707 -0.303,-1.017l-0.008,0c-0.008,0.326 -0.027,0.765 -0.05,1.157l-0.07,1.123l-0.323,0l0.183,-2.618l0.431,0l0.447,1.266c0.109,0.322 0.198,0.61 0.264,0.882l0.012,0c0.066,-0.264 0.159,-0.551 0.276,-0.882l0.466,-1.266l0.431,0l0.163,2.618l-0.33,0l-0.067,-1.15z" fill="#6D6E71"/>
  <path id="svg_1374" d="m33.352,-130.397l-0.027,-0.237l-0.012,0c-0.105,0.147 -0.307,0.28 -0.575,0.28c-0.38,0 -0.575,-0.268 -0.575,-0.54c0,-0.454 0.404,-0.703 1.13,-0.699l0,-0.039c0,-0.155 -0.043,-0.435 -0.427,-0.435c-0.175,0 -0.357,0.054 -0.49,0.14l-0.077,-0.225c0.155,-0.101 0.38,-0.167 0.617,-0.167c0.575,0 0.715,0.392 0.715,0.769l0,0.703c0,0.163 0.008,0.322 0.031,0.451l-0.31,0l0,-0.001zm-0.051,-0.959c-0.373,-0.008 -0.796,0.058 -0.796,0.423c0,0.221 0.147,0.326 0.322,0.326c0.245,0 0.4,-0.156 0.454,-0.315c0.012,-0.035 0.019,-0.074 0.019,-0.109l0,-0.325l0.001,0z" fill="#6D6E71"/>
  <path id="svg_1375" d="m34.184,-131.768c0,-0.194 -0.004,-0.353 -0.016,-0.508l0.303,0l0.02,0.311l0.008,0c0.093,-0.179 0.311,-0.353 0.621,-0.353c0.26,0 0.664,0.155 0.664,0.8l0,1.123l-0.342,0l0,-1.084c0,-0.303 -0.113,-0.555 -0.435,-0.555c-0.225,0 -0.4,0.159 -0.458,0.349c-0.015,0.043 -0.023,0.101 -0.023,0.159l0,1.13l-0.342,0l0,-1.372z" fill="#6D6E71"/>
  <path id="svg_1376" d="m37.381,-130.397l-0.027,-0.237l-0.012,0c-0.105,0.147 -0.307,0.28 -0.575,0.28c-0.38,0 -0.575,-0.268 -0.575,-0.54c0,-0.454 0.404,-0.703 1.13,-0.699l0,-0.039c0,-0.155 -0.043,-0.435 -0.427,-0.435c-0.175,0 -0.357,0.054 -0.49,0.14l-0.077,-0.225c0.155,-0.101 0.38,-0.167 0.617,-0.167c0.575,0 0.715,0.392 0.715,0.769l0,0.703c0,0.163 0.008,0.322 0.031,0.451l-0.31,0l0,-0.001zm-0.05,-0.959c-0.373,-0.008 -0.796,0.058 -0.796,0.423c0,0.221 0.147,0.326 0.322,0.326c0.245,0 0.4,-0.156 0.454,-0.315c0.012,-0.035 0.019,-0.074 0.019,-0.109l0,-0.325l0.001,0z" fill="#6D6E71"/>
  <path id="svg_1377" d="m39.833,-132.276c-0.008,0.136 -0.015,0.287 -0.015,0.516l0,1.091c0,0.431 -0.085,0.695 -0.268,0.858c-0.182,0.171 -0.447,0.225 -0.683,0.225c-0.225,0 -0.474,-0.054 -0.625,-0.155l0.085,-0.26c0.124,0.077 0.318,0.147 0.551,0.147c0.349,0 0.606,-0.182 0.606,-0.656l0,-0.21l-0.008,0c-0.105,0.175 -0.307,0.315 -0.598,0.315c-0.466,0 -0.8,-0.396 -0.8,-0.916c0,-0.637 0.416,-0.998 0.847,-0.998c0.326,0 0.505,0.171 0.586,0.326l0.008,0l0.015,-0.283l0.299,0zm-0.354,0.741c0,-0.058 -0.004,-0.109 -0.019,-0.155c-0.062,-0.198 -0.229,-0.361 -0.478,-0.361c-0.326,0 -0.559,0.276 -0.559,0.711c0,0.369 0.186,0.676 0.555,0.676c0.21,0 0.4,-0.132 0.474,-0.349c0.02,-0.058 0.027,-0.124 0.027,-0.182l0,-0.34z" fill="#6D6E71"/>
  <path id="svg_1378" d="m40.576,-131.274c0.008,0.462 0.303,0.652 0.645,0.652c0.245,0 0.392,-0.043 0.52,-0.097l0.058,0.245c-0.12,0.054 -0.326,0.117 -0.625,0.117c-0.579,0 -0.924,-0.381 -0.924,-0.948c0,-0.567 0.334,-1.013 0.882,-1.013c0.613,0 0.777,0.54 0.777,0.885c0,0.07 -0.008,0.124 -0.012,0.159l-1.321,0zm1.002,-0.245c0.004,-0.217 -0.089,-0.555 -0.474,-0.555c-0.346,0 -0.497,0.318 -0.524,0.555l0.998,0z" fill="#6D6E71"/>
  <path id="svg_1379" d="m42.332,-131.768c0,-0.194 -0.004,-0.353 -0.016,-0.508l0.299,0l0.015,0.303l0.012,0c0.105,-0.179 0.28,-0.346 0.59,-0.346c0.256,0 0.45,0.155 0.532,0.377l0.008,0c0.058,-0.105 0.132,-0.187 0.21,-0.245c0.113,-0.085 0.237,-0.132 0.416,-0.132c0.249,0 0.618,0.163 0.618,0.816l0,1.107l-0.334,0l0,-1.064c0,-0.361 -0.132,-0.579 -0.408,-0.579c-0.194,0 -0.346,0.144 -0.404,0.311c-0.015,0.047 -0.027,0.109 -0.027,0.171l0,1.161l-0.334,0l0,-1.126c0,-0.299 -0.132,-0.516 -0.392,-0.516c-0.213,0 -0.369,0.171 -0.423,0.342c-0.02,0.05 -0.027,0.108 -0.027,0.167l0,1.134l-0.334,0l0,-1.373l-0.001,0z" fill="#6D6E71"/>
  <path id="svg_1380" d="m45.763,-131.274c0.008,0.462 0.303,0.652 0.645,0.652c0.245,0 0.392,-0.043 0.52,-0.097l0.058,0.245c-0.12,0.054 -0.326,0.117 -0.625,0.117c-0.579,0 -0.924,-0.381 -0.924,-0.948c0,-0.567 0.334,-1.013 0.882,-1.013c0.613,0 0.777,0.54 0.777,0.885c0,0.07 -0.008,0.124 -0.012,0.159l-1.321,0zm1.002,-0.245c0.004,-0.217 -0.089,-0.555 -0.474,-0.555c-0.346,0 -0.497,0.318 -0.524,0.555l0.998,0z" fill="#6D6E71"/>
  <path id="svg_1381" d="m47.52,-131.768c0,-0.194 -0.004,-0.353 -0.016,-0.508l0.303,0l0.02,0.311l0.008,0c0.093,-0.179 0.311,-0.353 0.621,-0.353c0.26,0 0.664,0.155 0.664,0.8l0,1.123l-0.342,0l0,-1.084c0,-0.303 -0.113,-0.555 -0.435,-0.555c-0.225,0 -0.4,0.159 -0.458,0.349c-0.015,0.043 -0.023,0.101 -0.023,0.159l0,1.13l-0.342,0l0,-1.372z" fill="#6D6E71"/>
  <path id="svg_1382" d="m50.072,-132.816l0,0.54l0.49,0l0,0.26l-0.49,0l0,1.014c0,0.233 0.066,0.365 0.256,0.365c0.089,0 0.155,-0.012 0.198,-0.023l0.015,0.256c-0.066,0.027 -0.171,0.047 -0.303,0.047c-0.159,0 -0.287,-0.051 -0.369,-0.144c-0.097,-0.101 -0.132,-0.268 -0.132,-0.489l0,-1.025l-0.291,0l0,-0.26l0.291,0l0,-0.451l0.335,-0.09z" fill="#6D6E71"/>
  <path id="svg_1592" d="m380.755,205.561l-1.795,0c-0.168,0 -0.304,0.136 -0.304,0.304c0,0.168 0.136,0.304 0.304,0.304l1.795,0c0.168,0 0.304,-0.136 0.304,-0.304c0.001,-0.168 -0.135,-0.304 -0.304,-0.304z"/>
  <g stroke="null" id="svg_1624">
   <path stroke="null" id="svg_235" d="m152.97168,145.02625c-7.60185,0 -13.78511,-6.09649 -13.78511,-13.59168c0,-7.51039 6.18325,-13.62969 13.78511,-13.62969c7.62498,0 13.82366,6.11169 13.82366,13.62969c0,7.50279 -6.19867,13.59168 -13.82366,13.59168z" fill="#FFB300" clip-rule="evenodd" fill-rule="evenodd"/>
   <path stroke="null" id="svg_236" d="m178.98452,134.45241c-1.68073,0 -3.04537,-1.33788 -3.04537,-2.99503c0,-12.49705 -10.3157,-22.6604 -22.98289,-22.6604c-1.68073,0 -3.04537,-1.33788 -3.04537,-2.99503c0,-1.65715 1.35692,-2.99503 3.04537,-2.99503c16.02866,0 29.06591,12.85432 29.06591,28.65807c0,1.64955 -1.35692,2.98743 -3.03766,2.98743z" fill="#FFB300" clip-rule="evenodd" fill-rule="evenodd"/>
   <path stroke="null" id="svg_237" d="m152.96397,160.06224c-16.00553,0 -29.01195,-12.83912 -29.01195,-28.60486c0,-1.65715 1.35692,-3.00264 3.03766,-3.00264c1.68073,0 3.04537,1.34549 3.04537,3.00264c0,12.45904 10.27715,22.59199 22.9135,22.59199c1.68073,0 3.03766,1.33788 3.03766,3.00264c0.02313,1.64955 -1.34921,3.01024 -3.02224,3.01024z" fill="#FFB300" clip-rule="evenodd" fill-rule="evenodd"/>
   <path stroke="null" id="svg_238" d="m158.94677,195.71379l-11.91163,0c-1.42631,0 -2.65988,-0.97301 -2.97598,-2.3565l-3.55421,-15.71253c-4.14787,-1.09463 -8.10299,-2.69857 -11.81911,-4.83462l-13.82366,8.62023c-1.19502,0.75256 -2.77552,0.58532 -3.7778,-0.41049l-8.4268,-8.30856c-1.00227,-0.98821 -1.18731,-2.54654 -0.41633,-3.72479l8.75061,-13.62969c-2.15874,-3.67918 -3.81635,-7.57881 -4.90343,-11.65327l-15.93614,-3.50434c-1.39547,-0.30406 -2.39004,-1.53553 -2.39004,-2.93422l0,-11.74449c0,-1.4063 0.98685,-2.61495 2.39004,-2.93422l15.93614,-3.50434c1.08708,-4.05166 2.73698,-7.97409 4.90343,-11.65327l-8.75061,-13.62969c-0.76327,-1.17825 -0.59365,-2.72898 0.41633,-3.72479l8.4268,-8.30096c1.00227,-0.99581 2.58278,-1.17065 3.79322,-0.41049l13.82366,8.65063c3.67757,-2.11325 7.6404,-3.74759 11.8114,-4.84223l3.55421,-15.71253c0.30839,-1.37589 1.55738,-2.3489 2.97598,-2.3489l11.91163,0c1.4186,0 2.65988,0.97301 2.98369,2.3489l3.55421,15.71253c4.17871,1.10984 8.13383,2.73658 11.81911,4.84223l13.82366,-8.65063c1.19502,-0.75256 2.79094,-0.58532 3.80093,0.41049l8.4268,8.30096c1.00227,0.99581 1.18731,2.54654 0.41633,3.72479l-8.75061,13.62969c2.15874,3.68678 3.79322,7.57881 4.90343,11.65327l15.93614,3.50434c1.39547,0.30406 2.39004,1.53553 2.39004,2.93422l0,11.74449c0,1.3987 -0.98685,2.62256 -2.39004,2.93422l-15.93614,3.50434c-1.11021,4.08967 -2.73698,7.98169 -4.90343,11.65327l8.75061,13.62969c0.76327,1.17825 0.59365,2.73658 -0.41633,3.72479l-8.4268,8.30856c-1.00998,0.98821 -2.58278,1.17065 -3.7778,0.41049l-13.82366,-8.62023c-3.73154,2.12845 -7.68666,3.73999 -11.81911,4.83462l-3.55421,15.71253c-0.35465,1.37589 -1.58822,2.3565 -3.01453,2.3565l0,0zm-9.47533,-6.00527l7.03133,0l3.44628,-15.17281c0.24671,-1.14024 1.14876,-2.02203 2.30523,-2.27288c4.74152,-1.03382 9.26717,-2.88861 13.44588,-5.48836c0.98685,-0.61573 2.25897,-0.61573 3.24582,0l13.35336,8.33897l4.96511,-4.89544l-8.45764,-13.16599c-0.62449,-0.97301 -0.62449,-2.24248 0,-3.22308c2.62904,-4.07446 4.50252,-8.52901 5.57418,-13.24961c0.25442,-1.13264 1.14876,-2.02203 2.30523,-2.26528l15.38874,-3.39792l0,-6.93267l-15.38874,-3.39792c-1.14876,-0.24325 -2.0508,-1.13264 -2.30523,-2.27288c-1.04853,-4.67499 -2.92972,-9.13714 -5.57418,-13.26481c-0.62449,-0.97301 -0.62449,-2.22727 0,-3.21548l8.45764,-13.16599l-4.96511,-4.89544l-13.35336,8.35417c-0.98685,0.63093 -2.27439,0.63093 -3.26124,0c-4.10161,-2.57695 -8.61184,-4.43174 -13.45359,-5.51117c-1.15647,-0.24325 -2.0508,-1.14024 -2.30523,-2.27288l-3.43857,-15.18042l-7.03133,0l-3.44628,15.17281c-0.25442,1.13264 -1.15647,2.02203 -2.30523,2.27288c-4.83404,1.09463 -9.35198,2.93422 -13.45359,5.51117c-0.98685,0.63093 -2.27439,0.63093 -3.26124,0l-13.35336,-8.35417l-4.96511,4.89544l8.45764,13.16599c0.62449,0.97301 0.62449,2.22727 0,3.21548c-2.64446,4.12007 -4.51794,8.57462 -5.57418,13.26481c-0.24671,1.14024 -1.14876,2.02203 -2.29752,2.27288l-15.38874,3.39792l0,6.93267l15.38874,3.39792c1.15647,0.24325 2.0508,1.13264 2.29752,2.26528c1.05624,4.67499 2.93743,9.13714 5.57418,13.26481c0.62449,0.97301 0.62449,2.22727 0,3.22308l-8.45764,13.16599l4.96511,4.89544l13.35336,-8.33897c0.98685,-0.61573 2.27439,-0.61573 3.26124,0c4.13245,2.59215 8.66581,4.43174 13.43817,5.48836c1.14876,0.24325 2.0508,1.13264 2.30523,2.26528l3.47712,15.17281l0,0zm-6.40684,-102.03642l0,0l0,0z" fill="#666666" clip-rule="evenodd" fill-rule="evenodd"/>
   <g stroke="null" id="svg_243">
    <path stroke="null" id="svg_244" d="m218.91353,268.98572l-91.75423,0c-0.68617,0 -1.32608,-0.26606 -1.8118,-0.74496c-0.47801,-0.4789 -0.75556,-1.12504 -0.74014,-1.78638l0.20045,-32.73254l-19.08944,0c-15.3579,0 -27.84006,-12.30701 -27.84006,-27.44942l0,-22.91886l-22.9906,0c-0.83266,0 -1.59593,-0.39528 -2.08164,-1.05662c-0.48572,-0.66134 -0.60136,-1.52792 -0.33152,-2.28808l16.63002,-47.29722c-0.63991,-4.15808 -0.97914,-8.57462 -0.97914,-13.15839c0,-23.97548 9.56785,-46.43824 26.94572,-63.2454c17.35474,-16.77675 40.30679,-25.75426 64.60805,-25.27536c49.00344,0.9502 88.46986,41.0487 87.98414,89.41014c-0.14649,15.16521 -4.28664,30.10998 -11.95018,43.20755c-9.34427,15.95578 -14.27082,33.91839 -14.27082,51.9342l0,50.88518c0.02313,1.37589 -1.11792,2.51613 -2.52881,2.51613l0,0zm-89.17916,-5.04747l86.62722,0l0,-48.36905c0,-18.8976 5.16556,-37.71919 14.94929,-54.44274c7.21636,-12.34502 11.10981,-26.4308 11.26401,-40.75223c0.46259,-45.60206 -36.78342,-83.42768 -82.98049,-84.32467c-22.92121,-0.4561 -44.5626,8.0197 -60.92277,23.85385c-16.39102,15.84176 -25.41147,37.02745 -25.41147,59.64224c0,4.53816 0.33152,8.90909 1.00227,12.98355c0.06939,0.41049 0.03084,0.83618 -0.10794,1.22386l-15.65859,44.56064l21.94978,-0.0076c1.41089,0 2.55194,1.12504 2.55194,2.51613l0,25.43499c0,12.36022 10.20005,22.42475 22.74389,22.42475l21.64909,0c0.68617,0 1.32608,0.26606 1.8118,0.74496c0.48572,0.4789 0.75556,1.12504 0.74014,1.78638l-0.20816,32.72493z" clip-rule="evenodd" fill-rule="evenodd"/>
   </g>
   <text x="-2.63124" y="2.88215" stroke="null" id="svg_731" font-size="2.0198" font-family="'Arial-BoldMT'" fill="#666666" transform="matrix(11.99504925574768,0,0,9.426947335694404,2364.0360665745725,2166.3747860754565) "/>
  </g>
 </g>
</svg>