<svg width="304" height="300" xmlns="http://www.w3.org/2000/svg">

 <g>
  <title>background</title>
  <rect fill="none" id="canvas_background" height="302" width="306" y="-1" x="-1"/>
 </g>
 <g>
  <title>Layer 1</title>
  <g stroke="null" id="svg_1581">
   <g stroke="null" id="svg_1">
    <g stroke="null" id="svg_2">
     <path stroke="null" id="svg_3" d="m300.46707,161.68772c-3.93196,15.34123 -8.66979,30.46371 -18.14545,44.32304c-11.68075,17.10541 -28.84321,27.7116 -53.95814,30.06148c-11.63647,1.08673 -31.27854,-0.85386 -40.66565,-1.94059c-3.3032,-0.38106 -6.55326,-0.93148 -9.75019,-1.67949l-68.29562,-15.94811c-1.20438,-0.28227 -2.37334,-0.59276 -3.52459,-0.9456c-7.23516,-2.19463 -36.0518,-10.79673 -50.35385,-12.65969c-11.35308,-1.48896 -22.839,-2.25814 -34.03268,-4.60802c-12.9117,-2.70271 -19.95203,-9.80174 -20.20884,-20.59847c-0.50478,-21.78399 6.42928,-42.59416 13.01797,-63.41843c3.60429,-11.38949 8.28899,-22.48966 16.38315,-32.48192c11.29995,-13.95107 27.97534,-20.89485 47.92737,-23.71046c20.43909,-2.89324 41.11729,-2.43456 61.63609,-1.70066c33.38621,1.19258 66.25879,5.46893 96.69604,17.19009c27.42629,10.57092 50.57524,24.88893 60.67081,49.10042c5.2249,12.56796 5.93336,26.05328 2.60359,39.01642z" fill="#F5F5F5"/>
    </g>
   </g>
   <path stroke="null" id="svg_332" d="m171.74861,173.33126c-0.03542,0 -0.0797,0 -0.11512,0c-8.04989,-0.0494 -15.13449,-4.47394 -15.06365,-10.31687c0.04428,-4.29046 -4.49873,-7.79058 -10.13099,-7.82586c-0.02657,0 -0.05313,0 -0.0797,0c-5.6057,0 -10.16641,3.43661 -10.21955,7.69884c-0.12398,11.98931 10.96343,21.66403 25.56658,24.80425l0,5.13021c0,4.29046 4.57843,7.76235 10.21955,7.76235c5.64112,0 10.21955,-3.47189 10.21955,-7.76235l0,-5.21489c14.4526,-3.22491 25.09722,-12.82905 25.2212,-24.33851c0.15055,-14.33919 -15.7544,-25.70045 -34.9094,-25.9686c-8.51924,0.02823 -15.52415,-4.51628 -15.533,-10.24631c0,-5.65241 6.81008,-10.25336 15.17877,-10.25336c8.37755,0 15.17877,4.60802 15.17877,10.25336c0,4.29046 4.57843,7.76235 10.21955,7.76235c5.64112,0 10.21955,-3.47189 10.21955,-7.76235c0,-11.62942 -10.75975,-21.36764 -25.39832,-24.57138l0,-5.17255c0,-4.29046 -4.57843,-7.76235 -10.21955,-7.76235s-10.21955,3.47189 -10.21955,7.76235l0,5.17255c-14.63857,3.20374 -25.39832,12.94196 -25.39832,24.57138c0,14.12748 15.78982,25.644 35.27249,25.77807c0.03542,0 0.07085,0 0.10627,0c8.11188,0.0494 15.13449,4.52334 15.06365,10.31687c-0.05313,5.63124 -6.8455,10.1828 -15.17877,10.1828z" fill="#FFB300"/>
   <g stroke="null" id="svg_1095">
    <path stroke="null" id="svg_1096" d="m13.10654,198.31898l38.8945,0c4.56072,0 8.26242,2.94969 8.26242,6.58389l0,76.85436c0,3.63419 -3.70171,6.58389 -8.26242,6.58389l-38.8945,0c-4.56072,0 -8.26242,-2.94969 -8.26242,-6.58389l0,-76.85436c0,-3.63419 3.70171,-6.58389 8.26242,-6.58389z" fill="#5AA7F5"/>
   </g>
   <g stroke="null" id="svg_1097">
    <path stroke="null" id="svg_1098" d="m13.10654,198.31898l38.8945,0c4.56072,0 8.26242,2.94969 8.26242,6.58389l0,76.85436c0,3.63419 -3.70171,6.58389 -8.26242,6.58389l-38.8945,0c-4.56072,0 -8.26242,-2.94969 -8.26242,-6.58389l0,-76.85436c0,-3.63419 3.70171,-6.58389 8.26242,-6.58389z"/>
   </g>
   <g stroke="null" id="svg_1099">
    <path stroke="null" id="svg_1100" d="m60.2546,204.90287l0,76.84731c0,3.64831 -3.70171,6.598 -8.24471,6.598l-38.91221,0c-4.543,0 -8.24471,-2.94969 -8.24471,-6.598l0,-1.12201l38.00006,0c4.543,0 8.24471,-2.94969 8.24471,-6.56977l0,-75.72529l0.91214,0c4.55186,0 8.24471,2.92147 8.24471,6.56977z" fill="#F5F5F5"/>
   </g>
   <g stroke="null" id="svg_1101">
    <path stroke="null" id="svg_1102" d="m192.24084,256.09207l82.84563,-29.39815c8.59009,-3.0626 18.65909,0.00706 22.53791,6.88733l0,0c3.79027,6.71796 0.29224,14.63557 -7.91705,17.9381l-86.44107,34.76829c-15.33818,6.16754 -32.26153,9.37834 -49.41514,9.37834l0,0c-13.22165,0 -26.33703,-1.90531 -38.72624,-5.63829l-54.83486,-16.50559l0,-59.21265l5.18062,0c13.36334,0 26.49643,2.79445 38.10633,8.10108l0,0c11.6099,5.30663 24.74299,8.10108 38.10633,8.10108l40.61251,0c9.66163,0 17.49012,6.28751 17.49012,14.03575l0,0c0,7.7553 -7.82849,14.03575 -17.49012,14.03575l-60.10404,0" fill="#FFD8A0"/>
   </g>
   <g stroke="null" id="svg_1103">
    <path stroke="null" id="svg_1104" d="m192.24084,256.09207l82.84563,-29.39815c8.59009,-3.0626 18.65909,0.00706 22.53791,6.88733l0,0c3.79027,6.71796 0.29224,14.63557 -7.91705,17.9381l-86.44107,34.76829c-15.33818,6.16754 -32.26153,9.37834 -49.41514,9.37834l0,0c-13.22165,0 -26.33703,-1.90531 -38.72624,-5.63829l-54.83486,-16.50559l0,-59.21265l5.18062,0c13.36334,0 26.49643,2.79445 38.10633,8.10108l0,0c11.6099,5.30663 24.74299,8.10108 38.10633,8.10108l40.61251,0c9.66163,0 17.49012,6.28751 17.49012,14.03575l0,0c0,7.7553 -7.82849,14.03575 -17.49012,14.03575l-60.10404,0" fill="#FFD8A0"/>
   </g>
   <g stroke="null" id="svg_1105">
    <path stroke="null" id="svg_1106" d="m299.13871,239.23364c0,5.04553 -3.44489,9.89347 -9.44024,12.29275l-86.44107,34.77535c-15.32932,6.16754 -32.26153,9.37128 -49.41514,9.37128c-13.2305,0 -26.33703,-1.89825 -38.71738,-5.62418l-54.83486,-16.51264l0,-9.16663l54.83486,16.51264c12.38035,3.72593 25.48688,5.62418 38.71738,5.62418c17.15361,0 34.07696,-3.19668 49.41514,-9.37128l86.44107,-34.77535c4.10907,-1.65126 7.02262,-4.44571 8.46611,-7.67062c0.66418,1.49602 0.97413,3.02026 0.97413,4.54451z" fill="#FFC777"/>
   </g>
   <g stroke="null" id="svg_1107">
    <path stroke="null" id="svg_1108" d="m153.84227,298.17108c-13.65558,0 -27.05435,-1.94765 -39.83321,-5.79354l-54.83486,-16.49853c-1.22209,-0.36695 -2.02797,-1.29843 -2.02797,-2.33576l0,-59.21265c0,-1.38311 1.39921,-2.49807 3.13494,-2.49807l5.18062,0c13.88583,0 27.6034,2.91441 39.66495,8.43274c11.11398,5.08081 23.75115,7.76941 36.53886,7.76941l40.61251,0c11.3708,0 20.62506,7.41658 20.62506,16.53381c0,1.89825 -0.39851,3.71887 -1.13354,5.41953l72.02389,-25.55932c10.13099,-3.62714 22.10398,0.03528 26.67355,8.14342c4.49873,7.967 0.3808,17.27477 -9.36939,21.19123l-86.44107,34.76829c-15.68355,6.30162 -33.26223,9.63943 -50.81435,9.63943zm-90.4173,-26.36378l52.80689,15.89166c12.0704,3.63419 24.72528,5.47599 37.61041,5.47599c16.57798,0 33.17367,-3.15434 48.00707,-9.11018l86.44107,-34.76829c6.74809,-2.70977 9.59079,-9.16663 6.47356,-14.68496c-3.15265,-5.59595 -11.39736,-8.13636 -18.39341,-5.63124l-82.56225,29.2923c-3.28549,1.77828 -7.25287,2.82267 -11.51249,2.82267l-60.10404,0c-1.73573,0 -3.13494,-1.11496 -3.13494,-2.49807s1.39921,-2.49807 3.13494,-2.49807l60.10404,0c2.95782,0 5.72082,-0.72684 8.00561,-1.96176c0.09741,-0.06351 0.19483,-0.11996 0.3011,-0.16936c3.66628,-2.09584 6.05734,-5.53244 6.05734,-9.40656c0,-6.36513 -6.43814,-11.53768 -14.35519,-11.53768l-40.61251,0c-13.88583,0 -27.6034,-2.91441 -39.66495,-8.43274c-11.12283,-5.08081 -23.76,-7.76941 -36.54772,-7.76941l-2.04568,0l0,54.9857l-0.00886,0z"/>
   </g>
   <g stroke="null" id="svg_1109">
    <path stroke="null" id="svg_1110" d="m52.00103,290.83919l-38.8945,0c-6.27873,0 -11.39736,-4.07171 -11.39736,-9.08195l0,-76.85436c0,-5.00319 5.10977,-9.08195 11.39736,-9.08195l38.8945,0c6.27873,0 11.39736,4.07171 11.39736,9.08195l0,76.85436c0,5.00319 -5.10977,9.08195 -11.39736,9.08195zm-38.8945,-90.02214c-2.82499,0 -5.12748,1.83474 -5.12748,4.08582l0,76.85436c0,2.25108 2.3025,4.08582 5.12748,4.08582l38.8945,0c2.82499,0 5.11863,-1.83474 5.11863,-4.08582l0,-76.85436c0,-2.25108 -2.3025,-4.08582 -5.11863,-4.08582l-38.8945,0z"/>
   </g>
   <g stroke="null" id="svg_1111">
    <g stroke="null" id="svg_1112">
     <path stroke="null" id="svg_1113" d="m48.97236,269.19633c0,4.69975 -4.79982,8.46802 -10.62691,8.46802c-5.89794,0 -10.69776,-3.76827 -10.69776,-8.46802c0,-4.69975 4.79982,-8.46802 10.69776,-8.46802c5.82709,0 10.62691,3.76827 10.62691,8.46802z" fill="#F3BD3D"/>
    </g>
    <g stroke="null" id="svg_1114">
     <path stroke="null" id="svg_1115" d="m48.97236,269.19633c0,4.69975 -4.79982,8.46802 -10.62691,8.46802c-5.89794,0 -10.69776,-3.76827 -10.69776,-8.46802c0,-4.69975 4.79982,-8.46802 10.69776,-8.46802c5.82709,0 10.62691,3.76827 10.62691,8.46802z" fill="#F3BD3D"/>
    </g>
   </g>
  </g>
 </g>
</svg>