<svg width="306" height="308" xmlns="http://www.w3.org/2000/svg">

 <g>
  <title>background</title>
  <rect fill="none" id="canvas_background" height="310" width="308" y="-1" x="-1"/>
 </g>
 <g>
  <title>Layer 1</title>
  <g stroke="null" id="svg_354">
   <path stroke="null" id="svg_355" d="m228.93077,149.42326c0,12.61747 9.74213,22.88367 21.71549,22.88367l43.19225,0l0,-45.75767l-43.19225,0c-11.75299,-0.00968 -21.71549,10.4307 -21.71549,22.874z" fill="#FFB300"/>
   <path stroke="null" id="svg_356" d="m270.47943,25.745l-229.44046,0c-12.6712,0 -23.23971,11.01126 -23.23971,24.48988l0,99.31417c15.02179,-13.60442 34.62542,-22.01283 55.86345,-22.01283c46.9477,0 85.31938,40.31977 85.31938,89.90912c0,21.15167 -6.80388,40.44556 -18.42833,55.78197l129.91648,0c12.90993,0 23.35907,-11.12737 23.35907,-24.48988l0,-52.31798l-43.19225,0c-24.52519,0 -44.47773,-21.15167 -44.47773,-46.99619c0,-25.51554 19.75054,-46.8704 44.47773,-46.8704l43.19225,0l0,-52.31798c0.00918,-13.47863 -10.43996,-24.48988 -23.34989,-24.48988z"/>
   <path stroke="null" id="svg_357" d="m73.54334,282.25499c33.9184,0 61.50121,-29.06662 61.50121,-64.68387c0,-35.86883 -27.58281,-64.80966 -61.50121,-64.80966c-33.9184,0 -61.38184,28.94083 -61.38184,64.80966c0,35.61725 27.46344,64.68387 61.38184,64.68387zm-24.99347,-74.4566c5.5184,-3.464 12.6712,-1.732 16.07773,4.20905l1.9925,3.33821l19.12616,-13.11094c5.39903,-3.7059 12.68038,-2.09969 16.19709,3.58979c3.51672,5.81526 1.9925,13.47863 -3.40653,17.1942l-29.33657,20.03894c-4.81138,3.48335 -12.68038,2.5351 -16.43583,-3.95747l-8.21791,-14.34947c-3.38817,-5.82493 -1.6344,-13.36252 4.00336,-16.9523z" fill="#FFB300"/>
  </g>
  <path id="svg_650" d="m-140.001,308.157c0.504,-0.084 1.164,-0.155 2.003,-0.155c1.032,0 1.787,0.239 2.268,0.672c0.443,0.383 0.707,0.971 0.707,1.69c0,0.732 -0.216,1.308 -0.624,1.728c-0.551,0.587 -1.451,0.887 -2.47,0.887c-0.313,0 -0.601,-0.012 -0.84,-0.072l0,3.238l-1.044,0l0,-7.988zm1.044,3.897c0.228,0.06 0.516,0.084 0.863,0.084c1.26,0 2.027,-0.611 2.027,-1.727c0,-1.067 -0.756,-1.583 -1.907,-1.583c-0.456,0 -0.804,0.036 -0.983,0.084l0,3.142z" fill="#6D6E71"/>
  <path id="svg_651" d="m-133.844,312.151c0,-0.684 -0.013,-1.271 -0.049,-1.811l0.924,0l0.036,1.14l0.048,0c0.264,-0.779 0.899,-1.27 1.607,-1.27c0.12,0 0.203,0.012 0.3,0.035l0,0.996c-0.108,-0.024 -0.216,-0.037 -0.36,-0.037c-0.743,0 -1.271,0.565 -1.415,1.355c-0.023,0.145 -0.048,0.313 -0.048,0.492l0,3.094l-1.043,0l0,-3.994z" fill="#6D6E71"/>
  <path id="svg_652" d="m43.167,260.96l0,1.016l0.922,0l0,0.49l-0.922,0l0,1.908c0,0.439 0.124,0.688 0.483,0.688c0.168,0 0.292,-0.022 0.373,-0.043l0.029,0.482c-0.124,0.051 -0.321,0.088 -0.57,0.088c-0.299,0 -0.541,-0.095 -0.694,-0.271c-0.183,-0.19 -0.249,-0.504 -0.249,-0.921l0,-1.931l-0.549,0l0,-0.49l0.548,0l0,-0.848l0.629,-0.168z" fill="#6D6E71"/>
  <g id="svg_1101">
   <g id="svg_1102">
    <path id="svg_1103" d="m-21.123,-185.963l-0.591,0c-0.13,0 -0.236,-0.105 -0.236,-0.236c0,-0.13 0.105,-0.236 0.236,-0.236l0.591,0c0.13,0 0.236,0.105 0.236,0.236c0,0.13 -0.105,0.236 -0.236,0.236z" fill="#666666"/>
   </g>
   <g id="svg_1104">
    <path id="svg_1105" d="m0.904,-185.963l-21.32,0c-0.13,0 -0.236,-0.105 -0.236,-0.236c0,-0.13 0.105,-0.236 0.236,-0.236l21.32,0c0.13,0 0.236,0.105 0.236,0.236c0,0.13 -0.105,0.236 -0.236,0.236z" fill="#666666"/>
   </g>
  </g>
  <g id="svg_1256">
   <g id="svg_1257">
    <path id="svg_1258" d="m262.884,287.809l-9.552,0c-0.06,0 -0.108,-0.048 -0.108,-0.108s0.048,-0.108 0.108,-0.108l9.552,0c0.06,0 0.108,0.048 0.108,0.108s-0.048,0.108 -0.108,0.108z" fill="#666666"/>
   </g>
   <g id="svg_1259">
    <path id="svg_1260" d="m263.694,287.809l-0.394,0c-0.06,0 -0.108,-0.048 -0.108,-0.108s0.048,-0.108 0.108,-0.108l0.395,0c0.06,0 0.108,0.048 0.108,0.108s-0.049,0.108 -0.109,0.108z" fill="#666666"/>
   </g>
  </g>
  <g id="svg_1346">
   <circle id="svg_1347" r="0.339" cy="282.064" cx="152.962" fill="#41A700"/>
  </g>
  <path id="svg_1369" d="m20.867,-132.727l-0.796,0l0,-0.287l1.938,0l0,0.287l-0.8,0l0,2.33l-0.342,0l0,-2.33z" fill="#6D6E71"/>
  <path id="svg_1370" d="m22.624,-132.805c0.004,0.117 -0.082,0.21 -0.218,0.21c-0.12,0 -0.206,-0.093 -0.206,-0.21c0,-0.12 0.089,-0.213 0.214,-0.213c0.128,0 0.21,0.093 0.21,0.213zm-0.38,2.408l0,-1.88l0.342,0l0,1.88l-0.342,0z" fill="#6D6E71"/>
  <path id="svg_1371" d="m23.153,-131.768c0,-0.194 -0.004,-0.353 -0.016,-0.508l0.299,0l0.015,0.303l0.012,0c0.105,-0.179 0.28,-0.346 0.59,-0.346c0.256,0 0.45,0.155 0.532,0.377l0.008,0c0.058,-0.105 0.132,-0.187 0.21,-0.245c0.113,-0.085 0.237,-0.132 0.416,-0.132c0.249,0 0.618,0.163 0.618,0.816l0,1.107l-0.334,0l0,-1.064c0,-0.361 -0.132,-0.579 -0.408,-0.579c-0.194,0 -0.346,0.144 -0.404,0.311c-0.015,0.047 -0.027,0.109 -0.027,0.171l0,1.161l-0.334,0l0,-1.126c0,-0.299 -0.132,-0.516 -0.392,-0.516c-0.213,0 -0.369,0.171 -0.423,0.342c-0.02,0.05 -0.027,0.108 -0.027,0.167l0,1.134l-0.334,0l0,-1.373l-0.001,0z" fill="#6D6E71"/>
  <path id="svg_1372" d="m26.583,-131.274c0.008,0.462 0.303,0.652 0.645,0.652c0.245,0 0.392,-0.043 0.52,-0.097l0.058,0.245c-0.12,0.054 -0.326,0.117 -0.625,0.117c-0.579,0 -0.924,-0.381 -0.924,-0.948c0,-0.567 0.334,-1.013 0.882,-1.013c0.613,0 0.777,0.54 0.777,0.885c0,0.07 -0.008,0.124 -0.012,0.159l-1.321,0zm1.003,-0.245c0.004,-0.217 -0.089,-0.555 -0.474,-0.555c-0.346,0 -0.497,0.318 -0.524,0.555l0.998,0z" fill="#6D6E71"/>
  <path id="svg_1373" d="m31.381,-131.546c-0.019,-0.365 -0.043,-0.804 -0.039,-1.13l-0.012,0c-0.089,0.307 -0.198,0.633 -0.33,0.994l-0.462,1.27l-0.256,0l-0.423,-1.247c-0.124,-0.369 -0.229,-0.707 -0.303,-1.017l-0.008,0c-0.008,0.326 -0.027,0.765 -0.05,1.157l-0.07,1.123l-0.323,0l0.183,-2.618l0.431,0l0.447,1.266c0.109,0.322 0.198,0.61 0.264,0.882l0.012,0c0.066,-0.264 0.159,-0.551 0.276,-0.882l0.466,-1.266l0.431,0l0.163,2.618l-0.33,0l-0.067,-1.15z" fill="#6D6E71"/>
  <path id="svg_1374" d="m33.352,-130.397l-0.027,-0.237l-0.012,0c-0.105,0.147 -0.307,0.28 -0.575,0.28c-0.38,0 -0.575,-0.268 -0.575,-0.54c0,-0.454 0.404,-0.703 1.13,-0.699l0,-0.039c0,-0.155 -0.043,-0.435 -0.427,-0.435c-0.175,0 -0.357,0.054 -0.49,0.14l-0.077,-0.225c0.155,-0.101 0.38,-0.167 0.617,-0.167c0.575,0 0.715,0.392 0.715,0.769l0,0.703c0,0.163 0.008,0.322 0.031,0.451l-0.31,0l0,-0.001zm-0.051,-0.959c-0.373,-0.008 -0.796,0.058 -0.796,0.423c0,0.221 0.147,0.326 0.322,0.326c0.245,0 0.4,-0.156 0.454,-0.315c0.012,-0.035 0.019,-0.074 0.019,-0.109l0,-0.325l0.001,0z" fill="#6D6E71"/>
  <path id="svg_1375" d="m34.184,-131.768c0,-0.194 -0.004,-0.353 -0.016,-0.508l0.303,0l0.02,0.311l0.008,0c0.093,-0.179 0.311,-0.353 0.621,-0.353c0.26,0 0.664,0.155 0.664,0.8l0,1.123l-0.342,0l0,-1.084c0,-0.303 -0.113,-0.555 -0.435,-0.555c-0.225,0 -0.4,0.159 -0.458,0.349c-0.015,0.043 -0.023,0.101 -0.023,0.159l0,1.13l-0.342,0l0,-1.372z" fill="#6D6E71"/>
  <path id="svg_1376" d="m37.381,-130.397l-0.027,-0.237l-0.012,0c-0.105,0.147 -0.307,0.28 -0.575,0.28c-0.38,0 -0.575,-0.268 -0.575,-0.54c0,-0.454 0.404,-0.703 1.13,-0.699l0,-0.039c0,-0.155 -0.043,-0.435 -0.427,-0.435c-0.175,0 -0.357,0.054 -0.49,0.14l-0.077,-0.225c0.155,-0.101 0.38,-0.167 0.617,-0.167c0.575,0 0.715,0.392 0.715,0.769l0,0.703c0,0.163 0.008,0.322 0.031,0.451l-0.31,0l0,-0.001zm-0.05,-0.959c-0.373,-0.008 -0.796,0.058 -0.796,0.423c0,0.221 0.147,0.326 0.322,0.326c0.245,0 0.4,-0.156 0.454,-0.315c0.012,-0.035 0.019,-0.074 0.019,-0.109l0,-0.325l0.001,0z" fill="#6D6E71"/>
  <path id="svg_1377" d="m39.833,-132.276c-0.008,0.136 -0.015,0.287 -0.015,0.516l0,1.091c0,0.431 -0.085,0.695 -0.268,0.858c-0.182,0.171 -0.447,0.225 -0.683,0.225c-0.225,0 -0.474,-0.054 -0.625,-0.155l0.085,-0.26c0.124,0.077 0.318,0.147 0.551,0.147c0.349,0 0.606,-0.182 0.606,-0.656l0,-0.21l-0.008,0c-0.105,0.175 -0.307,0.315 -0.598,0.315c-0.466,0 -0.8,-0.396 -0.8,-0.916c0,-0.637 0.416,-0.998 0.847,-0.998c0.326,0 0.505,0.171 0.586,0.326l0.008,0l0.015,-0.283l0.299,0zm-0.354,0.741c0,-0.058 -0.004,-0.109 -0.019,-0.155c-0.062,-0.198 -0.229,-0.361 -0.478,-0.361c-0.326,0 -0.559,0.276 -0.559,0.711c0,0.369 0.186,0.676 0.555,0.676c0.21,0 0.4,-0.132 0.474,-0.349c0.02,-0.058 0.027,-0.124 0.027,-0.182l0,-0.34z" fill="#6D6E71"/>
  <path id="svg_1378" d="m40.576,-131.274c0.008,0.462 0.303,0.652 0.645,0.652c0.245,0 0.392,-0.043 0.52,-0.097l0.058,0.245c-0.12,0.054 -0.326,0.117 -0.625,0.117c-0.579,0 -0.924,-0.381 -0.924,-0.948c0,-0.567 0.334,-1.013 0.882,-1.013c0.613,0 0.777,0.54 0.777,0.885c0,0.07 -0.008,0.124 -0.012,0.159l-1.321,0zm1.002,-0.245c0.004,-0.217 -0.089,-0.555 -0.474,-0.555c-0.346,0 -0.497,0.318 -0.524,0.555l0.998,0z" fill="#6D6E71"/>
  <path id="svg_1379" d="m42.332,-131.768c0,-0.194 -0.004,-0.353 -0.016,-0.508l0.299,0l0.015,0.303l0.012,0c0.105,-0.179 0.28,-0.346 0.59,-0.346c0.256,0 0.45,0.155 0.532,0.377l0.008,0c0.058,-0.105 0.132,-0.187 0.21,-0.245c0.113,-0.085 0.237,-0.132 0.416,-0.132c0.249,0 0.618,0.163 0.618,0.816l0,1.107l-0.334,0l0,-1.064c0,-0.361 -0.132,-0.579 -0.408,-0.579c-0.194,0 -0.346,0.144 -0.404,0.311c-0.015,0.047 -0.027,0.109 -0.027,0.171l0,1.161l-0.334,0l0,-1.126c0,-0.299 -0.132,-0.516 -0.392,-0.516c-0.213,0 -0.369,0.171 -0.423,0.342c-0.02,0.05 -0.027,0.108 -0.027,0.167l0,1.134l-0.334,0l0,-1.373l-0.001,0z" fill="#6D6E71"/>
  <path id="svg_1380" d="m45.763,-131.274c0.008,0.462 0.303,0.652 0.645,0.652c0.245,0 0.392,-0.043 0.52,-0.097l0.058,0.245c-0.12,0.054 -0.326,0.117 -0.625,0.117c-0.579,0 -0.924,-0.381 -0.924,-0.948c0,-0.567 0.334,-1.013 0.882,-1.013c0.613,0 0.777,0.54 0.777,0.885c0,0.07 -0.008,0.124 -0.012,0.159l-1.321,0zm1.002,-0.245c0.004,-0.217 -0.089,-0.555 -0.474,-0.555c-0.346,0 -0.497,0.318 -0.524,0.555l0.998,0z" fill="#6D6E71"/>
  <path id="svg_1381" d="m47.52,-131.768c0,-0.194 -0.004,-0.353 -0.016,-0.508l0.303,0l0.02,0.311l0.008,0c0.093,-0.179 0.311,-0.353 0.621,-0.353c0.26,0 0.664,0.155 0.664,0.8l0,1.123l-0.342,0l0,-1.084c0,-0.303 -0.113,-0.555 -0.435,-0.555c-0.225,0 -0.4,0.159 -0.458,0.349c-0.015,0.043 -0.023,0.101 -0.023,0.159l0,1.13l-0.342,0l0,-1.372z" fill="#6D6E71"/>
  <path id="svg_1382" d="m50.072,-132.816l0,0.54l0.49,0l0,0.26l-0.49,0l0,1.014c0,0.233 0.066,0.365 0.256,0.365c0.089,0 0.155,-0.012 0.198,-0.023l0.015,0.256c-0.066,0.027 -0.171,0.047 -0.303,0.047c-0.159,0 -0.287,-0.051 -0.369,-0.144c-0.097,-0.101 -0.132,-0.268 -0.132,-0.489l0,-1.025l-0.291,0l0,-0.26l0.291,0l0,-0.451l0.335,-0.09z" fill="#6D6E71"/>
 </g>
</svg>