<svg width="304" height="300" xmlns="http://www.w3.org/2000/svg">

 <g>
  <title>background</title>
  <rect fill="none" id="canvas_background" height="302" width="306" y="-1" x="-1"/>
 </g>
 <g>
  <title>Layer 1</title>
  <g stroke="null" id="svg_1581">
   <path stroke="null" id="svg_306" d="m125.89274,174.15249l-52.1978,0c-1.60454,0 -2.89988,-1.26924 -2.89988,-2.83328c0,-14.72323 12.22629,-26.70326 27.25217,-26.70326l4.05314,0c14.95902,0 26.70896,11.72618 26.70896,26.70326c-0.01671,1.55585 -1.31205,2.83328 -2.91659,2.83328l0,0zm-49.09736,-5.68294l46.02198,0c-1.34548,-10.39961 -9.95318,-18.17885 -20.70864,-18.17885l-4.0615,0.00819c-10.8641,0 -19.83951,7.91845 -21.25184,18.17066z" fill="#666666" clip-rule="evenodd" fill-rule="evenodd"/>
   <path stroke="null" id="svg_307" d="m100.06127,150.29889c-9.9114,0 -17.96754,-7.89388 -17.96754,-17.60565c0,-9.71177 8.05615,-17.60565 17.96754,-17.60565c9.9114,0 17.96754,7.89388 17.96754,17.60565c0.00836,9.70358 -8.05615,17.60565 -17.96754,17.60565l0,0zm0,-29.53654c-6.70231,0 -12.17614,5.3472 -12.17614,11.9309c0,6.56732 5.45712,11.9309 12.17614,11.9309c6.72738,0 12.17614,-5.3472 12.17614,-11.9309c0.00836,-6.58369 -5.46548,-11.9309 -12.17614,-11.9309z" fill="#666666" clip-rule="evenodd" fill-rule="evenodd"/>
   <path stroke="null" id="svg_308" d="m230.29671,174.15249l-52.1978,0c-1.60454,0 -2.89988,-1.26924 -2.89988,-2.83328c0,-14.72323 12.22629,-26.70326 27.25217,-26.70326l4.05314,0c14.95902,0 26.70061,11.72618 26.70061,26.70326c-0.00836,1.55585 -1.30369,2.83328 -2.90823,2.83328z" clip-rule="evenodd" fill-rule="evenodd"/>
   <path stroke="null" id="svg_309" d="m204.47359,150.29889c-9.9114,0 -17.96754,-7.89388 -17.96754,-17.60565c0,-9.71177 8.05615,-17.60565 17.96754,-17.60565c9.9114,0 17.96754,7.89388 17.96754,17.60565c0.00836,9.70358 -8.05615,17.60565 -17.96754,17.60565z" clip-rule="evenodd" fill-rule="evenodd"/>
   <path stroke="null" id="svg_310" d="m151.99165,174.15249c-1.60454,0 -2.89152,-1.26924 -2.89152,-2.83328l0,-113.68334c0,-1.56404 1.29533,-2.83328 2.89152,-2.83328s2.89152,1.26924 2.89152,2.83328l0,113.68334c0.02507,1.55585 -1.28698,2.83328 -2.89152,2.83328z" clip-rule="evenodd" fill-rule="evenodd"/>
   <path stroke="null" id="svg_311" d="m132.89591,282.13651l-27.29395,0c-0.97777,0 -1.89704,-0.47494 -2.42353,-1.28562c-0.52649,-0.78611 -0.62677,-1.8097 -0.24235,-2.68588l17.39927,-39.78876c0.45963,-1.04815 1.51262,-1.71962 2.66588,-1.71962l17.04827,0.00819c0.86077,0 1.67976,0.36849 2.23132,1.0154c0.5432,0.64691 0.7772,1.49853 0.64349,2.31739l-7.16195,39.78876c-0.25907,1.36751 -1.46247,2.35015 -2.86645,2.35015l0,0zm-22.90653,-5.67475l20.46629,0l6.14239,-34.09763l-11.69144,0l-14.91724,34.09763z" fill="#FFB300" clip-rule="evenodd" fill-rule="evenodd"/>
   <path stroke="null" id="svg_312" d="m198.39805,282.13651l-27.29395,0c-1.40398,0 -2.60738,-0.98264 -2.84974,-2.34196l-7.16195,-39.78876c-0.15878,-0.81887 0.07521,-1.67049 0.64349,-2.31739c0.55156,-0.64691 1.37055,-1.0154 2.22296,-1.0154l17.05663,0c1.15327,0 2.20625,0.67147 2.66588,1.71962l17.39927,39.78876c0.37606,0.88438 0.29249,1.88339 -0.24235,2.68588c-0.55156,0.78611 -1.46247,1.26924 -2.44024,1.26924l0,0zm-24.85371,-5.67475l20.46629,0l-14.91724,-34.09763l-11.69144,0l6.14239,34.09763z" fill="#FFB300" clip-rule="evenodd" fill-rule="evenodd"/>
   <path stroke="null" id="svg_313" d="m171.1041,282.13651l-38.20819,0c-0.86077,0 -1.67976,-0.36849 -2.23132,-1.0154c-0.55156,-0.64691 -0.7772,-1.49853 -0.64349,-2.31739l7.16195,-39.78876c0.24235,-1.35932 1.44576,-2.34196 2.84974,-2.34196l23.8843,0c1.40398,0 2.60738,0.98264 2.84974,2.34196l7.16195,39.78876c0.15043,0.81887 -0.07521,1.67049 -0.64349,2.31739c-0.50978,0.64691 -1.32876,1.0154 -2.18118,1.0154l0,0zm-34.76511,-5.67475l31.30531,0l-6.14239,-34.09763l-19.02053,0l-6.14239,34.09763z" fill="#FFB300" clip-rule="evenodd" fill-rule="evenodd"/>
   <path stroke="null" id="svg_314" d="m268.18733,242.35594l-232.39137,0c-11.08138,0 -20.09858,-8.83558 -20.09858,-19.69376l0,-17.23715c0,-1.56404 1.29533,-2.83328 2.89988,-2.83328l266.8222,0c1.60454,0 2.89152,1.26924 2.89152,2.83328l0,17.23715c0,10.84999 -9.02556,19.69376 -20.12365,19.69376l0,0zm-246.70691,-34.09763l0,14.3875c0,7.7383 6.41817,14.0272 14.31554,14.0272l232.39137,0c7.89736,0 14.31554,-6.2889 14.31554,-14.0272l0,-14.3875l-261.02244,0z" fill="#FFB300" clip-rule="evenodd" fill-rule="evenodd"/>
   <path stroke="null" id="svg_315" d="m62.07872,276.46176c-7.99765,0 -14.49103,-6.37898 -14.49103,-14.19916c0,-7.83656 6.5101,-14.19916 14.49103,-14.19916c7.99765,0 14.49103,6.37898 14.49103,14.19916c0.01671,7.82018 -6.47667,14.19916 -14.49103,14.19916l0,0zm0,-22.74813c-4.80527,0 -8.69963,3.82411 -8.69963,8.52441c0,4.70849 3.90272,8.52441 8.69963,8.52441c4.80527,0 8.69963,-3.82411 8.69963,-8.52441c0.00836,-4.7003 -3.89436,-8.52441 -8.69963,-8.52441z" clip-rule="evenodd" fill-rule="evenodd"/>
   <path stroke="null" id="svg_316" d="m285.4111,208.25831l-266.8222,0c-1.60454,0 -2.89988,-1.26924 -2.89988,-2.84147l0,-121.05314c0,-16.28727 13.52998,-29.56111 30.16876,-29.56111l212.28444,0c16.62207,0 30.16876,13.25746 30.16876,29.56111l0,121.05314c0,1.57223 -1.29533,2.84147 -2.89988,2.84147l0,0zm-263.93068,-5.69113l261.01409,0l0,-118.21986c0,-13.1592 -10.93095,-23.86998 -24.36065,-23.86998l-212.29279,0.00819c-13.42969,0 -24.36065,10.71078 -24.36065,23.86998l0,118.21167l0,0z" fill="#FFB300" clip-rule="evenodd" fill-rule="evenodd"/>
   <path stroke="null" id="svg_317" d="m253.49573,46.26181c-7.99765,0 -14.49103,-6.37898 -14.49103,-14.19916c0,-7.83656 6.5101,-14.19916 14.49103,-14.19916c7.99765,0 14.49103,6.37898 14.49103,14.19916c0.01671,7.82837 -6.48503,14.19916 -14.49103,14.19916l0,0zm0,-22.72357c-4.80527,0 -8.69963,3.82411 -8.69963,8.52441c0,4.70849 3.90272,8.52441 8.69963,8.52441c4.80527,0 8.69963,-3.82411 8.69963,-8.52441c0,-4.7003 -3.89436,-8.52441 -8.69963,-8.52441z" fill="#666666" clip-rule="evenodd" fill-rule="evenodd"/>
   <path stroke="null" id="svg_318" d="m259.29549,208.25831c-1.59619,0 -2.89152,-1.26924 -2.89152,-2.84147l0,-96.62633c0,-1.57223 1.29533,-2.84147 2.89152,-2.84147c1.60454,0 2.89988,1.26924 2.89988,2.84147l0,96.62633c0,1.57223 -1.29533,2.84147 -2.89988,2.84147z" fill="#FFB300" clip-rule="evenodd" fill-rule="evenodd"/>
   <path stroke="null" id="svg_319" d="m44.69616,208.25831c-1.59619,0 -2.89152,-1.26924 -2.89152,-2.84147l0,-96.62633c0,-1.57223 1.29533,-2.84147 2.89152,-2.84147c1.60454,0 2.89988,1.26924 2.89988,2.84147l0,96.62633c-0.00836,1.57223 -1.30369,2.84147 -2.89988,2.84147z" fill="#FFB300" clip-rule="evenodd" fill-rule="evenodd"/>
   <path stroke="null" id="svg_320" d="m122.98451,105.94085l-42.04405,0c-8.79156,0 -15.96186,-7.0095 -15.96186,-15.64036c0,-8.61448 7.15359,-15.63218 15.96186,-15.63218l28.99878,0c8.79156,0 15.95351,7.0095 15.95351,15.63218l0,12.78252c0,1.5886 -1.30369,2.85785 -2.90823,2.85785z" clip-rule="evenodd" fill-rule="evenodd"/>
   <path stroke="null" id="svg_321" d="m223.04283,105.94085l-42.05241,0c-1.60454,0 -2.89152,-1.26924 -2.89152,-2.83328l0,-12.78252c0,-8.61448 7.14523,-15.63218 15.95351,-15.63218l29.00714,0c8.79156,0 15.95351,7.0095 15.95351,15.63218c-0.00836,8.61448 -7.1703,15.6158 -15.97022,15.6158l0,0zm-39.15253,-5.67475l39.16089,0c5.59083,0 10.15375,-4.46283 10.15375,-9.94105c0,-5.47822 -4.55456,-9.94105 -10.15375,-9.94105l-29.00714,0c-5.59083,0 -10.15375,4.46283 -10.15375,9.94105l0,9.94105z" fill="#666666" clip-rule="evenodd" fill-rule="evenodd"/>
  </g>
 </g>
</svg>