<svg width="304" height="300" xmlns="http://www.w3.org/2000/svg">

 <g>
  <title>background</title>
  <rect fill="none" id="canvas_background" height="302" width="306" y="-1" x="-1"/>
 </g>
 <g>
  <title>Layer 1</title>
  <path id="svg_650" d="m-140.001,308.157c0.504,-0.084 1.164,-0.155 2.003,-0.155c1.032,0 1.787,0.239 2.268,0.672c0.443,0.383 0.707,0.971 0.707,1.69c0,0.732 -0.216,1.308 -0.624,1.728c-0.551,0.587 -1.451,0.887 -2.47,0.887c-0.313,0 -0.601,-0.012 -0.84,-0.072l0,3.238l-1.044,0l0,-7.988zm1.044,3.897c0.228,0.06 0.516,0.084 0.863,0.084c1.26,0 2.027,-0.611 2.027,-1.727c0,-1.067 -0.756,-1.583 -1.907,-1.583c-0.456,0 -0.804,0.036 -0.983,0.084l0,3.142z" fill="#6D6E71"/>
  <path id="svg_651" d="m-133.844,312.151c0,-0.684 -0.013,-1.271 -0.049,-1.811l0.924,0l0.036,1.14l0.048,0c0.264,-0.779 0.899,-1.27 1.607,-1.27c0.12,0 0.203,0.012 0.3,0.035l0,0.996c-0.108,-0.024 -0.216,-0.037 -0.36,-0.037c-0.743,0 -1.271,0.565 -1.415,1.355c-0.023,0.145 -0.048,0.313 -0.048,0.492l0,3.094l-1.043,0l0,-3.994z" fill="#6D6E71"/>
  <text id="svg_731" font-size="2.0198" font-family="'Arial-BoldMT'" fill="#666666" transform="matrix(1,0,0,1,201.6066,233.7194) "/>
  <g id="svg_1101">
   <g id="svg_1102">
    <path id="svg_1103" d="m-21.123,-185.963l-0.591,0c-0.13,0 -0.236,-0.105 -0.236,-0.236c0,-0.13 0.105,-0.236 0.236,-0.236l0.591,0c0.13,0 0.236,0.105 0.236,0.236c0,0.13 -0.105,0.236 -0.236,0.236z" fill="#666666"/>
   </g>
   <g id="svg_1104">
    <path id="svg_1105" d="m0.904,-185.963l-21.32,0c-0.13,0 -0.236,-0.105 -0.236,-0.236c0,-0.13 0.105,-0.236 0.236,-0.236l21.32,0c0.13,0 0.236,0.105 0.236,0.236c0,0.13 -0.105,0.236 -0.236,0.236z" fill="#666666"/>
   </g>
  </g>
  <path id="svg_1369" d="m20.867,-132.727l-0.796,0l0,-0.287l1.938,0l0,0.287l-0.8,0l0,2.33l-0.342,0l0,-2.33z" fill="#6D6E71"/>
  <path id="svg_1370" d="m22.624,-132.805c0.004,0.117 -0.082,0.21 -0.218,0.21c-0.12,0 -0.206,-0.093 -0.206,-0.21c0,-0.12 0.089,-0.213 0.214,-0.213c0.128,0 0.21,0.093 0.21,0.213zm-0.38,2.408l0,-1.88l0.342,0l0,1.88l-0.342,0z" fill="#6D6E71"/>
  <path id="svg_1371" d="m23.153,-131.768c0,-0.194 -0.004,-0.353 -0.016,-0.508l0.299,0l0.015,0.303l0.012,0c0.105,-0.179 0.28,-0.346 0.59,-0.346c0.256,0 0.45,0.155 0.532,0.377l0.008,0c0.058,-0.105 0.132,-0.187 0.21,-0.245c0.113,-0.085 0.237,-0.132 0.416,-0.132c0.249,0 0.618,0.163 0.618,0.816l0,1.107l-0.334,0l0,-1.064c0,-0.361 -0.132,-0.579 -0.408,-0.579c-0.194,0 -0.346,0.144 -0.404,0.311c-0.015,0.047 -0.027,0.109 -0.027,0.171l0,1.161l-0.334,0l0,-1.126c0,-0.299 -0.132,-0.516 -0.392,-0.516c-0.213,0 -0.369,0.171 -0.423,0.342c-0.02,0.05 -0.027,0.108 -0.027,0.167l0,1.134l-0.334,0l0,-1.373l-0.001,0z" fill="#6D6E71"/>
  <path id="svg_1372" d="m26.583,-131.274c0.008,0.462 0.303,0.652 0.645,0.652c0.245,0 0.392,-0.043 0.52,-0.097l0.058,0.245c-0.12,0.054 -0.326,0.117 -0.625,0.117c-0.579,0 -0.924,-0.381 -0.924,-0.948c0,-0.567 0.334,-1.013 0.882,-1.013c0.613,0 0.777,0.54 0.777,0.885c0,0.07 -0.008,0.124 -0.012,0.159l-1.321,0zm1.003,-0.245c0.004,-0.217 -0.089,-0.555 -0.474,-0.555c-0.346,0 -0.497,0.318 -0.524,0.555l0.998,0z" fill="#6D6E71"/>
  <path id="svg_1373" d="m31.381,-131.546c-0.019,-0.365 -0.043,-0.804 -0.039,-1.13l-0.012,0c-0.089,0.307 -0.198,0.633 -0.33,0.994l-0.462,1.27l-0.256,0l-0.423,-1.247c-0.124,-0.369 -0.229,-0.707 -0.303,-1.017l-0.008,0c-0.008,0.326 -0.027,0.765 -0.05,1.157l-0.07,1.123l-0.323,0l0.183,-2.618l0.431,0l0.447,1.266c0.109,0.322 0.198,0.61 0.264,0.882l0.012,0c0.066,-0.264 0.159,-0.551 0.276,-0.882l0.466,-1.266l0.431,0l0.163,2.618l-0.33,0l-0.067,-1.15z" fill="#6D6E71"/>
  <path id="svg_1374" d="m33.352,-130.397l-0.027,-0.237l-0.012,0c-0.105,0.147 -0.307,0.28 -0.575,0.28c-0.38,0 -0.575,-0.268 -0.575,-0.54c0,-0.454 0.404,-0.703 1.13,-0.699l0,-0.039c0,-0.155 -0.043,-0.435 -0.427,-0.435c-0.175,0 -0.357,0.054 -0.49,0.14l-0.077,-0.225c0.155,-0.101 0.38,-0.167 0.617,-0.167c0.575,0 0.715,0.392 0.715,0.769l0,0.703c0,0.163 0.008,0.322 0.031,0.451l-0.31,0l0,-0.001zm-0.051,-0.959c-0.373,-0.008 -0.796,0.058 -0.796,0.423c0,0.221 0.147,0.326 0.322,0.326c0.245,0 0.4,-0.156 0.454,-0.315c0.012,-0.035 0.019,-0.074 0.019,-0.109l0,-0.325l0.001,0z" fill="#6D6E71"/>
  <path id="svg_1375" d="m34.184,-131.768c0,-0.194 -0.004,-0.353 -0.016,-0.508l0.303,0l0.02,0.311l0.008,0c0.093,-0.179 0.311,-0.353 0.621,-0.353c0.26,0 0.664,0.155 0.664,0.8l0,1.123l-0.342,0l0,-1.084c0,-0.303 -0.113,-0.555 -0.435,-0.555c-0.225,0 -0.4,0.159 -0.458,0.349c-0.015,0.043 -0.023,0.101 -0.023,0.159l0,1.13l-0.342,0l0,-1.372z" fill="#6D6E71"/>
  <path id="svg_1376" d="m37.381,-130.397l-0.027,-0.237l-0.012,0c-0.105,0.147 -0.307,0.28 -0.575,0.28c-0.38,0 -0.575,-0.268 -0.575,-0.54c0,-0.454 0.404,-0.703 1.13,-0.699l0,-0.039c0,-0.155 -0.043,-0.435 -0.427,-0.435c-0.175,0 -0.357,0.054 -0.49,0.14l-0.077,-0.225c0.155,-0.101 0.38,-0.167 0.617,-0.167c0.575,0 0.715,0.392 0.715,0.769l0,0.703c0,0.163 0.008,0.322 0.031,0.451l-0.31,0l0,-0.001zm-0.05,-0.959c-0.373,-0.008 -0.796,0.058 -0.796,0.423c0,0.221 0.147,0.326 0.322,0.326c0.245,0 0.4,-0.156 0.454,-0.315c0.012,-0.035 0.019,-0.074 0.019,-0.109l0,-0.325l0.001,0z" fill="#6D6E71"/>
  <path id="svg_1377" d="m39.833,-132.276c-0.008,0.136 -0.015,0.287 -0.015,0.516l0,1.091c0,0.431 -0.085,0.695 -0.268,0.858c-0.182,0.171 -0.447,0.225 -0.683,0.225c-0.225,0 -0.474,-0.054 -0.625,-0.155l0.085,-0.26c0.124,0.077 0.318,0.147 0.551,0.147c0.349,0 0.606,-0.182 0.606,-0.656l0,-0.21l-0.008,0c-0.105,0.175 -0.307,0.315 -0.598,0.315c-0.466,0 -0.8,-0.396 -0.8,-0.916c0,-0.637 0.416,-0.998 0.847,-0.998c0.326,0 0.505,0.171 0.586,0.326l0.008,0l0.015,-0.283l0.299,0zm-0.354,0.741c0,-0.058 -0.004,-0.109 -0.019,-0.155c-0.062,-0.198 -0.229,-0.361 -0.478,-0.361c-0.326,0 -0.559,0.276 -0.559,0.711c0,0.369 0.186,0.676 0.555,0.676c0.21,0 0.4,-0.132 0.474,-0.349c0.02,-0.058 0.027,-0.124 0.027,-0.182l0,-0.34z" fill="#6D6E71"/>
  <path id="svg_1378" d="m40.576,-131.274c0.008,0.462 0.303,0.652 0.645,0.652c0.245,0 0.392,-0.043 0.52,-0.097l0.058,0.245c-0.12,0.054 -0.326,0.117 -0.625,0.117c-0.579,0 -0.924,-0.381 -0.924,-0.948c0,-0.567 0.334,-1.013 0.882,-1.013c0.613,0 0.777,0.54 0.777,0.885c0,0.07 -0.008,0.124 -0.012,0.159l-1.321,0zm1.002,-0.245c0.004,-0.217 -0.089,-0.555 -0.474,-0.555c-0.346,0 -0.497,0.318 -0.524,0.555l0.998,0z" fill="#6D6E71"/>
  <path id="svg_1379" d="m42.332,-131.768c0,-0.194 -0.004,-0.353 -0.016,-0.508l0.299,0l0.015,0.303l0.012,0c0.105,-0.179 0.28,-0.346 0.59,-0.346c0.256,0 0.45,0.155 0.532,0.377l0.008,0c0.058,-0.105 0.132,-0.187 0.21,-0.245c0.113,-0.085 0.237,-0.132 0.416,-0.132c0.249,0 0.618,0.163 0.618,0.816l0,1.107l-0.334,0l0,-1.064c0,-0.361 -0.132,-0.579 -0.408,-0.579c-0.194,0 -0.346,0.144 -0.404,0.311c-0.015,0.047 -0.027,0.109 -0.027,0.171l0,1.161l-0.334,0l0,-1.126c0,-0.299 -0.132,-0.516 -0.392,-0.516c-0.213,0 -0.369,0.171 -0.423,0.342c-0.02,0.05 -0.027,0.108 -0.027,0.167l0,1.134l-0.334,0l0,-1.373l-0.001,0z" fill="#6D6E71"/>
  <path id="svg_1380" d="m45.763,-131.274c0.008,0.462 0.303,0.652 0.645,0.652c0.245,0 0.392,-0.043 0.52,-0.097l0.058,0.245c-0.12,0.054 -0.326,0.117 -0.625,0.117c-0.579,0 -0.924,-0.381 -0.924,-0.948c0,-0.567 0.334,-1.013 0.882,-1.013c0.613,0 0.777,0.54 0.777,0.885c0,0.07 -0.008,0.124 -0.012,0.159l-1.321,0zm1.002,-0.245c0.004,-0.217 -0.089,-0.555 -0.474,-0.555c-0.346,0 -0.497,0.318 -0.524,0.555l0.998,0z" fill="#6D6E71"/>
  <path id="svg_1381" d="m47.52,-131.768c0,-0.194 -0.004,-0.353 -0.016,-0.508l0.303,0l0.02,0.311l0.008,0c0.093,-0.179 0.311,-0.353 0.621,-0.353c0.26,0 0.664,0.155 0.664,0.8l0,1.123l-0.342,0l0,-1.084c0,-0.303 -0.113,-0.555 -0.435,-0.555c-0.225,0 -0.4,0.159 -0.458,0.349c-0.015,0.043 -0.023,0.101 -0.023,0.159l0,1.13l-0.342,0l0,-1.372z" fill="#6D6E71"/>
  <path id="svg_1382" d="m50.072,-132.816l0,0.54l0.49,0l0,0.26l-0.49,0l0,1.014c0,0.233 0.066,0.365 0.256,0.365c0.089,0 0.155,-0.012 0.198,-0.023l0.015,0.256c-0.066,0.027 -0.171,0.047 -0.303,0.047c-0.159,0 -0.287,-0.051 -0.369,-0.144c-0.097,-0.101 -0.132,-0.268 -0.132,-0.489l0,-1.025l-0.291,0l0,-0.26l0.291,0l0,-0.451l0.335,-0.09z" fill="#6D6E71"/>
  <g stroke="null" id="svg_1499">
   <path stroke="null" id="svg_1500" d="m265.04696,166.38435l16.82526,0c6.30683,0 11.39674,5.06234 11.39674,11.301l0,35.21584l0,35.21584c0,6.24916 -5.08991,11.301 -11.39674,11.301l-16.82526,0c-6.29625,0 -11.40732,-5.05184 -11.40732,-11.301l0,-35.21584l0,-35.21584c0.01058,-6.24916 5.12165,-11.301 11.40732,-11.301z" fill="#4B484B"/>
   <path stroke="null" id="svg_1501" d="m21.99067,166.38435l16.82526,0c6.30683,0 11.39674,5.06234 11.39674,11.301l0,35.21584l0,35.21584c0,6.24916 -5.08991,11.301 -11.39674,11.301l-16.82526,0c-6.29625,0 -11.40732,-5.05184 -11.40732,-11.301l0,-35.21584l0,-35.21584c0,-6.24916 5.12165,-11.301 11.40732,-11.301z" fill="#4B484B"/>
   <path stroke="null" id="svg_1502" d="m281.67117,87.20385c-13.78825,-3.42391 -11.71419,10.26122 -11.71419,10.26122l-3.38622,0.14704c-6.75127,-12.52982 -17.2168,-31.99148 -21.76702,-40.43572c-1.9894,-3.70748 -6.1481,-6.37519 -10.92055,-8.18167c-5.14282,-4.73676 -37.79864,-8.41273 -81.85121,-8.41273c-38.83567,0 -67.99946,2.85676 -78.76128,6.7743c-5.86239,1.64894 -11.19568,4.77877 -13.91523,9.8201l-21.83052,40.43572l-3.48145,-0.15754c0,0 2.06348,-13.68513 -11.72478,-10.26122c-13.78825,3.42391 -19.97868,11.62658 -17.9152,17.78121c1.68253,4.99933 20.26439,4.1381 27.18497,3.63396l-0.22222,0.39911c0,0 -22.1903,10.14569 -22.1903,39.9631l0,60.39101l285.72262,0l0,-60.39101c0,-29.31327 -22.20088,-39.9631 -22.20088,-39.9631s-0.06349,-0.13654 -0.20106,-0.3886c6.95233,0.50413 25.42837,1.35486 27.10032,-3.64447c2.06348,-6.14413 -4.13753,-14.3468 -17.92578,-17.77071z"/>
   <path stroke="null" id="svg_1503" d="m39.74715,103.02105l20.94163,-42.71482c3.34389,-5.90256 12.48667,-11.06993 19.56598,-11.06993l143.56501,0c7.07931,0 16.22209,5.17787 19.56598,11.06993l20.93105,42.71482c1.62962,3.30838 -0.17989,5.98659 -4.03171,5.98659l-216.49565,0c-3.85182,0.0105 -5.66133,-2.66771 -4.0423,-5.98659z" fill="#303031"/>
   <path stroke="null" id="svg_1504" d="m43.78944,105.70976c-0.7619,0 -1.08994,-0.18905 -1.14285,-0.23106c-0.02116,-0.05251 -0.05291,-0.40961 0.26455,-1.07128l20.93105,-42.71482c2.62432,-4.62123 10.64542,-9.14793 16.39141,-9.14793l143.56501,0c5.75657,0 13.76709,4.5267 16.48664,9.32647l20.8464,42.53628c0.32804,0.66168 0.29629,1.01877 0.25397,1.08179c-0.04233,0.03151 -0.35979,0.22056 -1.1111,0.22056l-216.48507,0z" fill="#989898"/>
   <path stroke="null" id="svg_1505" d="m237.83024,194.1327l-8.86766,7.03687l-155.36386,0l-8.86766,-7.03687l-55.5657,0c0,4.40067 0.24338,16.94099 0.24338,16.94099c0,5.47195 10.62426,9.90413 23.72468,9.90413l238.01929,0c13.10043,0 23.73526,-4.43218 23.73526,-9.90413c0,-5.46145 -0.08466,-12.69787 -0.08466,-16.94099l-56.9731,0z"/>
   <g stroke="null" id="svg_1506">
    <path stroke="null" id="svg_1507" d="m214.44419,203.60621l-124.82441,0c-5.94704,0 -6.22217,-4.09609 -7.70364,-9.15843c-1.47089,-5.05184 2.15871,-9.14793 8.10576,-9.14793l124.03077,0c5.93646,0 9.56606,4.09609 8.09517,9.14793c-1.48147,5.06234 -1.77776,9.15843 -7.70364,9.15843z" fill="#262529"/>
   </g>
   <g stroke="null" id="svg_1508">
    <path stroke="null" id="svg_1509" d="m257.03644,170.08133c-2.76188,-2.91977 -8.23274,-3.48692 -16.86759,-4.36916c-2.67723,-0.27307 -5.59784,-0.57765 -8.62427,-0.97676c-6.09519,-0.80871 -11.5343,-5.661 -14.95226,-9.48401c15.24856,-3.71799 56.3276,-13.65362 65.52329,-14.90345c0.44444,-0.06302 0.86772,-0.08402 1.25925,-0.08402c1.25925,0 2.05289,0.30458 2.35977,0.91374c0.97354,1.92201 0.09524,7.99262 -3.41796,15.4811c-2.78305,5.91307 -19.06863,13.44356 -25.1215,13.44356c-0.01058,-0.02101 -0.1164,-0.02101 -0.15873,-0.02101z" fill="#FFFFFF"/>
   </g>
   <g stroke="null" id="svg_1510">
    <path stroke="null" id="svg_1511" d="m47.01693,170.08133c2.76188,-2.91977 8.23274,-3.48692 16.86759,-4.36916c2.67723,-0.27307 5.58726,-0.57765 8.62427,-0.97676c6.10577,-0.80871 11.5343,-5.661 14.95226,-9.48401c-15.24856,-3.71799 -56.31702,-13.65362 -65.51271,-14.90345c-0.45502,-0.06302 -0.8783,-0.08402 -1.25925,-0.08402c-1.25925,0 -2.05289,0.30458 -2.35977,0.91374c-0.97354,1.92201 -0.09524,7.99262 3.41796,15.4811c2.78305,5.91307 19.07921,13.44356 25.1215,13.44356c0.01058,-0.02101 0.10582,-0.02101 0.14815,-0.02101z" fill="#FFFFFF"/>
   </g>
   <g stroke="null" id="svg_1512">
    <path stroke="null" id="svg_1513" d="m123.69358,166.94099c-7.44968,0 -14.50782,-5.35642 -15.40729,-11.7001c-0.38095,-2.6467 0.32804,-5.07284 2.05289,-7.03687c2.07406,-2.38413 5.44969,-3.74949 9.22744,-3.74949l64.93071,0c3.77775,0 7.15338,1.36536 9.22744,3.74949c1.71427,1.96402 2.42326,4.39016 2.04231,7.02636c-0.89946,6.34368 -7.95761,11.7001 -15.3967,11.7001l-56.6768,0l0,0.0105z" fill="#B0AEAB"/>
   </g>
   <path stroke="null" id="svg_1514" d="m294.888,185.04779l-7.42851,0c-1.90475,0 -3.44971,1.53341 -3.44971,3.42391c0,1.88 1.54496,3.4134 3.44971,3.4134l7.42851,0l0,-6.83731z"/>
   <path stroke="null" id="svg_1515" d="m9.16538,185.04779l7.42851,0c1.90475,0 3.44971,1.53341 3.44971,3.42391c0,1.88 -1.54496,3.4134 -3.44971,3.4134l-7.42851,0l0,-6.83731z"/>
  </g>
 </g>
</svg>