<svg width="300" height="308" xmlns="http://www.w3.org/2000/svg">

 <g>
  <title>background</title>
  <rect fill="none" id="canvas_background" height="310" width="302" y="-1" x="-1"/>
 </g>
 <g>
  <title>Layer 1</title>
  <path id="svg_650" d="m-140.001,308.157c0.504,-0.084 1.164,-0.155 2.003,-0.155c1.032,0 1.787,0.239 2.268,0.672c0.443,0.383 0.707,0.971 0.707,1.69c0,0.732 -0.216,1.308 -0.624,1.728c-0.551,0.587 -1.451,0.887 -2.47,0.887c-0.313,0 -0.601,-0.012 -0.84,-0.072l0,3.238l-1.044,0l0,-7.988zm1.044,3.897c0.228,0.06 0.516,0.084 0.863,0.084c1.26,0 2.027,-0.611 2.027,-1.727c0,-1.067 -0.756,-1.583 -1.907,-1.583c-0.456,0 -0.804,0.036 -0.983,0.084l0,3.142z" fill="#6D6E71"/>
  <path id="svg_651" d="m-133.844,312.151c0,-0.684 -0.013,-1.271 -0.049,-1.811l0.924,0l0.036,1.14l0.048,0c0.264,-0.779 0.899,-1.27 1.607,-1.27c0.12,0 0.203,0.012 0.3,0.035l0,0.996c-0.108,-0.024 -0.216,-0.037 -0.36,-0.037c-0.743,0 -1.271,0.565 -1.415,1.355c-0.023,0.145 -0.048,0.313 -0.048,0.492l0,3.094l-1.043,0l0,-3.994z" fill="#6D6E71"/>
  <text id="svg_731" font-size="2.0198" font-family="'Arial-BoldMT'" fill="#666666" transform="matrix(1,0,0,1,201.6066,233.7194) "/>
  <g id="svg_1101">
   <g id="svg_1102">
    <path id="svg_1103" d="m-21.123,-185.963l-0.591,0c-0.13,0 -0.236,-0.105 -0.236,-0.236c0,-0.13 0.105,-0.236 0.236,-0.236l0.591,0c0.13,0 0.236,0.105 0.236,0.236c0,0.13 -0.105,0.236 -0.236,0.236z" fill="#666666"/>
   </g>
   <g id="svg_1104">
    <path id="svg_1105" d="m0.904,-185.963l-21.32,0c-0.13,0 -0.236,-0.105 -0.236,-0.236c0,-0.13 0.105,-0.236 0.236,-0.236l21.32,0c0.13,0 0.236,0.105 0.236,0.236c0,0.13 -0.105,0.236 -0.236,0.236z" fill="#666666"/>
   </g>
  </g>
  <path id="svg_1369" d="m20.867,-132.727l-0.796,0l0,-0.287l1.938,0l0,0.287l-0.8,0l0,2.33l-0.342,0l0,-2.33z" fill="#6D6E71"/>
  <path id="svg_1370" d="m22.624,-132.805c0.004,0.117 -0.082,0.21 -0.218,0.21c-0.12,0 -0.206,-0.093 -0.206,-0.21c0,-0.12 0.089,-0.213 0.214,-0.213c0.128,0 0.21,0.093 0.21,0.213zm-0.38,2.408l0,-1.88l0.342,0l0,1.88l-0.342,0z" fill="#6D6E71"/>
  <path id="svg_1371" d="m23.153,-131.768c0,-0.194 -0.004,-0.353 -0.016,-0.508l0.299,0l0.015,0.303l0.012,0c0.105,-0.179 0.28,-0.346 0.59,-0.346c0.256,0 0.45,0.155 0.532,0.377l0.008,0c0.058,-0.105 0.132,-0.187 0.21,-0.245c0.113,-0.085 0.237,-0.132 0.416,-0.132c0.249,0 0.618,0.163 0.618,0.816l0,1.107l-0.334,0l0,-1.064c0,-0.361 -0.132,-0.579 -0.408,-0.579c-0.194,0 -0.346,0.144 -0.404,0.311c-0.015,0.047 -0.027,0.109 -0.027,0.171l0,1.161l-0.334,0l0,-1.126c0,-0.299 -0.132,-0.516 -0.392,-0.516c-0.213,0 -0.369,0.171 -0.423,0.342c-0.02,0.05 -0.027,0.108 -0.027,0.167l0,1.134l-0.334,0l0,-1.373l-0.001,0z" fill="#6D6E71"/>
  <path id="svg_1372" d="m26.583,-131.274c0.008,0.462 0.303,0.652 0.645,0.652c0.245,0 0.392,-0.043 0.52,-0.097l0.058,0.245c-0.12,0.054 -0.326,0.117 -0.625,0.117c-0.579,0 -0.924,-0.381 -0.924,-0.948c0,-0.567 0.334,-1.013 0.882,-1.013c0.613,0 0.777,0.54 0.777,0.885c0,0.07 -0.008,0.124 -0.012,0.159l-1.321,0zm1.003,-0.245c0.004,-0.217 -0.089,-0.555 -0.474,-0.555c-0.346,0 -0.497,0.318 -0.524,0.555l0.998,0z" fill="#6D6E71"/>
  <path id="svg_1373" d="m31.381,-131.546c-0.019,-0.365 -0.043,-0.804 -0.039,-1.13l-0.012,0c-0.089,0.307 -0.198,0.633 -0.33,0.994l-0.462,1.27l-0.256,0l-0.423,-1.247c-0.124,-0.369 -0.229,-0.707 -0.303,-1.017l-0.008,0c-0.008,0.326 -0.027,0.765 -0.05,1.157l-0.07,1.123l-0.323,0l0.183,-2.618l0.431,0l0.447,1.266c0.109,0.322 0.198,0.61 0.264,0.882l0.012,0c0.066,-0.264 0.159,-0.551 0.276,-0.882l0.466,-1.266l0.431,0l0.163,2.618l-0.33,0l-0.067,-1.15z" fill="#6D6E71"/>
  <path id="svg_1374" d="m33.352,-130.397l-0.027,-0.237l-0.012,0c-0.105,0.147 -0.307,0.28 -0.575,0.28c-0.38,0 -0.575,-0.268 -0.575,-0.54c0,-0.454 0.404,-0.703 1.13,-0.699l0,-0.039c0,-0.155 -0.043,-0.435 -0.427,-0.435c-0.175,0 -0.357,0.054 -0.49,0.14l-0.077,-0.225c0.155,-0.101 0.38,-0.167 0.617,-0.167c0.575,0 0.715,0.392 0.715,0.769l0,0.703c0,0.163 0.008,0.322 0.031,0.451l-0.31,0l0,-0.001zm-0.051,-0.959c-0.373,-0.008 -0.796,0.058 -0.796,0.423c0,0.221 0.147,0.326 0.322,0.326c0.245,0 0.4,-0.156 0.454,-0.315c0.012,-0.035 0.019,-0.074 0.019,-0.109l0,-0.325l0.001,0z" fill="#6D6E71"/>
  <path id="svg_1375" d="m34.184,-131.768c0,-0.194 -0.004,-0.353 -0.016,-0.508l0.303,0l0.02,0.311l0.008,0c0.093,-0.179 0.311,-0.353 0.621,-0.353c0.26,0 0.664,0.155 0.664,0.8l0,1.123l-0.342,0l0,-1.084c0,-0.303 -0.113,-0.555 -0.435,-0.555c-0.225,0 -0.4,0.159 -0.458,0.349c-0.015,0.043 -0.023,0.101 -0.023,0.159l0,1.13l-0.342,0l0,-1.372z" fill="#6D6E71"/>
  <path id="svg_1376" d="m37.381,-130.397l-0.027,-0.237l-0.012,0c-0.105,0.147 -0.307,0.28 -0.575,0.28c-0.38,0 -0.575,-0.268 -0.575,-0.54c0,-0.454 0.404,-0.703 1.13,-0.699l0,-0.039c0,-0.155 -0.043,-0.435 -0.427,-0.435c-0.175,0 -0.357,0.054 -0.49,0.14l-0.077,-0.225c0.155,-0.101 0.38,-0.167 0.617,-0.167c0.575,0 0.715,0.392 0.715,0.769l0,0.703c0,0.163 0.008,0.322 0.031,0.451l-0.31,0l0,-0.001zm-0.05,-0.959c-0.373,-0.008 -0.796,0.058 -0.796,0.423c0,0.221 0.147,0.326 0.322,0.326c0.245,0 0.4,-0.156 0.454,-0.315c0.012,-0.035 0.019,-0.074 0.019,-0.109l0,-0.325l0.001,0z" fill="#6D6E71"/>
  <path id="svg_1377" d="m39.833,-132.276c-0.008,0.136 -0.015,0.287 -0.015,0.516l0,1.091c0,0.431 -0.085,0.695 -0.268,0.858c-0.182,0.171 -0.447,0.225 -0.683,0.225c-0.225,0 -0.474,-0.054 -0.625,-0.155l0.085,-0.26c0.124,0.077 0.318,0.147 0.551,0.147c0.349,0 0.606,-0.182 0.606,-0.656l0,-0.21l-0.008,0c-0.105,0.175 -0.307,0.315 -0.598,0.315c-0.466,0 -0.8,-0.396 -0.8,-0.916c0,-0.637 0.416,-0.998 0.847,-0.998c0.326,0 0.505,0.171 0.586,0.326l0.008,0l0.015,-0.283l0.299,0zm-0.354,0.741c0,-0.058 -0.004,-0.109 -0.019,-0.155c-0.062,-0.198 -0.229,-0.361 -0.478,-0.361c-0.326,0 -0.559,0.276 -0.559,0.711c0,0.369 0.186,0.676 0.555,0.676c0.21,0 0.4,-0.132 0.474,-0.349c0.02,-0.058 0.027,-0.124 0.027,-0.182l0,-0.34z" fill="#6D6E71"/>
  <path id="svg_1378" d="m40.576,-131.274c0.008,0.462 0.303,0.652 0.645,0.652c0.245,0 0.392,-0.043 0.52,-0.097l0.058,0.245c-0.12,0.054 -0.326,0.117 -0.625,0.117c-0.579,0 -0.924,-0.381 -0.924,-0.948c0,-0.567 0.334,-1.013 0.882,-1.013c0.613,0 0.777,0.54 0.777,0.885c0,0.07 -0.008,0.124 -0.012,0.159l-1.321,0zm1.002,-0.245c0.004,-0.217 -0.089,-0.555 -0.474,-0.555c-0.346,0 -0.497,0.318 -0.524,0.555l0.998,0z" fill="#6D6E71"/>
  <path id="svg_1379" d="m42.332,-131.768c0,-0.194 -0.004,-0.353 -0.016,-0.508l0.299,0l0.015,0.303l0.012,0c0.105,-0.179 0.28,-0.346 0.59,-0.346c0.256,0 0.45,0.155 0.532,0.377l0.008,0c0.058,-0.105 0.132,-0.187 0.21,-0.245c0.113,-0.085 0.237,-0.132 0.416,-0.132c0.249,0 0.618,0.163 0.618,0.816l0,1.107l-0.334,0l0,-1.064c0,-0.361 -0.132,-0.579 -0.408,-0.579c-0.194,0 -0.346,0.144 -0.404,0.311c-0.015,0.047 -0.027,0.109 -0.027,0.171l0,1.161l-0.334,0l0,-1.126c0,-0.299 -0.132,-0.516 -0.392,-0.516c-0.213,0 -0.369,0.171 -0.423,0.342c-0.02,0.05 -0.027,0.108 -0.027,0.167l0,1.134l-0.334,0l0,-1.373l-0.001,0z" fill="#6D6E71"/>
  <path id="svg_1380" d="m45.763,-131.274c0.008,0.462 0.303,0.652 0.645,0.652c0.245,0 0.392,-0.043 0.52,-0.097l0.058,0.245c-0.12,0.054 -0.326,0.117 -0.625,0.117c-0.579,0 -0.924,-0.381 -0.924,-0.948c0,-0.567 0.334,-1.013 0.882,-1.013c0.613,0 0.777,0.54 0.777,0.885c0,0.07 -0.008,0.124 -0.012,0.159l-1.321,0zm1.002,-0.245c0.004,-0.217 -0.089,-0.555 -0.474,-0.555c-0.346,0 -0.497,0.318 -0.524,0.555l0.998,0z" fill="#6D6E71"/>
  <path id="svg_1381" d="m47.52,-131.768c0,-0.194 -0.004,-0.353 -0.016,-0.508l0.303,0l0.02,0.311l0.008,0c0.093,-0.179 0.311,-0.353 0.621,-0.353c0.26,0 0.664,0.155 0.664,0.8l0,1.123l-0.342,0l0,-1.084c0,-0.303 -0.113,-0.555 -0.435,-0.555c-0.225,0 -0.4,0.159 -0.458,0.349c-0.015,0.043 -0.023,0.101 -0.023,0.159l0,1.13l-0.342,0l0,-1.372z" fill="#6D6E71"/>
  <path id="svg_1382" d="m50.072,-132.816l0,0.54l0.49,0l0,0.26l-0.49,0l0,1.014c0,0.233 0.066,0.365 0.256,0.365c0.089,0 0.155,-0.012 0.198,-0.023l0.015,0.256c-0.066,0.027 -0.171,0.047 -0.303,0.047c-0.159,0 -0.287,-0.051 -0.369,-0.144c-0.097,-0.101 -0.132,-0.268 -0.132,-0.489l0,-1.025l-0.291,0l0,-0.26l0.291,0l0,-0.451l0.335,-0.09z" fill="#6D6E71"/>
  <g stroke="null" id="svg_1623">
   <g stroke="null" id="svg_219">
    <path stroke="null" id="svg_220" d="m218.11431,207.28034l-57.60754,0c-1.50211,0 -2.72457,-1.21802 -2.72457,-2.73253c0,-1.5065 1.21447,-2.72452 2.72457,-2.72452l54.86699,0l0,-84.6844l-130.74754,-0.00801l0,84.6844l54.859,0.00801c1.50211,0 2.71658,1.21802 2.71658,2.72452c0,1.5065 -1.21447,2.73253 -2.71658,2.73253l-57.58357,0c-1.50211,0 -2.71658,-1.21802 -2.71658,-2.73253l0,-90.14946c0,-1.5065 1.21447,-2.72452 2.71658,-2.72452l136.1887,-0.00801c1.50211,0 2.72457,1.21802 2.72457,2.72452l0,90.15748c0.01598,1.49848 -1.20648,2.73253 -2.7006,2.73253z" clip-rule="evenodd" fill-rule="evenodd"/>
   </g>
   <path stroke="null" id="svg_221" d="m163.63084,229.12456l-27.24573,0c-0.79101,0 -1.54206,-0.34457 -2.06141,-0.94557c-0.51136,-0.601 -0.74307,-1.39431 -0.6392,-2.17961l5.45714,-38.24741c0.18377,-1.34623 1.34231,-2.33988 2.69261,-2.33988l16.34744,0c1.35829,0 2.50085,1.00967 2.69261,2.33988l5.44915,38.24741c0.11186,0.79332 -0.11186,1.57862 -0.6392,2.17961c-0.52734,0.601 -1.2704,0.94557 -2.05342,0.94557z" fill="#FFB300" clip-rule="evenodd" fill-rule="evenodd"/>
   <path stroke="null" id="svg_222" d="m234.43778,272.82902l-168.87558,0c-1.50211,0 -2.71658,-1.21802 -2.71658,-2.72452l0,-19.1197c0,-1.5065 1.21447,-2.72452 2.71658,-2.72452l168.88357,0c1.50211,0 2.72457,1.21802 2.72457,2.72452l0,19.1197c0.00799,1.5065 -1.22246,2.72452 -2.73256,2.72452z" fill="#FFB300" clip-rule="evenodd" fill-rule="evenodd"/>
   <g stroke="null" id="svg_223">
    <path stroke="null" id="svg_224" d="m149.99999,117.11485c-22.53166,0 -40.85261,-18.38248 -40.85261,-40.97193c0,-22.59747 18.32096,-40.97193 40.85261,-40.97193s40.85261,18.38248 40.85261,40.97193c0.01598,22.60548 -18.32096,40.97193 -40.85261,40.97193l0,0zm0,-76.48681c-19.51945,0 -35.41945,15.93041 -35.41945,35.5229c0,19.58447 15.89201,35.5229 35.41945,35.5229c19.52744,0 35.41945,-15.93041 35.41945,-35.5229c0,-19.59248 -15.89201,-35.5229 -35.41945,-35.5229z" fill="#666666" clip-rule="evenodd" fill-rule="evenodd"/>
   </g>
   <g stroke="null" id="svg_225">
    <path stroke="null" id="svg_226" d="m275.31436,253.70932l-250.61277,0c-1.50211,0 -2.72457,-1.21802 -2.72457,-2.72452l0,-24.59277c0,-1.5065 1.21447,-2.72452 2.72457,-2.72452l250.60478,-0.00801c1.50211,0 2.71658,1.21802 2.71658,2.72452l0,24.59277c0.00799,1.5065 -1.21447,2.73253 -2.70859,2.73253l0,0zm-247.88021,-5.45705l245.14764,0l0,-19.1197l-245.14764,-0.00801l0,19.12771z" fill="#666666" clip-rule="evenodd" fill-rule="evenodd"/>
   </g>
   <g stroke="null" id="svg_227">
    <path stroke="null" id="svg_228" d="m245.35205,229.12456c-0.03196,0 -0.05593,0 -0.08789,0c-1.50211,-0.04007 -2.69261,-1.30617 -2.62869,-2.81266c0.41548,-13.18186 -1.96553,-26.58808 -6.88734,-38.77629c-4.55427,-11.28271 -11.14598,-21.47561 -19.59935,-30.27419c-1.04668,-1.08981 -1.01472,-2.81266 0.07191,-3.8624c1.08663,-1.04974 2.80447,-1.01769 3.85116,0.07212c8.93276,9.30342 15.9,20.08931 20.70995,32.01308c5.19347,12.87735 7.7103,27.06087 7.28683,40.99597c-0.05593,1.48246 -1.25442,2.64438 -2.71658,2.64438z" fill="#666666" clip-rule="evenodd" fill-rule="evenodd"/>
   </g>
   <g stroke="null" id="svg_229">
    <path stroke="null" id="svg_230" d="m54.6719,229.12456c-1.34231,0 -2.51683,-1.00967 -2.7006,-2.37995c-1.2704,-10.03263 -1.34231,-25.54635 5.6409,-42.38227c4.93779,-11.89973 12.72799,-22.63753 22.53166,-31.08354c1.14256,-0.97762 2.8604,-0.84941 3.83518,0.29649c0.97477,1.1459 0.84693,2.86876 -0.29563,3.84638c-9.16447,7.88507 -16.45131,17.91771 -21.04553,29.02412c-6.51181,15.72207 -6.46387,30.20207 -5.27337,39.57762c0.18377,1.49047 -0.86291,2.86876 -2.36503,3.05306c-0.10387,0.03205 -0.22372,0.04808 -0.32759,0.04808z" fill="#666666" clip-rule="evenodd" fill-rule="evenodd"/>
   </g>
   <g stroke="null" id="svg_231">
    <path stroke="null" id="svg_232" d="m245.35205,97.99515c-9.01266,0 -16.34744,-7.34818 -16.34744,-16.39518c0,-9.03899 7.32678,-16.39518 16.34744,-16.39518c9.01266,0 16.34744,7.34818 16.34744,16.39518c-0.00799,9.047 -7.35075,16.39518 -16.34744,16.39518l0,0zm0,-27.31729c-6.00844,0 -10.8903,4.89612 -10.8903,10.92211s4.88186,10.92211 10.8903,10.92211c6.00844,0 10.8903,-4.89612 10.8903,-10.92211s-4.88985,-10.92211 -10.8903,-10.92211z" clip-rule="evenodd" fill-rule="evenodd"/>
   </g>
   <g stroke="null" id="svg_233">
    <path stroke="null" id="svg_234" d="m60.12104,97.99515c-12.00889,0 -21.7806,-9.80025 -21.7806,-21.84422s9.77171,-21.85223 21.7806,-21.85223c12.00889,0 21.7806,9.80025 21.7806,21.85223s-9.77171,21.84422 -21.7806,21.84422l0,0zm0,-38.24741c-9.02065,0 -16.34744,7.34818 -16.34744,16.39518s7.32678,16.39518 16.34744,16.39518c9.01266,0 16.34744,-7.34818 16.34744,-16.39518s-7.35075,-16.39518 -16.34744,-16.39518z" fill="#FFB300" clip-rule="evenodd" fill-rule="evenodd"/>
   </g>
  </g>
 </g>
</svg>