<svg width="304" height="300" xmlns="http://www.w3.org/2000/svg">

 <g>
  <title>background</title>
  <rect fill="none" id="canvas_background" height="302" width="306" y="-1" x="-1"/>
 </g>
 <g>
  <title>Layer 1</title>
  <g stroke="null" id="svg_1581">
   <g stroke="null" id="svg_37">
    <g stroke="null" id="svg_38">
     <g stroke="null" id="svg_39">
      <path stroke="null" id="svg_40" d="m114.30774,185.43823c-5.9189,-0.11857 -11.79252,-0.97227 -17.43327,-2.60259c-12.8534,-3.70529 -34.49135,-11.79763 -40.68841,-25.51608c-8.99156,-19.90183 -7.36143,-39.99931 7.16737,-57.81432c12.57524,-15.41992 29.63979,-25.65244 48.67085,-33.52543c15.29212,-6.33159 30.94001,-11.69685 47.24772,-15.11164c23.76617,-4.9799 47.37063,-4.54713 69.86893,5.06883c15.5444,6.63987 28.20373,16.66489 38.2691,29.50001c13.17037,16.80125 20.38949,35.49368 23.04167,55.97057c1.08675,8.41248 0.62747,16.38626 -3.105,24.04582c-1.38431,2.83973 -4.08178,5.67946 -7.3485,8.34727c-11.68902,9.53889 -27.0717,14.37058 -42.7196,14.0623l-122.97086,-2.42474z" fill="#F5F5F5"/>
     </g>
    </g>
    <g stroke="null" id="svg_41">
     <path stroke="null" id="svg_42" d="m233.41029,68.70689c-0.03881,-3.40886 -3.06619,-6.1656 -6.79865,-6.1656c-0.88622,0 -1.74009,0.16007 -2.52281,0.45056c-1.23553,-4.16178 -5.37553,-7.22679 -10.31118,-7.22679c-5.2979,0 -9.69665,3.52743 -10.53759,8.1457c-1.15791,-0.8537 -2.63925,-1.36947 -4.2435,-1.36947c-3.73247,0 -6.75984,2.75673 -6.79865,6.1656l41.21238,0z" fill="#FFFFFF"/>
    </g>
    <g stroke="null" id="svg_43">
     <path stroke="null" id="svg_44" d="m275.43127,113.19404c-0.03234,-2.59074 -2.32875,-4.68348 -5.16206,-4.68348c-0.67275,0 -1.31962,0.1245 -1.91475,0.34385c-0.93797,-3.15987 -4.08178,-5.48975 -7.82718,-5.48975c-4.02356,0 -7.36143,2.67966 -7.99537,6.18338c-0.87975,-0.65213 -1.99884,-1.03748 -3.22144,-1.03748c-2.83331,0 -5.12972,2.09275 -5.16206,4.68348l31.28286,0z" fill="#FFFFFF"/>
    </g>
   </g>
   <g stroke="null" id="svg_45">
    <path stroke="null" id="svg_46" d="m235.99132,99.86094l0,129.80951c0,9.74046 -8.62931,17.64902 -19.25746,17.64902l-141.62673,0c-10.64109,0 -19.25746,-7.90856 -19.25746,-17.64902l0,-129.80951c0,-9.74046 8.61637,-17.64309 19.25746,-17.64309l141.62673,0c10.62815,0 19.25746,7.90263 19.25746,17.64309z" fill="#FFFFFF"/>
   </g>
   <g stroke="null" id="svg_47">
    <path stroke="null" id="svg_48" d="m235.99132,99.8728l0,129.80358c0,9.7286 -8.63578,17.64309 -19.27686,17.64309l-10.96452,0c10.64109,0 19.27686,-7.91449 19.27686,-17.64309l0,-129.80358c0,-9.75231 -8.63578,-17.64309 -19.27686,-17.64309l10.96452,0c10.64109,0 19.27686,7.89078 19.27686,17.64309z" fill="#F0F1F2"/>
   </g>
   <g stroke="null" id="svg_49">
    <path stroke="null" id="svg_50" d="m63.55396,120.4979l0,118.52173c0,8.88083 7.8854,16.10762 17.60146,16.10762l10.01362,0c-9.71606,0 -17.60146,-7.22679 -17.60146,-16.10762l0,-118.52173c0,-8.90454 7.8854,-16.10762 17.60146,-16.10762l-10.01362,0c-9.71606,0 -17.60146,7.20308 -17.60146,16.10762z" fill="#F0F1F2"/>
   </g>
   <g stroke="null" id="svg_51">
    <path stroke="null" id="svg_52" d="m228.04123,119.50785l0,26.51799l-164.48081,0l0,-26.51799c0,-8.90454 7.85953,-16.10762 17.57558,-16.10762l129.30377,0c9.71606,0 17.60146,7.20308 17.60146,16.10762z" fill="#FFB300"/>
   </g>
   <g stroke="null" id="svg_53">
    <circle stroke="null" id="svg_54" r="12.17894" cy="125.92244" cx="97.54722" fill="#666666"/>
   </g>
   <g stroke="null" id="svg_55">
    <circle stroke="null" id="svg_56" r="12.17893" cy="125.92244" cx="193.07119" fill="#666666"/>
   </g>
   <g stroke="null" id="svg_57">
    <circle stroke="null" id="svg_58" r="9.57731" cy="168.8089" cx="89.78472" fill="#E6E6E6"/>
   </g>
   <g stroke="null" id="svg_59">
    <circle stroke="null" id="svg_60" r="10.48427" cy="153.86326" cx="125.4728" fill="#E6E6E6"/>
   </g>
   <g stroke="null" id="svg_61">
    <circle stroke="null" id="svg_62" r="10.48427" cy="153.86326" cx="166.36174" fill="#E6E6E6"/>
   </g>
   <g stroke="null" id="svg_63">
    <circle stroke="null" id="svg_64" r="10.48427" cy="153.86326" cx="207.25715" fill="#E6E6E6"/>
   </g>
   <g stroke="null" id="svg_65">
    <circle stroke="null" id="svg_66" r="9.57731" cy="198.83062" cx="89.78472" fill="#E6E6E6"/>
   </g>
   <g stroke="null" id="svg_67">
    <circle stroke="null" id="svg_68" r="10.48427" cy="186.74249" cx="125.4728" fill="#E6E6E6"/>
   </g>
   <g stroke="null" id="svg_69">
    <circle stroke="null" id="svg_70" r="10.48427" cy="186.74249" cx="166.36174" fill="#E6E6E6"/>
   </g>
   <g stroke="null" id="svg_71">
    <circle stroke="null" id="svg_72" r="10.48427" cy="186.74249" cx="207.25715" fill="#E6E6E6"/>
   </g>
   <g stroke="null" id="svg_73">
    <circle stroke="null" id="svg_74" r="9.57731" cy="228.85233" cx="89.78472" fill="#E6E6E6"/>
   </g>
   <g stroke="null" id="svg_75">
    <circle stroke="null" id="svg_76" r="10.48427" cy="219.62765" cx="125.4728" fill="#E6E6E6"/>
   </g>
   <g stroke="null" id="svg_77">
    <circle stroke="null" id="svg_78" r="10.48427" cy="219.62765" cx="166.36174" fill="#E6E6E6"/>
   </g>
   <g stroke="null" id="svg_79">
    <circle stroke="null" id="svg_80" r="10.48427" cy="219.62765" cx="207.25715" fill="#E6E6E6"/>
   </g>
   <g stroke="null" id="svg_81">
    <g stroke="null" id="svg_82">
     <path stroke="null" id="svg_83" d="m87.30072,175.2235c-0.58219,0 -1.17084,-0.2075 -1.61719,-0.61656l-3.24731,-2.97609c-0.89269,-0.81813 -0.89269,-2.1461 0,-2.96423c0.89269,-0.81813 2.34169,-0.81813 3.23437,0l1.63659,1.4999l7.27734,-6.66952c0.89269,-0.81813 2.34169,-0.81813 3.23437,0c0.89269,0.81813 0.89269,2.1461 0,2.96423l-8.89453,8.15163c-0.45928,0.40906 -1.04147,0.61063 -1.62366,0.61063z" fill="#5AA7F5"/>
    </g>
   </g>
   <g stroke="null" id="svg_84">
    <g stroke="null" id="svg_85">
     <path stroke="null" id="svg_86" d="m163.27615,193.50093c-0.64041,0 -1.28081,-0.22528 -1.77244,-0.66992l-3.55781,-3.26065c-0.97678,-0.8952 -0.97678,-2.34767 0,-3.24287c0.97678,-0.8952 2.56162,-0.8952 3.5384,0l1.79184,1.64218l7.9695,-7.30386c0.97678,-0.8952 2.56162,-0.8952 3.5384,0s0.97678,2.34767 0,3.24287l-9.74193,8.92826c-0.48516,0.43871 -1.12556,0.66399 -1.76597,0.66399z" fill="#5AA7F5"/>
    </g>
   </g>
   <g stroke="null" id="svg_87">
    <g stroke="null" id="svg_88">
     <path stroke="null" id="svg_89" d="m173.93017,157.71676c0.92503,0.84777 0.92503,2.24096 0,3.09465c-0.47222,0.41499 -1.06734,0.63434 -1.68834,0.63434c-0.59512,0 -1.20966,-0.21935 -1.68834,-0.63434l-4.20468,-3.8535l-4.20468,3.8535c-0.47222,0.41499 -1.06734,0.63434 -1.68834,0.63434c-0.59512,0 -1.20966,-0.21935 -1.66247,-0.63434c-0.92503,-0.84777 -0.92503,-2.24096 0,-3.09465l4.20468,-3.8535l-4.20468,-3.8535c-0.92503,-0.84777 -0.92503,-2.22317 0,-3.09465c0.92503,-0.84777 2.42578,-0.84777 3.35081,0l4.20468,3.8535l4.20468,-3.8535c0.95091,-0.84777 2.44519,-0.84777 3.37669,0c0.92503,0.87148 0.92503,2.24096 0,3.09465l-4.20468,3.8535l4.20468,3.8535z" fill="#F15C4F"/>
    </g>
   </g>
   <g stroke="null" id="svg_90">
    <g stroke="null" id="svg_91">
     <path stroke="null" id="svg_92" d="m96.69981,232.37976c0.84741,0.77663 0.84741,2.05125 0,2.82195c-0.43341,0.37942 -0.97678,0.57506 -1.53956,0.57506c-0.54337,0 -1.10616,-0.20157 -1.53956,-0.57506l-3.84244,-3.5215l-3.84244,3.5215c-0.43341,0.37942 -0.97678,0.57506 -1.53956,0.57506c-0.54337,0 -1.10616,-0.20157 -1.52016,-0.57506c-0.84741,-0.77663 -0.84741,-2.05125 0,-2.82195l3.84244,-3.5215l-3.84244,-3.5215c-0.84741,-0.77663 -0.84741,-2.02753 0,-2.82195c0.84741,-0.77663 2.21231,-0.77663 3.05972,0l3.84244,3.5215l3.84244,-3.5215c0.86681,-0.77663 2.23172,-0.77663 3.07912,0c0.84741,0.79441 0.84741,2.05125 0,2.82195l-3.84244,3.5215l3.84244,3.5215z" fill="#F15C4F"/>
    </g>
   </g>
   <g stroke="null" id="svg_93">
    <path stroke="null" id="svg_94" d="m218.02761,146.03177l0,-26.51799c0,-8.90454 -7.8854,-16.10762 -17.60146,-16.10762l10.01362,0c9.71606,0 17.60146,7.20308 17.60146,16.10762l0,26.51799l-10.01362,0z" fill="#FFB300"/>
   </g>
   <g stroke="null" id="svg_95">
    <path stroke="null" id="svg_96" d="m91.1755,104.38435c-9.71606,0 -17.60146,7.20308 -17.60146,16.10762l0,25.53387l-10.01362,0l0,-25.53387c0,-8.90454 7.8854,-16.10762 17.60146,-16.10762l10.01362,0z" fill="#FFB300"/>
   </g>
   <g stroke="null" id="svg_97">
    <path stroke="null" id="svg_98" d="m216.7274,249.61379l-141.62673,0c-11.99952,0 -21.76086,-8.94604 -21.76086,-19.94333l0,-129.80951c0,-10.99136 9.76134,-19.93148 21.76086,-19.93148l141.62673,0c11.99952,0 21.76733,8.94011 21.76733,19.93148l0,129.80951c0,10.99729 -9.76781,19.94333 -21.76733,19.94333zm-141.62673,-165.10162c-9.23737,0 -16.75405,6.88294 -16.75405,15.34285l0,129.80951c0,8.46584 7.51668,15.35471 16.75405,15.35471l141.62673,0c9.23737,0 16.76052,-6.88887 16.76052,-15.35471l0,-129.80951c0,-8.45991 -7.51668,-15.34285 -16.76052,-15.34285l-141.62673,0z"/>
   </g>
   <g stroke="null" id="svg_99">
    <path stroke="null" id="svg_100" d="m105.49084,94.91661l0,27.3954c0,4.01949 -3.55134,7.27422 -7.95009,7.27422c-4.38581,0 -7.93715,-3.25472 -7.93715,-7.27422l0,-27.3954c0,-4.01949 3.55134,-7.27422 7.93715,-7.27422c2.19937,0 4.17881,0.8122 5.62781,2.12832c1.43606,1.31019 2.32228,3.14208 2.32228,5.1459z" fill="#FFFFFF"/>
   </g>
   <g stroke="null" id="svg_101">
    <path stroke="null" id="svg_102" d="m97.54075,131.67897c-5.63428,0 -10.22062,-4.20328 -10.22062,-9.36696l0,-27.3954c0,-5.16369 4.58634,-9.36696 10.22062,-9.36696c2.72981,0 5.2979,0.97227 7.23853,2.73302c1.93416,1.77261 2.99503,4.12621 2.99503,6.63394l0,27.3954c0,5.16369 -4.58634,9.36696 -10.23356,9.36696zm0,-41.94384c-3.11794,0 -5.64722,2.32396 -5.64722,5.18147l0,27.3954c0,2.85752 2.53575,5.17554 5.64722,5.17554c3.11794,0 5.66015,-2.32396 5.66015,-5.17554l0,-27.3954c0,-1.38726 -0.58219,-2.69152 -1.64953,-3.66379c-1.06734,-0.9782 -2.49694,-1.51769 -4.01062,-1.51769z" fill="#666666"/>
   </g>
   <g stroke="null" id="svg_103">
    <path stroke="null" id="svg_104" d="m201.01481,94.91661l0,27.3954c0,4.01949 -3.55134,7.27422 -7.95009,7.27422c-4.38581,0 -7.93715,-3.25472 -7.93715,-7.27422l0,-27.3954c0,-4.01949 3.55134,-7.27422 7.93715,-7.27422c2.19937,0 4.17881,0.8122 5.62781,2.12832c1.43606,1.31019 2.32228,3.14208 2.32228,5.1459z" fill="#FFFFFF"/>
   </g>
   <g stroke="null" id="svg_105">
    <path stroke="null" id="svg_106" d="m193.06472,131.67897c-5.63428,0 -10.22062,-4.20328 -10.22062,-9.36696l0,-27.3954c0,-5.16369 4.58634,-9.36696 10.22062,-9.36696c2.72981,0 5.2979,0.97227 7.23853,2.73302c1.93416,1.77261 2.99503,4.12621 2.99503,6.63394l0,27.3954c0,5.16369 -4.58634,9.36696 -10.23356,9.36696zm0,-41.94384c-3.11794,0 -5.65368,2.32396 -5.65368,5.18147l0,27.3954c0,2.85752 2.53575,5.17554 5.65368,5.17554c3.11794,0 5.66015,-2.32396 5.66015,-5.17554l0,-27.3954c0,-1.38726 -0.58866,-2.69152 -1.64953,-3.66379c-1.06734,-0.9782 -2.49694,-1.51769 -4.01062,-1.51769z" fill="#666666"/>
   </g>
   <g stroke="null" id="svg_107">
    <circle stroke="null" id="svg_108" r="34.09586" cy="228.97089" cx="245.38394" fill="#FFD8A0"/>
   </g>
   <g stroke="null" id="svg_109">
    <path stroke="null" id="svg_110" d="m234.7946,240.99381c-0.65981,0 -1.31962,-0.23714 -1.81125,-0.70549c-0.95737,-0.91891 -0.91856,-2.37138 0.07762,-3.24287l11.10684,-9.7286c1.00266,-0.87741 2.5875,-0.84184 3.5384,0.07114c0.95737,0.91891 0.91856,2.37138 -0.07762,3.24287l-11.10684,9.7286c-0.48516,0.42092 -1.10616,0.63434 -1.72716,0.63434z"/>
   </g>
   <g stroke="null" id="svg_111">
    <path stroke="null" id="svg_112" d="m287.93535,228.96497c0,21.54402 -19.05046,39.00332 -42.55788,39.00332c-13.46793,0 -25.46098,-5.73282 -33.26876,-14.68479c7.25793,5.32376 16.46943,8.51327 26.5348,8.51327c23.50742,0 42.55788,-17.45931 42.55788,-39.00332c0,-9.20097 -3.48019,-17.64309 -9.28912,-24.31853c9.76134,7.13786 16.02308,18.14701 16.02308,30.49006z" fill="#FFC777"/>
   </g>
   <g stroke="null" id="svg_113">
    <path stroke="null" id="svg_114" d="m245.38394,270.26853c-24.84645,0 -45.06129,-18.52643 -45.06129,-41.29764s20.21483,-41.29764 45.06129,-41.29764c24.84645,0 45.06129,18.52643 45.06129,41.29764s-20.21483,41.29764 -45.06129,41.29764zm0,-78.00665c-22.0843,0 -40.05448,16.46926 -40.05448,36.70901c0,20.23976 17.97018,36.70901 40.05448,36.70901c22.0843,0 40.05448,-16.46926 40.05448,-36.70901c-0.00647,-20.23976 -17.97018,-36.70901 -40.05448,-36.70901z"/>
   </g>
   <g stroke="null" id="svg_115">
    <g stroke="null" id="svg_116">
     <path stroke="null" id="svg_117" d="m245.38394,204.88357c-1.38431,0 -2.5034,-1.02562 -2.5034,-2.29431l0,-4.01357c0,-1.26869 1.11909,-2.29431 2.5034,-2.29431c1.38431,0 2.5034,1.02562 2.5034,2.29431l0,4.01357c0,1.26869 -1.11909,2.29431 -2.5034,2.29431z"/>
    </g>
    <g stroke="null" id="svg_118">
     <path stroke="null" id="svg_119" d="m245.38394,261.66634c-1.38431,0 -2.5034,-1.02562 -2.5034,-2.29431l0,-4.01357c0,-1.26869 1.11909,-2.29431 2.5034,-2.29431c1.38431,0 2.5034,1.02562 2.5034,2.29431l0,4.01357c0,1.26869 -1.11909,2.29431 -2.5034,2.29431z"/>
    </g>
   </g>
   <g stroke="null" id="svg_120">
    <g stroke="null" id="svg_121">
     <path stroke="null" id="svg_122" d="m225.0268,212.60835c-0.64041,0 -1.28081,-0.22528 -1.77244,-0.66992l-3.09853,-2.83973c-0.97678,-0.8952 -0.97678,-2.34767 0,-3.24287c0.97678,-0.8952 2.56162,-0.8952 3.5384,0l3.09853,2.83973c0.97678,0.8952 0.97678,2.34767 0,3.24287c-0.48516,0.44463 -1.12556,0.66992 -1.76597,0.66992z"/>
    </g>
    <g stroke="null" id="svg_123">
     <path stroke="null" id="svg_124" d="m268.83315,252.75587c-0.64041,0 -1.28081,-0.22528 -1.77244,-0.66992l-3.09853,-2.83973c-0.97678,-0.8952 -0.97678,-2.34767 0,-3.24287c0.97678,-0.8952 2.56162,-0.8952 3.5384,0l3.09853,2.83973c0.97678,0.8952 0.97678,2.34767 0,3.24287c-0.48516,0.45056 -1.12556,0.66992 -1.76597,0.66992z"/>
    </g>
   </g>
   <g stroke="null" id="svg_125">
    <g stroke="null" id="svg_126">
     <path stroke="null" id="svg_127" d="m216.59155,231.26521l-4.37934,0c-1.38431,0 -2.5034,-1.02562 -2.5034,-2.29431s1.11909,-2.29431 2.5034,-2.29431l4.37934,0c1.38431,0 2.5034,1.02562 2.5034,2.29431s-1.11909,2.29431 -2.5034,2.29431z"/>
    </g>
    <g stroke="null" id="svg_128">
     <path stroke="null" id="svg_129" d="m278.5492,231.25928l-4.37934,0c-1.38431,0 -2.5034,-1.02562 -2.5034,-2.29431c0,-1.26869 1.11909,-2.29431 2.5034,-2.29431l4.37934,0c1.38431,0 2.5034,1.02562 2.5034,2.29431c0,1.26869 -1.12556,2.29431 -2.5034,2.29431z"/>
    </g>
   </g>
   <g stroke="null" id="svg_130">
    <g stroke="null" id="svg_131">
     <path stroke="null" id="svg_132" d="m221.9218,252.75587c-0.64041,0 -1.28081,-0.22528 -1.77244,-0.66992c-0.97678,-0.8952 -0.97678,-2.34767 0,-3.24287l3.09853,-2.83973c0.97678,-0.8952 2.56162,-0.8952 3.5384,0c0.97678,0.8952 0.97678,2.34767 0,3.24287l-3.09853,2.83973c-0.48516,0.45056 -1.12556,0.66992 -1.76597,0.66992z"/>
    </g>
    <g stroke="null" id="svg_133">
     <path stroke="null" id="svg_134" d="m265.73462,212.60835c-0.64041,0 -1.28081,-0.22528 -1.77244,-0.66992c-0.97678,-0.8952 -0.97678,-2.34767 0,-3.24287l3.09853,-2.83973c0.97678,-0.8952 2.56162,-0.8952 3.5384,0c0.97678,0.8952 0.97678,2.34767 0,3.24287l-3.09853,2.83973c-0.48516,0.44463 -1.12556,0.66992 -1.76597,0.66992z"/>
    </g>
   </g>
   <g stroke="null" id="svg_135">
    <path stroke="null" id="svg_136" d="m245.90144,231.25928c-1.38431,0 -2.5034,-1.02562 -2.5034,-2.29431l0,-20.07376c0,-1.26869 1.11909,-2.29431 2.5034,-2.29431s2.5034,1.02562 2.5034,2.29431l0,20.07376c0,1.26869 -1.11909,2.29431 -2.5034,2.29431z"/>
   </g>
   <g stroke="null" id="svg_1322">
    <path stroke="null" id="svg_1323" d="m-44.91398,212.81585c0,0.45649 0,0.8952 -0.02587,1.32797c-0.02587,0.07114 -0.02587,0.16007 -0.02587,0.23121c0.02587,-0.52763 0.05175,-1.03155 0.05175,-1.55918z" fill="#FFFFFF"/>
   </g>
   <g stroke="null" id="svg_1324">
    <path stroke="null" id="svg_1325" d="m-44.93985,211.48787c0.02587,0.43278 0.02587,0.87148 0.02587,1.32797c0,-0.52763 -0.02587,-1.03155 -0.05175,-1.55918c0,0.07114 0,0.16007 0.02587,0.23121z" fill="#FFFFFF"/>
   </g>
  </g>
 </g>
</svg>