<svg width="304" height="300" xmlns="http://www.w3.org/2000/svg">

 <g>
  <title>background</title>
  <rect fill="none" id="canvas_background" height="302" width="306" y="-1" x="-1"/>
 </g>
 <g>
  <title>Layer 1</title>
  <g stroke="null" id="svg_354">
   <g stroke="null" id="svg_355">
    <g stroke="null" id="svg_356">
     <path stroke="null" id="svg_357" d="m210.83024,103.7073l-35.548,0c-2.52926,0 -4.57441,-2.01717 -4.57441,-4.51184c0,-2.49467 2.04515,-4.51184 4.57441,-4.51184l35.548,0c2.52926,0 4.57441,2.01717 4.57441,4.51184c0.00988,2.49467 -2.03527,4.51184 -4.57441,4.51184z" fill="#D8D8D8"/>
    </g>
   </g>
   <g stroke="null" id="svg_358">
    <path stroke="null" id="svg_359" d="m190.4677,60.20655c0,20.90258 -17.23061,37.90725 -38.42306,37.90725c-21.19246,0 -38.43294,-16.99492 -38.43294,-37.90725c0,-20.80513 17.23061,-37.80005 38.43294,-37.80005c21.19246,0 38.42306,16.99492 38.42306,37.80005z"/>
   </g>
   <g stroke="null" id="svg_360">
    <path stroke="null" id="svg_361" d="m229.34524,163.81319c-4.82141,6.38284 -12.6068,10.16382 -20.71822,10.16382l-113.27345,0c-8.00275,0 -15.78814,-3.78098 -20.7281,-10.16382c-4.82141,-6.27565 -6.47136,-14.16893 -4.38669,-21.74063c5.91808,-21.19492 19.84879,-38.60887 38.04763,-49.42559c9.97873,13.19445 25.87555,21.63344 43.74835,21.63344c17.8728,0 33.76962,-8.43899 43.74835,-21.63344c18.09016,10.81672 32.02087,28.23067 37.93895,49.42559c2.09455,7.5717 0.56316,15.46499 -4.37681,21.74063z"/>
   </g>
   <g stroke="null" id="svg_362">
    <g stroke="null" id="svg_363">
     <path stroke="null" id="svg_364" d="m130.75337,223.2954c1.31403,3.89792 0.21736,8.21486 -2.8553,11.1383l-13.16007,12.65849l3.18134,17.84272c0.66196,4.00511 -0.98799,8.10767 -4.38669,10.60233c-3.35918,2.33875 -7.88419,2.79676 -11.51012,0.76009l-16.34141,-8.43899l-16.22285,8.43899c-3.72474,1.94896 -8.22011,1.62738 -11.6188,-0.76009c-3.29002,-2.48492 -5.04865,-6.59722 -4.27801,-10.60233l3.07266,-17.84272l-13.16007,-12.65849c-2.96398,-2.92344 -4.06065,-7.24038 -2.73674,-11.1383c1.20535,-3.89792 4.71273,-6.81161 8.77338,-7.35732l18.19884,-2.59211l8.11143,-16.22508c3.72474,-7.46451 16.00549,-7.46451 19.74011,0l8.11143,16.22508l18.19884,2.59211c4.16933,0.54571 7.56803,3.4594 8.88206,7.35732z" fill="#FFB300"/>
     <path stroke="null" id="svg_365" d="m260.46703,234.4337l-13.16007,12.65849l3.18134,17.84272c0.66196,4.00511 -0.98799,8.10767 -4.38669,10.60233c-4.01125,2.64084 -8.30902,2.56288 -11.51012,0.76009l-16.34141,-8.43899l-16.23273,8.43899c-3.72474,1.94896 -8.22011,1.62738 -11.6188,-0.76009c-3.29002,-2.48492 -5.03877,-6.59722 -4.27801,-10.60233l3.07266,-17.84272l-13.16007,-12.65849c-2.96398,-2.92344 -4.06065,-7.24038 -2.73674,-11.1383c1.20535,-3.89792 4.71273,-6.81161 8.77338,-7.35732l18.19884,-2.59211l8.11143,-16.22508c1.86731,-3.78098 5.70072,-6.06126 9.87005,-6.06126c4.16933,0 8.00275,2.27054 9.87005,6.06126l8.11143,16.22508l18.19884,2.59211c4.16933,0.54571 7.56803,3.4594 8.88206,7.35732c1.21523,3.88817 0.22724,8.21486 -2.84542,11.1383z" fill="#FFB300"/>
    </g>
   </g>
  </g>
 </g>
</svg>