<svg width="304" height="300" xmlns="http://www.w3.org/2000/svg">

 <g>
  <title>background</title>
  <rect fill="none" id="canvas_background" height="302" width="306" y="-1" x="-1"/>
 </g>
 <g>
  <title>Layer 1</title>
  <g stroke="null" id="svg_1581">
   <g stroke="null" id="svg_37">
    <g stroke="null" id="svg_38">
     <g stroke="null" id="svg_39">
      <path stroke="null" id="svg_40" d="m89.65174,180.70492c-7.04654,-0.16013 -14.03918,-1.31305 -20.75457,-3.51481c-15.30216,-5.004 -41.06247,-15.93274 -48.44016,-34.45955c-10.70458,-26.87749 -8.7639,-54.01919 8.53286,-78.07843c14.97101,-20.82465 35.28662,-34.6437 57.94337,-45.2762c18.20549,-8.55084 36.83455,-15.79663 56.24912,-20.40832c28.29398,-6.72538 56.39544,-6.14091 83.18,6.84547c18.50584,8.96717 33.57697,22.506 45.55994,39.83986c15.67952,22.69014 24.27399,47.93433 27.43146,75.58844c1.29379,11.36108 0.74701,22.12969 -3.69655,32.47397c-1.64804,3.83507 -4.85942,7.67013 -8.74849,11.27301c-13.91596,12.8823 -32.22927,19.40752 -50.85832,18.99118l-146.39865,-3.27462z" fill="#F5F5F5"/>
     </g>
    </g>
    <g stroke="null" id="svg_41">
     <path stroke="null" id="svg_42" d="m231.44511,23.05887c-0.04621,-4.60368 -3.65034,-8.32666 -8.0939,-8.32666c-1.05506,0 -2.07161,0.21617 -3.00344,0.60849c-1.47092,-5.62049 -6.39965,-9.7598 -12.27562,-9.7598c-6.30723,0 -11.54401,4.76381 -12.54516,11.0008c-1.3785,-1.15292 -3.14206,-1.84948 -5.05195,-1.84948c-4.44356,0 -8.04769,3.72298 -8.0939,8.32666l49.06396,0z" fill="#FFFFFF"/>
    </g>
    <g stroke="null" id="svg_43">
     <path stroke="null" id="svg_44" d="m281.47171,83.13891c-0.03851,-3.4988 -2.77241,-6.32506 -6.14551,-6.32506c-0.80092,0 -1.57103,0.16813 -2.27954,0.46437c-1.11667,-4.26741 -4.85942,-7.41393 -9.31838,-7.41393c-4.79011,0 -8.7639,3.61889 -9.51861,8.35068c-1.04735,-0.8807 -2.37965,-1.40112 -3.83517,-1.40112c-3.3731,0 -6.107,2.82626 -6.14551,6.32506l37.24271,0z" fill="#FFFFFF"/>
    </g>
   </g>
   <g stroke="null" id="svg_45">
    <path stroke="null" id="svg_46" d="m234.51786,65.13251l0,175.30817c0,13.15452 -10.27332,23.83506 -22.92629,23.83506l-168.60874,0c-12.66837,0 -22.92629,-10.68054 -22.92629,-23.83506l0,-175.30817c0,-13.15452 10.25792,-23.82705 22.92629,-23.82705l168.60874,0c12.65297,0 22.92629,10.67253 22.92629,23.82705z" fill="#FFFFFF"/>
   </g>
   <g stroke="null" id="svg_47">
    <path stroke="null" id="svg_48" d="m234.51786,65.14852l0,175.30017c0,13.13851 -10.28102,23.82705 -22.94939,23.82705l-13.05343,0c12.66837,0 22.94939,-10.68855 22.94939,-23.82705l0,-175.30017c0,-13.17053 -10.28102,-23.82705 -22.94939,-23.82705l13.05343,0c12.66837,0 22.94939,10.65652 22.94939,23.82705z" fill="#F0F1F2"/>
   </g>
   <g stroke="null" id="svg_49">
    <path stroke="null" id="svg_50" d="m29.2286,93.00279l0,160.06398c0,11.99359 9.38769,21.75339 20.9548,21.75339l11.92136,0c-11.56711,0 -20.9548,-9.7598 -20.9548,-21.75339l0,-160.06398c0,-12.02562 9.38769,-21.75339 20.9548,-21.75339l-11.92136,0c-11.56711,0 -20.9548,9.72778 -20.9548,21.75339z" fill="#F0F1F2"/>
   </g>
   <g stroke="null" id="svg_51">
    <path stroke="null" id="svg_52" d="m225.05316,91.66572l0,35.81263l-195.81686,0l0,-35.81263c0,-12.02562 9.35688,-21.75339 20.92399,-21.75339l153.93807,0c11.56711,0 20.9548,9.72778 20.9548,21.75339z" fill="#FFB300"/>
   </g>
   <g stroke="null" id="svg_53">
    <circle stroke="null" id="svg_54" r="13.30282" cy="100.32865" cx="69.69809" fill="#666666"/>
   </g>
   <g stroke="null" id="svg_55">
    <circle stroke="null" id="svg_56" r="13.30281" cy="100.32865" cx="183.42081" fill="#666666"/>
   </g>
   <g stroke="null" id="svg_57">
    <circle stroke="null" id="svg_58" r="10.46111" cy="158.24696" cx="60.45672" fill="#E6E6E6"/>
   </g>
   <g stroke="null" id="svg_59">
    <circle stroke="null" id="svg_60" r="11.45177" cy="138.06282" cx="102.9439" fill="#E6E6E6"/>
   </g>
   <g stroke="null" id="svg_61">
    <circle stroke="null" id="svg_62" r="11.45177" cy="138.06282" cx="151.6228" fill="#E6E6E6"/>
   </g>
   <g stroke="null" id="svg_63">
    <circle stroke="null" id="svg_64" r="11.45177" cy="138.06282" cx="200.3094" fill="#E6E6E6"/>
   </g>
   <g stroke="null" id="svg_65">
    <circle stroke="null" id="svg_66" r="10.46111" cy="198.79138" cx="60.45672" fill="#E6E6E6"/>
   </g>
   <g stroke="null" id="svg_67">
    <circle stroke="null" id="svg_68" r="11.45177" cy="182.46633" cx="102.9439" fill="#E6E6E6"/>
   </g>
   <g stroke="null" id="svg_69">
    <circle stroke="null" id="svg_70" r="11.45177" cy="182.46633" cx="151.6228" fill="#E6E6E6"/>
   </g>
   <g stroke="null" id="svg_71">
    <circle stroke="null" id="svg_72" r="11.45177" cy="182.46633" cx="200.3094" fill="#E6E6E6"/>
   </g>
   <g stroke="null" id="svg_73">
    <circle stroke="null" id="svg_74" r="10.46111" cy="239.3358" cx="60.45672" fill="#E6E6E6"/>
   </g>
   <g stroke="null" id="svg_75">
    <circle stroke="null" id="svg_76" r="11.45176" cy="226.87784" cx="102.9439" fill="#E6E6E6"/>
   </g>
   <g stroke="null" id="svg_77">
    <circle stroke="null" id="svg_78" r="11.45176" cy="226.87784" cx="151.6228" fill="#E6E6E6"/>
   </g>
   <g stroke="null" id="svg_79">
    <circle stroke="null" id="svg_80" r="11.45176" cy="226.87784" cx="200.3094" fill="#E6E6E6"/>
   </g>
   <g stroke="null" id="svg_81">
    <g stroke="null" id="svg_82">
     <path stroke="null" id="svg_83" d="m57.49948,166.90989c-0.6931,0 -1.39391,-0.28022 -1.92528,-0.83267l-3.86597,-4.01921c-1.06276,-1.10488 -1.06276,-2.89832 0,-4.0032c1.06276,-1.10488 2.78781,-1.10488 3.85057,0l1.94839,2.02562l8.66378,-9.0072c1.06276,-1.10488 2.78781,-1.10488 3.85057,0c1.06276,1.10488 1.06276,2.89832 0,4.0032l-10.58907,11.0088c-0.54678,0.55244 -1.23988,0.82466 -1.93299,0.82466z" fill="#5AA7F5"/>
    </g>
   </g>
   <g stroke="null" id="svg_84">
    <g stroke="null" id="svg_85">
     <path stroke="null" id="svg_86" d="m147.94936,191.59362c-0.76241,0 -1.52483,-0.30424 -2.11011,-0.90472l-4.23563,-4.40352c-1.16287,-1.20897 -1.16287,-3.17054 0,-4.3795c1.16287,-1.20897 3.04965,-1.20897 4.21252,0l2.13322,2.21777l9.4878,-9.86389c1.16287,-1.20897 3.04965,-1.20897 4.21252,0s1.16287,3.17054 0,4.3795l-11.59792,12.05764c-0.57759,0.59247 -1.34,0.89672 -2.10241,0.89672z" fill="#5AA7F5"/>
    </g>
   </g>
   <g stroke="null" id="svg_87">
    <g stroke="null" id="svg_88">
     <path stroke="null" id="svg_89" d="m160.63314,143.26698c1.10126,1.14492 1.10126,3.02642 0,4.17934c-0.56218,0.56045 -1.27069,0.85668 -2.01,0.85668c-0.7085,0 -1.44011,-0.29624 -2.01,-0.85668l-5.00574,-5.20416l-5.00574,5.20416c-0.56218,0.56045 -1.27069,0.85668 -2.01,0.85668c-0.7085,0 -1.44011,-0.29624 -1.97919,-0.85668c-1.10126,-1.14492 -1.10126,-3.02642 0,-4.17934l5.00574,-5.20416l-5.00574,-5.20416c-1.10126,-1.14492 -1.10126,-3.0024 0,-4.17934c1.10126,-1.14492 2.88793,-1.14492 3.98919,0l5.00574,5.20416l5.00574,-5.20416c1.13207,-1.14492 2.91103,-1.14492 4.01999,0c1.10126,1.17694 1.10126,3.02642 0,4.17934l-5.00574,5.20416l5.00574,5.20416z" fill="#F15C4F"/>
    </g>
   </g>
   <g stroke="null" id="svg_90">
    <g stroke="null" id="svg_91">
     <path stroke="null" id="svg_92" d="m68.68924,244.09961c1.00885,1.04884 1.00885,2.77021 0,3.81105c-0.51598,0.51241 -1.16287,0.77662 -1.83287,0.77662c-0.6469,0 -1.31689,-0.27222 -1.83287,-0.77662l-4.57448,-4.7558l-4.57448,4.7558c-0.51598,0.51241 -1.16287,0.77662 -1.83287,0.77662c-0.6469,0 -1.31689,-0.27222 -1.80977,-0.77662c-1.00885,-1.04884 -1.00885,-2.77021 0,-3.81105l4.57448,-4.7558l-4.57448,-4.7558c-1.00885,-1.04884 -1.00885,-2.73819 0,-3.81105c1.00885,-1.04884 2.63379,-1.04884 3.64264,0l4.57448,4.7558l4.57448,-4.7558c1.03195,-1.04884 2.65689,-1.04884 3.66574,0c1.00885,1.07286 1.00885,2.77021 0,3.81105l-4.57448,4.7558l4.57448,4.7558z" fill="#F15C4F"/>
    </g>
   </g>
   <g stroke="null" id="svg_93">
    <path stroke="null" id="svg_94" d="m213.1318,127.48637l0,-35.81263c0,-12.02562 -9.38769,-21.75339 -20.9548,-21.75339l11.92136,0c11.56711,0 20.9548,9.72778 20.9548,21.75339l0,35.81263l-11.92136,0z" fill="#FFB300"/>
   </g>
   <g stroke="null" id="svg_95">
    <path stroke="null" id="svg_96" d="m62.11246,71.24139c-11.56711,0 -20.9548,9.72778 -20.9548,21.75339l0,34.48357l-11.92136,0l0,-34.48357c0,-12.02562 9.38769,-21.75339 20.9548,-21.75339l11.92136,0z" fill="#FFB300"/>
   </g>
   <g stroke="null" id="svg_97">
    <path stroke="null" id="svg_98" d="m211.58387,267.37422l-168.60874,0c-14.28561,0 -25.90663,-12.08166 -25.90663,-26.93354l0,-175.30817c0,-14.84387 11.62102,-26.91752 25.90663,-26.91752l168.60874,0c14.28561,0 25.91433,12.07365 25.91433,26.91752l0,175.30817c0,14.85188 -11.62872,26.93354 -25.91433,26.93354zm-168.60874,-222.97028c-10.99723,0 -19.94595,9.29543 -19.94595,20.72057l0,175.30817c0,11.43314 8.94872,20.73658 19.94595,20.73658l168.60874,0c10.99723,0 19.95365,-9.30344 19.95365,-20.73658l0,-175.30817c0,-11.42514 -8.94872,-20.72057 -19.95365,-20.72057l-168.60874,0z"/>
   </g>
   <g stroke="null" id="svg_99">
    <path stroke="null" id="svg_100" d="m79.15509,58.45517l0,36.99758c0,5.42834 -4.22793,9.82385 -9.4647,9.82385c-5.22137,0 -9.4493,-4.39551 -9.4493,-9.82385l0,-36.99758c0,-5.42834 4.22793,-9.82385 9.4493,-9.82385c2.61839,0 4.97494,1.09688 6.69999,2.8743c1.70965,1.76941 2.76471,4.24339 2.76471,6.94956z" fill="#FFFFFF"/>
   </g>
   <g stroke="null" id="svg_101">
    <path stroke="null" id="svg_102" d="m69.69039,108.10287c-6.70769,0 -12.1678,-5.67654 -12.1678,-12.65011l0,-36.99758c0,-6.97358 5.46011,-12.65011 12.1678,-12.65011c3.24988,0 6.30723,1.31305 8.61757,3.69095c2.30264,2.39391 3.56563,5.57246 3.56563,8.95916l0,36.99758c0,6.97358 -5.46011,12.65011 -12.1832,12.65011zm0,-56.64529c-3.71195,0 -6.72309,3.13851 -6.72309,6.9976l0,36.99758c0,3.85909 3.01885,6.98959 6.72309,6.98959c3.71195,0 6.7385,-3.13851 6.7385,-6.98959l0,-36.99758c0,-1.8735 -0.6931,-3.63491 -1.96379,-4.94796c-1.27069,-1.32106 -2.97264,-2.04964 -4.77471,-2.04964z" fill="#666666"/>
   </g>
   <g stroke="null" id="svg_103">
    <path stroke="null" id="svg_104" d="m192.8778,58.45517l0,36.99758c0,5.42834 -4.22793,9.82385 -9.4647,9.82385c-5.22137,0 -9.4493,-4.39551 -9.4493,-9.82385l0,-36.99758c0,-5.42834 4.22793,-9.82385 9.4493,-9.82385c2.61839,0 4.97494,1.09688 6.69999,2.8743c1.70965,1.76941 2.76471,4.24339 2.76471,6.94956z" fill="#FFFFFF"/>
   </g>
   <g stroke="null" id="svg_105">
    <path stroke="null" id="svg_106" d="m183.41311,108.10287c-6.70769,0 -12.1678,-5.67654 -12.1678,-12.65011l0,-36.99758c0,-6.97358 5.46011,-12.65011 12.1678,-12.65011c3.24988,0 6.30723,1.31305 8.61757,3.69095c2.30264,2.39391 3.56563,5.57246 3.56563,8.95916l0,36.99758c0,6.97358 -5.46011,12.65011 -12.1832,12.65011zm0,-56.64529c-3.71195,0 -6.7308,3.13851 -6.7308,6.9976l0,36.99758c0,3.85909 3.01885,6.98959 6.7308,6.98959c3.71195,0 6.7385,-3.13851 6.7385,-6.98959l0,-36.99758c0,-1.8735 -0.7008,-3.63491 -1.96379,-4.94796c-1.27069,-1.32106 -2.97264,-2.04964 -4.77471,-2.04964z" fill="#666666"/>
   </g>
   <g stroke="null" id="svg_107">
    <circle stroke="null" id="svg_108" r="37.24223" cy="239.49593" cx="245.69992" fill="#FFD8A0"/>
   </g>
   <g stroke="null" id="svg_109">
    <path stroke="null" id="svg_110" d="m233.09315,255.73291c-0.78552,0 -1.57103,-0.32026 -2.15632,-0.95276c-1.13977,-1.24099 -1.09356,-3.20256 0.09241,-4.3795l13.22286,-13.13851c1.19368,-1.18495 3.08046,-1.13691 4.21252,0.09608c1.13977,1.24099 1.09356,3.20256 -0.09241,4.3795l-13.22286,13.13851c-0.57759,0.56845 -1.31689,0.85668 -2.0562,0.85668z"/>
   </g>
   <g stroke="null" id="svg_111">
    <path stroke="null" id="svg_112" d="m296.35801,239.48792c0,29.09526 -22.67985,52.67412 -50.66579,52.67412c-16.03377,0 -30.31168,-7.74219 -39.60696,-19.83186c8.64068,7.18975 19.6071,11.49719 31.59007,11.49719c27.98594,0 50.66579,-23.57885 50.66579,-52.67412c0,-12.42594 -4.14321,-23.82705 -11.05884,-32.84226c11.62102,9.63971 19.07572,24.5076 19.07572,41.17692z" fill="#FFC777"/>
   </g>
   <g stroke="null" id="svg_113">
    <path stroke="null" id="svg_114" d="m245.69992,295.26852c-29.58007,0 -53.64613,-25.02001 -53.64613,-55.77259s24.06606,-55.77259 53.64613,-55.77259c29.58007,0 53.64613,25.02001 53.64613,55.77259s-24.06606,55.77259 -53.64613,55.77259zm0,-105.34823c-26.29169,0 -47.68545,22.24178 -47.68545,49.57564c0,27.33386 21.39376,49.57564 47.68545,49.57564c26.29169,0 47.68545,-22.24178 47.68545,-49.57564c-0.0077,-27.33386 -21.39376,-49.57564 -47.68545,-49.57564z"/>
   </g>
   <g stroke="null" id="svg_115">
    <g stroke="null" id="svg_116">
     <path stroke="null" id="svg_117" d="m245.69992,206.96592c-1.64804,0 -2.98034,-1.38511 -2.98034,-3.09848l0,-5.42033c0,-1.71337 1.3323,-3.09848 2.98034,-3.09848c1.64804,0 2.98034,1.38511 2.98034,3.09848l0,5.42033c0,1.71337 -1.3323,3.09848 -2.98034,3.09848z"/>
    </g>
    <g stroke="null" id="svg_118">
     <path stroke="null" id="svg_119" d="m245.69992,283.65123c-1.64804,0 -2.98034,-1.38511 -2.98034,-3.09848l0,-5.42033c0,-1.71337 1.3323,-3.09848 2.98034,-3.09848c1.64804,0 2.98034,1.38511 2.98034,3.09848l0,5.42033c0,1.71337 -1.3323,3.09848 -2.98034,3.09848z"/>
    </g>
   </g>
   <g stroke="null" id="svg_120">
    <g stroke="null" id="svg_121">
     <path stroke="null" id="svg_122" d="m221.46443,217.39826c-0.76241,0 -1.52483,-0.30424 -2.11011,-0.90472l-3.68885,-3.83507c-1.16287,-1.20897 -1.16287,-3.17054 0,-4.3795c1.16287,-1.20897 3.04965,-1.20897 4.21252,0l3.68885,3.83507c1.16287,1.20897 1.16287,3.17054 0,4.3795c-0.57759,0.60048 -1.34,0.90472 -2.10241,0.90472z"/>
    </g>
    <g stroke="null" id="svg_123">
     <path stroke="null" id="svg_124" d="m273.61655,271.61761c-0.76241,0 -1.52483,-0.30424 -2.11011,-0.90472l-3.68885,-3.83507c-1.16287,-1.20897 -1.16287,-3.17054 0,-4.3795c1.16287,-1.20897 3.04965,-1.20897 4.21252,0l3.68885,3.83507c1.16287,1.20897 1.16287,3.17054 0,4.3795c-0.57759,0.60849 -1.34,0.90472 -2.10241,0.90472z"/>
    </g>
   </g>
   <g stroke="null" id="svg_125">
    <g stroke="null" id="svg_126">
     <path stroke="null" id="svg_127" d="m211.42215,242.5944l-5.21367,0c-1.64804,0 -2.98034,-1.38511 -2.98034,-3.09848s1.3323,-3.09848 2.98034,-3.09848l5.21367,0c1.64804,0 2.98034,1.38511 2.98034,3.09848s-1.3323,3.09848 -2.98034,3.09848z"/>
    </g>
    <g stroke="null" id="svg_128">
     <path stroke="null" id="svg_129" d="m285.18366,242.5864l-5.21367,0c-1.64804,0 -2.98034,-1.38511 -2.98034,-3.09848c0,-1.71337 1.3323,-3.09848 2.98034,-3.09848l5.21367,0c1.64804,0 2.98034,1.38511 2.98034,3.09848c0,1.71337 -1.34,3.09848 -2.98034,3.09848z"/>
    </g>
   </g>
   <g stroke="null" id="svg_130">
    <g stroke="null" id="svg_131">
     <path stroke="null" id="svg_132" d="m217.76789,271.61761c-0.76241,0 -1.52483,-0.30424 -2.11011,-0.90472c-1.16287,-1.20897 -1.16287,-3.17054 0,-4.3795l3.68885,-3.83507c1.16287,-1.20897 3.04965,-1.20897 4.21252,0c1.16287,1.20897 1.16287,3.17054 0,4.3795l-3.68885,3.83507c-0.57759,0.60849 -1.34,0.90472 -2.10241,0.90472z"/>
    </g>
    <g stroke="null" id="svg_133">
     <path stroke="null" id="svg_134" d="m269.9277,217.39826c-0.76241,0 -1.52483,-0.30424 -2.11011,-0.90472c-1.16287,-1.20897 -1.16287,-3.17054 0,-4.3795l3.68885,-3.83507c1.16287,-1.20897 3.04965,-1.20897 4.21252,0c1.16287,1.20897 1.16287,3.17054 0,4.3795l-3.68885,3.83507c-0.57759,0.60048 -1.34,0.90472 -2.10241,0.90472z"/>
    </g>
   </g>
   <g stroke="null" id="svg_135">
    <path stroke="null" id="svg_136" d="m246.31601,242.5864c-1.64804,0 -2.98034,-1.38511 -2.98034,-3.09848l0,-27.10968c0,-1.71337 1.3323,-3.09848 2.98034,-3.09848s2.98034,1.38511 2.98034,3.09848l0,27.10968c0,1.71337 -1.3323,3.09848 -2.98034,3.09848z"/>
   </g>
   <g stroke="null" id="svg_1322">
    <path stroke="null" id="svg_1323" d="m-99.9041,217.67848c0,0.61649 0,1.20897 -0.0308,1.79343c-0.0308,0.09608 -0.0308,0.21617 -0.0308,0.31225c0.0308,-0.71257 0.06161,-1.39311 0.06161,-2.10568z" fill="#FFFFFF"/>
   </g>
   <g stroke="null" id="svg_1324">
    <path stroke="null" id="svg_1325" d="m-99.9349,215.88505c0.0308,0.58447 0.0308,1.17694 0.0308,1.79343c0,-0.71257 -0.0308,-1.39311 -0.06161,-2.10568c0,0.09608 0,0.21617 0.0308,0.31225z" fill="#FFFFFF"/>
   </g>
  </g>
 </g>
</svg>