<svg width="304" height="300" xmlns="http://www.w3.org/2000/svg">
 <defs>
  <linearGradient y2="0.5001" x2="1.00011" y1="0.5001" x1="0.00003" id="SVGID_1_">
   <stop stop-color="#FFFFFF" offset="0"/>
   <stop stop-color="#000000" offset="1"/>
  </linearGradient>
 </defs>
 <g>
  <title>background</title>
  <rect fill="none" id="canvas_background" height="302" width="306" y="-1" x="-1"/>
 </g>
 <g>
  <title>Layer 1</title>
  <path id="svg_650" d="m-140.001,308.157c0.504,-0.084 1.164,-0.155 2.003,-0.155c1.032,0 1.787,0.239 2.268,0.672c0.443,0.383 0.707,0.971 0.707,1.69c0,0.732 -0.216,1.308 -0.624,1.728c-0.551,0.587 -1.451,0.887 -2.47,0.887c-0.313,0 -0.601,-0.012 -0.84,-0.072l0,3.238l-1.044,0l0,-7.988zm1.044,3.897c0.228,0.06 0.516,0.084 0.863,0.084c1.26,0 2.027,-0.611 2.027,-1.727c0,-1.067 -0.756,-1.583 -1.907,-1.583c-0.456,0 -0.804,0.036 -0.983,0.084l0,3.142z" fill="#6D6E71"/>
  <path id="svg_651" d="m-133.844,312.151c0,-0.684 -0.013,-1.271 -0.049,-1.811l0.924,0l0.036,1.14l0.048,0c0.264,-0.779 0.899,-1.27 1.607,-1.27c0.12,0 0.203,0.012 0.3,0.035l0,0.996c-0.108,-0.024 -0.216,-0.037 -0.36,-0.037c-0.743,0 -1.271,0.565 -1.415,1.355c-0.023,0.145 -0.048,0.313 -0.048,0.492l0,3.094l-1.043,0l0,-3.994z" fill="#6D6E71"/>
  <text id="svg_731" font-size="2.0198" font-family="'Arial-BoldMT'" fill="#666666" transform="matrix(1,0,0,1,201.6066,233.7194) "/>
  <g id="svg_1101">
   <g id="svg_1102">
    <path id="svg_1103" d="m-21.123,-185.963l-0.591,0c-0.13,0 -0.236,-0.105 -0.236,-0.236c0,-0.13 0.105,-0.236 0.236,-0.236l0.591,0c0.13,0 0.236,0.105 0.236,0.236c0,0.13 -0.105,0.236 -0.236,0.236z" fill="#666666"/>
   </g>
   <g id="svg_1104">
    <path id="svg_1105" d="m0.904,-185.963l-21.32,0c-0.13,0 -0.236,-0.105 -0.236,-0.236c0,-0.13 0.105,-0.236 0.236,-0.236l21.32,0c0.13,0 0.236,0.105 0.236,0.236c0,0.13 -0.105,0.236 -0.236,0.236z" fill="#666666"/>
   </g>
  </g>
  <path id="svg_1369" d="m20.867,-132.727l-0.796,0l0,-0.287l1.938,0l0,0.287l-0.8,0l0,2.33l-0.342,0l0,-2.33z" fill="#6D6E71"/>
  <path id="svg_1370" d="m22.624,-132.805c0.004,0.117 -0.082,0.21 -0.218,0.21c-0.12,0 -0.206,-0.093 -0.206,-0.21c0,-0.12 0.089,-0.213 0.214,-0.213c0.128,0 0.21,0.093 0.21,0.213zm-0.38,2.408l0,-1.88l0.342,0l0,1.88l-0.342,0z" fill="#6D6E71"/>
  <path id="svg_1371" d="m23.153,-131.768c0,-0.194 -0.004,-0.353 -0.016,-0.508l0.299,0l0.015,0.303l0.012,0c0.105,-0.179 0.28,-0.346 0.59,-0.346c0.256,0 0.45,0.155 0.532,0.377l0.008,0c0.058,-0.105 0.132,-0.187 0.21,-0.245c0.113,-0.085 0.237,-0.132 0.416,-0.132c0.249,0 0.618,0.163 0.618,0.816l0,1.107l-0.334,0l0,-1.064c0,-0.361 -0.132,-0.579 -0.408,-0.579c-0.194,0 -0.346,0.144 -0.404,0.311c-0.015,0.047 -0.027,0.109 -0.027,0.171l0,1.161l-0.334,0l0,-1.126c0,-0.299 -0.132,-0.516 -0.392,-0.516c-0.213,0 -0.369,0.171 -0.423,0.342c-0.02,0.05 -0.027,0.108 -0.027,0.167l0,1.134l-0.334,0l0,-1.373l-0.001,0z" fill="#6D6E71"/>
  <path id="svg_1372" d="m26.583,-131.274c0.008,0.462 0.303,0.652 0.645,0.652c0.245,0 0.392,-0.043 0.52,-0.097l0.058,0.245c-0.12,0.054 -0.326,0.117 -0.625,0.117c-0.579,0 -0.924,-0.381 -0.924,-0.948c0,-0.567 0.334,-1.013 0.882,-1.013c0.613,0 0.777,0.54 0.777,0.885c0,0.07 -0.008,0.124 -0.012,0.159l-1.321,0zm1.003,-0.245c0.004,-0.217 -0.089,-0.555 -0.474,-0.555c-0.346,0 -0.497,0.318 -0.524,0.555l0.998,0z" fill="#6D6E71"/>
  <path id="svg_1373" d="m31.381,-131.546c-0.019,-0.365 -0.043,-0.804 -0.039,-1.13l-0.012,0c-0.089,0.307 -0.198,0.633 -0.33,0.994l-0.462,1.27l-0.256,0l-0.423,-1.247c-0.124,-0.369 -0.229,-0.707 -0.303,-1.017l-0.008,0c-0.008,0.326 -0.027,0.765 -0.05,1.157l-0.07,1.123l-0.323,0l0.183,-2.618l0.431,0l0.447,1.266c0.109,0.322 0.198,0.61 0.264,0.882l0.012,0c0.066,-0.264 0.159,-0.551 0.276,-0.882l0.466,-1.266l0.431,0l0.163,2.618l-0.33,0l-0.067,-1.15z" fill="#6D6E71"/>
  <path id="svg_1374" d="m33.352,-130.397l-0.027,-0.237l-0.012,0c-0.105,0.147 -0.307,0.28 -0.575,0.28c-0.38,0 -0.575,-0.268 -0.575,-0.54c0,-0.454 0.404,-0.703 1.13,-0.699l0,-0.039c0,-0.155 -0.043,-0.435 -0.427,-0.435c-0.175,0 -0.357,0.054 -0.49,0.14l-0.077,-0.225c0.155,-0.101 0.38,-0.167 0.617,-0.167c0.575,0 0.715,0.392 0.715,0.769l0,0.703c0,0.163 0.008,0.322 0.031,0.451l-0.31,0l0,-0.001zm-0.051,-0.959c-0.373,-0.008 -0.796,0.058 -0.796,0.423c0,0.221 0.147,0.326 0.322,0.326c0.245,0 0.4,-0.156 0.454,-0.315c0.012,-0.035 0.019,-0.074 0.019,-0.109l0,-0.325l0.001,0z" fill="#6D6E71"/>
  <path id="svg_1375" d="m34.184,-131.768c0,-0.194 -0.004,-0.353 -0.016,-0.508l0.303,0l0.02,0.311l0.008,0c0.093,-0.179 0.311,-0.353 0.621,-0.353c0.26,0 0.664,0.155 0.664,0.8l0,1.123l-0.342,0l0,-1.084c0,-0.303 -0.113,-0.555 -0.435,-0.555c-0.225,0 -0.4,0.159 -0.458,0.349c-0.015,0.043 -0.023,0.101 -0.023,0.159l0,1.13l-0.342,0l0,-1.372z" fill="#6D6E71"/>
  <path id="svg_1376" d="m37.381,-130.397l-0.027,-0.237l-0.012,0c-0.105,0.147 -0.307,0.28 -0.575,0.28c-0.38,0 -0.575,-0.268 -0.575,-0.54c0,-0.454 0.404,-0.703 1.13,-0.699l0,-0.039c0,-0.155 -0.043,-0.435 -0.427,-0.435c-0.175,0 -0.357,0.054 -0.49,0.14l-0.077,-0.225c0.155,-0.101 0.38,-0.167 0.617,-0.167c0.575,0 0.715,0.392 0.715,0.769l0,0.703c0,0.163 0.008,0.322 0.031,0.451l-0.31,0l0,-0.001zm-0.05,-0.959c-0.373,-0.008 -0.796,0.058 -0.796,0.423c0,0.221 0.147,0.326 0.322,0.326c0.245,0 0.4,-0.156 0.454,-0.315c0.012,-0.035 0.019,-0.074 0.019,-0.109l0,-0.325l0.001,0z" fill="#6D6E71"/>
  <path id="svg_1377" d="m39.833,-132.276c-0.008,0.136 -0.015,0.287 -0.015,0.516l0,1.091c0,0.431 -0.085,0.695 -0.268,0.858c-0.182,0.171 -0.447,0.225 -0.683,0.225c-0.225,0 -0.474,-0.054 -0.625,-0.155l0.085,-0.26c0.124,0.077 0.318,0.147 0.551,0.147c0.349,0 0.606,-0.182 0.606,-0.656l0,-0.21l-0.008,0c-0.105,0.175 -0.307,0.315 -0.598,0.315c-0.466,0 -0.8,-0.396 -0.8,-0.916c0,-0.637 0.416,-0.998 0.847,-0.998c0.326,0 0.505,0.171 0.586,0.326l0.008,0l0.015,-0.283l0.299,0zm-0.354,0.741c0,-0.058 -0.004,-0.109 -0.019,-0.155c-0.062,-0.198 -0.229,-0.361 -0.478,-0.361c-0.326,0 -0.559,0.276 -0.559,0.711c0,0.369 0.186,0.676 0.555,0.676c0.21,0 0.4,-0.132 0.474,-0.349c0.02,-0.058 0.027,-0.124 0.027,-0.182l0,-0.34z" fill="#6D6E71"/>
  <path id="svg_1378" d="m40.576,-131.274c0.008,0.462 0.303,0.652 0.645,0.652c0.245,0 0.392,-0.043 0.52,-0.097l0.058,0.245c-0.12,0.054 -0.326,0.117 -0.625,0.117c-0.579,0 -0.924,-0.381 -0.924,-0.948c0,-0.567 0.334,-1.013 0.882,-1.013c0.613,0 0.777,0.54 0.777,0.885c0,0.07 -0.008,0.124 -0.012,0.159l-1.321,0zm1.002,-0.245c0.004,-0.217 -0.089,-0.555 -0.474,-0.555c-0.346,0 -0.497,0.318 -0.524,0.555l0.998,0z" fill="#6D6E71"/>
  <path id="svg_1379" d="m42.332,-131.768c0,-0.194 -0.004,-0.353 -0.016,-0.508l0.299,0l0.015,0.303l0.012,0c0.105,-0.179 0.28,-0.346 0.59,-0.346c0.256,0 0.45,0.155 0.532,0.377l0.008,0c0.058,-0.105 0.132,-0.187 0.21,-0.245c0.113,-0.085 0.237,-0.132 0.416,-0.132c0.249,0 0.618,0.163 0.618,0.816l0,1.107l-0.334,0l0,-1.064c0,-0.361 -0.132,-0.579 -0.408,-0.579c-0.194,0 -0.346,0.144 -0.404,0.311c-0.015,0.047 -0.027,0.109 -0.027,0.171l0,1.161l-0.334,0l0,-1.126c0,-0.299 -0.132,-0.516 -0.392,-0.516c-0.213,0 -0.369,0.171 -0.423,0.342c-0.02,0.05 -0.027,0.108 -0.027,0.167l0,1.134l-0.334,0l0,-1.373l-0.001,0z" fill="#6D6E71"/>
  <path id="svg_1380" d="m45.763,-131.274c0.008,0.462 0.303,0.652 0.645,0.652c0.245,0 0.392,-0.043 0.52,-0.097l0.058,0.245c-0.12,0.054 -0.326,0.117 -0.625,0.117c-0.579,0 -0.924,-0.381 -0.924,-0.948c0,-0.567 0.334,-1.013 0.882,-1.013c0.613,0 0.777,0.54 0.777,0.885c0,0.07 -0.008,0.124 -0.012,0.159l-1.321,0zm1.002,-0.245c0.004,-0.217 -0.089,-0.555 -0.474,-0.555c-0.346,0 -0.497,0.318 -0.524,0.555l0.998,0z" fill="#6D6E71"/>
  <path id="svg_1381" d="m47.52,-131.768c0,-0.194 -0.004,-0.353 -0.016,-0.508l0.303,0l0.02,0.311l0.008,0c0.093,-0.179 0.311,-0.353 0.621,-0.353c0.26,0 0.664,0.155 0.664,0.8l0,1.123l-0.342,0l0,-1.084c0,-0.303 -0.113,-0.555 -0.435,-0.555c-0.225,0 -0.4,0.159 -0.458,0.349c-0.015,0.043 -0.023,0.101 -0.023,0.159l0,1.13l-0.342,0l0,-1.372z" fill="#6D6E71"/>
  <path id="svg_1382" d="m50.072,-132.816l0,0.54l0.49,0l0,0.26l-0.49,0l0,1.014c0,0.233 0.066,0.365 0.256,0.365c0.089,0 0.155,-0.012 0.198,-0.023l0.015,0.256c-0.066,0.027 -0.171,0.047 -0.303,0.047c-0.159,0 -0.287,-0.051 -0.369,-0.144c-0.097,-0.101 -0.132,-0.268 -0.132,-0.489l0,-1.025l-0.291,0l0,-0.26l0.291,0l0,-0.451l0.335,-0.09z" fill="#6D6E71"/>
  <g stroke="null" id="svg_1461">
   <polygon stroke="null" id="svg_1462" points="111.9527359008789,184.4468435049057 82.76126861572266,212.605855345726 150.256103515625,293.72290551662445 154.9691162109375,293.72290551662445 219.8226318359375,202.5253347158432 188.85401916503906,178.8633016347885 " fill="#B1BDBE"/>
   <rect stroke="null" id="svg_1463" height="55.14107" width="68.85965" fill="#D0AA85" y="140.8551" x="117.57893"/>
   <g stroke="null" id="svg_1464">
    <path stroke="null" id="svg_1465" d="m207.75531,105.55315c-4.24175,42.65611 -35.66209,74.30614 -55.63365,74.30614c-21.35602,0 -50.63585,-32.53534 -55.63365,-74.30614c-4.87997,-40.73457 24.91044,-61.43888 55.63365,-61.43888c30.72321,-0.01006 59.68883,20.61377 55.63365,61.43888z" fill="#E4C092"/>
    <path stroke="null" id="svg_1466" d="m102.91937,107.17287c0.05891,-3.83301 4.90943,-17.70631 9.03335,-16.45882c17.3401,5.26159 32.29422,10.38234 50.58675,13.66203c20.59014,3.68211 35.52463,0.45272 36.70289,2.54528c1.00152,1.77063 0.66768,4.94972 0.98189,7.08252c0.07855,-2.74649 2.59218,-10.10064 2.13069,-12.70629c-0.65786,-3.69217 -6.559,-5.01008 -9.9465,-5.81491c-6.36262,-1.499 -13.14745,-0.97586 -19.51007,-2.44468c-7.24632,-1.67003 -14.59082,-4.69821 -21.96478,-6.67005c-8.11038,-2.15293 -16.42695,-3.00806 -24.09548,-6.49902c-4.88979,-2.22335 -9.76976,-4.58754 -15.1014,-5.28171c-3.03403,-0.40242 -6.89284,0.4829 -9.24936,2.29377c-3.19113,2.47486 -2.85729,5.36219 -2.87693,9.11472c-0.00982,4.84911 0.32402,11.24753 1.7183,15.88538l1.59065,5.29177z" fill="#C8A17B"/>
    <path stroke="null" id="svg_1467" d="m188.71655,48.51066c0,0 26.04943,0.23139 23.02522,28.89348c-2.82783,26.9317 -5.22363,34.56754 -5.22363,34.56754l-6.61791,3.13885c0,0 3.2304,-9.26563 -1.07026,-22.0524c-4.86033,-14.44674 -17.0259,-25.68421 -17.0259,-25.68421l6.91248,-18.86326z" fill="#594A42"/>
    <path stroke="null" id="svg_1468" d="m115.26168,48.51066c0,0 -26.02979,0.23139 -23.03504,28.89348c2.83765,26.9317 5.24327,34.56754 5.24327,34.56754l6.59827,3.13885c0,0 -3.2304,-9.26563 1.08007,-22.0524c4.86033,-14.44674 17.0259,-25.68421 17.0259,-25.68421l-6.91248,-18.86326z" fill="#594A42"/>
    <path stroke="null" id="svg_1469" d="m101.91785,40.44222c-6.02878,6.24751 -13.55002,28.94378 2.57254,39.80901c36.17267,24.38642 106.34805,22.90754 106.34805,22.90754s5.60657,-20.05038 0.21601,-39.54744c-4.52649,-16.35821 -19.72608,-35.09068 -39.09869,-39.94986c-16.24039,-4.08452 -45.3533,-8.81291 -70.03791,16.78075z" fill="#594A42"/>
    <g stroke="null" id="svg_1470">
     <path stroke="null" id="svg_1471" d="m101.34836,112.25338c2.89656,8.52116 5.13526,16.74051 1.68884,17.95782c-3.41696,1.22737 -11.21314,-5.00002 -14.11952,-13.51112c-2.89656,-8.52116 -2.46453,-16.42864 0.97207,-17.64595c3.42678,-1.23743 8.56204,4.67809 11.45861,13.19925z" fill="#E4C092"/>
     <path stroke="null" id="svg_1472" d="m88.57402,106.65979c0,-1.29779 0.16692,-2.58552 0.65786,-3.86319c0.13746,-0.32193 0.30438,-0.63381 0.53022,-0.93562c0.24547,-0.30181 0.56949,-0.61368 1.06044,-0.76459c0.50076,-0.14085 1.0408,-0.03018 1.41392,0.15091c0.40257,0.18109 0.70696,0.4326 0.97207,0.66399c2.00305,1.9819 3.25986,4.24549 4.48722,6.54932c1.15863,2.33401 2.14051,4.73845 2.87693,7.21331c0.7266,2.4648 1.27645,5.02014 1.34518,7.5956c-0.81497,-2.44468 -1.72812,-4.81893 -2.70019,-7.14289c-0.9917,-2.33401 -2.02268,-4.64791 -3.17149,-6.89138c-0.54986,-1.13683 -1.16844,-2.24347 -1.78703,-3.32999c-0.63823,-1.08652 -1.31573,-2.13281 -2.0816,-3.0483c-0.35348,-0.4326 -0.79533,-0.69417 -1.06044,-0.65393c-0.33384,0.01006 -0.78551,0.45272 -1.08007,0.9658c-0.65786,1.04628 -1.08007,2.27365 -1.46301,3.49096z" fill="#B98A63"/>
    </g>
    <g stroke="null" id="svg_1473">
     <path stroke="null" id="svg_1474" d="m202.66915,112.25338c-2.89656,8.52116 -5.12544,16.74051 -1.68884,17.95782c3.42678,1.22737 11.22295,-5.00002 14.11952,-13.51112c2.89656,-8.52116 2.45471,-16.42864 -0.97207,-17.64595c-3.42678,-1.23743 -8.55222,4.67809 -11.45861,13.19925z" fill="#E4C092"/>
     <path stroke="null" id="svg_1475" d="m215.4533,106.65979c0,-1.29779 -0.17674,-2.58552 -0.65786,-3.86319c-0.13746,-0.32193 -0.30438,-0.63381 -0.53022,-0.93562c-0.24547,-0.30181 -0.57931,-0.61368 -1.07026,-0.76459c-0.50076,-0.14085 -1.03098,-0.03018 -1.4041,0.15091c-0.39275,0.18109 -0.70696,0.4326 -0.98189,0.66399c-1.99323,1.9819 -3.25986,4.24549 -4.48722,6.54932c-1.15863,2.33401 -2.14051,4.73845 -2.87693,7.21331c-0.73641,2.4648 -1.28627,5.02014 -1.34518,7.5956c0.82478,-2.44468 1.72812,-4.81893 2.70019,-7.14289c0.9917,-2.33401 2.0325,-4.64791 3.16167,-6.89138c0.55967,-1.13683 1.16844,-2.24347 1.79685,-3.32999c0.62841,-1.08652 1.31573,-2.13281 2.07178,-3.0483c0.38294,-0.4326 0.79533,-0.69417 1.07026,-0.65393c0.33384,0.01006 0.77569,0.45272 1.08007,0.9658c0.65786,1.04628 1.07026,2.27365 1.47283,3.49096z" fill="#B98A63"/>
    </g>
   </g>
   <g stroke="null" id="svg_1476">
    <polygon stroke="null" id="svg_1477" points="169.33407592773438,205.1109060049057 151.99404907226562,220.02036035060883 134.63427734375,205.1109060049057 151.99404907226562,190.21143090724945 "/>
    <rect stroke="null" id="svg_1478" height="7.40446" width="12.87252" y="215.71456" x="145.35647"/>
    <polygon stroke="null" id="svg_1479" points="152.09219360351562,297.6866811513901 156.76593017578125,291.3888601064682 149.57859802246094,294.3164724111557 "/>
    <polygon stroke="null" id="svg_1480" points="148.2432098388672,292.5055898427963 159.27955627441406,287.9985707998276 163.71778869628906,282.0126088857651 145.84738159179688,289.2862905263901 "/>
    <polygon stroke="null" id="svg_1481" points="169.77590942382812,272.9985097646713 169.29481506347656,285.8657582998276 168.45040893554688,282.0226491689682 167.9790802001953,279.8596853017807 167.13467407226562,276.01660668849945 166.66346740722656,273.8436025381088 165.81890869140625,270.0105336904526 165.3280792236328,267.83752954006195 164.493408203125,264.0044912099838 164.01234436035156,261.8314565420151 163.16793823242188,257.99841821193695 162.68670654296875,255.8253835439682 161.8521728515625,251.9822896718979 161.37107849121094,249.81937158107758 160.51678466796875,245.98630273342133 160.03570556640625,243.81328332424164 159.20103454589844,239.97017419338226 158.71994018554688,237.80722558498383 157.8755340576172,233.9641011953354 157.40420532226562,231.79111230373383 156.55979919433594,227.94797265529633 156.07870483398438,225.77498376369476 155.48960876464844,223.11902368068695 152.09219360351562,222.96814477443695 148.68505859375,223.11902368068695 147.3104248046875,229.36650598049164 146.74093627929688,231.9420064687729 145.72962951660156,236.5496724843979 145.16006469726562,239.14522302150726 144.1389617919922,243.74283349514008 143.56944274902344,246.3283895254135 142.56788635253906,250.9360555410385 141.98858642578125,253.53162133693695 140.97726440429688,258.1191762685776 140.40780639648438,260.7147573232651 139.40621948242188,265.3023122549057 138.82693481445312,267.9079030752182 137.8156280517578,272.5055288076401 137.24607849121094,275.0911000967026 136.23475646972656,279.6886342763901 135.665283203125,282.2842153310776 134.66371154785156,271.8515981435776 134.26121520996094,273.6523793935776 134.66371154785156,274.2057241201401 137.0497283935547,277.4150136709213 138.39491271972656,279.2359060049057 140.79066467285156,282.4451650381088 142.12606811523438,284.2460073232651 144.5120849609375,287.46533715724945 145.84738159179688,289.2862905263901 163.71778869628906,282.0126088857651 166.23138427734375,278.6222585439682 169.92332458496094,273.6523793935776 "/>
    <polygon stroke="null" id="svg_1482" points="149.57859802246094,294.3164724111557 156.76593017578125,291.3888601064682 159.27955627441406,287.9985707998276 148.2432098388672,292.5055898427963 "/>
   </g>
   <g stroke="null" id="svg_1483">
    <path stroke="null" id="svg_1484" d="m115.14385,168.30994l36.85017,21.9518l-12.11647,26.42868l-28.77907,-27.32405c0,0 -7.57034,-1.99196 -5.05671,-5.48292c2.52345,-3.4809 8.61114,-6.60968 9.10208,-15.5735z" fill="#DBE2E4"/>
    <path stroke="null" id="svg_1485" d="m188.88347,168.39042l-36.79126,21.87132l12.09683,26.34819l28.74961,-27.23351c0,0 7.57034,-1.99196 5.04689,-5.4628c-2.52345,-3.47084 -8.62096,-6.58956 -9.10208,-15.5232z" fill="#DBE2E4"/>
   </g>
   <path stroke="null" id="svg_1486" d="m83.24238,195.99617c0,0 -34.64093,5.58352 -41.01337,15.28175c-6.38226,9.68817 0,80.20153 0,80.20153l109.76501,8.42056l0,-10.5936l-46.46283,-99.09497l-22.28881,5.78473z"/>
   <polygon stroke="null" id="svg_1487" points="151.99404907226562,289.30640161037445 109.8318099975586,179.85928857326508 95.7025375366211,192.04240930080414 80.93492126464844,200.1611531972885 99.02127838134766,231.11704003810883 107.34765625,230.9460347890854 102.05528259277344,248.86360681056976 "/>
   <path stroke="null" id="svg_1488" d="m42.22901,211.28798l24.61588,82.08283c0,0 -32.35314,-1.51912 -34.63111,-1.89136c-2.27797,-0.36217 -1.44337,-72.70653 10.01523,-80.19147z"/>
   <path stroke="null" id="svg_1489" d="m220.73584,195.99617c0,0 34.65075,5.58352 41.02319,15.28175c6.37244,9.68817 0,80.20153 0,80.20153l-109.77483,8.42056l0.00982,-10.5936l46.45301,-99.09497l22.28881,5.78473z"/>
   <polygon stroke="null" id="svg_1490" points="152.00387573242188,289.30640161037445 194.15614318847656,179.85928857326508 208.28558349609375,191.1370290517807 224.37863159179688,200.1611531972885 204.97657775878906,231.11704003810883 196.640380859375,230.9460347890854 201.9425048828125,248.86360681056976 "/>
   <path stroke="null" id="svg_1491" d="m261.76885,211.28798l-24.61588,82.08283c0,0 32.36295,-1.51912 34.64093,-1.89136c2.26816,-0.36217 1.42373,-72.70653 -10.02505,-80.19147z"/>
   <path stroke="null" id="svg_1492" d="m213.56808,78.34982c-2.0325,2.02214 -4.31048,3.9135 -6.82411,5.69419c3.16167,-1.75051 5.5182,-3.65193 6.82411,-5.69419z" fill="#DBE2E4"/>
   <path stroke="null" id="svg_1493" d="m99.62024,84.05407c-2.52345,-1.78069 -4.81124,-3.68211 -6.85356,-5.70425c1.30591,2.04226 3.67225,3.95374 6.85356,5.70425z" fill="#DBE2E4"/>
   <path stroke="null" id="svg_1494" d="m195.65848,63.65157c-11.20332,9.07448 -25.90215,14.73849 -44.18486,14.73849c-17.51684,0 -31.75419,-5.17105 -42.77094,-13.58154c-7.51143,4.69821 -12.0281,10.5936 -12.0281,17.01214c0,1.87123 0.39275,3.71229 1.12917,5.48292c1.8754,2.88734 3.96682,5.6137 6.28407,8.15899c9.72067,8.36019 28.05248,13.99402 49.09429,13.99402c21.06145,0 39.39326,-5.65395 49.11393,-14.01414c2.30743,-2.53522 4.38903,-5.26159 6.25461,-8.12881c0.7266,-1.78069 1.12917,-3.62175 1.12917,-5.49298c-0.00982,-6.9618 -5.312,-13.31997 -14.02133,-18.16909z"/>
   <path stroke="null" id="svg_1495" d="m224.37864,55.15053c0,-24.26569 -31.88183,-55.05052 -71.20635,-55.05052s-71.20635,30.78483 -71.20635,55.05052c0,8.52116 3.99628,16.45882 10.80074,23.18923c-0.79533,-1.23743 26.37345,-16.5393 60.40561,-16.5393c34.03216,0 61.19112,15.30187 60.39579,16.54936c6.81429,-6.73041 10.81056,-14.66807 10.81056,-23.19929z"/>
   <path stroke="null" id="svg_1496" d="m107.38695,15.02964c11.05603,-4.30585 27.39461,-8.77267 45.78533,-8.77267c18.40054,0 34.74894,4.47688 45.80497,8.79279c-12.3914,-8.86321 -28.35686,-14.94976 -45.80497,-14.94976c-17.43829,0 -33.39393,6.07648 -45.78533,14.92964z"/>
   <path stroke="null" id="svg_1497" d="m153.17229,47.93722c-32.26477,0 -59.47282,14.5071 -68.22142,19.71839c1.84595,3.79277 4.49704,7.38434 7.81581,10.67409c-0.79533,-1.23743 26.37345,-16.5393 60.40561,-16.5393c34.03216,0 61.19112,15.30187 60.39579,16.54936c3.33841,-3.29981 5.9895,-6.89138 7.82563,-10.68415c-8.73878,-5.21129 -35.95666,-19.71839 -68.22142,-19.71839z"/>
   <path stroke="null" id="svg_1498" d="m153.17229,55.15053c-35.25952,0 -63.85203,19.35622 -63.85203,19.35622s0.44185,2.59558 1.26663,3.83301c2.11105,2.02214 4.4774,3.93362 7.09903,5.70425c10.9873,5.84509 31.70509,9.79883 55.48636,9.79883c23.80091,0 44.5187,-3.95374 55.49618,-9.79883c2.61182,-1.78069 4.96834,-3.67205 7.06958,-5.69419c0.8346,-1.24749 1.26663,-3.84307 1.26663,-3.84307s-28.57288,-19.35622 -63.83239,-19.35622z" fill="url(#SVGID_1_)"/>
  </g>
 </g>
</svg>