<svg width="304" height="300" xmlns="http://www.w3.org/2000/svg">

 <g>
  <title>background</title>
  <rect fill="none" id="canvas_background" height="302" width="306" y="-1" x="-1"/>
 </g>
 <g>
  <title>Layer 1</title>
  <g stroke="null" id="svg_1581">
   <path stroke="null" id="svg_1464" d="m28.38309,243.41456l-13.53752,0l0,-24.95958l13.53752,0c3.09905,0 5.61495,2.3771 5.61495,5.30519l0,14.3492c0,2.92809 -2.5159,5.30519 -5.61495,5.30519z" fill="#FDC778"/>
   <g stroke="null" id="svg_1465">
    <path stroke="null" id="svg_1466" d="m60.3733,39.57403c-16.64491,8.31199 -33.14819,17.88337 -44.72798,31.90198c-19.01085,23.00752 -21.48509,57.05835 -5.98983,82.30916c15.49526,25.25082 48.00198,40.13526 78.57596,35.97927c14.52889,-1.97567 28.27468,-7.78462 42.86188,-9.31163c40.57925,-4.25045 79.89222,24.99107 119.89664,17.27729c25.32558,-4.88015 45.85264,-24.94384 53.13374,-48.36854c7.28111,-23.4247 2.26597,-49.39179 -10.5801,-70.5732c-12.84607,-21.18928 -32.97324,-37.86048 -55.36639,-50.05298c-24.49251,-13.33382 -60.12327,-31.01254 -88.08971,-23.3696c-31.04883,8.46941 -61.15629,19.94563 -89.71421,34.20825z" fill="#F4F5F5"/>
    <path stroke="null" id="svg_1467" d="m42.66206,106.94365c-0.03332,-2.99106 -2.60754,-5.39964 -5.77323,-5.39964c-0.74977,0 -1.47455,0.14168 -2.14101,0.39356c-1.04968,-3.64437 -4.5736,-6.32845 -8.76398,-6.32845c-4.49862,0 -8.23915,3.09338 -8.94726,7.13918c-0.98303,-0.74776 -2.24098,-1.19642 -3.60723,-1.19642c-3.17403,0 -5.73991,2.41646 -5.77323,5.39964l35.00595,0l0,-0.00787z" fill="#FFFFFF"/>
    <path stroke="null" id="svg_1468" d="m179.89506,30.53002c-0.04998,-4.5102 -3.93213,-8.14669 -8.714,-8.14669c-1.13299,0 -2.22432,0.21252 -3.23234,0.59034c-1.58285,-5.4941 -6.88956,-9.54777 -13.21262,-9.54777c-6.78959,0 -12.4212,4.65975 -13.49587,10.75993c-1.48288,-1.13345 -3.3823,-1.81038 -5.44,-1.81038c-4.78187,0 -8.66402,3.6365 -8.714,8.14669l52.80884,0l0,0.00787z" fill="#FFFFFF"/>
   </g>
   <polyline stroke="#000000" id="svg_1469" points="149.5542449951172,111.67428490738166 127.0862045288086,90.13081106895334 153.56150817871094,68.58733723052501 " stroke-miterlimit="10" fill="none"/>
   <path stroke="null" id="svg_1470" d="m161.20078,294.48292l-11.59645,0c-2.10769,0 -3.80717,-1.6136 -3.80717,-3.59714l0,-9.09124c0,-1.99141 1.70781,-3.59714 3.80717,-3.59714l11.59645,0l0,16.28552z" fill="#FDC778"/>
   <g stroke="null" id="svg_1471">
    <line stroke="#000000" id="svg_1472" y2="294.48292" x2="32.69844" y1="294.48292" x1="307.47269" stroke-miterlimit="10" fill="none"/>
    <line stroke="#000000" id="svg_1473" y2="294.48292" x2="-0.48307" y1="294.48292" x1="15.78695" stroke-miterlimit="10" fill="none"/>
   </g>
   <path stroke="null" id="svg_1474" d="m292.14405,151.96693l0,107.53637l-277.29848,0l0,-107.53637c0,-3.35313 2.87412,-6.0687 6.42303,-6.0687l264.45241,0c3.54891,0 6.42303,2.71556 6.42303,6.0687z" fill="#FF3300"/>
   <path stroke="#F4F5F5" id="svg_1475" d="m292.14405,151.95905l0,107.53637l-277.29015,0l0,-9.39822l260.03709,0l0,-104.20685l10.84668,0c3.51559,0.00787 6.40637,2.73131 6.40637,6.0687z" stroke-miterlimit="10" fill="none"/>
   <path stroke="null" id="svg_1476" d="m231.90415,193.99915l0,-28.90306c0,-2.25904 1.94107,-4.09303 4.33201,-4.09303l55.89956,0l0,52.07587l-40.03775,0c-11.14659,0 -20.19382,-8.54025 -20.19382,-19.07979z" fill="#67A1D7"/>
   <path stroke="#000000" id="svg_1477" d="m185.92655,117.19983l0,9.91771l-70.23684,0l0,-9.91771c0,-3.0619 2.61587,-5.53346 5.85654,-5.53346l58.52376,0c3.24067,0.00787 5.85654,2.47943 5.85654,5.53346z" stroke-miterlimit="10" stroke-linejoin="round" stroke-linecap="round" fill="#FDC778"/>
   <polyline stroke="#000000" id="svg_1478" points="271.7668762207031,68.56366880848054 245.2334442138672,68.56366880848054 215.4591827392578,68.56366880848054 86.15699005126953,68.56366880848054 56.38282775878906,68.56366880848054 29.849315643310547,68.56366880848054 " stroke-miterlimit="10" fill="none"/>
   <path stroke="#000000" id="svg_1479" d="m86.15708,68.56367c0,7.77675 -6.67296,14.08158 -14.90377,14.08158c-8.19749,0 -14.86212,-6.30483 -14.86212,-14.08158c0,-7.74526 6.67296,-14.04222 14.86212,-14.04222c8.23081,0 14.90377,6.30483 14.90377,14.04222z" stroke-miterlimit="10" stroke-linejoin="round" stroke-linecap="round" stroke-width="2" fill="#D7D7D7"/>
   <path stroke="#000000" id="svg_1480" d="m245.2334,68.56367c0,7.77675 -6.67296,14.08158 -14.90377,14.08158c-8.19749,0 -14.86212,-6.30483 -14.86212,-14.08158c0,-7.74526 6.67296,-14.04222 14.86212,-14.04222c8.23081,0 14.90377,6.30483 14.90377,14.04222z" stroke-miterlimit="10" stroke-linejoin="round" stroke-linecap="round" stroke-width="2" fill="#D7D7D7"/>
   <path stroke="#000000" id="svg_1481" d="m292.14405,151.96693l0,107.53637l-277.29848,0l0,-107.53637c0,-3.35313 2.87412,-6.0687 6.42303,-6.0687l264.45241,0c3.54891,0 6.42303,2.71556 6.42303,6.0687z" stroke-miterlimit="10" fill="none"/>
   <path stroke="null" id="svg_1482" d="m29.59939,196.54155l0,-30.87086c0,-2.4322 2.09103,-4.40787 4.66524,-4.40787l28.47462,0c2.57421,0 4.66524,1.97567 4.66524,4.40787l0,30.87086c0,2.4322 -2.09103,4.40787 -4.66524,4.40787l-28.47462,0c-2.57421,0 -4.66524,-1.9678 -4.66524,-4.40787z" fill="#67A1D7"/>
   <path stroke="null" id="svg_1483" d="m80.12559,196.54155l0,-30.87086c0,-2.4322 2.09103,-4.40787 4.66524,-4.40787l28.47462,0c2.57421,0 4.66524,1.97567 4.66524,4.40787l0,30.87086c0,2.4322 -2.09103,4.40787 -4.66524,4.40787l-28.47462,0c-2.58254,0 -4.66524,-1.9678 -4.66524,-4.40787z" fill="#67A1D7"/>
   <path stroke="null" id="svg_1484" d="m130.64347,196.54155l0,-30.87086c0,-2.4322 2.09103,-4.40787 4.66524,-4.40787l28.47462,0c2.57421,0 4.66524,1.97567 4.66524,4.40787l0,30.87086c0,2.4322 -2.09103,4.40787 -4.66524,4.40787l-28.47462,0c-2.57421,0 -4.66524,-1.9678 -4.66524,-4.40787z" fill="#67A1D7"/>
   <path stroke="null" id="svg_1485" d="m181.16967,196.2818l0,-30.87086c0,-2.4322 2.09103,-4.40787 4.66524,-4.40787l28.47462,0c2.57421,0 4.66524,1.97567 4.66524,4.40787l0,30.87086c0,2.4322 -2.09103,4.40787 -4.66524,4.40787l-28.47462,0c-2.57421,0 -4.66524,-1.97567 -4.66524,-4.40787z" fill="#67A1D7"/>
   <g stroke="null" id="svg_1486">
    <path stroke="null" id="svg_1487" d="m279.31464,203.97983l-27.20834,0c-5.82322,0 -10.57176,-4.47871 -10.57176,-9.98068l0,-20.87443c0,-1.67657 1.43289,-3.03041 3.20735,-3.03041c1.77446,0 3.20735,1.35385 3.20735,3.03041l0,20.87443c0,2.16458 1.8661,3.91986 4.15706,3.91986l27.20834,0c1.77446,0 3.20735,1.35385 3.20735,3.03041c0,1.67657 -1.44123,3.03041 -3.20735,3.03041z" fill="#FFFFFF"/>
   </g>
   <path stroke="#000000" id="svg_1488" d="m70.67015,127.9755l0,17.92273l-24.34255,0l0,-17.92273c0,-2.80215 2.4076,-5.06905 5.36502,-5.06905l13.60417,0c2.97409,0 5.37336,2.26691 5.37336,5.06905z" stroke-miterlimit="10" stroke-linejoin="round" stroke-linecap="round" fill="#FDC778"/>
   <path stroke="#000000" id="svg_1489" d="m260.65368,127.9755l0,17.92273l-24.34255,0l0,-17.92273c0,-2.80215 2.4076,-5.06905 5.36502,-5.06905l13.60417,0c2.96576,0 5.37336,2.26691 5.37336,5.06905z" stroke-miterlimit="10" stroke-linejoin="round" stroke-linecap="round" fill="#FDC778"/>
   <rect stroke="#000000" id="svg_1490" height="18.79643" width="46.00259" stroke-miterlimit="10" stroke-linejoin="round" stroke-linecap="round" fill="#FDC778" y="127.10967" x="127.81933"/>
   <path stroke="#000000" id="svg_1491" d="m297.56739,272.16019l-288.14516,0c-3.69887,0 -6.69795,-2.83363 -6.69795,-6.32845l0,0c0,-3.49481 2.99908,-6.32845 6.69795,-6.32845l288.14516,0c3.69887,0 6.69795,2.83363 6.69795,6.32845l0,0c0,3.49481 -2.99908,6.32845 -6.69795,6.32845z" stroke-miterlimit="10" fill="none"/>
   <g stroke="null" id="svg_1492">
    <path stroke="null" id="svg_1493" d="m257.97117,272.16019c0,12.31843 -10.54677,22.32273 -23.6261,22.32273c-13.03768,0 -23.6261,-9.99643 -23.6261,-22.32273c0,-12.31843 10.5801,-22.32273 23.6261,-22.32273c13.07933,0 23.6261,10.0043 23.6261,22.32273z" fill="#B86335"/>
    <path stroke="null" id="svg_1494" d="m96.26232,272.16019c0,12.31843 -10.5801,22.32273 -23.6261,22.32273c-13.07933,0 -23.6261,-9.99643 -23.6261,-22.32273c0,-12.31843 10.54677,-22.32273 23.6261,-22.32273c13.04601,0 23.6261,10.0043 23.6261,22.32273z" fill="#B86335"/>
   </g>
   <g stroke="null" id="svg_1495">
    <path stroke="null" id="svg_1496" d="m257.9795,272.16806c0,12.30269 -10.5551,22.30699 -23.64277,22.30699c-5.5483,0 -10.64674,-1.81825 -14.66218,-4.88015c1.85776,0.48801 3.8155,0.72415 5.83988,0.72415c13.08766,0 23.64277,-10.0043 23.64277,-22.33847c0,-7.06047 -3.49893,-13.3653 -8.94726,-17.42684c10.2302,2.42433 17.76956,11.18498 17.76956,21.61432z" fill="#AC4B25"/>
    <path stroke="null" id="svg_1497" d="m96.26232,272.16806c0,12.30269 -10.58843,22.30699 -23.60944,22.30699c-5.5483,0 -10.64674,-1.81825 -14.6955,-4.88015c1.85776,0.48801 3.84882,0.72415 5.8732,0.72415c13.02102,0 23.60944,-10.0043 23.60944,-22.33847c0,-7.06047 -3.49893,-13.3653 -8.94726,-17.42684c10.20521,2.42433 17.76956,11.18498 17.76956,21.61432z" fill="#AC4B25"/>
   </g>
   <g stroke="null" id="svg_1498">
    <path stroke="null" id="svg_1499" d="m257.97117,272.16019c0,12.31843 -10.54677,22.32273 -23.6261,22.32273c-13.03768,0 -23.6261,-9.99643 -23.6261,-22.32273c0,-12.31843 10.5801,-22.32273 23.6261,-22.32273c13.07933,0 23.6261,10.0043 23.6261,22.32273z"/>
    <path stroke="null" id="svg_1500" d="m96.26232,272.16019c0,12.31843 -10.5801,22.32273 -23.6261,22.32273c-13.07933,0 -23.6261,-9.99643 -23.6261,-22.32273c0,-12.31843 10.54677,-22.32273 23.6261,-22.32273c13.04601,0 23.6261,10.0043 23.6261,22.32273z"/>
   </g>
   <circle stroke="null" id="svg_1501" r="5.83879" cy="272.16019" cx="72.63622" fill="#FFFFFF"/>
   <circle stroke="null" id="svg_1502" r="5.8388" cy="272.16019" cx="234.3534" fill="#FFFFFF"/>
  </g>
 </g>
</svg>