<svg width="304" height="300" xmlns="http://www.w3.org/2000/svg">

 <g>
  <title>background</title>
  <rect fill="none" id="canvas_background" height="302" width="306" y="-1" x="-1"/>
 </g>
 <g>
  <title>Layer 1</title>
  <path id="svg_650" d="m-140.001,308.157c0.504,-0.084 1.164,-0.155 2.003,-0.155c1.032,0 1.787,0.239 2.268,0.672c0.443,0.383 0.707,0.971 0.707,1.69c0,0.732 -0.216,1.308 -0.624,1.728c-0.551,0.587 -1.451,0.887 -2.47,0.887c-0.313,0 -0.601,-0.012 -0.84,-0.072l0,3.238l-1.044,0l0,-7.988zm1.044,3.897c0.228,0.06 0.516,0.084 0.863,0.084c1.26,0 2.027,-0.611 2.027,-1.727c0,-1.067 -0.756,-1.583 -1.907,-1.583c-0.456,0 -0.804,0.036 -0.983,0.084l0,3.142z" fill="#6D6E71"/>
  <path id="svg_651" d="m-133.844,312.151c0,-0.684 -0.013,-1.271 -0.049,-1.811l0.924,0l0.036,1.14l0.048,0c0.264,-0.779 0.899,-1.27 1.607,-1.27c0.12,0 0.203,0.012 0.3,0.035l0,0.996c-0.108,-0.024 -0.216,-0.037 -0.36,-0.037c-0.743,0 -1.271,0.565 -1.415,1.355c-0.023,0.145 -0.048,0.313 -0.048,0.492l0,3.094l-1.043,0l0,-3.994z" fill="#6D6E71"/>
  <path id="svg_652" d="m43.167,260.96l0,1.016l0.922,0l0,0.49l-0.922,0l0,1.908c0,0.439 0.124,0.688 0.483,0.688c0.168,0 0.292,-0.022 0.373,-0.043l0.029,0.482c-0.124,0.051 -0.321,0.088 -0.57,0.088c-0.299,0 -0.541,-0.095 -0.694,-0.271c-0.183,-0.19 -0.249,-0.504 -0.249,-0.921l0,-1.931l-0.549,0l0,-0.49l0.548,0l0,-0.848l0.629,-0.168z" fill="#6D6E71"/>
  <text id="svg_731" font-size="2.0198" font-family="'Arial-BoldMT'" fill="#666666" transform="matrix(1,0,0,1,201.6066,233.7194) "/>
  <g id="svg_1101">
   <g id="svg_1102">
    <path id="svg_1103" d="m-21.123,-185.963l-0.591,0c-0.13,0 -0.236,-0.105 -0.236,-0.236c0,-0.13 0.105,-0.236 0.236,-0.236l0.591,0c0.13,0 0.236,0.105 0.236,0.236c0,0.13 -0.105,0.236 -0.236,0.236z" fill="#666666"/>
   </g>
   <g id="svg_1104">
    <path id="svg_1105" d="m0.904,-185.963l-21.32,0c-0.13,0 -0.236,-0.105 -0.236,-0.236c0,-0.13 0.105,-0.236 0.236,-0.236l21.32,0c0.13,0 0.236,0.105 0.236,0.236c0,0.13 -0.105,0.236 -0.236,0.236z" fill="#666666"/>
   </g>
  </g>
  <path id="svg_1369" d="m20.867,-132.727l-0.796,0l0,-0.287l1.938,0l0,0.287l-0.8,0l0,2.33l-0.342,0l0,-2.33z" fill="#6D6E71"/>
  <path id="svg_1370" d="m22.624,-132.805c0.004,0.117 -0.082,0.21 -0.218,0.21c-0.12,0 -0.206,-0.093 -0.206,-0.21c0,-0.12 0.089,-0.213 0.214,-0.213c0.128,0 0.21,0.093 0.21,0.213zm-0.38,2.408l0,-1.88l0.342,0l0,1.88l-0.342,0z" fill="#6D6E71"/>
  <path id="svg_1371" d="m23.153,-131.768c0,-0.194 -0.004,-0.353 -0.016,-0.508l0.299,0l0.015,0.303l0.012,0c0.105,-0.179 0.28,-0.346 0.59,-0.346c0.256,0 0.45,0.155 0.532,0.377l0.008,0c0.058,-0.105 0.132,-0.187 0.21,-0.245c0.113,-0.085 0.237,-0.132 0.416,-0.132c0.249,0 0.618,0.163 0.618,0.816l0,1.107l-0.334,0l0,-1.064c0,-0.361 -0.132,-0.579 -0.408,-0.579c-0.194,0 -0.346,0.144 -0.404,0.311c-0.015,0.047 -0.027,0.109 -0.027,0.171l0,1.161l-0.334,0l0,-1.126c0,-0.299 -0.132,-0.516 -0.392,-0.516c-0.213,0 -0.369,0.171 -0.423,0.342c-0.02,0.05 -0.027,0.108 -0.027,0.167l0,1.134l-0.334,0l0,-1.373l-0.001,0z" fill="#6D6E71"/>
  <path id="svg_1372" d="m26.583,-131.274c0.008,0.462 0.303,0.652 0.645,0.652c0.245,0 0.392,-0.043 0.52,-0.097l0.058,0.245c-0.12,0.054 -0.326,0.117 -0.625,0.117c-0.579,0 -0.924,-0.381 -0.924,-0.948c0,-0.567 0.334,-1.013 0.882,-1.013c0.613,0 0.777,0.54 0.777,0.885c0,0.07 -0.008,0.124 -0.012,0.159l-1.321,0zm1.003,-0.245c0.004,-0.217 -0.089,-0.555 -0.474,-0.555c-0.346,0 -0.497,0.318 -0.524,0.555l0.998,0z" fill="#6D6E71"/>
  <path id="svg_1373" d="m31.381,-131.546c-0.019,-0.365 -0.043,-0.804 -0.039,-1.13l-0.012,0c-0.089,0.307 -0.198,0.633 -0.33,0.994l-0.462,1.27l-0.256,0l-0.423,-1.247c-0.124,-0.369 -0.229,-0.707 -0.303,-1.017l-0.008,0c-0.008,0.326 -0.027,0.765 -0.05,1.157l-0.07,1.123l-0.323,0l0.183,-2.618l0.431,0l0.447,1.266c0.109,0.322 0.198,0.61 0.264,0.882l0.012,0c0.066,-0.264 0.159,-0.551 0.276,-0.882l0.466,-1.266l0.431,0l0.163,2.618l-0.33,0l-0.067,-1.15z" fill="#6D6E71"/>
  <path id="svg_1374" d="m33.352,-130.397l-0.027,-0.237l-0.012,0c-0.105,0.147 -0.307,0.28 -0.575,0.28c-0.38,0 -0.575,-0.268 -0.575,-0.54c0,-0.454 0.404,-0.703 1.13,-0.699l0,-0.039c0,-0.155 -0.043,-0.435 -0.427,-0.435c-0.175,0 -0.357,0.054 -0.49,0.14l-0.077,-0.225c0.155,-0.101 0.38,-0.167 0.617,-0.167c0.575,0 0.715,0.392 0.715,0.769l0,0.703c0,0.163 0.008,0.322 0.031,0.451l-0.31,0l0,-0.001zm-0.051,-0.959c-0.373,-0.008 -0.796,0.058 -0.796,0.423c0,0.221 0.147,0.326 0.322,0.326c0.245,0 0.4,-0.156 0.454,-0.315c0.012,-0.035 0.019,-0.074 0.019,-0.109l0,-0.325l0.001,0z" fill="#6D6E71"/>
  <path id="svg_1375" d="m34.184,-131.768c0,-0.194 -0.004,-0.353 -0.016,-0.508l0.303,0l0.02,0.311l0.008,0c0.093,-0.179 0.311,-0.353 0.621,-0.353c0.26,0 0.664,0.155 0.664,0.8l0,1.123l-0.342,0l0,-1.084c0,-0.303 -0.113,-0.555 -0.435,-0.555c-0.225,0 -0.4,0.159 -0.458,0.349c-0.015,0.043 -0.023,0.101 -0.023,0.159l0,1.13l-0.342,0l0,-1.372z" fill="#6D6E71"/>
  <path id="svg_1376" d="m37.381,-130.397l-0.027,-0.237l-0.012,0c-0.105,0.147 -0.307,0.28 -0.575,0.28c-0.38,0 -0.575,-0.268 -0.575,-0.54c0,-0.454 0.404,-0.703 1.13,-0.699l0,-0.039c0,-0.155 -0.043,-0.435 -0.427,-0.435c-0.175,0 -0.357,0.054 -0.49,0.14l-0.077,-0.225c0.155,-0.101 0.38,-0.167 0.617,-0.167c0.575,0 0.715,0.392 0.715,0.769l0,0.703c0,0.163 0.008,0.322 0.031,0.451l-0.31,0l0,-0.001zm-0.05,-0.959c-0.373,-0.008 -0.796,0.058 -0.796,0.423c0,0.221 0.147,0.326 0.322,0.326c0.245,0 0.4,-0.156 0.454,-0.315c0.012,-0.035 0.019,-0.074 0.019,-0.109l0,-0.325l0.001,0z" fill="#6D6E71"/>
  <path id="svg_1377" d="m39.833,-132.276c-0.008,0.136 -0.015,0.287 -0.015,0.516l0,1.091c0,0.431 -0.085,0.695 -0.268,0.858c-0.182,0.171 -0.447,0.225 -0.683,0.225c-0.225,0 -0.474,-0.054 -0.625,-0.155l0.085,-0.26c0.124,0.077 0.318,0.147 0.551,0.147c0.349,0 0.606,-0.182 0.606,-0.656l0,-0.21l-0.008,0c-0.105,0.175 -0.307,0.315 -0.598,0.315c-0.466,0 -0.8,-0.396 -0.8,-0.916c0,-0.637 0.416,-0.998 0.847,-0.998c0.326,0 0.505,0.171 0.586,0.326l0.008,0l0.015,-0.283l0.299,0zm-0.354,0.741c0,-0.058 -0.004,-0.109 -0.019,-0.155c-0.062,-0.198 -0.229,-0.361 -0.478,-0.361c-0.326,0 -0.559,0.276 -0.559,0.711c0,0.369 0.186,0.676 0.555,0.676c0.21,0 0.4,-0.132 0.474,-0.349c0.02,-0.058 0.027,-0.124 0.027,-0.182l0,-0.34z" fill="#6D6E71"/>
  <path id="svg_1378" d="m40.576,-131.274c0.008,0.462 0.303,0.652 0.645,0.652c0.245,0 0.392,-0.043 0.52,-0.097l0.058,0.245c-0.12,0.054 -0.326,0.117 -0.625,0.117c-0.579,0 -0.924,-0.381 -0.924,-0.948c0,-0.567 0.334,-1.013 0.882,-1.013c0.613,0 0.777,0.54 0.777,0.885c0,0.07 -0.008,0.124 -0.012,0.159l-1.321,0zm1.002,-0.245c0.004,-0.217 -0.089,-0.555 -0.474,-0.555c-0.346,0 -0.497,0.318 -0.524,0.555l0.998,0z" fill="#6D6E71"/>
  <path id="svg_1379" d="m42.332,-131.768c0,-0.194 -0.004,-0.353 -0.016,-0.508l0.299,0l0.015,0.303l0.012,0c0.105,-0.179 0.28,-0.346 0.59,-0.346c0.256,0 0.45,0.155 0.532,0.377l0.008,0c0.058,-0.105 0.132,-0.187 0.21,-0.245c0.113,-0.085 0.237,-0.132 0.416,-0.132c0.249,0 0.618,0.163 0.618,0.816l0,1.107l-0.334,0l0,-1.064c0,-0.361 -0.132,-0.579 -0.408,-0.579c-0.194,0 -0.346,0.144 -0.404,0.311c-0.015,0.047 -0.027,0.109 -0.027,0.171l0,1.161l-0.334,0l0,-1.126c0,-0.299 -0.132,-0.516 -0.392,-0.516c-0.213,0 -0.369,0.171 -0.423,0.342c-0.02,0.05 -0.027,0.108 -0.027,0.167l0,1.134l-0.334,0l0,-1.373l-0.001,0z" fill="#6D6E71"/>
  <path id="svg_1380" d="m45.763,-131.274c0.008,0.462 0.303,0.652 0.645,0.652c0.245,0 0.392,-0.043 0.52,-0.097l0.058,0.245c-0.12,0.054 -0.326,0.117 -0.625,0.117c-0.579,0 -0.924,-0.381 -0.924,-0.948c0,-0.567 0.334,-1.013 0.882,-1.013c0.613,0 0.777,0.54 0.777,0.885c0,0.07 -0.008,0.124 -0.012,0.159l-1.321,0zm1.002,-0.245c0.004,-0.217 -0.089,-0.555 -0.474,-0.555c-0.346,0 -0.497,0.318 -0.524,0.555l0.998,0z" fill="#6D6E71"/>
  <path id="svg_1381" d="m47.52,-131.768c0,-0.194 -0.004,-0.353 -0.016,-0.508l0.303,0l0.02,0.311l0.008,0c0.093,-0.179 0.311,-0.353 0.621,-0.353c0.26,0 0.664,0.155 0.664,0.8l0,1.123l-0.342,0l0,-1.084c0,-0.303 -0.113,-0.555 -0.435,-0.555c-0.225,0 -0.4,0.159 -0.458,0.349c-0.015,0.043 -0.023,0.101 -0.023,0.159l0,1.13l-0.342,0l0,-1.372z" fill="#6D6E71"/>
  <path id="svg_1382" d="m50.072,-132.816l0,0.54l0.49,0l0,0.26l-0.49,0l0,1.014c0,0.233 0.066,0.365 0.256,0.365c0.089,0 0.155,-0.012 0.198,-0.023l0.015,0.256c-0.066,0.027 -0.171,0.047 -0.303,0.047c-0.159,0 -0.287,-0.051 -0.369,-0.144c-0.097,-0.101 -0.132,-0.268 -0.132,-0.489l0,-1.025l-0.291,0l0,-0.26l0.291,0l0,-0.451l0.335,-0.09z" fill="#6D6E71"/>
  <g stroke="null" id="svg_1623">
   <g stroke="null" id="svg_245">
    <path stroke="null" id="svg_246" d="m239.38197,245.46151l-174.77331,0c-1.12244,0 -2.02975,-0.79443 -2.02975,-1.77723c0,-0.9828 0.90731,-1.77723 2.02975,-1.77723l174.76396,0c1.12244,0 2.02975,0.79443 2.02975,1.77723c0.00935,0.9828 -0.89795,1.77723 -2.02039,1.77723z" fill="#FFB300" clip-rule="evenodd" fill-rule="evenodd"/>
    <g stroke="null" id="svg_247">
     <path stroke="null" id="svg_248" d="m253.74921,213.27479l-203.53585,0c-1.75849,0 -3.17089,-1.24488 -3.17089,-2.77641c0,-1.53972 1.42176,-2.7846 3.17089,-2.7846l203.53585,0c1.75849,0 3.17089,1.24488 3.17089,2.7846c0.02806,1.53153 -1.4124,2.77641 -3.17089,2.77641z" fill="#666666" clip-rule="evenodd" fill-rule="evenodd"/>
     <path stroke="null" id="svg_249" d="m50.21336,243.89722l-25.43263,0c-1.75849,0 -3.18025,-1.24488 -3.18025,-2.7846l0,-77.96885c0,-1.53972 1.42176,-2.7846 3.18025,-2.7846l25.43263,0c1.75849,0 3.18025,1.24488 3.18025,2.7846l0,77.96885c0,1.54791 -1.42176,2.7846 -3.18025,2.7846l0,0zm-22.26173,-5.55282l19.08149,0l0,-72.40784l-19.08149,0l0,72.40784z" fill="#666666" clip-rule="evenodd" fill-rule="evenodd"/>
     <path stroke="null" id="svg_250" d="m279.20989,243.89722l-25.44198,0c-1.75849,0 -3.18025,-1.24488 -3.18025,-2.7846l0,-77.96885c0,-1.53972 1.42176,-2.7846 3.18025,-2.7846l25.44198,0c1.75849,0 3.18025,1.24488 3.18025,2.7846l0,77.96885c0,1.54791 -1.43111,2.7846 -3.18025,2.7846l0,0zm-22.26173,-5.55282l19.08149,0l0,-72.40784l-19.08149,0l0,72.40784z" fill="#666666" clip-rule="evenodd" fill-rule="evenodd"/>
     <path stroke="null" id="svg_251" d="m171.07212,213.27479l-38.17233,0c-1.74914,0 -3.17089,-1.24488 -3.17089,-2.77641l0,-47.34642c0,-1.53972 1.42176,-2.7846 3.17089,-2.7846l38.15362,0c1.75849,0 3.18025,1.24488 3.18025,2.7846l0,47.34642c0.00935,1.53153 -1.40305,2.77641 -3.16154,2.77641l0,0zm-34.97337,-5.56101l31.80248,0l0,-41.76903l-31.80248,0l0,41.76903z" fill="#666666" clip-rule="evenodd" fill-rule="evenodd"/>
     <path stroke="null" id="svg_252" d="m269.6598,118.59014l-43.56939,0c-1.63689,0 -3.00253,-1.08927 -3.15219,-2.49795l-0.66411,-5.83947l-6.96848,0l-0.67346,5.83947c-0.16837,1.42506 -1.54336,2.49795 -3.16154,2.49795l-43.57875,0c-1.74914,0 -3.17089,-1.24488 -3.17089,-2.7846l0,-61.25305c0,-1.53972 1.42176,-2.7846 3.17089,-2.7846l101.76792,0c1.75849,0 3.17089,1.24488 3.17089,2.7846l0,61.25305c0.01871,1.53972 -1.4124,2.7846 -3.17089,2.7846z" clip-rule="evenodd" fill-rule="evenodd"/>
     <path stroke="null" id="svg_253" d="m228.31658,138.08235l-19.08149,0c-0.89795,0 -1.75849,-0.33579 -2.35712,-0.91728c-0.59863,-0.58968 -0.89795,-1.35954 -0.80442,-2.15397l3.18025,-27.84602c0.16837,-1.41687 1.54336,-2.49795 3.16154,-2.49795l12.71164,-0.00819c1.63689,0 3.01188,1.08927 3.15219,2.49795l3.17089,27.84602c0.08418,0.76986 -0.19643,1.56429 -0.79506,2.15397c-0.57993,0.59787 -1.44047,0.92547 -2.33842,0.92547z" fill="#FFB300" clip-rule="evenodd" fill-rule="evenodd"/>
     <path stroke="null" id="svg_254" d="m129.7289,138.08235c-1.75849,0 -3.17089,-1.24488 -3.17089,-2.77641c0,-17.371 -15.1623,-30.98279 -34.51504,-30.98279l-6.43532,-0.00819c-19.5024,0 -35.38493,13.90663 -35.38493,30.98279c0,1.53153 -1.4124,2.77641 -3.17089,2.77641c-1.75849,0 -3.17089,-1.24488 -3.17089,-2.77641c0,-20.14741 18.71669,-36.55199 41.74543,-36.55199l6.42597,0c22.91649,0 40.88489,16.05241 40.88489,36.55199c-0.03741,1.53972 -1.45917,2.7846 -3.20831,2.7846z" fill="#666666" clip-rule="evenodd" fill-rule="evenodd"/>
     <path stroke="null" id="svg_255" d="m88.8066,104.32315c-14.9191,0 -27.06017,-10.62244 -27.06017,-23.69369s12.14106,-23.69369 27.06017,-23.69369c14.92846,0 27.06017,10.62244 27.06017,23.69369s-12.13171,23.69369 -27.06017,23.69369l0,0zm0,-41.80998c-11.41148,0 -20.69032,8.12449 -20.69032,18.11629c0,9.99181 9.27884,18.11629 20.69032,18.11629c11.41148,0 20.69032,-8.12449 20.69032,-18.11629c0,-9.97543 -9.26949,-18.11629 -20.69032,-18.11629z" fill="#666666" clip-rule="evenodd" fill-rule="evenodd"/>
     <path stroke="null" id="svg_256" d="m70.00572,138.08235c-1.75849,0 -3.17089,-1.24488 -3.17089,-2.77641l0,-8.05078c0,-1.53972 1.4124,-2.77641 3.17089,-2.77641c1.75849,0 3.17089,1.23669 3.17089,2.77641l0,8.05078c0,1.53153 -1.4124,2.77641 -3.17089,2.77641z" fill="#666666" clip-rule="evenodd" fill-rule="evenodd"/>
     <path stroke="null" id="svg_257" d="m106.75629,138.08235c-1.75849,0 -3.18025,-1.24488 -3.18025,-2.77641l0,-8.05078c0,-1.53972 1.42176,-2.77641 3.18025,-2.77641c1.75849,0 3.17089,1.23669 3.17089,2.77641l0,8.05078c0.00935,1.53153 -1.4124,2.77641 -3.17089,2.77641z" fill="#666666" clip-rule="evenodd" fill-rule="evenodd"/>
     <path stroke="null" id="svg_258" d="m260.11906,29.48288c-8.77374,0 -15.89188,-6.24897 -15.89188,-13.91482c0,-7.68222 7.13685,-13.91482 15.89188,-13.91482c8.75503,0 15.89188,6.24897 15.89188,13.91482c0.00935,7.66584 -7.10879,13.91482 -15.89188,13.91482l0,0zm0,-22.27681c-5.26612,0 -9.54074,3.75102 -9.54074,8.35381c0,4.60278 4.28398,8.35381 9.54074,8.35381c5.25676,0 9.54074,-3.75102 9.54074,-8.35381c0,-4.60278 -4.27463,-8.35381 -9.54074,-8.35381z" clip-rule="evenodd" fill-rule="evenodd"/>
     <path stroke="null" id="svg_259" d="m43.84351,51.75151c-14.02115,0 -25.43263,-9.99181 -25.43263,-22.26862c0,-12.27682 11.41148,-22.26862 25.43263,-22.26862s25.43263,9.99181 25.43263,22.26862c0.02806,12.2932 -11.38342,22.26862 -25.43263,22.26862l0,0zm0,-38.97624c-10.52288,0 -19.08149,7.49385 -19.08149,16.70761c0,9.21376 8.55861,16.70761 19.08149,16.70761c10.53223,0 19.08149,-7.49385 19.08149,-16.70761c0.01871,-9.21376 -8.54925,-16.70761 -19.08149,-16.70761z" fill="#FFB300" clip-rule="evenodd" fill-rule="evenodd"/>
     <path stroke="null" id="svg_260" d="m297.95465,165.92837l-291.93738,0c-1.92686,0 -3.49827,-1.37592 -3.49827,-3.06306l0,-27.2891c0,-1.68714 1.57142,-3.06306 3.49827,-3.06306l291.96544,0c1.92686,0 3.49827,1.37592 3.49827,3.06306l0,27.29729c-0.00935,1.68714 -1.57142,3.05487 -3.52633,3.05487l0,0zm-289.08451,-5.55282l286.23164,0l0,-22.26862l-286.23164,-0.00819l0,22.27681l0,0zm289.08451,-22.29319l0,0l0,0z" fill="#666666" clip-rule="evenodd" fill-rule="evenodd"/>
    </g>
   </g>
   <g stroke="null" id="svg_1256">
    <g stroke="null" id="svg_1257">
     <path stroke="null" id="svg_1258" d="m209.16159,298.34676l-7.59567,0c-0.04771,0 -0.08588,-0.04985 -0.08588,-0.11216s0.03817,-0.11216 0.08588,-0.11216l7.59567,0c0.04771,0 0.08588,0.04985 0.08588,0.11216s-0.03817,0.11216 -0.08588,0.11216z" fill="#666666"/>
    </g>
    <g stroke="null" id="svg_1259">
     <path stroke="null" id="svg_1260" d="m209.8057,298.34676l-0.31331,0c-0.04771,0 -0.08588,-0.04985 -0.08588,-0.11216s0.03817,-0.11216 0.08588,-0.11216l0.3141,0c0.04771,0 0.08588,0.04985 0.08588,0.11216s-0.03896,0.11216 -0.08668,0.11216z" fill="#666666"/>
    </g>
   </g>
   <g stroke="null" id="svg_1346">
    <circle stroke="null" id="svg_1347" r="0.26957" cy="292.38056" cx="121.75249" fill="#41A700"/>
   </g>
  </g>
 </g>
</svg>