<svg width="304" height="300" xmlns="http://www.w3.org/2000/svg">

 <g>
  <title>background</title>
  <rect fill="none" id="canvas_background" height="302" width="306" y="-1" x="-1"/>
 </g>
 <g>
  <title>Layer 1</title>
  <g stroke="null" id="svg_1581">
   <g stroke="null" id="svg_1060">
    <path stroke="null" id="svg_1061" d="m-16.31955,278.00691l-9.68907,0c-1.46304,0 -2.65356,-1.03744 -2.65356,-2.32639s1.18334,-2.32639 2.65356,-2.32639l9.68907,0c1.46304,0 2.65356,1.03744 2.65356,2.32639s-1.18334,2.32639 -2.65356,2.32639z"/>
   </g>
   <g stroke="null" id="svg_1078">
    <path stroke="null" id="svg_1079" d="m-46.73507,267.65762l-11.09474,0c-1.04708,0 -1.89335,-0.74193 -1.89335,-1.65991l0,-4.42014c0,-0.91798 0.84627,-1.65991 1.89335,-1.65991l11.09474,0c1.04708,0 1.89335,0.74193 1.89335,1.65991l0,4.42014c0,0.91798 -0.84627,1.65991 -1.89335,1.65991z"/>
   </g>
   <path stroke="null" id="svg_1464" d="m47.45191,230.62399l-11.65414,0l0,-19.9378l11.65414,0c2.6679,0 4.83378,1.89884 4.83378,4.2378l0,11.46219c0,2.33897 -2.16588,4.2378 -4.83378,4.2378z" fill="#FDC778"/>
   <g stroke="null" id="svg_1465">
    <path stroke="null" id="svg_1466" d="m74.99155,67.79549c-14.32922,6.63965 -28.53651,14.2853 -38.50528,25.48341c-16.366,18.37849 -18.49602,45.5784 -5.15651,65.74884c13.33951,20.17044 41.32379,32.06018 67.64422,28.74036c12.50758,-1.57817 24.34102,-6.21838 36.89881,-7.43816c34.93374,-3.39527 68.77736,19.96295 103.21625,13.80116c21.80221,-3.89828 39.47347,-19.92522 45.74161,-38.63695c6.26814,-18.71173 1.95072,-39.45433 -9.10816,-56.37411c-11.05888,-16.92607 -28.3859,-30.24308 -47.66365,-39.98249c-21.08503,-10.6511 -51.75873,-24.77292 -75.8344,-18.66772c-26.72922,6.7654 -52.64803,15.93263 -77.23289,27.32566z" fill="#F4F5F5"/>
    <path stroke="null" id="svg_1467" d="m59.74434,121.61057c-0.02869,-2.38927 -2.24477,-4.31325 -4.97004,-4.31325c-0.64546,0 -1.2694,0.11318 -1.84315,0.31438c-0.90364,-2.91113 -3.93731,-5.05518 -7.54471,-5.05518c-3.87276,0 -7.09289,2.471 -7.70249,5.7028c-0.84627,-0.59732 -1.92921,-0.95571 -3.10538,-0.95571c-2.73245,0 -4.94136,1.93028 -4.97004,4.31325l30.13582,0l0,-0.00629z" fill="#FFFFFF"/>
    <path stroke="null" id="svg_1468" d="m177.88507,60.5711c-0.04303,-3.60276 -3.38508,-6.50761 -7.50168,-6.50761c-0.97536,0 -1.91487,0.16976 -2.78265,0.47157c-1.36264,-4.38871 -5.93106,-7.62679 -11.37444,-7.62679c-5.845,0 -10.69312,3.72223 -11.61828,8.59507c-1.27658,-0.90541 -2.91174,-1.44613 -4.68317,-1.44613c-4.1166,0 -7.45865,2.90484 -7.50168,6.50761l45.46191,0l0,0.00629z" fill="#FFFFFF"/>
   </g>
   <polyline stroke="#000000" id="svg_1469" points="151.7654266357422,125.38937377929688 132.42320251464844,108.18038940429688 155.21505737304688,90.97140502929688 " stroke-miterlimit="10" fill="none"/>
   <path stroke="null" id="svg_1470" d="m161.79159,271.41757l-9.98312,0c-1.81446,0 -3.2775,-1.28895 -3.2775,-2.87341l0,-7.26211c0,-1.59075 1.47021,-2.87341 3.2775,-2.87341l9.98312,0l0,13.00893z" fill="#FDC778"/>
   <g stroke="null" id="svg_1471">
    <line stroke="#000000" id="svg_1472" y2="271.41757" x2="51.1669" y1="271.41757" x1="287.7137" stroke-miterlimit="10" fill="none"/>
    <line stroke="#000000" id="svg_1473" y2="271.41757" x2="22.6017" y1="271.41757" x1="36.60818" stroke-miterlimit="10" fill="none"/>
   </g>
   <path stroke="null" id="svg_1474" d="m274.51762,157.57531l0,85.90041l-238.71985,0l0,-85.90041c0,-2.67849 2.47426,-4.8477 5.52944,-4.8477l227.66097,0c3.05518,0 5.52944,2.1692 5.52944,4.8477z" fill="#FF3300"/>
   <path stroke="#F4F5F5" id="svg_1475" d="m274.51762,157.56903l0,85.90041l-238.71268,0l0,-7.50733l223.85992,0l0,-83.24078l9.33766,0c3.02649,0.00629 5.5151,2.18178 5.5151,4.8477z" stroke-miterlimit="10" fill="none"/>
   <path stroke="null" id="svg_1476" d="m222.65849,191.15079l0,-23.08786c0,-1.80452 1.67102,-3.26952 3.72933,-3.26952l48.12264,0l0,41.59838l-34.46757,0c-9.59584,0 -17.38439,-6.82198 -17.38439,-15.241z" fill="#67A1D7"/>
   <path stroke="#000000" id="svg_1477" d="m183.07743,129.80324l0,7.9223l-60.46527,0l0,-7.9223c0,-2.44585 2.25194,-4.42014 5.04176,-4.42014l50.38175,0c2.78982,0.00629 5.04176,1.98058 5.04176,4.42014z" stroke-miterlimit="10" stroke-linejoin="round" stroke-linecap="round" fill="#FDC778"/>
   <polyline stroke="#000000" id="svg_1478" points="256.9753723144531,90.9524917602539 234.1333465576172,90.9524917602539 208.5014190673828,90.9524917602539 97.18817138671875,90.9524917602539 71.55631256103516,90.9524917602539 48.714107513427734,90.9524917602539 " stroke-miterlimit="10" fill="none"/>
   <path stroke="#000000" id="svg_1479" d="m97.1882,90.95251c0,6.21209 -5.7446,11.24841 -12.83031,11.24841c-7.05703,0 -12.79445,-5.03632 -12.79445,-11.24841c0,-6.18694 5.7446,-11.21698 12.79445,-11.21698c7.08572,0 12.83031,5.03632 12.83031,11.21698z" stroke-miterlimit="10" stroke-linejoin="round" stroke-linecap="round" stroke-width="2" fill="#D7D7D7"/>
   <path stroke="#000000" id="svg_1480" d="m234.13333,90.95251c0,6.21209 -5.7446,11.24841 -12.83031,11.24841c-7.05703,0 -12.79445,-5.03632 -12.79445,-11.24841c0,-6.18694 5.7446,-11.21698 12.79445,-11.21698c7.08572,0 12.83031,5.03632 12.83031,11.21698z" stroke-miterlimit="10" stroke-linejoin="round" stroke-linecap="round" stroke-width="2" fill="#D7D7D7"/>
   <path stroke="#000000" id="svg_1481" d="m274.51762,157.57531l0,85.90041l-238.71985,0l0,-85.90041c0,-2.67849 2.47426,-4.8477 5.52944,-4.8477l227.66097,0c3.05518,0 5.52944,2.1692 5.52944,4.8477z" stroke-miterlimit="10" fill="none"/>
   <path stroke="null" id="svg_1482" d="m48.49899,193.18167l0,-24.65974c0,-1.94285 1.80012,-3.52102 4.0162,-3.52102l24.51314,0c2.21608,0 4.0162,1.57817 4.0162,3.52102l0,24.65974c0,1.94285 -1.80012,3.52102 -4.0162,3.52102l-24.51314,0c-2.21608,0 -4.0162,-1.57189 -4.0162,-3.52102z" fill="#67A1D7"/>
   <path stroke="null" id="svg_1483" d="m91.99584,193.18167l0,-24.65974c0,-1.94285 1.80012,-3.52102 4.0162,-3.52102l24.51314,0c2.21608,0 4.0162,1.57817 4.0162,3.52102l0,24.65974c0,1.94285 -1.80012,3.52102 -4.0162,3.52102l-24.51314,0c-2.22325,0 -4.0162,-1.57189 -4.0162,-3.52102z" fill="#67A1D7"/>
   <path stroke="null" id="svg_1484" d="m135.48551,193.18167l0,-24.65974c0,-1.94285 1.80012,-3.52102 4.0162,-3.52102l24.51314,0c2.21608,0 4.0162,1.57817 4.0162,3.52102l0,24.65974c0,1.94285 -1.80012,3.52102 -4.0162,3.52102l-24.51314,0c-2.21608,0 -4.0162,-1.57189 -4.0162,-3.52102z" fill="#67A1D7"/>
   <path stroke="null" id="svg_1485" d="m178.98235,192.97418l0,-24.65974c0,-1.94285 1.80012,-3.52102 4.0162,-3.52102l24.51314,0c2.21608,0 4.0162,1.57817 4.0162,3.52102l0,24.65974c0,1.94285 -1.80012,3.52102 -4.0162,3.52102l-24.51314,0c-2.21608,0 -4.0162,-1.57817 -4.0162,-3.52102z" fill="#67A1D7"/>
   <g stroke="null" id="svg_1486">
    <path stroke="null" id="svg_1487" d="m263.47308,199.1234l-23.42303,0c-5.01307,0 -9.10099,-3.57761 -9.10099,-7.9726l0,-16.67456c0,-1.33925 1.23355,-2.4207 2.76114,-2.4207c1.52759,0 2.76114,1.08146 2.76114,2.4207l0,16.67456c0,1.72907 1.60648,3.1312 3.57872,3.1312l23.42303,0c1.52759,0 2.76114,1.08146 2.76114,2.4207c0,1.33925 -1.24072,2.4207 -2.76114,2.4207z" fill="#FFFFFF"/>
   </g>
   <path stroke="#000000" id="svg_1488" d="m83.85587,138.41088l0,14.31674l-20.95594,0l0,-14.31674c0,-2.23837 2.07264,-4.04918 4.61863,-4.04918l11.71152,0c2.56033,0 4.6258,1.81081 4.6258,4.04918z" stroke-miterlimit="10" stroke-linejoin="round" stroke-linecap="round" fill="#FDC778"/>
   <path stroke="#000000" id="svg_1489" d="m247.4083,138.41088l0,14.31674l-20.95594,0l0,-14.31674c0,-2.23837 2.07264,-4.04918 4.61863,-4.04918l11.71152,0c2.55315,0 4.6258,1.81081 4.6258,4.04918z" stroke-miterlimit="10" stroke-linejoin="round" stroke-linecap="round" fill="#FDC778"/>
   <rect stroke="#000000" id="svg_1490" height="15.01465" width="39.60257" stroke-miterlimit="10" stroke-linejoin="round" stroke-linecap="round" fill="#FDC778" y="137.71925" x="133.05427"/>
   <path stroke="#000000" id="svg_1491" d="m279.18645,253.5861l-248.05751,0c-3.18427,0 -5.76611,-2.26352 -5.76611,-5.05518l0,0c0,-2.79167 2.58184,-5.05518 5.76611,-5.05518l248.05751,0c3.18427,0 5.76611,2.26352 5.76611,5.05518l0,0c0,2.79167 -2.58184,5.05518 -5.76611,5.05518z" stroke-miterlimit="10" fill="none"/>
   <g stroke="null" id="svg_1492">
    <path stroke="null" id="svg_1493" d="m245.09898,253.5861c0,9.84 -9.07947,17.83147 -20.33917,17.83147c-11.22383,0 -20.33917,-7.98518 -20.33917,-17.83147c0,-9.84 9.10816,-17.83147 20.33917,-17.83147c11.25969,0 20.33917,7.99147 20.33917,17.83147z" fill="#B86335"/>
    <path stroke="null" id="svg_1494" d="m105.88757,253.5861c0,9.84 -9.10816,17.83147 -20.33917,17.83147c-11.25969,0 -20.33917,-7.98518 -20.33917,-17.83147c0,-9.84 9.07947,-17.83147 20.33917,-17.83147c11.23101,0 20.33917,7.99147 20.33917,17.83147z" fill="#B86335"/>
   </g>
   <g stroke="null" id="svg_1495">
    <path stroke="null" id="svg_1496" d="m245.10616,253.59238c0,9.82743 -9.08664,17.8189 -20.35351,17.8189c-4.77641,0 -9.16553,-1.45242 -12.62233,-3.89828c1.59931,0.38983 3.28467,0.57845 5.02742,0.57845c11.26687,0 20.35351,-7.99147 20.35351,-17.84405c0,-5.63993 -3.01215,-10.67625 -7.70249,-13.92062c8.80695,1.93656 15.29741,8.9346 15.29741,17.26559z" fill="#AC4B25"/>
    <path stroke="null" id="svg_1497" d="m105.88757,253.59238c0,9.82743 -9.11533,17.8189 -20.32482,17.8189c-4.77641,0 -9.16553,-1.45242 -12.65102,-3.89828c1.59931,0.38983 3.31336,0.57845 5.0561,0.57845c11.20949,0 20.32482,-7.99147 20.32482,-17.84405c0,-5.63993 -3.01215,-10.67625 -7.70249,-13.92062c8.78543,1.93656 15.29741,8.9346 15.29741,17.26559z" fill="#AC4B25"/>
   </g>
   <g stroke="null" id="svg_1498">
    <path stroke="null" id="svg_1499" d="m245.09898,253.5861c0,9.84 -9.07947,17.83147 -20.33917,17.83147c-11.22383,0 -20.33917,-7.98518 -20.33917,-17.83147c0,-9.84 9.10816,-17.83147 20.33917,-17.83147c11.25969,0 20.33917,7.99147 20.33917,17.83147z"/>
    <path stroke="null" id="svg_1500" d="m105.88757,253.5861c0,9.84 -9.10816,17.83147 -20.33917,17.83147c-11.25969,0 -20.33917,-7.98518 -20.33917,-17.83147c0,-9.84 9.07947,-17.83147 20.33917,-17.83147c11.23101,0 20.33917,7.99147 20.33917,17.83147z"/>
   </g>
   <circle stroke="null" id="svg_1501" r="5.26623" cy="253.5861" cx="85.54841" fill="#FFFFFF"/>
   <circle stroke="null" id="svg_1502" r="5.26623" cy="253.5861" cx="224.76699" fill="#FFFFFF"/>
  </g>
 </g>
</svg>