<svg width="304" height="300" xmlns="http://www.w3.org/2000/svg">

 <g>
  <title>background</title>
  <rect fill="none" id="canvas_background" height="302" width="306" y="-1" x="-1"/>
 </g>
 <g>
  <title>Layer 1</title>
  <g id="svg_1582">
   <circle id="svg_212" r="1.091" cy="150" cx="152" fill="#FFFFFF" clip-rule="evenodd" fill-rule="evenodd"/>
   <path id="svg_213" d="m153.0275,151.268c-0.133,0 -0.24,-0.107 -0.24,-0.24c0,-1.001 -0.815,-1.816 -1.816,-1.816c-0.133,0 -0.24,-0.107 -0.24,-0.24c0,-0.133 0.107,-0.24 0.24,-0.24c1.266,0 2.297,1.03 2.297,2.297c-0.001,0.132 -0.108,0.239 -0.241,0.239z" fill="#FFFFFF" clip-rule="evenodd" fill-rule="evenodd"/>
   <path id="svg_214" d="m153.02749,151.2665c-1.265,0 -2.293,-1.029 -2.293,-2.293c0,-0.133 0.107,-0.24 0.24,-0.24c0.133,0 0.24,0.108 0.24,0.24c0,0.998 0.812,1.811 1.811,1.811c0.133,0 0.24,0.107 0.24,0.24c0.002,0.133 -0.106,0.242 -0.238,0.242z" fill="#FFFFFF" clip-rule="evenodd" fill-rule="evenodd"/>
   <g stroke="null" id="svg_1581">
    <path stroke="null" id="svg_36" d="m258.99084,128.69006c-0.54416,-25.67682 -11.61731,-49.66093 -31.37968,-67.64503c-20.0906,-18.68344 -46.90973,-28.87152 -75.47362,-28.87152c-8.47329,0 -16.61836,0.89801 -24.65114,2.59868l0,49.81987l-20.37563,0l0,-28.69669c0,-5.35629 -4.70738,-9.68742 -10.52899,-9.68742l-23.66648,0c-4.0423,-8.24901 -13.03384,-14.03444 -23.48509,-14.03444c-14.20853,0 -25.79128,10.65695 -25.79128,23.7298c0,13.07285 11.57412,23.7298 25.79128,23.7298c10.45989,0 19.45143,-5.79338 23.48509,-14.05033l13.12885,0l0,28.69669c0,5.35629 4.70738,9.68742 10.52899,9.68742l30.89599,0l0,30.29404l-44.03347,0c-4.0423,-8.25695 -13.03384,-14.04238 -23.48509,-14.04238c-14.20853,0 -25.79128,10.65695 -25.79128,23.7298c0,13.07285 11.58276,23.7298 25.79128,23.7298c10.45126,0 19.44279,-5.78543 23.48509,-14.04238l44.03347,0l0,30.30199l-30.89599,0c-5.82161,0 -10.52899,4.33113 -10.52899,9.68742l0,28.69669l-13.10294,0c-4.0423,-8.2649 -13.03384,-14.05828 -23.49373,-14.05828c-14.20853,0 -25.79128,10.65695 -25.79128,23.7298s11.57412,23.7298 25.79128,23.7298c10.44262,0 19.42552,-5.77748 23.47646,-14.02649l23.67512,0c5.82161,0 10.52899,-4.33113 10.52899,-9.68742l0,-28.69669l20.37563,0l0,57.90993c0,3.64768 3.21311,6.60397 7.17768,6.60397l67.42356,0c3.96457,0 7.17768,-2.95629 7.17768,-6.60397l0,-33.20265l28.56389,0c11.64322,0 21.17891,-8.76556 21.17891,-19.48609l0,-30.47682l5.32064,0c5.32064,0 10.20941,-2.4 13.13749,-6.39735c3.04037,-3.99735 3.69681,-9.09139 1.8484,-13.5894l-20.34108,-29.38013z" fill="#FFB300"/>
    <path stroke="null" id="svg_215" d="m192.40511,149.98808l-8.13643,0c-0.96739,0 -1.81385,-0.61987 -2.02979,-1.50199l-2.42711,-10.0053c-2.83307,-0.69934 -5.52794,-1.71656 -8.06733,-3.08344l-9.43204,5.49139c-0.82055,0.48477 -1.89159,0.37351 -2.58258,-0.26225l-5.75251,-5.29272c-0.68235,-0.62781 -0.81192,-1.62119 -0.28503,-2.37616l5.96844,-8.67815c-1.477,-2.34437 -2.6085,-4.82384 -3.34267,-7.42252l-10.88313,-2.23311c-0.95011,-0.19073 -1.63247,-0.97748 -1.63247,-1.86755l0,-7.48609c0,-0.89007 0.67372,-1.66887 1.63247,-1.86755l10.88313,-2.23311c0.74282,-2.58278 1.86568,-5.07815 3.34267,-7.42252l-5.96844,-8.67815c-0.51824,-0.75497 -0.40596,-1.7404 0.28503,-2.37616l5.75251,-5.28477c0.69099,-0.63576 1.76203,-0.74702 2.59122,-0.26225l9.44068,5.51523c2.51348,-1.34305 5.21699,-2.38411 8.06733,-3.08344l2.42711,-10.01324c0.2073,-0.87417 1.0624,-1.49404 2.02979,-1.49404l8.13643,0c0.96739,0 1.81385,0.61987 2.03843,1.49404l2.42711,10.01324c2.85034,0.70728 5.55385,1.7404 8.06733,3.08344l9.43204,-5.51523c0.82055,-0.47682 1.90023,-0.37351 2.59122,0.26225l5.75251,5.28477c0.69099,0.63576 0.81192,1.62119 0.28503,2.37616l-5.96844,8.67815c1.477,2.34437 2.59122,4.82384 3.34267,7.42252l10.87449,2.23311c0.95011,0.19073 1.63247,0.97748 1.63247,1.86755l0,7.48609c0,0.89007 -0.67372,1.66887 -1.63247,1.86755l-10.87449,2.23311c-0.75145,2.60662 -1.86568,5.08609 -3.34267,7.42252l5.96844,8.67815c0.51824,0.75497 0.40596,1.7404 -0.28503,2.37616l-5.75251,5.29272c-0.69099,0.62781 -1.76203,0.74702 -2.58258,0.26225l-9.43204,-5.49139c-2.54803,1.35894 -5.2429,2.38411 -8.06733,3.08344l-2.42711,10.0053c-0.25912,0.88212 -1.09695,1.50199 -2.06434,1.50199l0,0zm-6.46941,-3.81457l4.79376,0l2.34937,-9.66358c0.17275,-0.72318 0.786,-1.28742 1.57201,-1.44636c3.23903,-0.6596 6.32258,-1.84371 9.18156,-3.49669c0.67372,-0.3894 1.54609,-0.3894 2.21981,0l9.1211,5.31656l3.3945,-3.12318l-5.77842,-8.38411c-0.42323,-0.61987 -0.42323,-1.43046 0,-2.05033c1.79658,-2.59073 3.07491,-5.42781 3.80046,-8.43974c0.17275,-0.72318 0.786,-1.28742 1.57201,-1.44636l10.50308,-2.16159l0,-4.4106l-10.50308,-2.16159c-0.786,-0.15894 -1.39926,-0.72318 -1.57201,-1.44636c-0.7169,-2.98013 -2.00388,-5.81722 -3.80046,-8.44768c-0.42323,-0.61987 -0.42323,-1.41457 0,-2.05033l5.77842,-8.39205l-3.3945,-3.12318l-9.1211,5.31656c-0.67372,0.39735 -1.55473,0.39735 -2.22845,0c-2.79852,-1.63709 -5.88207,-2.82119 -9.18156,-3.51258c-0.786,-0.15894 -1.39926,-0.72318 -1.57201,-1.44636l-2.34937,-9.66358l-4.8024,0l-2.34937,9.66358c-0.17275,0.72318 -0.786,1.28742 -1.57201,1.44636c-3.29949,0.69139 -6.38304,1.86755 -9.18156,3.51258c-0.67372,0.39735 -1.55473,0.39735 -2.22845,0l-9.11246,-5.31656l-3.3945,3.12318l5.77842,8.39205c0.42323,0.61987 0.42323,1.42252 0,2.05033c-1.80522,2.62252 -3.08355,5.4596 -3.80046,8.44768c-0.17275,0.72318 -0.786,1.28742 -1.57201,1.44636l-10.50308,2.16159l0,4.4106l10.50308,2.16159c0.786,0.15894 1.39926,0.72318 1.57201,1.44636c0.7169,2.98013 2.00388,5.82517 3.80046,8.44768c0.42323,0.61987 0.42323,1.42252 0,2.05033l-5.77842,8.38411l3.3945,3.12318l9.11246,-5.30861c0.67372,-0.3894 1.55473,-0.3894 2.22845,0c2.81579,1.65298 5.91662,2.82119 9.17292,3.49669c0.786,0.15894 1.39926,0.72318 1.57201,1.44636l2.37529,9.64768l0,0zm-4.37053,-65.00662l0,0l0,0z" fill="#FFFFFF" clip-rule="evenodd" fill-rule="evenodd"/>
   </g>
  </g>
 </g>
</svg>