<svg width="304" height="300" xmlns="http://www.w3.org/2000/svg">

 <g>
  <title>background</title>
  <rect fill="none" id="canvas_background" height="302" width="306" y="-1" x="-1"/>
 </g>
 <g>
  <title>Layer 1</title>
  <path id="svg_627" d="m-140.001,308.157c0.504,-0.084 1.164,-0.155 2.003,-0.155c1.032,0 1.787,0.239 2.268,0.672c0.443,0.383 0.707,0.971 0.707,1.69c0,0.732 -0.216,1.308 -0.624,1.728c-0.551,0.587 -1.451,0.887 -2.47,0.887c-0.313,0 -0.601,-0.012 -0.84,-0.072l0,3.238l-1.044,0l0,-7.988zm1.044,3.897c0.228,0.06 0.516,0.084 0.863,0.084c1.26,0 2.027,-0.611 2.027,-1.727c0,-1.067 -0.756,-1.583 -1.907,-1.583c-0.456,0 -0.804,0.036 -0.983,0.084l0,3.142z" fill="#6D6E71"/>
  <path id="svg_628" d="m-133.844,312.151c0,-0.684 -0.013,-1.271 -0.049,-1.811l0.924,0l0.036,1.14l0.048,0c0.264,-0.779 0.899,-1.27 1.607,-1.27c0.12,0 0.203,0.012 0.3,0.035l0,0.996c-0.108,-0.024 -0.216,-0.037 -0.36,-0.037c-0.743,0 -1.271,0.565 -1.415,1.355c-0.023,0.145 -0.048,0.313 -0.048,0.492l0,3.094l-1.043,0l0,-3.994z" fill="#6D6E71"/>
  <text id="svg_708" font-size="2.0198" font-family="'Arial-BoldMT'" fill="#666666" transform="matrix(1,0,0,1,201.6066,233.7194) "/>
  <g id="svg_1085">
   <g id="svg_1086">
    <path id="svg_1087" d="m-21.123,-185.963l-0.591,0c-0.13,0 -0.236,-0.105 -0.236,-0.236c0,-0.13 0.105,-0.236 0.236,-0.236l0.591,0c0.13,0 0.236,0.105 0.236,0.236c0,0.13 -0.105,0.236 -0.236,0.236z" fill="#666666"/>
   </g>
   <g id="svg_1088">
    <path id="svg_1089" d="m0.904,-185.963l-21.32,0c-0.13,0 -0.236,-0.105 -0.236,-0.236c0,-0.13 0.105,-0.236 0.236,-0.236l21.32,0c0.13,0 0.236,0.105 0.236,0.236c0,0.13 -0.105,0.236 -0.236,0.236z" fill="#666666"/>
   </g>
  </g>
  <path id="svg_1346" d="m20.867,-132.727l-0.796,0l0,-0.287l1.938,0l0,0.287l-0.8,0l0,2.33l-0.342,0l0,-2.33z" fill="#6D6E71"/>
  <path id="svg_1347" d="m22.624,-132.805c0.004,0.117 -0.082,0.21 -0.218,0.21c-0.12,0 -0.206,-0.093 -0.206,-0.21c0,-0.12 0.089,-0.213 0.214,-0.213c0.128,0 0.21,0.093 0.21,0.213zm-0.38,2.408l0,-1.88l0.342,0l0,1.88l-0.342,0z" fill="#6D6E71"/>
  <path id="svg_1348" d="m23.153,-131.768c0,-0.194 -0.004,-0.353 -0.016,-0.508l0.299,0l0.015,0.303l0.012,0c0.105,-0.179 0.28,-0.346 0.59,-0.346c0.256,0 0.45,0.155 0.532,0.377l0.008,0c0.058,-0.105 0.132,-0.187 0.21,-0.245c0.113,-0.085 0.237,-0.132 0.416,-0.132c0.249,0 0.618,0.163 0.618,0.816l0,1.107l-0.334,0l0,-1.064c0,-0.361 -0.132,-0.579 -0.408,-0.579c-0.194,0 -0.346,0.144 -0.404,0.311c-0.015,0.047 -0.027,0.109 -0.027,0.171l0,1.161l-0.334,0l0,-1.126c0,-0.299 -0.132,-0.516 -0.392,-0.516c-0.213,0 -0.369,0.171 -0.423,0.342c-0.02,0.05 -0.027,0.108 -0.027,0.167l0,1.134l-0.334,0l0,-1.373l-0.001,0z" fill="#6D6E71"/>
  <path id="svg_1349" d="m26.583,-131.274c0.008,0.462 0.303,0.652 0.645,0.652c0.245,0 0.392,-0.043 0.52,-0.097l0.058,0.245c-0.12,0.054 -0.326,0.117 -0.625,0.117c-0.579,0 -0.924,-0.381 -0.924,-0.948c0,-0.567 0.334,-1.013 0.882,-1.013c0.613,0 0.777,0.54 0.777,0.885c0,0.07 -0.008,0.124 -0.012,0.159l-1.321,0zm1.003,-0.245c0.004,-0.217 -0.089,-0.555 -0.474,-0.555c-0.346,0 -0.497,0.318 -0.524,0.555l0.998,0z" fill="#6D6E71"/>
  <path id="svg_1350" d="m31.381,-131.546c-0.019,-0.365 -0.043,-0.804 -0.039,-1.13l-0.012,0c-0.089,0.307 -0.198,0.633 -0.33,0.994l-0.462,1.27l-0.256,0l-0.423,-1.247c-0.124,-0.369 -0.229,-0.707 -0.303,-1.017l-0.008,0c-0.008,0.326 -0.027,0.765 -0.05,1.157l-0.07,1.123l-0.323,0l0.183,-2.618l0.431,0l0.447,1.266c0.109,0.322 0.198,0.61 0.264,0.882l0.012,0c0.066,-0.264 0.159,-0.551 0.276,-0.882l0.466,-1.266l0.431,0l0.163,2.618l-0.33,0l-0.067,-1.15z" fill="#6D6E71"/>
  <path id="svg_1351" d="m33.352,-130.397l-0.027,-0.237l-0.012,0c-0.105,0.147 -0.307,0.28 -0.575,0.28c-0.38,0 -0.575,-0.268 -0.575,-0.54c0,-0.454 0.404,-0.703 1.13,-0.699l0,-0.039c0,-0.155 -0.043,-0.435 -0.427,-0.435c-0.175,0 -0.357,0.054 -0.49,0.14l-0.077,-0.225c0.155,-0.101 0.38,-0.167 0.617,-0.167c0.575,0 0.715,0.392 0.715,0.769l0,0.703c0,0.163 0.008,0.322 0.031,0.451l-0.31,0l0,-0.001zm-0.051,-0.959c-0.373,-0.008 -0.796,0.058 -0.796,0.423c0,0.221 0.147,0.326 0.322,0.326c0.245,0 0.4,-0.156 0.454,-0.315c0.012,-0.035 0.019,-0.074 0.019,-0.109l0,-0.325l0.001,0z" fill="#6D6E71"/>
  <path id="svg_1352" d="m34.184,-131.768c0,-0.194 -0.004,-0.353 -0.016,-0.508l0.303,0l0.02,0.311l0.008,0c0.093,-0.179 0.311,-0.353 0.621,-0.353c0.26,0 0.664,0.155 0.664,0.8l0,1.123l-0.342,0l0,-1.084c0,-0.303 -0.113,-0.555 -0.435,-0.555c-0.225,0 -0.4,0.159 -0.458,0.349c-0.015,0.043 -0.023,0.101 -0.023,0.159l0,1.13l-0.342,0l0,-1.372z" fill="#6D6E71"/>
  <path id="svg_1353" d="m37.381,-130.397l-0.027,-0.237l-0.012,0c-0.105,0.147 -0.307,0.28 -0.575,0.28c-0.38,0 -0.575,-0.268 -0.575,-0.54c0,-0.454 0.404,-0.703 1.13,-0.699l0,-0.039c0,-0.155 -0.043,-0.435 -0.427,-0.435c-0.175,0 -0.357,0.054 -0.49,0.14l-0.077,-0.225c0.155,-0.101 0.38,-0.167 0.617,-0.167c0.575,0 0.715,0.392 0.715,0.769l0,0.703c0,0.163 0.008,0.322 0.031,0.451l-0.31,0l0,-0.001zm-0.05,-0.959c-0.373,-0.008 -0.796,0.058 -0.796,0.423c0,0.221 0.147,0.326 0.322,0.326c0.245,0 0.4,-0.156 0.454,-0.315c0.012,-0.035 0.019,-0.074 0.019,-0.109l0,-0.325l0.001,0z" fill="#6D6E71"/>
  <path id="svg_1354" d="m39.833,-132.276c-0.008,0.136 -0.015,0.287 -0.015,0.516l0,1.091c0,0.431 -0.085,0.695 -0.268,0.858c-0.182,0.171 -0.447,0.225 -0.683,0.225c-0.225,0 -0.474,-0.054 -0.625,-0.155l0.085,-0.26c0.124,0.077 0.318,0.147 0.551,0.147c0.349,0 0.606,-0.182 0.606,-0.656l0,-0.21l-0.008,0c-0.105,0.175 -0.307,0.315 -0.598,0.315c-0.466,0 -0.8,-0.396 -0.8,-0.916c0,-0.637 0.416,-0.998 0.847,-0.998c0.326,0 0.505,0.171 0.586,0.326l0.008,0l0.015,-0.283l0.299,0zm-0.354,0.741c0,-0.058 -0.004,-0.109 -0.019,-0.155c-0.062,-0.198 -0.229,-0.361 -0.478,-0.361c-0.326,0 -0.559,0.276 -0.559,0.711c0,0.369 0.186,0.676 0.555,0.676c0.21,0 0.4,-0.132 0.474,-0.349c0.02,-0.058 0.027,-0.124 0.027,-0.182l0,-0.34z" fill="#6D6E71"/>
  <path id="svg_1355" d="m40.576,-131.274c0.008,0.462 0.303,0.652 0.645,0.652c0.245,0 0.392,-0.043 0.52,-0.097l0.058,0.245c-0.12,0.054 -0.326,0.117 -0.625,0.117c-0.579,0 -0.924,-0.381 -0.924,-0.948c0,-0.567 0.334,-1.013 0.882,-1.013c0.613,0 0.777,0.54 0.777,0.885c0,0.07 -0.008,0.124 -0.012,0.159l-1.321,0zm1.002,-0.245c0.004,-0.217 -0.089,-0.555 -0.474,-0.555c-0.346,0 -0.497,0.318 -0.524,0.555l0.998,0z" fill="#6D6E71"/>
  <path id="svg_1356" d="m42.332,-131.768c0,-0.194 -0.004,-0.353 -0.016,-0.508l0.299,0l0.015,0.303l0.012,0c0.105,-0.179 0.28,-0.346 0.59,-0.346c0.256,0 0.45,0.155 0.532,0.377l0.008,0c0.058,-0.105 0.132,-0.187 0.21,-0.245c0.113,-0.085 0.237,-0.132 0.416,-0.132c0.249,0 0.618,0.163 0.618,0.816l0,1.107l-0.334,0l0,-1.064c0,-0.361 -0.132,-0.579 -0.408,-0.579c-0.194,0 -0.346,0.144 -0.404,0.311c-0.015,0.047 -0.027,0.109 -0.027,0.171l0,1.161l-0.334,0l0,-1.126c0,-0.299 -0.132,-0.516 -0.392,-0.516c-0.213,0 -0.369,0.171 -0.423,0.342c-0.02,0.05 -0.027,0.108 -0.027,0.167l0,1.134l-0.334,0l0,-1.373l-0.001,0z" fill="#6D6E71"/>
  <path id="svg_1357" d="m45.763,-131.274c0.008,0.462 0.303,0.652 0.645,0.652c0.245,0 0.392,-0.043 0.52,-0.097l0.058,0.245c-0.12,0.054 -0.326,0.117 -0.625,0.117c-0.579,0 -0.924,-0.381 -0.924,-0.948c0,-0.567 0.334,-1.013 0.882,-1.013c0.613,0 0.777,0.54 0.777,0.885c0,0.07 -0.008,0.124 -0.012,0.159l-1.321,0zm1.002,-0.245c0.004,-0.217 -0.089,-0.555 -0.474,-0.555c-0.346,0 -0.497,0.318 -0.524,0.555l0.998,0z" fill="#6D6E71"/>
  <path id="svg_1358" d="m47.52,-131.768c0,-0.194 -0.004,-0.353 -0.016,-0.508l0.303,0l0.02,0.311l0.008,0c0.093,-0.179 0.311,-0.353 0.621,-0.353c0.26,0 0.664,0.155 0.664,0.8l0,1.123l-0.342,0l0,-1.084c0,-0.303 -0.113,-0.555 -0.435,-0.555c-0.225,0 -0.4,0.159 -0.458,0.349c-0.015,0.043 -0.023,0.101 -0.023,0.159l0,1.13l-0.342,0l0,-1.372z" fill="#6D6E71"/>
  <path id="svg_1359" d="m50.072,-132.816l0,0.54l0.49,0l0,0.26l-0.49,0l0,1.014c0,0.233 0.066,0.365 0.256,0.365c0.089,0 0.155,-0.012 0.198,-0.023l0.015,0.256c-0.066,0.027 -0.171,0.047 -0.303,0.047c-0.159,0 -0.287,-0.051 -0.369,-0.144c-0.097,-0.101 -0.132,-0.268 -0.132,-0.489l0,-1.025l-0.291,0l0,-0.26l0.291,0l0,-0.451l0.335,-0.09z" fill="#6D6E71"/>
  <g stroke="null" id="svg_1609">
   <g stroke="null" id="svg_1">
    <g stroke="null" id="svg_2">
     <path stroke="null" id="svg_3" d="m295.04116,132.60264c-3.78826,17.43027 -8.35294,34.61199 -17.4823,50.35856c-11.25386,19.43467 -27.78909,31.48512 -51.98617,34.15499c-11.2112,1.23471 -30.13543,-0.97013 -39.17947,-2.20484c-3.18248,-0.43295 -6.31376,-1.05832 -9.39386,-1.90819l-65.79966,-18.11978c-1.16037,-0.3207 -2.28661,-0.67348 -3.39578,-1.07436c-6.97074,-2.49347 -34.73424,-12.26693 -48.5136,-14.38358c-10.93817,-1.69171 -22.00432,-2.56563 -32.78891,-5.23549c-12.43982,-3.07074 -19.22285,-11.13645 -19.47028,-23.40338c-0.48633,-24.75034 6.19431,-48.39425 12.54221,-72.05419c3.47257,-12.94041 7.98606,-25.5521 15.78441,-36.90502c10.88698,-15.8508 26.95295,-23.74012 46.1758,-26.93914c19.69212,-3.28722 39.6146,-2.76607 59.38351,-1.93224c32.16607,1.35497 63.83728,6.21364 93.16215,19.53088c26.42396,12.01037 48.7269,28.27808 58.45351,55.78648c5.03395,14.27935 5.71652,29.60099 2.50844,44.32932z" fill="#F5F5F5"/>
    </g>
   </g>
   <path stroke="null" id="svg_332" d="m171.02688,145.83168c-0.03413,0 -0.07679,0 -0.11092,0c-7.75569,-0.05612 -14.58138,-5.08316 -14.51313,-11.72173c0.04266,-4.8747 -4.33431,-8.85143 -9.76074,-8.89152c-0.0256,0 -0.05119,0 -0.07679,0c-5.40083,0 -9.79487,3.90457 -9.84606,8.7472c-0.11945,13.62191 10.56276,24.61404 24.63221,28.18187l0,5.8288c0,4.8747 4.4111,8.81936 9.84606,8.81936c5.43496,0 9.84606,-3.94466 9.84606,-8.81936l0,-5.92501c13.92441,-3.66404 24.18001,-14.576 24.29946,-27.65271c0.14505,-16.29177 -15.17863,-29.20011 -33.63359,-29.50478c-8.20789,0.03207 -14.9568,-5.13127 -14.96533,-11.64156c0,-6.4221 6.5612,-11.64958 14.62404,-11.64958c8.07138,0 14.62404,5.23549 14.62404,11.64958c0,4.8747 4.4111,8.81936 9.84606,8.81936c5.43496,0 9.84606,-3.94466 9.84606,-8.81936c0,-13.21301 -10.36652,-24.2773 -24.4701,-27.91729l0,-5.8769c0,-4.8747 -4.4111,-8.81936 -9.84606,-8.81936s-9.84606,3.94466 -9.84606,8.81936l0,5.8769c-14.10358,3.63999 -24.4701,14.70428 -24.4701,27.91729c0,16.05124 15.21276,29.13597 33.98341,29.2883c0.03413,0 0.06826,0 0.10239,0c7.81542,0.05612 14.58138,5.13928 14.51313,11.72173c-0.05119,6.39805 -6.59532,11.5694 -14.62404,11.5694z" fill="#FFB300"/>
   <g stroke="null" id="svg_1103">
    <path stroke="null" id="svg_1104" d="m18.1826,174.22201l37.47304,0c4.39404,0 7.96046,3.35136 7.96046,7.48042l0,87.31971c0,4.12907 -3.56642,7.48042 -7.96046,7.48042l-37.47304,0c-4.39404,0 -7.96046,-3.35136 -7.96046,-7.48042l0,-87.31971c0,-4.12907 3.56642,-7.48042 7.96046,-7.48042z" fill="#5AA7F5"/>
   </g>
   <g stroke="null" id="svg_1105">
    <path stroke="null" id="svg_1106" d="m18.1826,174.22201l37.47304,0c4.39404,0 7.96046,3.35136 7.96046,7.48042l0,87.31971c0,4.12907 -3.56642,7.48042 -7.96046,7.48042l-37.47304,0c-4.39404,0 -7.96046,-3.35136 -7.96046,-7.48042l0,-87.31971c0,-4.12907 3.56642,-7.48042 7.96046,-7.48042z"/>
   </g>
   <g stroke="null" id="svg_1107">
    <path stroke="null" id="svg_1108" d="m63.60757,181.70244l0,87.31169c0,4.1451 -3.56642,7.49646 -7.9434,7.49646l-37.49011,0c-4.37697,0 -7.9434,-3.35136 -7.9434,-7.49646l0,-1.2748l36.6113,0c4.37697,0 7.9434,-3.35136 7.9434,-7.46439l0,-86.03689l0.87881,0c4.38551,0 7.9434,3.31929 7.9434,7.46439z" fill="#F5F5F5"/>
   </g>
   <g stroke="null" id="svg_1109">
    <path stroke="null" id="svg_1110" d="m190.7702,239.86212l79.81792,-33.40133c8.27615,-3.47964 17.97716,0.00802 21.71423,7.82518l0,0c3.65174,7.63276 0.28156,16.62851 -7.62771,20.38075l-83.28196,39.50273c-14.77762,7.00738 -31.08249,10.65539 -47.6092,10.65539l0,0c-12.73845,0 -25.37451,-2.16475 -37.31093,-6.40606l-52.83085,-18.75317l0,-67.2757l4.99129,0c12.87496,0 25.52808,3.17497 36.71369,9.20421l0,0c11.1856,6.02924 23.83873,9.20421 36.71369,9.20421l39.12827,0c9.30854,0 16.85092,7.14368 16.85092,15.94701l0,0c0,8.81134 -7.54239,15.94701 -16.85092,15.94701l-57.90746,0" fill="#FFD8A0"/>
   </g>
   <g stroke="null" id="svg_1111">
    <path stroke="null" id="svg_1112" d="m190.7702,239.86212l79.81792,-33.40133c8.27615,-3.47964 17.97716,0.00802 21.71423,7.82518l0,0c3.65174,7.63276 0.28156,16.62851 -7.62771,20.38075l-83.28196,39.50273c-14.77762,7.00738 -31.08249,10.65539 -47.6092,10.65539l0,0c-12.73845,0 -25.37451,-2.16475 -37.31093,-6.40606l-52.83085,-18.75317l0,-67.2757l4.99129,0c12.87496,0 25.52808,3.17497 36.71369,9.20421l0,0c11.1856,6.02924 23.83873,9.20421 36.71369,9.20421l39.12827,0c9.30854,0 16.85092,7.14368 16.85092,15.94701l0,0c0,8.81134 -7.54239,15.94701 -16.85092,15.94701l-57.90746,0" fill="#FFD8A0"/>
   </g>
   <g stroke="null" id="svg_1113">
    <path stroke="null" id="svg_1114" d="m293.76134,220.70807c0,5.73259 -3.31899,11.24068 -9.09523,13.96666l-83.28196,39.51074c-14.76909,7.00738 -31.08249,10.64738 -47.6092,10.64738c-12.74698,0 -25.37451,-2.15674 -37.3024,-6.39003l-52.83085,-18.76119l0,-10.41487l52.83085,18.76119c11.9279,4.23329 24.55542,6.39003 37.3024,6.39003c16.5267,0 32.83157,-3.63197 47.6092,-10.64738l83.28196,-39.51074c3.9589,-1.87612 6.76597,-5.05109 8.1567,-8.71513c0.63991,1.69973 0.93853,3.43153 0.93853,5.16334z" fill="#FFC777"/>
   </g>
   <g stroke="null" id="svg_1115">
    <path stroke="null" id="svg_1116" d="m153.77495,287.67109c-13.15652,0 -26.06561,-2.21286 -38.37745,-6.58245l-52.83085,-18.74515c-1.17743,-0.41692 -1.95385,-1.47524 -1.95385,-2.65383l0,-67.2757c0,-1.57145 1.34807,-2.83823 3.02037,-2.83823l4.99129,0c13.37835,0 26.5946,3.31127 38.21534,9.58103c10.7078,5.77267 22.88313,8.82738 35.2035,8.82738l39.12827,0c10.95523,0 19.87129,8.4265 19.87129,18.78524c0,2.15674 -0.38395,4.22528 -1.09211,6.15752l69.39168,-29.03976c9.76074,-4.12105 21.29616,0.04009 25.69873,9.25231c4.33431,9.05187 0.36688,19.62709 -9.02698,24.07686l-83.28196,39.50273c-15.11037,7.15972 -32.04662,10.95204 -48.95727,10.95204zm-87.11288,-29.95376l50.87699,18.05564c11.62927,4.12907 23.82166,6.22166 36.23589,6.22166c15.97212,0 31.9613,-3.58387 46.25259,-10.35072l83.28196,-39.50273c6.50147,-3.07876 9.24028,-10.41487 6.23698,-16.68463c-3.03743,-6.35796 -10.98083,-9.2443 -17.7212,-6.39805l-79.5449,33.28107c-3.16541,2.02044 -6.9878,3.20704 -11.09175,3.20704l-57.90746,0c-1.67229,0 -3.02037,-1.26678 -3.02037,-2.83823s1.34807,-2.83823 3.02037,-2.83823l57.90746,0c2.84973,0 5.51175,-0.82581 7.71303,-2.22889c0.09385,-0.07216 0.18771,-0.1363 0.29009,-0.19242c3.5323,-2.38123 5.83597,-6.2858 5.83597,-10.68746c0,-7.23188 -6.20285,-13.10878 -13.83056,-13.10878l-39.12827,0c-13.37835,0 -26.5946,-3.31127 -38.21534,-9.58103c-10.71633,-5.77267 -22.89166,-8.82738 -35.21203,-8.82738l-1.97092,0l0,62.47316l-0.00853,0z"/>
   </g>
   <g stroke="null" id="svg_1117">
    <path stroke="null" id="svg_1118" d="m55.65564,279.3408l-37.47304,0c-6.04927,0 -10.98083,-4.62616 -10.98083,-10.31865l0,-87.31971c0,-5.68448 4.92303,-10.31865 10.98083,-10.31865l37.47304,0c6.04927,0 10.98083,4.62616 10.98083,10.31865l0,87.31971c0,5.68448 -4.92303,10.31865 -10.98083,10.31865zm-37.47304,-102.28055c-2.72174,0 -4.94009,2.08458 -4.94009,4.64219l0,87.31971c0,2.55762 2.21835,4.64219 4.94009,4.64219l37.47304,0c2.72174,0 4.93156,-2.08458 4.93156,-4.64219l0,-87.31971c0,-2.55762 -2.21835,-4.64219 -4.93156,-4.64219l-37.47304,0z"/>
   </g>
   <g stroke="null" id="svg_1119">
    <g stroke="null" id="svg_1120">
     <path stroke="null" id="svg_1121" d="m52.73766,254.75081c0,5.33972 -4.62441,9.62112 -10.23854,9.62112c-5.68239,0 -10.30679,-4.2814 -10.30679,-9.62112c0,-5.33972 4.62441,-9.62112 10.30679,-9.62112c5.61413,0 10.23854,4.2814 10.23854,9.62112z" fill="#F3BD3D"/>
    </g>
    <g stroke="null" id="svg_1122">
     <path stroke="null" id="svg_1123" d="m52.73766,254.75081c0,5.33972 -4.62441,9.62112 -10.23854,9.62112c-5.68239,0 -10.30679,-4.2814 -10.30679,-9.62112c0,-5.33972 4.62441,-9.62112 10.30679,-9.62112c5.61413,0 10.23854,4.2814 10.23854,9.62112z" fill="#F3BD3D"/>
    </g>
   </g>
  </g>
 </g>
</svg>