<svg width="304" height="300" xmlns="http://www.w3.org/2000/svg">

 <g>
  <title>background</title>
  <rect fill="none" id="canvas_background" height="302" width="306" y="-1" x="-1"/>
 </g>
 <g>
  <title>Layer 1</title>
  <path id="svg_627" d="m-140.001,308.157c0.504,-0.084 1.164,-0.155 2.003,-0.155c1.032,0 1.787,0.239 2.268,0.672c0.443,0.383 0.707,0.971 0.707,1.69c0,0.732 -0.216,1.308 -0.624,1.728c-0.551,0.587 -1.451,0.887 -2.47,0.887c-0.313,0 -0.601,-0.012 -0.84,-0.072l0,3.238l-1.044,0l0,-7.988zm1.044,3.897c0.228,0.06 0.516,0.084 0.863,0.084c1.26,0 2.027,-0.611 2.027,-1.727c0,-1.067 -0.756,-1.583 -1.907,-1.583c-0.456,0 -0.804,0.036 -0.983,0.084l0,3.142z" fill="#6D6E71"/>
  <path id="svg_628" d="m-133.844,312.151c0,-0.684 -0.013,-1.271 -0.049,-1.811l0.924,0l0.036,1.14l0.048,0c0.264,-0.779 0.899,-1.27 1.607,-1.27c0.12,0 0.203,0.012 0.3,0.035l0,0.996c-0.108,-0.024 -0.216,-0.037 -0.36,-0.037c-0.743,0 -1.271,0.565 -1.415,1.355c-0.023,0.145 -0.048,0.313 -0.048,0.492l0,3.094l-1.043,0l0,-3.994z" fill="#6D6E71"/>
  <path id="svg_629" d="m43.167,260.96l0,1.016l0.922,0l0,0.49l-0.922,0l0,1.908c0,0.439 0.124,0.688 0.483,0.688c0.168,0 0.292,-0.022 0.373,-0.043l0.029,0.482c-0.124,0.051 -0.321,0.088 -0.57,0.088c-0.299,0 -0.541,-0.095 -0.694,-0.271c-0.183,-0.19 -0.249,-0.504 -0.249,-0.921l0,-1.931l-0.549,0l0,-0.49l0.548,0l0,-0.848l0.629,-0.168z" fill="#6D6E71"/>
  <g id="svg_1085">
   <g id="svg_1086">
    <path id="svg_1087" d="m-21.123,-185.963l-0.591,0c-0.13,0 -0.236,-0.105 -0.236,-0.236c0,-0.13 0.105,-0.236 0.236,-0.236l0.591,0c0.13,0 0.236,0.105 0.236,0.236c0,0.13 -0.105,0.236 -0.236,0.236z" fill="#666666"/>
   </g>
   <g id="svg_1088">
    <path id="svg_1089" d="m0.904,-185.963l-21.32,0c-0.13,0 -0.236,-0.105 -0.236,-0.236c0,-0.13 0.105,-0.236 0.236,-0.236l21.32,0c0.13,0 0.236,0.105 0.236,0.236c0,0.13 -0.105,0.236 -0.236,0.236z" fill="#666666"/>
   </g>
  </g>
  <g id="svg_1323">
   <circle id="svg_1324" r="0.339" cy="282.064" cx="152.962" fill="#41A700"/>
  </g>
  <path id="svg_1346" d="m20.867,-132.727l-0.796,0l0,-0.287l1.938,0l0,0.287l-0.8,0l0,2.33l-0.342,0l0,-2.33z" fill="#6D6E71"/>
  <path id="svg_1347" d="m22.624,-132.805c0.004,0.117 -0.082,0.21 -0.218,0.21c-0.12,0 -0.206,-0.093 -0.206,-0.21c0,-0.12 0.089,-0.213 0.214,-0.213c0.128,0 0.21,0.093 0.21,0.213zm-0.38,2.408l0,-1.88l0.342,0l0,1.88l-0.342,0z" fill="#6D6E71"/>
  <path id="svg_1348" d="m23.153,-131.768c0,-0.194 -0.004,-0.353 -0.016,-0.508l0.299,0l0.015,0.303l0.012,0c0.105,-0.179 0.28,-0.346 0.59,-0.346c0.256,0 0.45,0.155 0.532,0.377l0.008,0c0.058,-0.105 0.132,-0.187 0.21,-0.245c0.113,-0.085 0.237,-0.132 0.416,-0.132c0.249,0 0.618,0.163 0.618,0.816l0,1.107l-0.334,0l0,-1.064c0,-0.361 -0.132,-0.579 -0.408,-0.579c-0.194,0 -0.346,0.144 -0.404,0.311c-0.015,0.047 -0.027,0.109 -0.027,0.171l0,1.161l-0.334,0l0,-1.126c0,-0.299 -0.132,-0.516 -0.392,-0.516c-0.213,0 -0.369,0.171 -0.423,0.342c-0.02,0.05 -0.027,0.108 -0.027,0.167l0,1.134l-0.334,0l0,-1.373l-0.001,0z" fill="#6D6E71"/>
  <path id="svg_1349" d="m26.583,-131.274c0.008,0.462 0.303,0.652 0.645,0.652c0.245,0 0.392,-0.043 0.52,-0.097l0.058,0.245c-0.12,0.054 -0.326,0.117 -0.625,0.117c-0.579,0 -0.924,-0.381 -0.924,-0.948c0,-0.567 0.334,-1.013 0.882,-1.013c0.613,0 0.777,0.54 0.777,0.885c0,0.07 -0.008,0.124 -0.012,0.159l-1.321,0zm1.003,-0.245c0.004,-0.217 -0.089,-0.555 -0.474,-0.555c-0.346,0 -0.497,0.318 -0.524,0.555l0.998,0z" fill="#6D6E71"/>
  <path id="svg_1350" d="m31.381,-131.546c-0.019,-0.365 -0.043,-0.804 -0.039,-1.13l-0.012,0c-0.089,0.307 -0.198,0.633 -0.33,0.994l-0.462,1.27l-0.256,0l-0.423,-1.247c-0.124,-0.369 -0.229,-0.707 -0.303,-1.017l-0.008,0c-0.008,0.326 -0.027,0.765 -0.05,1.157l-0.07,1.123l-0.323,0l0.183,-2.618l0.431,0l0.447,1.266c0.109,0.322 0.198,0.61 0.264,0.882l0.012,0c0.066,-0.264 0.159,-0.551 0.276,-0.882l0.466,-1.266l0.431,0l0.163,2.618l-0.33,0l-0.067,-1.15z" fill="#6D6E71"/>
  <path id="svg_1351" d="m33.352,-130.397l-0.027,-0.237l-0.012,0c-0.105,0.147 -0.307,0.28 -0.575,0.28c-0.38,0 -0.575,-0.268 -0.575,-0.54c0,-0.454 0.404,-0.703 1.13,-0.699l0,-0.039c0,-0.155 -0.043,-0.435 -0.427,-0.435c-0.175,0 -0.357,0.054 -0.49,0.14l-0.077,-0.225c0.155,-0.101 0.38,-0.167 0.617,-0.167c0.575,0 0.715,0.392 0.715,0.769l0,0.703c0,0.163 0.008,0.322 0.031,0.451l-0.31,0l0,-0.001zm-0.051,-0.959c-0.373,-0.008 -0.796,0.058 -0.796,0.423c0,0.221 0.147,0.326 0.322,0.326c0.245,0 0.4,-0.156 0.454,-0.315c0.012,-0.035 0.019,-0.074 0.019,-0.109l0,-0.325l0.001,0z" fill="#6D6E71"/>
  <path id="svg_1352" d="m34.184,-131.768c0,-0.194 -0.004,-0.353 -0.016,-0.508l0.303,0l0.02,0.311l0.008,0c0.093,-0.179 0.311,-0.353 0.621,-0.353c0.26,0 0.664,0.155 0.664,0.8l0,1.123l-0.342,0l0,-1.084c0,-0.303 -0.113,-0.555 -0.435,-0.555c-0.225,0 -0.4,0.159 -0.458,0.349c-0.015,0.043 -0.023,0.101 -0.023,0.159l0,1.13l-0.342,0l0,-1.372z" fill="#6D6E71"/>
  <path id="svg_1353" d="m37.381,-130.397l-0.027,-0.237l-0.012,0c-0.105,0.147 -0.307,0.28 -0.575,0.28c-0.38,0 -0.575,-0.268 -0.575,-0.54c0,-0.454 0.404,-0.703 1.13,-0.699l0,-0.039c0,-0.155 -0.043,-0.435 -0.427,-0.435c-0.175,0 -0.357,0.054 -0.49,0.14l-0.077,-0.225c0.155,-0.101 0.38,-0.167 0.617,-0.167c0.575,0 0.715,0.392 0.715,0.769l0,0.703c0,0.163 0.008,0.322 0.031,0.451l-0.31,0l0,-0.001zm-0.05,-0.959c-0.373,-0.008 -0.796,0.058 -0.796,0.423c0,0.221 0.147,0.326 0.322,0.326c0.245,0 0.4,-0.156 0.454,-0.315c0.012,-0.035 0.019,-0.074 0.019,-0.109l0,-0.325l0.001,0z" fill="#6D6E71"/>
  <path id="svg_1354" d="m39.833,-132.276c-0.008,0.136 -0.015,0.287 -0.015,0.516l0,1.091c0,0.431 -0.085,0.695 -0.268,0.858c-0.182,0.171 -0.447,0.225 -0.683,0.225c-0.225,0 -0.474,-0.054 -0.625,-0.155l0.085,-0.26c0.124,0.077 0.318,0.147 0.551,0.147c0.349,0 0.606,-0.182 0.606,-0.656l0,-0.21l-0.008,0c-0.105,0.175 -0.307,0.315 -0.598,0.315c-0.466,0 -0.8,-0.396 -0.8,-0.916c0,-0.637 0.416,-0.998 0.847,-0.998c0.326,0 0.505,0.171 0.586,0.326l0.008,0l0.015,-0.283l0.299,0zm-0.354,0.741c0,-0.058 -0.004,-0.109 -0.019,-0.155c-0.062,-0.198 -0.229,-0.361 -0.478,-0.361c-0.326,0 -0.559,0.276 -0.559,0.711c0,0.369 0.186,0.676 0.555,0.676c0.21,0 0.4,-0.132 0.474,-0.349c0.02,-0.058 0.027,-0.124 0.027,-0.182l0,-0.34z" fill="#6D6E71"/>
  <path id="svg_1355" d="m40.576,-131.274c0.008,0.462 0.303,0.652 0.645,0.652c0.245,0 0.392,-0.043 0.52,-0.097l0.058,0.245c-0.12,0.054 -0.326,0.117 -0.625,0.117c-0.579,0 -0.924,-0.381 -0.924,-0.948c0,-0.567 0.334,-1.013 0.882,-1.013c0.613,0 0.777,0.54 0.777,0.885c0,0.07 -0.008,0.124 -0.012,0.159l-1.321,0zm1.002,-0.245c0.004,-0.217 -0.089,-0.555 -0.474,-0.555c-0.346,0 -0.497,0.318 -0.524,0.555l0.998,0z" fill="#6D6E71"/>
  <path id="svg_1356" d="m42.332,-131.768c0,-0.194 -0.004,-0.353 -0.016,-0.508l0.299,0l0.015,0.303l0.012,0c0.105,-0.179 0.28,-0.346 0.59,-0.346c0.256,0 0.45,0.155 0.532,0.377l0.008,0c0.058,-0.105 0.132,-0.187 0.21,-0.245c0.113,-0.085 0.237,-0.132 0.416,-0.132c0.249,0 0.618,0.163 0.618,0.816l0,1.107l-0.334,0l0,-1.064c0,-0.361 -0.132,-0.579 -0.408,-0.579c-0.194,0 -0.346,0.144 -0.404,0.311c-0.015,0.047 -0.027,0.109 -0.027,0.171l0,1.161l-0.334,0l0,-1.126c0,-0.299 -0.132,-0.516 -0.392,-0.516c-0.213,0 -0.369,0.171 -0.423,0.342c-0.02,0.05 -0.027,0.108 -0.027,0.167l0,1.134l-0.334,0l0,-1.373l-0.001,0z" fill="#6D6E71"/>
  <path id="svg_1357" d="m45.763,-131.274c0.008,0.462 0.303,0.652 0.645,0.652c0.245,0 0.392,-0.043 0.52,-0.097l0.058,0.245c-0.12,0.054 -0.326,0.117 -0.625,0.117c-0.579,0 -0.924,-0.381 -0.924,-0.948c0,-0.567 0.334,-1.013 0.882,-1.013c0.613,0 0.777,0.54 0.777,0.885c0,0.07 -0.008,0.124 -0.012,0.159l-1.321,0zm1.002,-0.245c0.004,-0.217 -0.089,-0.555 -0.474,-0.555c-0.346,0 -0.497,0.318 -0.524,0.555l0.998,0z" fill="#6D6E71"/>
  <path id="svg_1358" d="m47.52,-131.768c0,-0.194 -0.004,-0.353 -0.016,-0.508l0.303,0l0.02,0.311l0.008,0c0.093,-0.179 0.311,-0.353 0.621,-0.353c0.26,0 0.664,0.155 0.664,0.8l0,1.123l-0.342,0l0,-1.084c0,-0.303 -0.113,-0.555 -0.435,-0.555c-0.225,0 -0.4,0.159 -0.458,0.349c-0.015,0.043 -0.023,0.101 -0.023,0.159l0,1.13l-0.342,0l0,-1.372z" fill="#6D6E71"/>
  <path id="svg_1359" d="m50.072,-132.816l0,0.54l0.49,0l0,0.26l-0.49,0l0,1.014c0,0.233 0.066,0.365 0.256,0.365c0.089,0 0.155,-0.012 0.198,-0.023l0.015,0.256c-0.066,0.027 -0.171,0.047 -0.303,0.047c-0.159,0 -0.287,-0.051 -0.369,-0.144c-0.097,-0.101 -0.132,-0.268 -0.132,-0.489l0,-1.025l-0.291,0l0,-0.26l0.291,0l0,-0.451l0.335,-0.09z" fill="#6D6E71"/>
  <g stroke="null" id="svg_1610">
   <path stroke="null" id="svg_36" d="m249.32328,141.45078c-0.52296,-22.95282 -11.16478,-44.3925 -30.15736,-60.4687c-19.30802,-16.70135 -45.08247,-25.8086 -72.53373,-25.8086c-8.14323,0 -15.97103,0.80274 -23.69092,2.32299l0,44.53457l-19.58195,0l0,-25.65231c0,-4.78805 -4.52402,-8.6597 -10.11886,-8.6597l-22.74461,0c-3.88485,-7.37389 -12.52614,-12.54555 -22.57029,-12.54555c-13.65507,0 -24.78665,9.52638 -24.78665,21.21235c0,11.68597 11.12328,21.21235 24.78665,21.21235c10.05245,0 18.69375,-5.17877 22.57029,-12.55976l12.61745,0l0,25.65231c0,4.78805 4.52402,8.6597 10.11886,8.6597l29.69251,0l0,27.0802l-42.31826,0c-3.88485,-7.38099 -12.52614,-12.55265 -22.57029,-12.55265c-13.65507,0 -24.78665,9.52638 -24.78665,21.21235c0,11.68597 11.13158,21.21235 24.78665,21.21235c10.04415,0 18.68544,-5.17167 22.57029,-12.55265l42.31826,0l0,27.08731l-29.69251,0c-5.59484,0 -10.11886,3.87165 -10.11886,8.6597l0,25.65231l-12.59255,0c-3.88485,-7.38809 -12.52614,-12.56686 -22.57859,-12.56686c-13.65507,0 -24.78665,9.52638 -24.78665,21.21235s11.12328,21.21235 24.78665,21.21235c10.03585,0 18.66884,-5.16456 22.56199,-12.53845l22.75291,0c5.59484,0 10.11886,-3.87165 10.11886,-8.6597l0,-25.65231l19.58195,0l0,51.76638c0,3.26071 3.08795,5.90337 6.89809,5.90337l64.79724,0c3.81014,0 6.89809,-2.64266 6.89809,-5.90337l0,-29.68024l27.45125,0c11.18968,0 20.35394,-7.83564 20.35394,-17.41885l0,-27.24359l5.11339,0c5.11339,0 9.81173,-2.14539 12.62575,-5.71867c2.92194,-3.57328 3.55281,-8.1269 1.7764,-12.14773l-19.54874,-26.26325z" fill="#FFB300"/>
   <circle stroke="null" id="svg_212" r="7.55893" cy="123.88274" cx="181.40489" fill="#FFFFFF" clip-rule="evenodd" fill-rule="evenodd"/>
   <path stroke="null" id="svg_213" d="m198.47165,125.609c-1.10403,0 -1.99223,-0.76012 -1.99223,-1.70494c0,-7.11104 -6.76528,-12.90075 -15.07453,-12.90075c-1.10403,0 -1.99223,-0.76012 -1.99223,-1.70494c0,-0.94482 0.8882,-1.70494 1.99223,-1.70494c10.50901,0 19.06729,7.31705 19.06729,16.31774c-0.0083,0.93772 -0.8965,1.69784 -2.00053,1.69784z" fill="#FFFFFF" clip-rule="evenodd" fill-rule="evenodd"/>
   <path stroke="null" id="svg_214" d="m181.40489,140.19338c-10.50071,0 -19.03408,-7.30995 -19.03408,-16.28932c0,-0.94482 0.8882,-1.70494 1.99223,-1.70494c1.10403,0 1.99223,0.76723 1.99223,1.70494c0,7.08973 6.74037,12.86523 15.03303,12.86523c1.10403,0 1.99223,0.76012 1.99223,1.70494c0.0166,0.94482 -0.8799,1.71915 -1.97563,1.71915z" fill="#FFFFFF" clip-rule="evenodd" fill-rule="evenodd"/>
   <path stroke="null" id="svg_215" d="m185.33124,160.48932l-7.8195,0c-0.92971,0 -1.7432,-0.55411 -1.95072,-1.34264l-2.33257,-8.94386c-2.72271,-0.62515 -5.31261,-1.53445 -7.75309,-2.75633l-9.06464,4.90882c-0.78859,0.43334 -1.81791,0.33388 -2.48198,-0.23443l-5.52843,-4.73122c-0.65578,-0.56121 -0.78029,-1.4492 -0.27393,-2.12408l5.73596,-7.7575c-1.41946,-2.09566 -2.50689,-4.31209 -3.21247,-6.63508l-10.4592,-1.99621c-0.9131,-0.17049 -1.56888,-0.87378 -1.56888,-1.66942l0,-6.69191c0,-0.79564 0.64747,-1.49183 1.56888,-1.66942l10.4592,-1.99621c0.71388,-2.30878 1.79301,-4.53941 3.21247,-6.63508l-5.73596,-7.7575c-0.49806,-0.67487 -0.39014,-1.55576 0.27393,-2.12408l5.52843,-4.72412c0.66408,-0.56831 1.69339,-0.66777 2.49029,-0.23443l9.07294,4.93013c2.41558,-1.20057 5.01378,-2.13118 7.75309,-2.75633l2.33257,-8.95096c0.19922,-0.78143 1.02102,-1.33554 1.95072,-1.33554l7.8195,0c0.92971,0 1.7432,0.55411 1.95902,1.33554l2.33257,8.95096c2.73931,0.63225 5.33751,1.55576 7.75309,2.75633l9.06464,-4.93013c0.78859,-0.42624 1.82621,-0.33388 2.49029,0.23443l5.52843,4.72412c0.66408,0.56831 0.78029,1.4492 0.27393,2.12408l-5.73596,7.7575c1.41946,2.09566 2.49029,4.31209 3.21247,6.63508l10.4509,1.99621c0.9131,0.17049 1.56888,0.87378 1.56888,1.66942l0,6.69191c0,0.79564 -0.64747,1.49183 -1.56888,1.66942l-10.4509,1.99621c-0.72218,2.33009 -1.79301,4.54652 -3.21247,6.63508l5.73596,7.7575c0.49806,0.67487 0.39014,1.55576 -0.27393,2.12408l-5.52843,4.73122c-0.66408,0.56121 -1.69339,0.66777 -2.48198,0.23443l-9.06464,-4.90882c-2.44878,1.21477 -5.03868,2.13118 -7.75309,2.75633l-2.33257,8.94386c-0.24903,0.78854 -1.05422,1.34264 -1.98393,1.34264l0,0zm-6.21741,-3.40989l4.60703,0l2.25786,-8.63839c0.16602,-0.64646 0.75539,-1.15084 1.51077,-1.29292c3.11286,-0.58963 6.0763,-1.64811 8.82391,-3.12573c0.64747,-0.34809 1.48587,-0.34809 2.13334,0l8.76581,4.75253l3.26227,-2.79185l-5.55334,-7.49465c-0.40675,-0.55411 -0.40675,-1.27871 0,-1.83282c1.7266,-2.31588 2.95514,-4.85199 3.65242,-7.54438c0.16602,-0.64646 0.75539,-1.15084 1.51077,-1.29292l10.09396,-1.93227l0,-3.94268l-10.09396,-1.93227c-0.75539,-0.14208 -1.34475,-0.64646 -1.51077,-1.29292c-0.68898,-2.66398 -1.92582,-5.20008 -3.65242,-7.55148c-0.40675,-0.55411 -0.40675,-1.2645 0,-1.83282l5.55334,-7.50176l-3.26227,-2.79185l-8.76581,4.75253c-0.64747,0.3552 -1.49417,0.3552 -2.14165,0c-2.68951,-1.46341 -5.65295,-2.5219 -8.82391,-3.13994c-0.75539,-0.14208 -1.34475,-0.64646 -1.51077,-1.29292l-2.25786,-8.63839l-4.61533,0l-2.25786,8.63839c-0.16602,0.64646 -0.75539,1.15084 -1.51077,1.29292c-3.17096,0.61804 -6.1344,1.66942 -8.82391,3.13994c-0.64747,0.3552 -1.49417,0.3552 -2.14165,0l-8.75751,-4.75253l-3.26227,2.79185l5.55334,7.50176c0.40675,0.55411 0.40675,1.2716 0,1.83282c-1.7349,2.3443 -2.96344,4.8804 -3.65242,7.55148c-0.16602,0.64646 -0.75539,1.15084 -1.51077,1.29292l-10.09396,1.93227l0,3.94268l10.09396,1.93227c0.75539,0.14208 1.34475,0.64646 1.51077,1.29292c0.68898,2.66398 1.92582,5.20718 3.65242,7.55148c0.40675,0.55411 0.40675,1.2716 0,1.83282l-5.55334,7.49465l3.26227,2.79185l8.75751,-4.74543c0.64747,-0.34809 1.49417,-0.34809 2.14165,0c2.70611,1.47762 5.68615,2.5219 8.81561,3.12573c0.75539,0.14208 1.34475,0.64646 1.51077,1.29292l2.28276,8.62418l0,0zm-4.20028,-58.1102l0,0l0,0z" fill="#FFFFFF" clip-rule="evenodd" fill-rule="evenodd"/>
  </g>
 </g>
</svg>