<svg width="304" height="300" xmlns="http://www.w3.org/2000/svg">

 <g>
  <title>background</title>
  <rect fill="none" id="canvas_background" height="302" width="306" y="-1" x="-1"/>
 </g>
 <g>
  <title>Layer 1</title>
  <path id="svg_627" d="m-140.001,308.157c0.504,-0.084 1.164,-0.155 2.003,-0.155c1.032,0 1.787,0.239 2.268,0.672c0.443,0.383 0.707,0.971 0.707,1.69c0,0.732 -0.216,1.308 -0.624,1.728c-0.551,0.587 -1.451,0.887 -2.47,0.887c-0.313,0 -0.601,-0.012 -0.84,-0.072l0,3.238l-1.044,0l0,-7.988zm1.044,3.897c0.228,0.06 0.516,0.084 0.863,0.084c1.26,0 2.027,-0.611 2.027,-1.727c0,-1.067 -0.756,-1.583 -1.907,-1.583c-0.456,0 -0.804,0.036 -0.983,0.084l0,3.142z" fill="#6D6E71"/>
  <path id="svg_628" d="m-133.844,312.151c0,-0.684 -0.013,-1.271 -0.049,-1.811l0.924,0l0.036,1.14l0.048,0c0.264,-0.779 0.899,-1.27 1.607,-1.27c0.12,0 0.203,0.012 0.3,0.035l0,0.996c-0.108,-0.024 -0.216,-0.037 -0.36,-0.037c-0.743,0 -1.271,0.565 -1.415,1.355c-0.023,0.145 -0.048,0.313 -0.048,0.492l0,3.094l-1.043,0l0,-3.994z" fill="#6D6E71"/>
  <path id="svg_629" d="m43.167,260.96l0,1.016l0.922,0l0,0.49l-0.922,0l0,1.908c0,0.439 0.124,0.688 0.483,0.688c0.168,0 0.292,-0.022 0.373,-0.043l0.029,0.482c-0.124,0.051 -0.321,0.088 -0.57,0.088c-0.299,0 -0.541,-0.095 -0.694,-0.271c-0.183,-0.19 -0.249,-0.504 -0.249,-0.921l0,-1.931l-0.549,0l0,-0.49l0.548,0l0,-0.848l0.629,-0.168z" fill="#6D6E71"/>
  <g id="svg_1085">
   <g id="svg_1086">
    <path id="svg_1087" d="m-21.123,-185.963l-0.591,0c-0.13,0 -0.236,-0.105 -0.236,-0.236c0,-0.13 0.105,-0.236 0.236,-0.236l0.591,0c0.13,0 0.236,0.105 0.236,0.236c0,0.13 -0.105,0.236 -0.236,0.236z" fill="#666666"/>
   </g>
   <g id="svg_1088">
    <path id="svg_1089" d="m0.904,-185.963l-21.32,0c-0.13,0 -0.236,-0.105 -0.236,-0.236c0,-0.13 0.105,-0.236 0.236,-0.236l21.32,0c0.13,0 0.236,0.105 0.236,0.236c0,0.13 -0.105,0.236 -0.236,0.236z" fill="#666666"/>
   </g>
  </g>
  <g id="svg_1233">
   <g id="svg_1234">
    <path id="svg_1235" d="m262.884,287.809l-9.552,0c-0.06,0 -0.108,-0.048 -0.108,-0.108s0.048,-0.108 0.108,-0.108l9.552,0c0.06,0 0.108,0.048 0.108,0.108s-0.048,0.108 -0.108,0.108z" fill="#666666"/>
   </g>
   <g id="svg_1236">
    <path id="svg_1237" d="m263.694,287.809l-0.394,0c-0.06,0 -0.108,-0.048 -0.108,-0.108s0.048,-0.108 0.108,-0.108l0.395,0c0.06,0 0.108,0.048 0.108,0.108s-0.049,0.108 -0.109,0.108z" fill="#666666"/>
   </g>
  </g>
  <g id="svg_1323">
   <circle id="svg_1324" r="0.339" cy="282.064" cx="152.962" fill="#41A700"/>
  </g>
  <path id="svg_1346" d="m20.867,-132.727l-0.796,0l0,-0.287l1.938,0l0,0.287l-0.8,0l0,2.33l-0.342,0l0,-2.33z" fill="#6D6E71"/>
  <path id="svg_1347" d="m22.624,-132.805c0.004,0.117 -0.082,0.21 -0.218,0.21c-0.12,0 -0.206,-0.093 -0.206,-0.21c0,-0.12 0.089,-0.213 0.214,-0.213c0.128,0 0.21,0.093 0.21,0.213zm-0.38,2.408l0,-1.88l0.342,0l0,1.88l-0.342,0z" fill="#6D6E71"/>
  <path id="svg_1348" d="m23.153,-131.768c0,-0.194 -0.004,-0.353 -0.016,-0.508l0.299,0l0.015,0.303l0.012,0c0.105,-0.179 0.28,-0.346 0.59,-0.346c0.256,0 0.45,0.155 0.532,0.377l0.008,0c0.058,-0.105 0.132,-0.187 0.21,-0.245c0.113,-0.085 0.237,-0.132 0.416,-0.132c0.249,0 0.618,0.163 0.618,0.816l0,1.107l-0.334,0l0,-1.064c0,-0.361 -0.132,-0.579 -0.408,-0.579c-0.194,0 -0.346,0.144 -0.404,0.311c-0.015,0.047 -0.027,0.109 -0.027,0.171l0,1.161l-0.334,0l0,-1.126c0,-0.299 -0.132,-0.516 -0.392,-0.516c-0.213,0 -0.369,0.171 -0.423,0.342c-0.02,0.05 -0.027,0.108 -0.027,0.167l0,1.134l-0.334,0l0,-1.373l-0.001,0z" fill="#6D6E71"/>
  <path id="svg_1349" d="m26.583,-131.274c0.008,0.462 0.303,0.652 0.645,0.652c0.245,0 0.392,-0.043 0.52,-0.097l0.058,0.245c-0.12,0.054 -0.326,0.117 -0.625,0.117c-0.579,0 -0.924,-0.381 -0.924,-0.948c0,-0.567 0.334,-1.013 0.882,-1.013c0.613,0 0.777,0.54 0.777,0.885c0,0.07 -0.008,0.124 -0.012,0.159l-1.321,0zm1.003,-0.245c0.004,-0.217 -0.089,-0.555 -0.474,-0.555c-0.346,0 -0.497,0.318 -0.524,0.555l0.998,0z" fill="#6D6E71"/>
  <path id="svg_1350" d="m31.381,-131.546c-0.019,-0.365 -0.043,-0.804 -0.039,-1.13l-0.012,0c-0.089,0.307 -0.198,0.633 -0.33,0.994l-0.462,1.27l-0.256,0l-0.423,-1.247c-0.124,-0.369 -0.229,-0.707 -0.303,-1.017l-0.008,0c-0.008,0.326 -0.027,0.765 -0.05,1.157l-0.07,1.123l-0.323,0l0.183,-2.618l0.431,0l0.447,1.266c0.109,0.322 0.198,0.61 0.264,0.882l0.012,0c0.066,-0.264 0.159,-0.551 0.276,-0.882l0.466,-1.266l0.431,0l0.163,2.618l-0.33,0l-0.067,-1.15z" fill="#6D6E71"/>
  <path id="svg_1351" d="m33.352,-130.397l-0.027,-0.237l-0.012,0c-0.105,0.147 -0.307,0.28 -0.575,0.28c-0.38,0 -0.575,-0.268 -0.575,-0.54c0,-0.454 0.404,-0.703 1.13,-0.699l0,-0.039c0,-0.155 -0.043,-0.435 -0.427,-0.435c-0.175,0 -0.357,0.054 -0.49,0.14l-0.077,-0.225c0.155,-0.101 0.38,-0.167 0.617,-0.167c0.575,0 0.715,0.392 0.715,0.769l0,0.703c0,0.163 0.008,0.322 0.031,0.451l-0.31,0l0,-0.001zm-0.051,-0.959c-0.373,-0.008 -0.796,0.058 -0.796,0.423c0,0.221 0.147,0.326 0.322,0.326c0.245,0 0.4,-0.156 0.454,-0.315c0.012,-0.035 0.019,-0.074 0.019,-0.109l0,-0.325l0.001,0z" fill="#6D6E71"/>
  <path id="svg_1352" d="m34.184,-131.768c0,-0.194 -0.004,-0.353 -0.016,-0.508l0.303,0l0.02,0.311l0.008,0c0.093,-0.179 0.311,-0.353 0.621,-0.353c0.26,0 0.664,0.155 0.664,0.8l0,1.123l-0.342,0l0,-1.084c0,-0.303 -0.113,-0.555 -0.435,-0.555c-0.225,0 -0.4,0.159 -0.458,0.349c-0.015,0.043 -0.023,0.101 -0.023,0.159l0,1.13l-0.342,0l0,-1.372z" fill="#6D6E71"/>
  <path id="svg_1353" d="m37.381,-130.397l-0.027,-0.237l-0.012,0c-0.105,0.147 -0.307,0.28 -0.575,0.28c-0.38,0 -0.575,-0.268 -0.575,-0.54c0,-0.454 0.404,-0.703 1.13,-0.699l0,-0.039c0,-0.155 -0.043,-0.435 -0.427,-0.435c-0.175,0 -0.357,0.054 -0.49,0.14l-0.077,-0.225c0.155,-0.101 0.38,-0.167 0.617,-0.167c0.575,0 0.715,0.392 0.715,0.769l0,0.703c0,0.163 0.008,0.322 0.031,0.451l-0.31,0l0,-0.001zm-0.05,-0.959c-0.373,-0.008 -0.796,0.058 -0.796,0.423c0,0.221 0.147,0.326 0.322,0.326c0.245,0 0.4,-0.156 0.454,-0.315c0.012,-0.035 0.019,-0.074 0.019,-0.109l0,-0.325l0.001,0z" fill="#6D6E71"/>
  <path id="svg_1354" d="m39.833,-132.276c-0.008,0.136 -0.015,0.287 -0.015,0.516l0,1.091c0,0.431 -0.085,0.695 -0.268,0.858c-0.182,0.171 -0.447,0.225 -0.683,0.225c-0.225,0 -0.474,-0.054 -0.625,-0.155l0.085,-0.26c0.124,0.077 0.318,0.147 0.551,0.147c0.349,0 0.606,-0.182 0.606,-0.656l0,-0.21l-0.008,0c-0.105,0.175 -0.307,0.315 -0.598,0.315c-0.466,0 -0.8,-0.396 -0.8,-0.916c0,-0.637 0.416,-0.998 0.847,-0.998c0.326,0 0.505,0.171 0.586,0.326l0.008,0l0.015,-0.283l0.299,0zm-0.354,0.741c0,-0.058 -0.004,-0.109 -0.019,-0.155c-0.062,-0.198 -0.229,-0.361 -0.478,-0.361c-0.326,0 -0.559,0.276 -0.559,0.711c0,0.369 0.186,0.676 0.555,0.676c0.21,0 0.4,-0.132 0.474,-0.349c0.02,-0.058 0.027,-0.124 0.027,-0.182l0,-0.34z" fill="#6D6E71"/>
  <path id="svg_1355" d="m40.576,-131.274c0.008,0.462 0.303,0.652 0.645,0.652c0.245,0 0.392,-0.043 0.52,-0.097l0.058,0.245c-0.12,0.054 -0.326,0.117 -0.625,0.117c-0.579,0 -0.924,-0.381 -0.924,-0.948c0,-0.567 0.334,-1.013 0.882,-1.013c0.613,0 0.777,0.54 0.777,0.885c0,0.07 -0.008,0.124 -0.012,0.159l-1.321,0zm1.002,-0.245c0.004,-0.217 -0.089,-0.555 -0.474,-0.555c-0.346,0 -0.497,0.318 -0.524,0.555l0.998,0z" fill="#6D6E71"/>
  <path id="svg_1356" d="m42.332,-131.768c0,-0.194 -0.004,-0.353 -0.016,-0.508l0.299,0l0.015,0.303l0.012,0c0.105,-0.179 0.28,-0.346 0.59,-0.346c0.256,0 0.45,0.155 0.532,0.377l0.008,0c0.058,-0.105 0.132,-0.187 0.21,-0.245c0.113,-0.085 0.237,-0.132 0.416,-0.132c0.249,0 0.618,0.163 0.618,0.816l0,1.107l-0.334,0l0,-1.064c0,-0.361 -0.132,-0.579 -0.408,-0.579c-0.194,0 -0.346,0.144 -0.404,0.311c-0.015,0.047 -0.027,0.109 -0.027,0.171l0,1.161l-0.334,0l0,-1.126c0,-0.299 -0.132,-0.516 -0.392,-0.516c-0.213,0 -0.369,0.171 -0.423,0.342c-0.02,0.05 -0.027,0.108 -0.027,0.167l0,1.134l-0.334,0l0,-1.373l-0.001,0z" fill="#6D6E71"/>
  <path id="svg_1357" d="m45.763,-131.274c0.008,0.462 0.303,0.652 0.645,0.652c0.245,0 0.392,-0.043 0.52,-0.097l0.058,0.245c-0.12,0.054 -0.326,0.117 -0.625,0.117c-0.579,0 -0.924,-0.381 -0.924,-0.948c0,-0.567 0.334,-1.013 0.882,-1.013c0.613,0 0.777,0.54 0.777,0.885c0,0.07 -0.008,0.124 -0.012,0.159l-1.321,0zm1.002,-0.245c0.004,-0.217 -0.089,-0.555 -0.474,-0.555c-0.346,0 -0.497,0.318 -0.524,0.555l0.998,0z" fill="#6D6E71"/>
  <path id="svg_1358" d="m47.52,-131.768c0,-0.194 -0.004,-0.353 -0.016,-0.508l0.303,0l0.02,0.311l0.008,0c0.093,-0.179 0.311,-0.353 0.621,-0.353c0.26,0 0.664,0.155 0.664,0.8l0,1.123l-0.342,0l0,-1.084c0,-0.303 -0.113,-0.555 -0.435,-0.555c-0.225,0 -0.4,0.159 -0.458,0.349c-0.015,0.043 -0.023,0.101 -0.023,0.159l0,1.13l-0.342,0l0,-1.372z" fill="#6D6E71"/>
  <path id="svg_1359" d="m50.072,-132.816l0,0.54l0.49,0l0,0.26l-0.49,0l0,1.014c0,0.233 0.066,0.365 0.256,0.365c0.089,0 0.155,-0.012 0.198,-0.023l0.015,0.256c-0.066,0.027 -0.171,0.047 -0.303,0.047c-0.159,0 -0.287,-0.051 -0.369,-0.144c-0.097,-0.101 -0.132,-0.268 -0.132,-0.489l0,-1.025l-0.291,0l0,-0.26l0.291,0l0,-0.451l0.335,-0.09z" fill="#6D6E71"/>
  <g stroke="null" id="svg_1475">
   <path stroke="null" id="svg_1476" d="m268.48452,165.4859l17.33689,0c6.49861,0 11.74329,4.78474 11.74329,10.6813l0,33.28475l0,33.28475c0,5.90648 -5.24468,10.6813 -11.74329,10.6813l-17.33689,0c-6.48771,0 -11.7542,-4.77482 -11.7542,-10.6813l0,-33.28475l0,-33.28475c0.0109,-5.90648 5.27739,-10.6813 11.7542,-10.6813z" fill="#4B484B"/>
   <path stroke="null" id="svg_1477" d="m18.03728,165.4859l17.33689,0c6.49861,0 11.74329,4.78474 11.74329,10.6813l0,33.28475l0,33.28475c0,5.90648 -5.24468,10.6813 -11.74329,10.6813l-17.33689,0c-6.48771,0 -11.7542,-4.77482 -11.7542,-10.6813l0,-33.28475l0,-33.28475c0,-5.90648 5.27739,-10.6813 11.7542,-10.6813z" fill="#4B484B"/>
   <path stroke="null" id="svg_1478" d="m285.61424,90.64733c-14.20753,-3.23616 -12.0704,9.69854 -12.0704,9.69854l-3.48919,0.13898c-6.95656,-11.84274 -17.74033,-30.23721 -22.42892,-38.2184c-2.0499,-3.50418 -6.33505,-6.0256 -11.25263,-7.73302c-5.2992,-4.47701 -38.94804,-7.95141 -84.34017,-7.95141c-40.0166,0 -70.06722,2.70011 -81.15629,6.40282c-6.04065,1.55852 -11.53612,4.51672 -14.33837,9.28161l-22.49435,38.2184l-3.58732,-0.1489c0,0 2.12622,-12.93469 -12.08131,-9.69854c-14.20753,3.23616 -20.5862,10.98903 -18.45998,16.80617c1.73369,4.72518 20.8806,3.91118 28.01162,3.43469l-0.22898,0.37722c0,0 -22.86507,9.58934 -22.86507,37.77169l0,57.07943l294.41098,0l0,-57.07943c0,-27.70586 -22.87598,-37.77169 -22.87598,-37.77169s-0.06542,-0.12905 -0.20717,-0.36729c7.16374,0.47649 26.20161,1.28056 27.92439,-3.44462c2.12622,-5.80721 -4.26335,-13.56009 -18.47088,-16.79624z"/>
   <path stroke="null" id="svg_1479" d="m36.3337,105.59717l21.57844,-40.37253c3.44557,-5.57889 12.86637,-10.46291 20.16095,-10.46291l147.93059,0c7.29458,0 16.71538,4.89394 20.16095,10.46291l21.56753,40.37253c1.67917,3.12696 -0.18536,5.65831 -4.15431,5.65831l-223.07893,0c-3.96895,0.00993 -5.83348,-2.52142 -4.16522,-5.65831z" fill="#303031"/>
   <path stroke="null" id="svg_1480" d="m40.49892,108.13845c-0.78507,0 -1.12308,-0.17868 -1.1776,-0.21839c-0.02181,-0.04963 -0.05452,-0.38715 0.27259,-1.01254l21.56753,-40.37253c2.70412,-4.36782 10.96913,-8.64629 16.88984,-8.64629l147.93059,0c5.93162,0 14.18572,4.27848 16.98797,8.81505l21.4803,40.20377c0.33801,0.62539 0.3053,0.96291 0.26169,1.02247c-0.04361,0.02978 -0.37073,0.20846 -1.14489,0.20846l-223.06803,0z" fill="#989898"/>
   <path stroke="null" id="svg_1481" d="m240.44019,191.71266l-9.13731,6.65099l-160.08822,0l-9.13731,-6.65099l-57.25536,0c0,4.15935 0.25079,16.01202 0.25079,16.01202c0,5.17189 10.94732,9.36103 24.44611,9.36103l245.25707,0c13.49879,0 24.45701,-4.18913 24.45701,-9.36103c0,-5.16197 -0.08723,-12.00157 -0.08723,-16.01202l-58.70556,0z"/>
   <g stroke="null" id="svg_1482">
    <path stroke="null" id="svg_1483" d="m216.34299,200.66668l-128.62012,0c-6.12788,0 -6.41138,-3.87147 -7.9379,-8.65622c-1.51562,-4.77482 2.22436,-8.64629 8.35224,-8.64629l127.80235,0c6.11698,0 9.85695,3.87147 8.34134,8.64629c-1.52652,4.78474 -1.83182,8.65622 -7.9379,8.65622z" fill="#262529"/>
   </g>
   <g stroke="null" id="svg_1484">
    <path stroke="null" id="svg_1485" d="m260.23041,168.98015c-2.84587,-2.75967 -8.48308,-3.29572 -17.38051,-4.12957c-2.75864,-0.2581 -5.76806,-0.54598 -8.88652,-0.9232c-6.28054,-0.76437 -11.88504,-5.35058 -15.40694,-8.96395c15.71224,-3.51411 58.04043,-12.90491 67.51575,-14.08621c0.45796,-0.05956 0.8941,-0.07941 1.29754,-0.07941c1.29754,0 2.11532,0.28788 2.43153,0.86364c1.00314,1.81661 0.09813,7.55434 -3.5219,14.63219c-2.86767,5.58882 -19.64848,12.70638 -25.8854,12.70638c-0.0109,-0.01985 -0.11994,-0.01985 -0.16356,-0.01985z" fill="#FFB300"/>
   </g>
   <g stroke="null" id="svg_1486">
    <path stroke="null" id="svg_1487" d="m43.82455,168.98015c2.84587,-2.75967 8.48308,-3.29572 17.38051,-4.12957c2.75864,-0.2581 5.75716,-0.54598 8.88652,-0.9232c6.29144,-0.76437 11.88504,-5.35058 15.40694,-8.96395c-15.71224,-3.51411 -58.02953,-12.90491 -67.50485,-14.08621c-0.46886,-0.05956 -0.90501,-0.07941 -1.29754,-0.07941c-1.29754,0 -2.11532,0.28788 -2.43153,0.86364c-1.00314,1.81661 -0.09813,7.55434 3.5219,14.63219c2.86767,5.58882 19.65938,12.70638 25.8854,12.70638c0.0109,-0.01985 0.10904,-0.01985 0.15265,-0.01985z" fill="#FFB300"/>
   </g>
   <g stroke="null" id="svg_1488">
    <path stroke="null" id="svg_1489" d="m122.83281,166.01202c-7.67621,0 -14.94898,-5.0627 -15.8758,-11.05852c-0.39253,-2.50157 0.33801,-4.79467 2.11532,-6.65099c2.13713,-2.2534 5.61541,-3.54389 9.50803,-3.54389l66.90514,0c3.89262,0 7.37091,1.29049 9.50803,3.54389c1.7664,1.85632 2.49695,4.14943 2.10442,6.64107c-0.92682,5.99582 -8.19959,11.05852 -15.86489,11.05852l-58.40025,0l0,0.00993z" fill="#B0AEAB"/>
   </g>
   <path stroke="null" id="svg_1490" d="m299.23297,183.12592l-7.6544,0c-1.96267,0 -3.55461,1.44932 -3.55461,3.23616c0,1.77691 1.59194,3.22623 3.55461,3.22623l7.6544,0l0,-6.46238z"/>
   <path stroke="null" id="svg_1491" d="m4.82199,183.12592l7.6544,0c1.96267,0 3.55461,1.44932 3.55461,3.23616c0,1.77691 -1.59194,3.22623 -3.55461,3.22623l-7.6544,0l0,-6.46238z"/>
  </g>
 </g>
</svg>