<svg width="304" height="300" xmlns="http://www.w3.org/2000/svg">

 <g>
  <title>background</title>
  <rect fill="none" id="canvas_background" height="302" width="306" y="-1" x="-1"/>
 </g>
 <g>
  <title>Layer 1</title>
  <path id="svg_627" d="m-140.001,308.157c0.504,-0.084 1.164,-0.155 2.003,-0.155c1.032,0 1.787,0.239 2.268,0.672c0.443,0.383 0.707,0.971 0.707,1.69c0,0.732 -0.216,1.308 -0.624,1.728c-0.551,0.587 -1.451,0.887 -2.47,0.887c-0.313,0 -0.601,-0.012 -0.84,-0.072l0,3.238l-1.044,0l0,-7.988zm1.044,3.897c0.228,0.06 0.516,0.084 0.863,0.084c1.26,0 2.027,-0.611 2.027,-1.727c0,-1.067 -0.756,-1.583 -1.907,-1.583c-0.456,0 -0.804,0.036 -0.983,0.084l0,3.142z" fill="#6D6E71"/>
  <path id="svg_628" d="m-133.844,312.151c0,-0.684 -0.013,-1.271 -0.049,-1.811l0.924,0l0.036,1.14l0.048,0c0.264,-0.779 0.899,-1.27 1.607,-1.27c0.12,0 0.203,0.012 0.3,0.035l0,0.996c-0.108,-0.024 -0.216,-0.037 -0.36,-0.037c-0.743,0 -1.271,0.565 -1.415,1.355c-0.023,0.145 -0.048,0.313 -0.048,0.492l0,3.094l-1.043,0l0,-3.994z" fill="#6D6E71"/>
  <g id="svg_1085">
   <g id="svg_1086">
    <path id="svg_1087" d="m-21.123,-185.963l-0.591,0c-0.13,0 -0.236,-0.105 -0.236,-0.236c0,-0.13 0.105,-0.236 0.236,-0.236l0.591,0c0.13,0 0.236,0.105 0.236,0.236c0,0.13 -0.105,0.236 -0.236,0.236z" fill="#666666"/>
   </g>
   <g id="svg_1088">
    <path id="svg_1089" d="m0.904,-185.963l-21.32,0c-0.13,0 -0.236,-0.105 -0.236,-0.236c0,-0.13 0.105,-0.236 0.236,-0.236l21.32,0c0.13,0 0.236,0.105 0.236,0.236c0,0.13 -0.105,0.236 -0.236,0.236z" fill="#666666"/>
   </g>
  </g>
  <path id="svg_1346" d="m20.867,-132.727l-0.796,0l0,-0.287l1.938,0l0,0.287l-0.8,0l0,2.33l-0.342,0l0,-2.33z" fill="#6D6E71"/>
  <path id="svg_1347" d="m22.624,-132.805c0.004,0.117 -0.082,0.21 -0.218,0.21c-0.12,0 -0.206,-0.093 -0.206,-0.21c0,-0.12 0.089,-0.213 0.214,-0.213c0.128,0 0.21,0.093 0.21,0.213zm-0.38,2.408l0,-1.88l0.342,0l0,1.88l-0.342,0z" fill="#6D6E71"/>
  <path id="svg_1348" d="m23.153,-131.768c0,-0.194 -0.004,-0.353 -0.016,-0.508l0.299,0l0.015,0.303l0.012,0c0.105,-0.179 0.28,-0.346 0.59,-0.346c0.256,0 0.45,0.155 0.532,0.377l0.008,0c0.058,-0.105 0.132,-0.187 0.21,-0.245c0.113,-0.085 0.237,-0.132 0.416,-0.132c0.249,0 0.618,0.163 0.618,0.816l0,1.107l-0.334,0l0,-1.064c0,-0.361 -0.132,-0.579 -0.408,-0.579c-0.194,0 -0.346,0.144 -0.404,0.311c-0.015,0.047 -0.027,0.109 -0.027,0.171l0,1.161l-0.334,0l0,-1.126c0,-0.299 -0.132,-0.516 -0.392,-0.516c-0.213,0 -0.369,0.171 -0.423,0.342c-0.02,0.05 -0.027,0.108 -0.027,0.167l0,1.134l-0.334,0l0,-1.373l-0.001,0z" fill="#6D6E71"/>
  <path id="svg_1349" d="m26.583,-131.274c0.008,0.462 0.303,0.652 0.645,0.652c0.245,0 0.392,-0.043 0.52,-0.097l0.058,0.245c-0.12,0.054 -0.326,0.117 -0.625,0.117c-0.579,0 -0.924,-0.381 -0.924,-0.948c0,-0.567 0.334,-1.013 0.882,-1.013c0.613,0 0.777,0.54 0.777,0.885c0,0.07 -0.008,0.124 -0.012,0.159l-1.321,0zm1.003,-0.245c0.004,-0.217 -0.089,-0.555 -0.474,-0.555c-0.346,0 -0.497,0.318 -0.524,0.555l0.998,0z" fill="#6D6E71"/>
  <path id="svg_1350" d="m31.381,-131.546c-0.019,-0.365 -0.043,-0.804 -0.039,-1.13l-0.012,0c-0.089,0.307 -0.198,0.633 -0.33,0.994l-0.462,1.27l-0.256,0l-0.423,-1.247c-0.124,-0.369 -0.229,-0.707 -0.303,-1.017l-0.008,0c-0.008,0.326 -0.027,0.765 -0.05,1.157l-0.07,1.123l-0.323,0l0.183,-2.618l0.431,0l0.447,1.266c0.109,0.322 0.198,0.61 0.264,0.882l0.012,0c0.066,-0.264 0.159,-0.551 0.276,-0.882l0.466,-1.266l0.431,0l0.163,2.618l-0.33,0l-0.067,-1.15z" fill="#6D6E71"/>
  <path id="svg_1351" d="m33.352,-130.397l-0.027,-0.237l-0.012,0c-0.105,0.147 -0.307,0.28 -0.575,0.28c-0.38,0 -0.575,-0.268 -0.575,-0.54c0,-0.454 0.404,-0.703 1.13,-0.699l0,-0.039c0,-0.155 -0.043,-0.435 -0.427,-0.435c-0.175,0 -0.357,0.054 -0.49,0.14l-0.077,-0.225c0.155,-0.101 0.38,-0.167 0.617,-0.167c0.575,0 0.715,0.392 0.715,0.769l0,0.703c0,0.163 0.008,0.322 0.031,0.451l-0.31,0l0,-0.001zm-0.051,-0.959c-0.373,-0.008 -0.796,0.058 -0.796,0.423c0,0.221 0.147,0.326 0.322,0.326c0.245,0 0.4,-0.156 0.454,-0.315c0.012,-0.035 0.019,-0.074 0.019,-0.109l0,-0.325l0.001,0z" fill="#6D6E71"/>
  <path id="svg_1352" d="m34.184,-131.768c0,-0.194 -0.004,-0.353 -0.016,-0.508l0.303,0l0.02,0.311l0.008,0c0.093,-0.179 0.311,-0.353 0.621,-0.353c0.26,0 0.664,0.155 0.664,0.8l0,1.123l-0.342,0l0,-1.084c0,-0.303 -0.113,-0.555 -0.435,-0.555c-0.225,0 -0.4,0.159 -0.458,0.349c-0.015,0.043 -0.023,0.101 -0.023,0.159l0,1.13l-0.342,0l0,-1.372z" fill="#6D6E71"/>
  <path id="svg_1353" d="m37.381,-130.397l-0.027,-0.237l-0.012,0c-0.105,0.147 -0.307,0.28 -0.575,0.28c-0.38,0 -0.575,-0.268 -0.575,-0.54c0,-0.454 0.404,-0.703 1.13,-0.699l0,-0.039c0,-0.155 -0.043,-0.435 -0.427,-0.435c-0.175,0 -0.357,0.054 -0.49,0.14l-0.077,-0.225c0.155,-0.101 0.38,-0.167 0.617,-0.167c0.575,0 0.715,0.392 0.715,0.769l0,0.703c0,0.163 0.008,0.322 0.031,0.451l-0.31,0l0,-0.001zm-0.05,-0.959c-0.373,-0.008 -0.796,0.058 -0.796,0.423c0,0.221 0.147,0.326 0.322,0.326c0.245,0 0.4,-0.156 0.454,-0.315c0.012,-0.035 0.019,-0.074 0.019,-0.109l0,-0.325l0.001,0z" fill="#6D6E71"/>
  <path id="svg_1354" d="m39.833,-132.276c-0.008,0.136 -0.015,0.287 -0.015,0.516l0,1.091c0,0.431 -0.085,0.695 -0.268,0.858c-0.182,0.171 -0.447,0.225 -0.683,0.225c-0.225,0 -0.474,-0.054 -0.625,-0.155l0.085,-0.26c0.124,0.077 0.318,0.147 0.551,0.147c0.349,0 0.606,-0.182 0.606,-0.656l0,-0.21l-0.008,0c-0.105,0.175 -0.307,0.315 -0.598,0.315c-0.466,0 -0.8,-0.396 -0.8,-0.916c0,-0.637 0.416,-0.998 0.847,-0.998c0.326,0 0.505,0.171 0.586,0.326l0.008,0l0.015,-0.283l0.299,0zm-0.354,0.741c0,-0.058 -0.004,-0.109 -0.019,-0.155c-0.062,-0.198 -0.229,-0.361 -0.478,-0.361c-0.326,0 -0.559,0.276 -0.559,0.711c0,0.369 0.186,0.676 0.555,0.676c0.21,0 0.4,-0.132 0.474,-0.349c0.02,-0.058 0.027,-0.124 0.027,-0.182l0,-0.34z" fill="#6D6E71"/>
  <path id="svg_1355" d="m40.576,-131.274c0.008,0.462 0.303,0.652 0.645,0.652c0.245,0 0.392,-0.043 0.52,-0.097l0.058,0.245c-0.12,0.054 -0.326,0.117 -0.625,0.117c-0.579,0 -0.924,-0.381 -0.924,-0.948c0,-0.567 0.334,-1.013 0.882,-1.013c0.613,0 0.777,0.54 0.777,0.885c0,0.07 -0.008,0.124 -0.012,0.159l-1.321,0zm1.002,-0.245c0.004,-0.217 -0.089,-0.555 -0.474,-0.555c-0.346,0 -0.497,0.318 -0.524,0.555l0.998,0z" fill="#6D6E71"/>
  <path id="svg_1356" d="m42.332,-131.768c0,-0.194 -0.004,-0.353 -0.016,-0.508l0.299,0l0.015,0.303l0.012,0c0.105,-0.179 0.28,-0.346 0.59,-0.346c0.256,0 0.45,0.155 0.532,0.377l0.008,0c0.058,-0.105 0.132,-0.187 0.21,-0.245c0.113,-0.085 0.237,-0.132 0.416,-0.132c0.249,0 0.618,0.163 0.618,0.816l0,1.107l-0.334,0l0,-1.064c0,-0.361 -0.132,-0.579 -0.408,-0.579c-0.194,0 -0.346,0.144 -0.404,0.311c-0.015,0.047 -0.027,0.109 -0.027,0.171l0,1.161l-0.334,0l0,-1.126c0,-0.299 -0.132,-0.516 -0.392,-0.516c-0.213,0 -0.369,0.171 -0.423,0.342c-0.02,0.05 -0.027,0.108 -0.027,0.167l0,1.134l-0.334,0l0,-1.373l-0.001,0z" fill="#6D6E71"/>
  <path id="svg_1357" d="m45.763,-131.274c0.008,0.462 0.303,0.652 0.645,0.652c0.245,0 0.392,-0.043 0.52,-0.097l0.058,0.245c-0.12,0.054 -0.326,0.117 -0.625,0.117c-0.579,0 -0.924,-0.381 -0.924,-0.948c0,-0.567 0.334,-1.013 0.882,-1.013c0.613,0 0.777,0.54 0.777,0.885c0,0.07 -0.008,0.124 -0.012,0.159l-1.321,0zm1.002,-0.245c0.004,-0.217 -0.089,-0.555 -0.474,-0.555c-0.346,0 -0.497,0.318 -0.524,0.555l0.998,0z" fill="#6D6E71"/>
  <path id="svg_1358" d="m47.52,-131.768c0,-0.194 -0.004,-0.353 -0.016,-0.508l0.303,0l0.02,0.311l0.008,0c0.093,-0.179 0.311,-0.353 0.621,-0.353c0.26,0 0.664,0.155 0.664,0.8l0,1.123l-0.342,0l0,-1.084c0,-0.303 -0.113,-0.555 -0.435,-0.555c-0.225,0 -0.4,0.159 -0.458,0.349c-0.015,0.043 -0.023,0.101 -0.023,0.159l0,1.13l-0.342,0l0,-1.372z" fill="#6D6E71"/>
  <path id="svg_1359" d="m50.072,-132.816l0,0.54l0.49,0l0,0.26l-0.49,0l0,1.014c0,0.233 0.066,0.365 0.256,0.365c0.089,0 0.155,-0.012 0.198,-0.023l0.015,0.256c-0.066,0.027 -0.171,0.047 -0.303,0.047c-0.159,0 -0.287,-0.051 -0.369,-0.144c-0.097,-0.101 -0.132,-0.268 -0.132,-0.489l0,-1.025l-0.291,0l0,-0.26l0.291,0l0,-0.451l0.335,-0.09z" fill="#6D6E71"/>
  <g stroke="null" id="svg_1609">
   <g stroke="null" id="svg_37">
    <g stroke="null" id="svg_38">
     <g stroke="null" id="svg_39">
      <path stroke="null" id="svg_40" d="m83.79255,184.04169c-7.14603,-0.15267 -14.2374,-1.25188 -21.04761,-3.35108c-15.51822,-4.7709 -41.64224,-15.19054 -49.1241,-32.85432c-10.85572,-25.62545 -8.88763,-51.50281 8.65334,-74.44129c15.18239,-19.85457 35.78484,-33.02989 58.76148,-43.1671c18.46254,-8.15251 37.35462,-15.06077 57.04331,-19.45764c28.69347,-6.41209 57.1917,-5.85485 84.35443,6.52659c18.76712,8.54945 34.05104,21.4576 46.20321,37.98399c15.9009,21.63317 24.61672,45.7014 27.81877,72.06729c1.31206,10.83185 0.75756,21.09882 -3.74874,30.96123c-1.67131,3.65642 -4.92803,7.31283 -8.87202,10.74788c-14.11244,12.2822 -32.68432,18.50346 -51.5764,18.10652l-148.46568,-3.12208z" fill="#F5F5F5"/>
     </g>
    </g>
    <g stroke="null" id="svg_41">
     <path stroke="null" id="svg_42" d="m227.58793,33.73928c-0.04686,-4.38923 -3.70188,-7.93878 -8.20818,-7.93878c-1.06995,0 -2.10086,0.2061 -3.04585,0.58014c-1.49169,-5.35867 -6.49,-9.30516 -12.44894,-9.30516c-6.39629,0 -11.707,4.5419 -12.72228,10.48834c-1.39797,-1.09922 -3.18643,-1.76332 -5.12328,-1.76332c-4.5063,0 -8.16132,3.54955 -8.20818,7.93878l49.7567,0z" fill="#FFFFFF"/>
    </g>
    <g stroke="null" id="svg_43">
     <path stroke="null" id="svg_44" d="m278.32086,91.0206c-0.03905,-3.33581 -2.81155,-6.03042 -6.23228,-6.03042c-0.81223,0 -1.59321,0.1603 -2.31172,0.44274c-1.13243,-4.06862 -4.92803,-7.06856 -9.44995,-7.06856c-4.85774,0 -8.88763,3.45031 -9.653,7.96168c-1.06214,-0.83968 -2.41325,-1.33585 -3.88932,-1.33585c-3.42072,0 -6.19323,2.6946 -6.23228,6.03042l37.76854,0z" fill="#FFFFFF"/>
    </g>
   </g>
   <g stroke="null" id="svg_45">
    <path stroke="null" id="svg_46" d="m230.70406,73.853l0,167.14177c0,12.54174 -10.41837,22.72475 -23.24999,22.72475l-170.98935,0c-12.84724,0 -23.24999,-10.18301 -23.24999,-22.72475l0,-167.14177c0,-12.54174 10.40275,-22.71711 23.24999,-22.71711l170.98935,0c12.83162,0 23.24999,10.17537 23.24999,22.71711z" fill="#FFFFFF"/>
   </g>
   <g stroke="null" id="svg_47">
    <path stroke="null" id="svg_48" d="m230.70406,73.86827l0,167.13414c0,12.52647 -10.42618,22.71711 -23.27342,22.71711l-13.23773,0c12.84724,0 23.27342,-10.19064 23.27342,-22.71711l0,-167.13414c0,-12.55701 -10.42618,-22.71711 -23.27342,-22.71711l13.23773,0c12.84724,0 23.27342,10.16011 23.27342,22.71711z" fill="#F0F1F2"/>
   </g>
   <g stroke="null" id="svg_49">
    <path stroke="null" id="svg_50" d="m22.51629,100.425l0,152.6077c0,11.43489 9.52023,20.74005 21.25066,20.74005l12.08968,0c-11.73043,0 -21.25066,-9.30516 -21.25066,-20.74005l0,-152.6077c0,-11.46542 9.52023,-20.74005 21.25066,-20.74005l-12.08968,0c-11.73043,0 -21.25066,9.27463 -21.25066,20.74005z" fill="#F0F1F2"/>
   </g>
   <g stroke="null" id="svg_51">
    <path stroke="null" id="svg_52" d="m221.10573,99.15022l0,34.14437l-198.58163,0l0,-34.14437c0,-11.46542 9.489,-20.74005 21.21942,-20.74005l156.11154,0c11.73043,0 21.25066,9.27463 21.25066,20.74005z" fill="#FFB300"/>
   </g>
   <g stroke="null" id="svg_53">
    <circle stroke="null" id="svg_54" r="17.87552" cy="107.4096" cx="63.55717" fill="#666666"/>
   </g>
   <g stroke="null" id="svg_55">
    <circle stroke="null" id="svg_56" r="17.87552" cy="107.4096" cx="178.88556" fill="#666666"/>
   </g>
   <g stroke="null" id="svg_57">
    <circle stroke="null" id="svg_58" r="14.05701" cy="162.62989" cx="54.18533" fill="#E6E6E6"/>
   </g>
   <g stroke="null" id="svg_59">
    <circle stroke="null" id="svg_60" r="15.38819" cy="143.38599" cx="97.27239" fill="#E6E6E6"/>
   </g>
   <g stroke="null" id="svg_61">
    <circle stroke="null" id="svg_62" r="15.38819" cy="143.38599" cx="146.6386" fill="#E6E6E6"/>
   </g>
   <g stroke="null" id="svg_63">
    <circle stroke="null" id="svg_64" r="15.38819" cy="143.38599" cx="196.01261" fill="#E6E6E6"/>
   </g>
   <g stroke="null" id="svg_65">
    <circle stroke="null" id="svg_66" r="14.05701" cy="201.28562" cx="54.18533" fill="#E6E6E6"/>
   </g>
   <g stroke="null" id="svg_67">
    <circle stroke="null" id="svg_68" r="15.38819" cy="185.72104" cx="97.27239" fill="#E6E6E6"/>
   </g>
   <g stroke="null" id="svg_69">
    <circle stroke="null" id="svg_70" r="15.38819" cy="185.72104" cx="146.6386" fill="#E6E6E6"/>
   </g>
   <g stroke="null" id="svg_71">
    <circle stroke="null" id="svg_72" r="15.38819" cy="185.72104" cx="196.01261" fill="#E6E6E6"/>
   </g>
   <g stroke="null" id="svg_73">
    <circle stroke="null" id="svg_74" r="14.05701" cy="239.94136" cx="54.18533" fill="#E6E6E6"/>
   </g>
   <g stroke="null" id="svg_75">
    <circle stroke="null" id="svg_76" r="15.38819" cy="228.06373" cx="97.27239" fill="#E6E6E6"/>
   </g>
   <g stroke="null" id="svg_77">
    <circle stroke="null" id="svg_78" r="15.38819" cy="228.06373" cx="146.6386" fill="#E6E6E6"/>
   </g>
   <g stroke="null" id="svg_79">
    <circle stroke="null" id="svg_80" r="15.38819" cy="228.06373" cx="196.01261" fill="#E6E6E6"/>
   </g>
   <g stroke="null" id="svg_81">
    <g stroke="null" id="svg_82">
     <path stroke="null" id="svg_83" d="m51.18633,170.88927c-0.70289,0 -1.41359,-0.26717 -1.95247,-0.79388l-3.92056,-3.83199c-1.07776,-1.05341 -1.07776,-2.7633 0,-3.81672c1.07776,-1.05341 2.82717,-1.05341 3.90494,0l1.9759,1.93126l8.78611,-8.58762c1.07776,-1.05341 2.82717,-1.05341 3.90494,0c1.07776,1.05341 1.07776,2.7633 0,3.81672l-10.73857,10.49598c-0.5545,0.52671 -1.25739,0.78624 -1.96028,0.78624z" fill="#5AA7F5"/>
    </g>
   </g>
   <g stroke="null" id="svg_84">
    <g stroke="null" id="svg_85">
     <path stroke="null" id="svg_86" d="m142.91329,194.42316c-0.77318,0 -1.54635,-0.29007 -2.13991,-0.86258l-4.29543,-4.19839c-1.17929,-1.15265 -1.17929,-3.02284 0,-4.17549c1.17929,-1.15265 3.09271,-1.15265 4.272,0l2.16333,2.11446l9.62176,-9.4044c1.17929,-1.15265 3.09271,-1.15265 4.272,0s1.17929,3.02284 0,4.17549l-11.76167,11.49596c-0.58574,0.56487 -1.35892,0.85495 -2.1321,0.85495z" fill="#5AA7F5"/>
    </g>
   </g>
   <g stroke="null" id="svg_87">
    <g stroke="null" id="svg_88">
     <path stroke="null" id="svg_89" d="m155.77615,148.34773c1.11681,1.09158 1.11681,2.88544 0,3.98465c-0.57012,0.53434 -1.28863,0.81678 -2.03838,0.81678c-0.71851,0 -1.46045,-0.28244 -2.03838,-0.81678l-5.07642,-4.96174l-5.07642,4.96174c-0.57012,0.53434 -1.28863,0.81678 -2.03838,0.81678c-0.71851,0 -1.46045,-0.28244 -2.00714,-0.81678c-1.11681,-1.09158 -1.11681,-2.88544 0,-3.98465l5.07642,-4.96174l-5.07642,-4.96174c-1.11681,-1.09158 -1.11681,-2.86254 0,-3.98465c1.11681,-1.09158 2.9287,-1.09158 4.04551,0l5.07642,4.96174l5.07642,-4.96174c1.14805,-1.09158 2.95213,-1.09158 4.07675,0c1.11681,1.12212 1.11681,2.88544 0,3.98465l-5.07642,4.96174l5.07642,4.96174z" fill="#F15C4F"/>
    </g>
   </g>
   <g stroke="null" id="svg_90">
    <g stroke="null" id="svg_91">
     <path stroke="null" id="svg_92" d="m62.53408,244.48325c1.02309,0.99998 1.02309,2.64117 0,3.63352c-0.52326,0.48854 -1.17929,0.74044 -1.85875,0.74044c-0.65603,0 -1.33549,-0.25954 -1.85875,-0.74044l-4.63906,-4.53426l-4.63906,4.53426c-0.52326,0.48854 -1.17929,0.74044 -1.85875,0.74044c-0.65603,0 -1.33549,-0.25954 -1.83532,-0.74044c-1.02309,-0.99998 -1.02309,-2.64117 0,-3.63352l4.63906,-4.53426l-4.63906,-4.53426c-1.02309,-0.99998 -1.02309,-2.61064 0,-3.63352c1.02309,-0.99998 2.67098,-0.99998 3.69407,0l4.63906,4.53426l4.63906,-4.53426c1.04652,-0.99998 2.69441,-0.99998 3.7175,0c1.02309,1.02288 1.02309,2.64117 0,3.63352l-4.63906,4.53426l4.63906,4.53426z" fill="#F15C4F"/>
    </g>
   </g>
   <g stroke="null" id="svg_93">
    <path stroke="null" id="svg_94" d="m209.01605,133.30222l0,-34.14437c0,-11.46542 -9.52023,-20.74005 -21.25066,-20.74005l12.08968,0c11.73043,0 21.25066,9.27463 21.25066,20.74005l0,34.14437l-12.08968,0z" fill="#FFB300"/>
   </g>
   <g stroke="null" id="svg_95">
    <path stroke="null" id="svg_96" d="m55.86445,79.67731c-11.73043,0 -21.25066,9.27463 -21.25066,20.74005l0,32.87722l-12.08968,0l0,-32.87722c0,-11.46542 9.52023,-20.74005 21.25066,-20.74005l12.08968,0z" fill="#FFB300"/>
   </g>
   <g stroke="null" id="svg_97">
    <path stroke="null" id="svg_98" d="m207.44626,266.67366l-170.98935,0c-14.48731,0 -26.27241,-11.51886 -26.27241,-25.67889l0,-167.14177c0,-14.1524 11.7851,-25.66362 26.27241,-25.66362l170.98935,0c14.48731,0 26.28022,11.51123 26.28022,25.66362l0,167.14177c0,14.16003 -11.79291,25.67889 -26.28022,25.67889zm-170.98935,-212.58363c-11.1525,0 -20.22757,8.86242 -20.22757,19.75534l0,167.14177c0,10.90055 9.07507,19.77061 20.22757,19.77061l170.98935,0c11.1525,0 20.23538,-8.87006 20.23538,-19.77061l0,-167.14177c0,-10.89292 -9.07507,-19.75534 -20.23538,-19.75534l-170.98935,0z"/>
   </g>
   <g stroke="null" id="svg_99">
    <path stroke="null" id="svg_100" d="m73.1477,67.48671l0,35.27412c0,5.17547 -4.28762,9.36623 -9.59833,9.36623c-5.29509,0 -9.58271,-4.19076 -9.58271,-9.36623l0,-35.27412c0,-5.17547 4.28762,-9.36623 9.58271,-9.36623c2.65536,0 5.04518,1.04578 6.79459,2.7404c1.73379,1.68699 2.80374,4.04572 2.80374,6.62582z" fill="#FFFFFF"/>
   </g>
   <g stroke="null" id="svg_101">
    <path stroke="null" id="svg_102" d="m63.54936,114.82166c-6.8024,0 -12.3396,-5.41211 -12.3396,-12.06083l0,-35.27412c0,-6.64873 5.5372,-12.06083 12.3396,-12.06083c3.29577,0 6.39629,1.25188 8.73925,3.51902c2.33515,2.2824 3.61597,5.31287 3.61597,8.54182l0,35.27412c0,6.64873 -5.5372,12.06083 -12.35522,12.06083zm0,-54.00658c-3.76436,0 -6.81802,2.99231 -6.81802,6.67163l0,35.27412c0,3.67932 3.06147,6.66399 6.81802,6.66399c3.76436,0 6.83364,-2.99231 6.83364,-6.66399l0,-35.27412c0,-1.78622 -0.70289,-3.46558 -1.99152,-4.71747c-1.28863,-1.25952 -3.01461,-1.95416 -4.84212,-1.95416z" fill="#666666"/>
   </g>
   <g stroke="null" id="svg_103">
    <path stroke="null" id="svg_104" d="m188.47608,67.48671l0,35.27412c0,5.17547 -4.28762,9.36623 -9.59833,9.36623c-5.29509,0 -9.58271,-4.19076 -9.58271,-9.36623l0,-35.27412c0,-5.17547 4.28762,-9.36623 9.58271,-9.36623c2.65536,0 5.04518,1.04578 6.79459,2.7404c1.73379,1.68699 2.80374,4.04572 2.80374,6.62582z" fill="#FFFFFF"/>
   </g>
   <g stroke="null" id="svg_105">
    <path stroke="null" id="svg_106" d="m178.87775,114.82166c-6.8024,0 -12.3396,-5.41211 -12.3396,-12.06083l0,-35.27412c0,-6.64873 5.5372,-12.06083 12.3396,-12.06083c3.29577,0 6.39629,1.25188 8.73925,3.51902c2.33515,2.2824 3.61597,5.31287 3.61597,8.54182l0,35.27412c0,6.64873 -5.5372,12.06083 -12.35522,12.06083zm0,-54.00658c-3.76436,0 -6.82583,2.99231 -6.82583,6.67163l0,35.27412c0,3.67932 3.06147,6.66399 6.82583,6.66399c3.76436,0 6.83364,-2.99231 6.83364,-6.66399l0,-35.27412c0,-1.78622 -0.7107,-3.46558 -1.99152,-4.71747c-1.28863,-1.25952 -3.01461,-1.95416 -4.84212,-1.95416z" fill="#666666"/>
   </g>
   <g stroke="null" id="svg_107">
    <circle stroke="null" id="svg_108" r="50.0439" cy="240.09403" cx="242.044" fill="#FFD8A0"/>
   </g>
   <g stroke="null" id="svg_109">
    <path stroke="null" id="svg_110" d="m229.25924,255.57464c-0.79661,0 -1.59321,-0.30534 -2.18676,-0.90838c-1.15586,-1.18318 -1.109,-3.05338 0.09372,-4.17549l13.40955,-12.52647c1.21053,-1.12975 3.12395,-1.08395 4.272,0.0916c1.15586,1.18318 1.109,3.05338 -0.09372,4.17549l-13.40955,12.52647c-0.58574,0.54197 -1.33549,0.81678 -2.08524,0.81678z"/>
   </g>
   <g stroke="null" id="svg_111">
    <path stroke="null" id="svg_112" d="m293.41734,240.08639c0,27.73992 -23.00007,50.22039 -51.38115,50.22039c-16.26015,0 -30.73966,-7.38154 -40.16617,-18.90803c8.76268,6.85483 19.88394,10.96162 32.0361,10.96162c28.38108,0 51.38115,-22.48048 51.38115,-50.22039c0,-11.8471 -4.20171,-22.71711 -11.21498,-31.31237c11.7851,9.19066 19.34505,23.36596 19.34505,39.25877z" fill="#FFC777"/>
   </g>
   <g stroke="null" id="svg_113">
    <path stroke="null" id="svg_114" d="m242.044,293.26856c-29.99772,0 -54.40357,-23.8545 -54.40357,-53.17453s24.40585,-53.17453 54.40357,-53.17453c29.99772,0 54.40357,23.8545 54.40357,53.17453s-24.40585,53.17453 -54.40357,53.17453zm0,-100.44079c-26.6629,0 -48.35873,21.20569 -48.35873,47.26625c0,26.06056 21.69583,47.26625 48.35873,47.26625c26.6629,0 48.35873,-21.20569 48.35873,-47.26625c-0.00781,-26.06056 -21.69583,-47.26625 -48.35873,-47.26625z"/>
   </g>
   <g stroke="null" id="svg_115">
    <g stroke="null" id="svg_116">
     <path stroke="null" id="svg_117" d="m242.044,209.07936c-1.67131,0 -3.02242,-1.32058 -3.02242,-2.95414l0,-5.16784c0,-1.63356 1.35111,-2.95414 3.02242,-2.95414c1.67131,0 3.02242,1.32058 3.02242,2.95414l0,5.16784c0,1.63356 -1.35111,2.95414 -3.02242,2.95414z"/>
    </g>
    <g stroke="null" id="svg_118">
     <path stroke="null" id="svg_119" d="m242.044,282.19244c-1.67131,0 -3.02242,-1.32058 -3.02242,-2.95414l0,-5.16784c0,-1.63356 1.35111,-2.95414 3.02242,-2.95414c1.67131,0 3.02242,1.32058 3.02242,2.95414l0,5.16784c0,1.63356 -1.35111,2.95414 -3.02242,2.95414z"/>
    </g>
   </g>
   <g stroke="null" id="svg_120">
    <g stroke="null" id="svg_121">
     <path stroke="null" id="svg_122" d="m217.46633,219.02574c-0.77318,0 -1.54635,-0.29007 -2.13991,-0.86258l-3.74093,-3.65642c-1.17929,-1.15265 -1.17929,-3.02284 0,-4.17549c1.17929,-1.15265 3.09271,-1.15265 4.272,0l3.74093,3.65642c1.17929,1.15265 1.17929,3.02284 0,4.17549c-0.58574,0.57251 -1.35892,0.86258 -2.1321,0.86258z"/>
    </g>
    <g stroke="null" id="svg_123">
     <path stroke="null" id="svg_124" d="m270.35479,270.71938c-0.77318,0 -1.54635,-0.29007 -2.13991,-0.86258l-3.74093,-3.65642c-1.17929,-1.15265 -1.17929,-3.02284 0,-4.17549c1.17929,-1.15265 3.09271,-1.15265 4.272,0l3.74093,3.65642c1.17929,1.15265 1.17929,3.02284 0,4.17549c-0.58574,0.58014 -1.35892,0.86258 -2.1321,0.86258z"/>
    </g>
   </g>
   <g stroke="null" id="svg_125">
    <g stroke="null" id="svg_126">
     <path stroke="null" id="svg_127" d="m207.28226,243.04817l-5.28728,0c-1.67131,0 -3.02242,-1.32058 -3.02242,-2.95414s1.35111,-2.95414 3.02242,-2.95414l5.28728,0c1.67131,0 3.02242,1.32058 3.02242,2.95414s-1.35111,2.95414 -3.02242,2.95414z"/>
    </g>
    <g stroke="null" id="svg_128">
     <path stroke="null" id="svg_129" d="m282.08522,243.04053l-5.28728,0c-1.67131,0 -3.02242,-1.32058 -3.02242,-2.95414c0,-1.63356 1.35111,-2.95414 3.02242,-2.95414l5.28728,0c1.67131,0 3.02242,1.32058 3.02242,2.95414c0,1.63356 -1.35892,2.95414 -3.02242,2.95414z"/>
    </g>
   </g>
   <g stroke="null" id="svg_130">
    <g stroke="null" id="svg_131">
     <path stroke="null" id="svg_132" d="m213.71759,270.71938c-0.77318,0 -1.54635,-0.29007 -2.13991,-0.86258c-1.17929,-1.15265 -1.17929,-3.02284 0,-4.17549l3.74093,-3.65642c1.17929,-1.15265 3.09271,-1.15265 4.272,0c1.17929,1.15265 1.17929,3.02284 0,4.17549l-3.74093,3.65642c-0.58574,0.58014 -1.35892,0.86258 -2.1321,0.86258z"/>
    </g>
    <g stroke="null" id="svg_133">
     <path stroke="null" id="svg_134" d="m266.61386,219.02574c-0.77318,0 -1.54635,-0.29007 -2.13991,-0.86258c-1.17929,-1.15265 -1.17929,-3.02284 0,-4.17549l3.74093,-3.65642c1.17929,-1.15265 3.09271,-1.15265 4.272,0c1.17929,1.15265 1.17929,3.02284 0,4.17549l-3.74093,3.65642c-0.58574,0.57251 -1.35892,0.86258 -2.1321,0.86258z"/>
    </g>
   </g>
   <g stroke="null" id="svg_135">
    <path stroke="null" id="svg_136" d="m242.66879,243.04053c-1.67131,0 -3.02242,-1.32058 -3.02242,-2.95414l0,-25.84682c0,-1.63356 1.35111,-2.95414 3.02242,-2.95414s3.02242,1.32058 3.02242,2.95414l0,25.84682c0,1.63356 -1.35111,2.95414 -3.02242,2.95414z"/>
   </g>
  </g>
 </g>
</svg>