<svg width="304" height="300" xmlns="http://www.w3.org/2000/svg">

 <g>
  <title>background</title>
  <rect fill="none" id="canvas_background" height="302" width="306" y="-1" x="-1"/>
 </g>
 <g>
  <title>Layer 1</title>
  <path id="svg_627" d="m-140.001,308.157c0.504,-0.084 1.164,-0.155 2.003,-0.155c1.032,0 1.787,0.239 2.268,0.672c0.443,0.383 0.707,0.971 0.707,1.69c0,0.732 -0.216,1.308 -0.624,1.728c-0.551,0.587 -1.451,0.887 -2.47,0.887c-0.313,0 -0.601,-0.012 -0.84,-0.072l0,3.238l-1.044,0l0,-7.988zm1.044,3.897c0.228,0.06 0.516,0.084 0.863,0.084c1.26,0 2.027,-0.611 2.027,-1.727c0,-1.067 -0.756,-1.583 -1.907,-1.583c-0.456,0 -0.804,0.036 -0.983,0.084l0,3.142z" fill="#6D6E71"/>
  <path id="svg_628" d="m-133.844,312.151c0,-0.684 -0.013,-1.271 -0.049,-1.811l0.924,0l0.036,1.14l0.048,0c0.264,-0.779 0.899,-1.27 1.607,-1.27c0.12,0 0.203,0.012 0.3,0.035l0,0.996c-0.108,-0.024 -0.216,-0.037 -0.36,-0.037c-0.743,0 -1.271,0.565 -1.415,1.355c-0.023,0.145 -0.048,0.313 -0.048,0.492l0,3.094l-1.043,0l0,-3.994z" fill="#6D6E71"/>
  <g id="svg_1085">
   <g id="svg_1086">
    <path id="svg_1087" d="m-21.123,-185.963l-0.591,0c-0.13,0 -0.236,-0.105 -0.236,-0.236c0,-0.13 0.105,-0.236 0.236,-0.236l0.591,0c0.13,0 0.236,0.105 0.236,0.236c0,0.13 -0.105,0.236 -0.236,0.236z" fill="#666666"/>
   </g>
   <g id="svg_1088">
    <path id="svg_1089" d="m0.904,-185.963l-21.32,0c-0.13,0 -0.236,-0.105 -0.236,-0.236c0,-0.13 0.105,-0.236 0.236,-0.236l21.32,0c0.13,0 0.236,0.105 0.236,0.236c0,0.13 -0.105,0.236 -0.236,0.236z" fill="#666666"/>
   </g>
  </g>
  <g id="svg_1323">
   <circle id="svg_1324" r="0.339" cy="282.064" cx="152.962" fill="#41A700"/>
  </g>
  <path id="svg_1346" d="m20.867,-132.727l-0.796,0l0,-0.287l1.938,0l0,0.287l-0.8,0l0,2.33l-0.342,0l0,-2.33z" fill="#6D6E71"/>
  <path id="svg_1347" d="m22.624,-132.805c0.004,0.117 -0.082,0.21 -0.218,0.21c-0.12,0 -0.206,-0.093 -0.206,-0.21c0,-0.12 0.089,-0.213 0.214,-0.213c0.128,0 0.21,0.093 0.21,0.213zm-0.38,2.408l0,-1.88l0.342,0l0,1.88l-0.342,0z" fill="#6D6E71"/>
  <path id="svg_1348" d="m23.153,-131.768c0,-0.194 -0.004,-0.353 -0.016,-0.508l0.299,0l0.015,0.303l0.012,0c0.105,-0.179 0.28,-0.346 0.59,-0.346c0.256,0 0.45,0.155 0.532,0.377l0.008,0c0.058,-0.105 0.132,-0.187 0.21,-0.245c0.113,-0.085 0.237,-0.132 0.416,-0.132c0.249,0 0.618,0.163 0.618,0.816l0,1.107l-0.334,0l0,-1.064c0,-0.361 -0.132,-0.579 -0.408,-0.579c-0.194,0 -0.346,0.144 -0.404,0.311c-0.015,0.047 -0.027,0.109 -0.027,0.171l0,1.161l-0.334,0l0,-1.126c0,-0.299 -0.132,-0.516 -0.392,-0.516c-0.213,0 -0.369,0.171 -0.423,0.342c-0.02,0.05 -0.027,0.108 -0.027,0.167l0,1.134l-0.334,0l0,-1.373l-0.001,0z" fill="#6D6E71"/>
  <path id="svg_1349" d="m26.583,-131.274c0.008,0.462 0.303,0.652 0.645,0.652c0.245,0 0.392,-0.043 0.52,-0.097l0.058,0.245c-0.12,0.054 -0.326,0.117 -0.625,0.117c-0.579,0 -0.924,-0.381 -0.924,-0.948c0,-0.567 0.334,-1.013 0.882,-1.013c0.613,0 0.777,0.54 0.777,0.885c0,0.07 -0.008,0.124 -0.012,0.159l-1.321,0zm1.003,-0.245c0.004,-0.217 -0.089,-0.555 -0.474,-0.555c-0.346,0 -0.497,0.318 -0.524,0.555l0.998,0z" fill="#6D6E71"/>
  <path id="svg_1350" d="m31.381,-131.546c-0.019,-0.365 -0.043,-0.804 -0.039,-1.13l-0.012,0c-0.089,0.307 -0.198,0.633 -0.33,0.994l-0.462,1.27l-0.256,0l-0.423,-1.247c-0.124,-0.369 -0.229,-0.707 -0.303,-1.017l-0.008,0c-0.008,0.326 -0.027,0.765 -0.05,1.157l-0.07,1.123l-0.323,0l0.183,-2.618l0.431,0l0.447,1.266c0.109,0.322 0.198,0.61 0.264,0.882l0.012,0c0.066,-0.264 0.159,-0.551 0.276,-0.882l0.466,-1.266l0.431,0l0.163,2.618l-0.33,0l-0.067,-1.15z" fill="#6D6E71"/>
  <path id="svg_1351" d="m33.352,-130.397l-0.027,-0.237l-0.012,0c-0.105,0.147 -0.307,0.28 -0.575,0.28c-0.38,0 -0.575,-0.268 -0.575,-0.54c0,-0.454 0.404,-0.703 1.13,-0.699l0,-0.039c0,-0.155 -0.043,-0.435 -0.427,-0.435c-0.175,0 -0.357,0.054 -0.49,0.14l-0.077,-0.225c0.155,-0.101 0.38,-0.167 0.617,-0.167c0.575,0 0.715,0.392 0.715,0.769l0,0.703c0,0.163 0.008,0.322 0.031,0.451l-0.31,0l0,-0.001zm-0.051,-0.959c-0.373,-0.008 -0.796,0.058 -0.796,0.423c0,0.221 0.147,0.326 0.322,0.326c0.245,0 0.4,-0.156 0.454,-0.315c0.012,-0.035 0.019,-0.074 0.019,-0.109l0,-0.325l0.001,0z" fill="#6D6E71"/>
  <path id="svg_1352" d="m34.184,-131.768c0,-0.194 -0.004,-0.353 -0.016,-0.508l0.303,0l0.02,0.311l0.008,0c0.093,-0.179 0.311,-0.353 0.621,-0.353c0.26,0 0.664,0.155 0.664,0.8l0,1.123l-0.342,0l0,-1.084c0,-0.303 -0.113,-0.555 -0.435,-0.555c-0.225,0 -0.4,0.159 -0.458,0.349c-0.015,0.043 -0.023,0.101 -0.023,0.159l0,1.13l-0.342,0l0,-1.372z" fill="#6D6E71"/>
  <path id="svg_1353" d="m37.381,-130.397l-0.027,-0.237l-0.012,0c-0.105,0.147 -0.307,0.28 -0.575,0.28c-0.38,0 -0.575,-0.268 -0.575,-0.54c0,-0.454 0.404,-0.703 1.13,-0.699l0,-0.039c0,-0.155 -0.043,-0.435 -0.427,-0.435c-0.175,0 -0.357,0.054 -0.49,0.14l-0.077,-0.225c0.155,-0.101 0.38,-0.167 0.617,-0.167c0.575,0 0.715,0.392 0.715,0.769l0,0.703c0,0.163 0.008,0.322 0.031,0.451l-0.31,0l0,-0.001zm-0.05,-0.959c-0.373,-0.008 -0.796,0.058 -0.796,0.423c0,0.221 0.147,0.326 0.322,0.326c0.245,0 0.4,-0.156 0.454,-0.315c0.012,-0.035 0.019,-0.074 0.019,-0.109l0,-0.325l0.001,0z" fill="#6D6E71"/>
  <path id="svg_1354" d="m39.833,-132.276c-0.008,0.136 -0.015,0.287 -0.015,0.516l0,1.091c0,0.431 -0.085,0.695 -0.268,0.858c-0.182,0.171 -0.447,0.225 -0.683,0.225c-0.225,0 -0.474,-0.054 -0.625,-0.155l0.085,-0.26c0.124,0.077 0.318,0.147 0.551,0.147c0.349,0 0.606,-0.182 0.606,-0.656l0,-0.21l-0.008,0c-0.105,0.175 -0.307,0.315 -0.598,0.315c-0.466,0 -0.8,-0.396 -0.8,-0.916c0,-0.637 0.416,-0.998 0.847,-0.998c0.326,0 0.505,0.171 0.586,0.326l0.008,0l0.015,-0.283l0.299,0zm-0.354,0.741c0,-0.058 -0.004,-0.109 -0.019,-0.155c-0.062,-0.198 -0.229,-0.361 -0.478,-0.361c-0.326,0 -0.559,0.276 -0.559,0.711c0,0.369 0.186,0.676 0.555,0.676c0.21,0 0.4,-0.132 0.474,-0.349c0.02,-0.058 0.027,-0.124 0.027,-0.182l0,-0.34z" fill="#6D6E71"/>
  <path id="svg_1355" d="m40.576,-131.274c0.008,0.462 0.303,0.652 0.645,0.652c0.245,0 0.392,-0.043 0.52,-0.097l0.058,0.245c-0.12,0.054 -0.326,0.117 -0.625,0.117c-0.579,0 -0.924,-0.381 -0.924,-0.948c0,-0.567 0.334,-1.013 0.882,-1.013c0.613,0 0.777,0.54 0.777,0.885c0,0.07 -0.008,0.124 -0.012,0.159l-1.321,0zm1.002,-0.245c0.004,-0.217 -0.089,-0.555 -0.474,-0.555c-0.346,0 -0.497,0.318 -0.524,0.555l0.998,0z" fill="#6D6E71"/>
  <path id="svg_1356" d="m42.332,-131.768c0,-0.194 -0.004,-0.353 -0.016,-0.508l0.299,0l0.015,0.303l0.012,0c0.105,-0.179 0.28,-0.346 0.59,-0.346c0.256,0 0.45,0.155 0.532,0.377l0.008,0c0.058,-0.105 0.132,-0.187 0.21,-0.245c0.113,-0.085 0.237,-0.132 0.416,-0.132c0.249,0 0.618,0.163 0.618,0.816l0,1.107l-0.334,0l0,-1.064c0,-0.361 -0.132,-0.579 -0.408,-0.579c-0.194,0 -0.346,0.144 -0.404,0.311c-0.015,0.047 -0.027,0.109 -0.027,0.171l0,1.161l-0.334,0l0,-1.126c0,-0.299 -0.132,-0.516 -0.392,-0.516c-0.213,0 -0.369,0.171 -0.423,0.342c-0.02,0.05 -0.027,0.108 -0.027,0.167l0,1.134l-0.334,0l0,-1.373l-0.001,0z" fill="#6D6E71"/>
  <path id="svg_1357" d="m45.763,-131.274c0.008,0.462 0.303,0.652 0.645,0.652c0.245,0 0.392,-0.043 0.52,-0.097l0.058,0.245c-0.12,0.054 -0.326,0.117 -0.625,0.117c-0.579,0 -0.924,-0.381 -0.924,-0.948c0,-0.567 0.334,-1.013 0.882,-1.013c0.613,0 0.777,0.54 0.777,0.885c0,0.07 -0.008,0.124 -0.012,0.159l-1.321,0zm1.002,-0.245c0.004,-0.217 -0.089,-0.555 -0.474,-0.555c-0.346,0 -0.497,0.318 -0.524,0.555l0.998,0z" fill="#6D6E71"/>
  <path id="svg_1358" d="m47.52,-131.768c0,-0.194 -0.004,-0.353 -0.016,-0.508l0.303,0l0.02,0.311l0.008,0c0.093,-0.179 0.311,-0.353 0.621,-0.353c0.26,0 0.664,0.155 0.664,0.8l0,1.123l-0.342,0l0,-1.084c0,-0.303 -0.113,-0.555 -0.435,-0.555c-0.225,0 -0.4,0.159 -0.458,0.349c-0.015,0.043 -0.023,0.101 -0.023,0.159l0,1.13l-0.342,0l0,-1.372z" fill="#6D6E71"/>
  <path id="svg_1359" d="m50.072,-132.816l0,0.54l0.49,0l0,0.26l-0.49,0l0,1.014c0,0.233 0.066,0.365 0.256,0.365c0.089,0 0.155,-0.012 0.198,-0.023l0.015,0.256c-0.066,0.027 -0.171,0.047 -0.303,0.047c-0.159,0 -0.287,-0.051 -0.369,-0.144c-0.097,-0.101 -0.132,-0.268 -0.132,-0.489l0,-1.025l-0.291,0l0,-0.26l0.291,0l0,-0.451l0.335,-0.09z" fill="#6D6E71"/>
  <g stroke="null" id="svg_1609">
   <polygon stroke="null" id="svg_1438" points="107.31159973144531,182.0339298248291 74.73719787597656,208.2205753326416 150.05398559570312,283.6556034088135 155.31320190429688,283.6556034088135 227.6826629638672,198.84609413146973 193.12509155273438,176.84157752990723 " fill="#B1BDBE"/>
   <rect stroke="null" id="svg_1439" height="51.27862" width="76.83986" fill="#D0AA85" y="141.49567" x="113.58984"/>
   <g stroke="null" id="svg_1440">
    <path stroke="null" id="svg_1441" d="m214.21685,108.6665c-4.73333,39.66819 -39.795,69.10124 -62.08108,69.10124c-23.83098,0 -56.50408,-30.25635 -62.08108,-69.10124c-5.44552,-37.88125 27.79734,-57.1353 62.08108,-57.1353c34.28375,-0.00936 66.60623,19.16984 62.08108,57.1353z" fill="#E4C092"/>
    <path stroke="null" id="svg_1442" d="m97.23137,110.17277c0.06574,-3.56452 5.47839,-16.46604 10.08023,-15.30593c19.34966,4.89303 36.03683,9.65509 56.4493,12.70505c22.97636,3.42419 39.64161,0.42101 40.95642,2.36699c1.11759,1.6466 0.74506,4.60301 1.09568,6.58642c0.08765,-2.55411 2.89259,-9.39313 2.37762,-11.81626c-0.7341,-3.43354 -7.31913,-4.65914 -11.09921,-5.4076c-7.09999,-1.394 -14.67112,-0.9075 -21.77111,-2.27344c-8.0861,-1.55305 -16.28177,-4.36911 -24.5103,-6.20283c-9.0503,-2.00212 -18.33068,-2.79736 -26.88792,-6.04379c-5.45647,-2.06761 -10.90199,-4.2662 -16.85152,-4.91175c-3.38564,-0.37423 -7.69166,0.44907 -10.32128,2.1331c-3.56095,2.3015 -3.18842,4.98659 -3.21033,8.47627c-0.01096,4.50945 0.36157,10.45968 1.91744,14.77266l1.775,4.9211z" fill="#C8A17B"/>
    <path stroke="null" id="svg_1443" d="m192.97167,55.61965c0,0 29.06832,0.21518 25.69364,26.86959c-3.15555,25.04522 -5.829,32.14621 -5.829,32.14621l-7.38487,2.91898c0,0 3.60478,-8.61661 -1.19429,-20.50771c-5.4236,-13.43479 -18.99905,-23.88512 -18.99905,-23.88512l7.71357,-17.54195z" fill="#594A42"/>
    <path stroke="null" id="svg_1444" d="m111.00404,55.61965c0,0 -29.04641,0.21518 -25.70459,26.86959c3.16651,25.04522 5.85092,32.14621 5.85092,32.14621l7.36295,2.91898c0,0 -3.60478,-8.61661 1.20525,-20.50771c5.4236,-13.43479 18.99905,-23.88512 18.99905,-23.88512l-7.71357,-17.54195z" fill="#594A42"/>
    <path stroke="null" id="svg_1445" d="m96.11378,48.11637c-6.72746,5.80989 -15.12035,26.91637 2.87067,37.02053c40.36476,22.67823 118.67282,21.30294 118.67282,21.30294s6.25632,-18.64592 0.24105,-36.77728c-5.05107,-15.21238 -22.01216,-32.6327 -43.62987,-37.15151c-18.1225,-3.79842 -50.60934,-8.1956 -78.15467,15.60532z" fill="#594A42"/>
    <g stroke="null" id="svg_1446">
     <path stroke="null" id="svg_1447" d="m95.47829,114.8974c3.23225,7.92428 5.73039,15.56789 1.88457,16.69993c-3.81296,1.1414 -12.51264,-4.64979 -15.75584,-12.56471c-3.23225,-7.92428 -2.75015,-15.27787 1.08472,-16.40991c3.82391,-1.15075 9.55431,4.3504 12.78656,12.27469z" fill="#E4C092"/>
     <path stroke="null" id="svg_1448" d="m81.22353,109.69563c0,-1.20689 0.18627,-2.40442 0.7341,-3.59259c0.15339,-0.29938 0.33966,-0.58941 0.59167,-0.87008c0.27392,-0.28067 0.63549,-0.5707 1.18333,-0.71103c0.5588,-0.13098 1.16142,-0.02807 1.57778,0.14034c0.44923,0.1684 0.78889,0.4023 1.08472,0.61748c2.23518,1.84307 3.63765,3.94811 5.00725,6.09056c1.2929,2.17052 2.38858,4.40654 3.21033,6.70804c0.8108,2.29215 1.42438,4.6685 1.50108,7.06356c-0.90941,-2.27344 -1.92839,-4.48138 -3.01311,-6.64255c-1.10663,-2.17052 -2.2571,-4.32234 -3.53904,-6.40866c-0.61358,-1.05719 -1.30386,-2.08632 -1.99413,-3.09674c-0.71219,-1.01042 -1.46821,-1.98341 -2.32284,-2.83478c-0.39444,-0.4023 -0.8875,-0.64554 -1.18333,-0.60812c-0.37253,0.00936 -0.87654,0.42101 -1.20525,0.89815c-0.7341,0.97299 -1.20525,2.11439 -1.63256,3.24643z" fill="#B98A63"/>
    </g>
    <g stroke="null" id="svg_1449">
     <path stroke="null" id="svg_1450" d="m208.54124,114.8974c-3.23225,7.92428 -5.71944,15.56789 -1.88457,16.69993c3.82391,1.1414 12.52359,-4.64979 15.75584,-12.56471c3.23225,-7.92428 2.73919,-15.27787 -1.08472,-16.40991c-3.82391,-1.15075 -9.54335,4.3504 -12.78656,12.27469z" fill="#E4C092"/>
     <path stroke="null" id="svg_1451" d="m222.80696,109.69563c0,-1.20689 -0.19722,-2.40442 -0.7341,-3.59259c-0.15339,-0.29938 -0.33966,-0.58941 -0.59167,-0.87008c-0.27392,-0.28067 -0.64645,-0.5707 -1.19429,-0.71103c-0.5588,-0.13098 -1.15046,-0.02807 -1.56682,0.14034c-0.43827,0.1684 -0.78889,0.4023 -1.09568,0.61748c-2.22423,1.84307 -3.63765,3.94811 -5.00725,6.09056c-1.2929,2.17052 -2.38858,4.40654 -3.21033,6.70804c-0.82176,2.29215 -1.43534,4.6685 -1.50108,7.06356c0.92037,-2.27344 1.92839,-4.48138 3.01311,-6.64255c1.10663,-2.17052 2.26805,-4.32234 3.52808,-6.40866c0.62454,-1.05719 1.30386,-2.08632 2.00509,-3.09674c0.70123,-1.01042 1.46821,-1.98341 2.31188,-2.83478c0.42731,-0.4023 0.8875,-0.64554 1.19429,-0.60812c0.37253,0.00936 0.86559,0.42101 1.20525,0.89815c0.7341,0.97299 1.19429,2.11439 1.64352,3.24643z" fill="#B98A63"/>
    </g>
   </g>
   <g stroke="null" id="svg_1452">
    <polygon stroke="null" id="svg_1453" points="171.34292602539062,201.25054359436035 151.9933624267578,215.1156406402588 132.62173461914062,201.25054359436035 151.9933624267578,187.39473915100098 "/>
    <rect stroke="null" id="svg_1454" height="6.8858" width="14.36433" y="211.11148" x="144.58655"/>
    <polygon stroke="null" id="svg_1455" points="152.10287475585938,287.3416996002197 157.31826782226562,281.4851322174072 149.2979736328125,284.2076358795166 "/>
    <polygon stroke="null" id="svg_1456" points="147.80784606933594,282.5235233306885 160.1231689453125,278.3321781158447 165.07574462890625,272.76555824279785 145.1343536376953,279.5297794342041 "/>
    <polygon stroke="null" id="svg_1457" points="171.83596801757812,264.38286781311035 171.29913330078125,276.3488712310791 170.3568572998047,272.77495765686035 169.83090209960938,270.7635135650635 168.88864135742188,267.1895694732666 168.36282348632812,265.16875648498535 167.42041015625,261.6042728424072 166.87269592285156,259.5833683013916 165.94131469726562,256.0188846588135 165.40443420410156,253.9980411529541 164.46217346191406,250.43352699279785 163.92518615722656,248.41265296936035 162.9939422607422,244.8387393951416 162.4571075439453,242.82729530334473 161.50381469726562,239.2628116607666 160.96697998046875,237.24195289611816 160.03558349609375,233.66802406311035 159.49871826171875,231.65659523010254 158.55645751953125,228.08266639709473 158.03048706054688,226.06194496154785 157.08822631835938,222.4879856109619 156.5513916015625,220.46717262268066 155.89401245117188,217.99732398986816 152.10287475585938,217.8569278717041 148.3008575439453,217.99732398986816 146.76695251464844,223.8071231842041 146.1314697265625,226.20228004455566 145.00294494628906,230.48711585998535 144.36729431152344,232.90085792541504 143.22793579101562,237.1764316558838 142.59242248535156,239.5808811187744 141.4748077392578,243.86585426330566 140.82827758789062,246.2795810699463 139.6997528076172,250.54570960998535 139.06446838378906,252.95961952209473 137.94664001464844,257.22576332092285 137.30027770996094,259.648889541626 136.1717987060547,263.92449378967285 135.53614807128906,266.32891273498535 134.40762329101562,270.6043643951416 133.77232360839844,273.0182132720947 132.6544952392578,263.3163089752197 132.20542907714844,264.99102210998535 132.6544952392578,265.5055179595947 135.31712341308594,268.4899845123291 136.81814575195312,270.1833438873291 139.49160766601562,273.1678104400635 140.9817657470703,274.8425235748291 143.64437866210938,277.8364200592041 145.1343536376953,279.5297794342041 165.07574462890625,272.76555824279785 167.88064575195312,269.61272621154785 172.00047302246094,264.99102210998535 "/>
    <polygon stroke="null" id="svg_1458" points="149.2979736328125,284.2076358795166 157.31826782226562,281.4851322174072 160.1231689453125,278.3321781158447 147.80784606933594,282.5235233306885 "/>
   </g>
   <g stroke="null" id="svg_1459">
    <path stroke="null" id="svg_1460" d="m110.87256,167.02739l41.12077,20.41415l-13.52066,24.57744l-32.1143,-25.4101c0,0 -8.44767,-1.85243 -5.64274,-5.09886c2.81589,-3.23707 9.60909,-6.1467 10.15693,-14.48263z" fill="#DBE2E4"/>
    <path stroke="null" id="svg_1461" d="m193.15793,167.10224l-41.05503,20.3393l13.49875,24.50259l32.08143,-25.3259c0,0 8.44767,-1.85243 5.63178,-5.08015c-2.81589,-3.22772 -9.62005,-6.12799 -10.15693,-14.43585z" fill="#DBE2E4"/>
   </g>
   <path stroke="null" id="svg_1462" d="m75.274,192.7743c0,0 -38.6555,5.19242 -45.76645,14.21132c-7.1219,9.00954 0,74.58369 0,74.58369l122.48578,7.83073l0,-9.85156l-51.84746,-92.1537l-24.87188,5.37953z"/>
   <polygon stroke="null" id="svg_1463" points="151.9933624267578,279.5484867095947 104.94490051269531,177.7677707672119 89.17815399169922,189.09751319885254 72.69903564453125,196.64751625061035 92.88151550292969,225.43511390686035 102.17276763916016,225.2760715484619 96.26722717285156,241.9385166168213 "/>
   <path stroke="null" id="svg_1464" d="m29.50755,206.99497l27.46863,76.3332c0,0 -36.10257,-1.41271 -38.64454,-1.75887c-2.54197,-0.33681 -1.61065,-67.61369 11.17591,-74.57433z"/>
   <path stroke="null" id="svg_1465" d="m228.70171,192.7743c0,0 38.66646,5.19242 45.7774,14.21132c7.11095,9.00954 0,74.58369 0,74.58369l-122.49673,7.83073l0.01096,-9.85156l51.8365,-92.1537l24.87188,5.37953z"/>
   <polygon stroke="null" id="svg_1466" points="152.00442504882812,279.5484867095947 199.0416717529297,177.7677707672119 214.80853271484375,188.25554847717285 232.76661682128906,196.64751625061035 211.11607360839844,225.43511390686035 201.81381225585938,225.2760715484619 207.73036193847656,241.9385166168213 "/>
   <path stroke="null" id="svg_1467" d="m274.49006,206.99497l-27.46863,76.3332c0,0 36.11353,-1.41271 38.6555,-1.75887c2.53101,-0.33681 1.58873,-67.61369 -11.18687,-74.57433z"/>
   <path stroke="null" id="svg_1468" d="m220.70326,83.36867c-2.26805,1.8805 -4.81002,3.63937 -7.61496,5.29533c3.52808,-1.62789 6.15771,-3.39612 7.61496,-5.29533z" fill="#DBE2E4"/>
   <path stroke="null" id="svg_1469" d="m93.5499,88.67336c-2.81589,-1.65596 -5.36882,-3.42419 -7.64783,-5.30469c1.45725,1.89921 4.09783,3.67679 7.64783,5.30469z" fill="#DBE2E4"/>
   <path stroke="null" id="svg_1470" d="m200.7181,69.69999c-12.50168,8.43885 -28.90397,13.70611 -49.30548,13.70611c-19.54688,0 -35.43421,-4.80883 -47.72771,-12.6302c-8.38193,4.36911 -13.42205,9.85156 -13.42205,15.8205c0,1.74016 0.43827,3.45226 1.26003,5.09886c2.09274,2.68509 4.42654,5.22048 7.01234,7.58748c10.84721,7.77459 31.3035,13.01379 54.78387,13.01379c23.50228,0 43.95858,-5.25791 54.80578,-13.0325c2.57484,-2.35764 4.89768,-4.89303 6.97947,-7.55941c0.8108,-1.65596 1.26003,-3.36805 1.26003,-5.10822c-0.01096,-6.47415 -5.92761,-12.38695 -15.64627,-16.8964z"/>
   <path stroke="null" id="svg_1471" d="m232.76667,61.79441c0,-22.56596 -35.57665,-51.19442 -79.45853,-51.19442s-79.45853,28.62846 -79.45853,51.19442c0,7.92428 4.45941,15.30593 12.05245,21.5649c-0.8875,-1.15075 29.4299,-15.38078 67.40607,-15.38078c37.97618,0 68.28262,14.23003 67.39512,15.39014c7.604,-6.25897 12.06341,-13.64062 12.06341,-21.57426z"/>
   <path stroke="null" id="svg_1472" d="m102.21671,24.48386c12.33733,-4.00424 30.5694,-8.15818 51.09144,-8.15818c20.53299,0 38.77602,4.16329 51.11335,8.17689c-13.82745,-8.24238 -31.64316,-13.90258 -51.11335,-13.90258c-19.45923,0 -37.26399,5.65085 -51.09144,13.88387z"/>
   <path stroke="null" id="svg_1473" d="m153.30814,55.08637c-36.00396,0 -66.36518,13.49093 -76.12767,18.33718c2.05987,3.5271 5.0182,6.86709 8.72159,9.9264c-0.8875,-1.15075 29.4299,-15.38078 67.40607,-15.38078c37.97618,0 68.28262,14.23003 67.39512,15.39014c3.7253,-3.06867 6.68363,-6.40866 8.73255,-9.93576c-9.75153,-4.84626 -40.12371,-18.33718 -76.12767,-18.33718z"/>
   <path stroke="null" id="svg_1474" d="m153.30814,61.79441c-39.34578,0 -71.2519,18.00038 -71.2519,18.00038s0.49305,2.41377 1.41342,3.56452c2.35571,1.8805 4.99629,3.65808 7.92175,5.30469c12.26063,5.43567 35.37942,9.11246 61.91673,9.11246c26.55922,0 49.67801,-3.67679 61.92769,-9.11246c2.9145,-1.65596 5.54413,-3.41483 7.88888,-5.29533c0.93133,-1.16011 1.41342,-3.57388 1.41342,-3.57388s-31.88421,-18.00038 -71.22999,-18.00038z" fill="#FFB300"/>
  </g>
 </g>
</svg>