<svg width="304" height="300" xmlns="http://www.w3.org/2000/svg">

 <g>
  <title>background</title>
  <rect fill="none" id="canvas_background" height="302" width="306" y="-1" x="-1"/>
 </g>
 <g>
  <title>Layer 1</title>
  <path id="svg_627" d="m-140.001,308.157c0.504,-0.084 1.164,-0.155 2.003,-0.155c1.032,0 1.787,0.239 2.268,0.672c0.443,0.383 0.707,0.971 0.707,1.69c0,0.732 -0.216,1.308 -0.624,1.728c-0.551,0.587 -1.451,0.887 -2.47,0.887c-0.313,0 -0.601,-0.012 -0.84,-0.072l0,3.238l-1.044,0l0,-7.988zm1.044,3.897c0.228,0.06 0.516,0.084 0.863,0.084c1.26,0 2.027,-0.611 2.027,-1.727c0,-1.067 -0.756,-1.583 -1.907,-1.583c-0.456,0 -0.804,0.036 -0.983,0.084l0,3.142z" fill="#6D6E71"/>
  <path id="svg_628" d="m-133.844,312.151c0,-0.684 -0.013,-1.271 -0.049,-1.811l0.924,0l0.036,1.14l0.048,0c0.264,-0.779 0.899,-1.27 1.607,-1.27c0.12,0 0.203,0.012 0.3,0.035l0,0.996c-0.108,-0.024 -0.216,-0.037 -0.36,-0.037c-0.743,0 -1.271,0.565 -1.415,1.355c-0.023,0.145 -0.048,0.313 -0.048,0.492l0,3.094l-1.043,0l0,-3.994z" fill="#6D6E71"/>
  <path id="svg_629" d="m43.167,260.96l0,1.016l0.922,0l0,0.49l-0.922,0l0,1.908c0,0.439 0.124,0.688 0.483,0.688c0.168,0 0.292,-0.022 0.373,-0.043l0.029,0.482c-0.124,0.051 -0.321,0.088 -0.57,0.088c-0.299,0 -0.541,-0.095 -0.694,-0.271c-0.183,-0.19 -0.249,-0.504 -0.249,-0.921l0,-1.931l-0.549,0l0,-0.49l0.548,0l0,-0.848l0.629,-0.168z" fill="#6D6E71"/>
  <g id="svg_1085">
   <g id="svg_1086">
    <path id="svg_1087" d="m-21.123,-185.963l-0.591,0c-0.13,0 -0.236,-0.105 -0.236,-0.236c0,-0.13 0.105,-0.236 0.236,-0.236l0.591,0c0.13,0 0.236,0.105 0.236,0.236c0,0.13 -0.105,0.236 -0.236,0.236z" fill="#666666"/>
   </g>
   <g id="svg_1088">
    <path id="svg_1089" d="m0.904,-185.963l-21.32,0c-0.13,0 -0.236,-0.105 -0.236,-0.236c0,-0.13 0.105,-0.236 0.236,-0.236l21.32,0c0.13,0 0.236,0.105 0.236,0.236c0,0.13 -0.105,0.236 -0.236,0.236z" fill="#666666"/>
   </g>
  </g>
  <path id="svg_1346" d="m20.867,-132.727l-0.796,0l0,-0.287l1.938,0l0,0.287l-0.8,0l0,2.33l-0.342,0l0,-2.33z" fill="#6D6E71"/>
  <path id="svg_1347" d="m22.624,-132.805c0.004,0.117 -0.082,0.21 -0.218,0.21c-0.12,0 -0.206,-0.093 -0.206,-0.21c0,-0.12 0.089,-0.213 0.214,-0.213c0.128,0 0.21,0.093 0.21,0.213zm-0.38,2.408l0,-1.88l0.342,0l0,1.88l-0.342,0z" fill="#6D6E71"/>
  <path id="svg_1348" d="m23.153,-131.768c0,-0.194 -0.004,-0.353 -0.016,-0.508l0.299,0l0.015,0.303l0.012,0c0.105,-0.179 0.28,-0.346 0.59,-0.346c0.256,0 0.45,0.155 0.532,0.377l0.008,0c0.058,-0.105 0.132,-0.187 0.21,-0.245c0.113,-0.085 0.237,-0.132 0.416,-0.132c0.249,0 0.618,0.163 0.618,0.816l0,1.107l-0.334,0l0,-1.064c0,-0.361 -0.132,-0.579 -0.408,-0.579c-0.194,0 -0.346,0.144 -0.404,0.311c-0.015,0.047 -0.027,0.109 -0.027,0.171l0,1.161l-0.334,0l0,-1.126c0,-0.299 -0.132,-0.516 -0.392,-0.516c-0.213,0 -0.369,0.171 -0.423,0.342c-0.02,0.05 -0.027,0.108 -0.027,0.167l0,1.134l-0.334,0l0,-1.373l-0.001,0z" fill="#6D6E71"/>
  <path id="svg_1349" d="m26.583,-131.274c0.008,0.462 0.303,0.652 0.645,0.652c0.245,0 0.392,-0.043 0.52,-0.097l0.058,0.245c-0.12,0.054 -0.326,0.117 -0.625,0.117c-0.579,0 -0.924,-0.381 -0.924,-0.948c0,-0.567 0.334,-1.013 0.882,-1.013c0.613,0 0.777,0.54 0.777,0.885c0,0.07 -0.008,0.124 -0.012,0.159l-1.321,0zm1.003,-0.245c0.004,-0.217 -0.089,-0.555 -0.474,-0.555c-0.346,0 -0.497,0.318 -0.524,0.555l0.998,0z" fill="#6D6E71"/>
  <path id="svg_1350" d="m31.381,-131.546c-0.019,-0.365 -0.043,-0.804 -0.039,-1.13l-0.012,0c-0.089,0.307 -0.198,0.633 -0.33,0.994l-0.462,1.27l-0.256,0l-0.423,-1.247c-0.124,-0.369 -0.229,-0.707 -0.303,-1.017l-0.008,0c-0.008,0.326 -0.027,0.765 -0.05,1.157l-0.07,1.123l-0.323,0l0.183,-2.618l0.431,0l0.447,1.266c0.109,0.322 0.198,0.61 0.264,0.882l0.012,0c0.066,-0.264 0.159,-0.551 0.276,-0.882l0.466,-1.266l0.431,0l0.163,2.618l-0.33,0l-0.067,-1.15z" fill="#6D6E71"/>
  <path id="svg_1351" d="m33.352,-130.397l-0.027,-0.237l-0.012,0c-0.105,0.147 -0.307,0.28 -0.575,0.28c-0.38,0 -0.575,-0.268 -0.575,-0.54c0,-0.454 0.404,-0.703 1.13,-0.699l0,-0.039c0,-0.155 -0.043,-0.435 -0.427,-0.435c-0.175,0 -0.357,0.054 -0.49,0.14l-0.077,-0.225c0.155,-0.101 0.38,-0.167 0.617,-0.167c0.575,0 0.715,0.392 0.715,0.769l0,0.703c0,0.163 0.008,0.322 0.031,0.451l-0.31,0l0,-0.001zm-0.051,-0.959c-0.373,-0.008 -0.796,0.058 -0.796,0.423c0,0.221 0.147,0.326 0.322,0.326c0.245,0 0.4,-0.156 0.454,-0.315c0.012,-0.035 0.019,-0.074 0.019,-0.109l0,-0.325l0.001,0z" fill="#6D6E71"/>
  <path id="svg_1352" d="m34.184,-131.768c0,-0.194 -0.004,-0.353 -0.016,-0.508l0.303,0l0.02,0.311l0.008,0c0.093,-0.179 0.311,-0.353 0.621,-0.353c0.26,0 0.664,0.155 0.664,0.8l0,1.123l-0.342,0l0,-1.084c0,-0.303 -0.113,-0.555 -0.435,-0.555c-0.225,0 -0.4,0.159 -0.458,0.349c-0.015,0.043 -0.023,0.101 -0.023,0.159l0,1.13l-0.342,0l0,-1.372z" fill="#6D6E71"/>
  <path id="svg_1353" d="m37.381,-130.397l-0.027,-0.237l-0.012,0c-0.105,0.147 -0.307,0.28 -0.575,0.28c-0.38,0 -0.575,-0.268 -0.575,-0.54c0,-0.454 0.404,-0.703 1.13,-0.699l0,-0.039c0,-0.155 -0.043,-0.435 -0.427,-0.435c-0.175,0 -0.357,0.054 -0.49,0.14l-0.077,-0.225c0.155,-0.101 0.38,-0.167 0.617,-0.167c0.575,0 0.715,0.392 0.715,0.769l0,0.703c0,0.163 0.008,0.322 0.031,0.451l-0.31,0l0,-0.001zm-0.05,-0.959c-0.373,-0.008 -0.796,0.058 -0.796,0.423c0,0.221 0.147,0.326 0.322,0.326c0.245,0 0.4,-0.156 0.454,-0.315c0.012,-0.035 0.019,-0.074 0.019,-0.109l0,-0.325l0.001,0z" fill="#6D6E71"/>
  <path id="svg_1354" d="m39.833,-132.276c-0.008,0.136 -0.015,0.287 -0.015,0.516l0,1.091c0,0.431 -0.085,0.695 -0.268,0.858c-0.182,0.171 -0.447,0.225 -0.683,0.225c-0.225,0 -0.474,-0.054 -0.625,-0.155l0.085,-0.26c0.124,0.077 0.318,0.147 0.551,0.147c0.349,0 0.606,-0.182 0.606,-0.656l0,-0.21l-0.008,0c-0.105,0.175 -0.307,0.315 -0.598,0.315c-0.466,0 -0.8,-0.396 -0.8,-0.916c0,-0.637 0.416,-0.998 0.847,-0.998c0.326,0 0.505,0.171 0.586,0.326l0.008,0l0.015,-0.283l0.299,0zm-0.354,0.741c0,-0.058 -0.004,-0.109 -0.019,-0.155c-0.062,-0.198 -0.229,-0.361 -0.478,-0.361c-0.326,0 -0.559,0.276 -0.559,0.711c0,0.369 0.186,0.676 0.555,0.676c0.21,0 0.4,-0.132 0.474,-0.349c0.02,-0.058 0.027,-0.124 0.027,-0.182l0,-0.34z" fill="#6D6E71"/>
  <path id="svg_1355" d="m40.576,-131.274c0.008,0.462 0.303,0.652 0.645,0.652c0.245,0 0.392,-0.043 0.52,-0.097l0.058,0.245c-0.12,0.054 -0.326,0.117 -0.625,0.117c-0.579,0 -0.924,-0.381 -0.924,-0.948c0,-0.567 0.334,-1.013 0.882,-1.013c0.613,0 0.777,0.54 0.777,0.885c0,0.07 -0.008,0.124 -0.012,0.159l-1.321,0zm1.002,-0.245c0.004,-0.217 -0.089,-0.555 -0.474,-0.555c-0.346,0 -0.497,0.318 -0.524,0.555l0.998,0z" fill="#6D6E71"/>
  <path id="svg_1356" d="m42.332,-131.768c0,-0.194 -0.004,-0.353 -0.016,-0.508l0.299,0l0.015,0.303l0.012,0c0.105,-0.179 0.28,-0.346 0.59,-0.346c0.256,0 0.45,0.155 0.532,0.377l0.008,0c0.058,-0.105 0.132,-0.187 0.21,-0.245c0.113,-0.085 0.237,-0.132 0.416,-0.132c0.249,0 0.618,0.163 0.618,0.816l0,1.107l-0.334,0l0,-1.064c0,-0.361 -0.132,-0.579 -0.408,-0.579c-0.194,0 -0.346,0.144 -0.404,0.311c-0.015,0.047 -0.027,0.109 -0.027,0.171l0,1.161l-0.334,0l0,-1.126c0,-0.299 -0.132,-0.516 -0.392,-0.516c-0.213,0 -0.369,0.171 -0.423,0.342c-0.02,0.05 -0.027,0.108 -0.027,0.167l0,1.134l-0.334,0l0,-1.373l-0.001,0z" fill="#6D6E71"/>
  <path id="svg_1357" d="m45.763,-131.274c0.008,0.462 0.303,0.652 0.645,0.652c0.245,0 0.392,-0.043 0.52,-0.097l0.058,0.245c-0.12,0.054 -0.326,0.117 -0.625,0.117c-0.579,0 -0.924,-0.381 -0.924,-0.948c0,-0.567 0.334,-1.013 0.882,-1.013c0.613,0 0.777,0.54 0.777,0.885c0,0.07 -0.008,0.124 -0.012,0.159l-1.321,0zm1.002,-0.245c0.004,-0.217 -0.089,-0.555 -0.474,-0.555c-0.346,0 -0.497,0.318 -0.524,0.555l0.998,0z" fill="#6D6E71"/>
  <path id="svg_1358" d="m47.52,-131.768c0,-0.194 -0.004,-0.353 -0.016,-0.508l0.303,0l0.02,0.311l0.008,0c0.093,-0.179 0.311,-0.353 0.621,-0.353c0.26,0 0.664,0.155 0.664,0.8l0,1.123l-0.342,0l0,-1.084c0,-0.303 -0.113,-0.555 -0.435,-0.555c-0.225,0 -0.4,0.159 -0.458,0.349c-0.015,0.043 -0.023,0.101 -0.023,0.159l0,1.13l-0.342,0l0,-1.372z" fill="#6D6E71"/>
  <path id="svg_1359" d="m50.072,-132.816l0,0.54l0.49,0l0,0.26l-0.49,0l0,1.014c0,0.233 0.066,0.365 0.256,0.365c0.089,0 0.155,-0.012 0.198,-0.023l0.015,0.256c-0.066,0.027 -0.171,0.047 -0.303,0.047c-0.159,0 -0.287,-0.051 -0.369,-0.144c-0.097,-0.101 -0.132,-0.268 -0.132,-0.489l0,-1.025l-0.291,0l0,-0.26l0.291,0l0,-0.451l0.335,-0.09z" fill="#6D6E71"/>
  <g stroke="null" id="svg_1609">
   <g stroke="null" id="svg_265">
    <path stroke="null" id="svg_266" d="m161.1876,257.0301c-49.04629,0 -88.93498,-37.5414 -88.93498,-83.66554c0,-46.12414 39.90584,-83.66554 88.93498,-83.66554s88.93498,37.5414 88.93498,83.66554c0.00857,46.12414 -39.88012,83.66554 -88.93498,83.66554l0,0zm0,-161.57162c-45.65935,0 -82.81277,34.95206 -82.81277,77.90607c0,42.95401 37.15342,77.90607 82.81277,77.90607s82.81277,-34.95206 82.81277,-77.90607c0,-42.95401 -37.15342,-77.90607 -82.81277,-77.90607z" fill="#666666" clip-rule="evenodd" fill-rule="evenodd"/>
   </g>
   <g stroke="null" id="svg_267">
    <path stroke="null" id="svg_268" d="m161.1876,280.1325c-62.56831,0 -113.49242,-47.8907 -113.49242,-106.76794s50.90696,-106.76794 113.49242,-106.76794s113.49242,47.8907 113.49242,106.76794s-50.91553,106.76794 -113.49242,106.76794l0,0zm0,-207.75222c-59.18138,0 -107.35306,45.30136 -107.35306,100.98428c0,55.68292 48.16311,100.99234 107.35306,100.99234c59.18995,0 107.35306,-45.30942 107.35306,-100.99234c0,-55.68292 -48.14596,-100.98428 -107.35306,-100.98428z" fill="#FFB300" clip-rule="evenodd" fill-rule="evenodd"/>
   </g>
   <g stroke="null" id="svg_269">
    <g stroke="null" id="svg_270">
     <path stroke="null" id="svg_271" d="m210.54257,129.82976c-0.78886,0 -1.56914,-0.29039 -2.16935,-0.85505c-1.19186,-1.12124 -1.19186,-2.9604 0,-4.08164l11.36982,-10.70422c1.20043,-1.12931 3.14685,-1.12931 4.33871,0c1.19186,1.12124 1.19186,2.9604 0,4.08164l-11.3784,10.70422c-0.60022,0.56465 -1.38907,0.85505 -2.16078,0.85505z" fill="#666666" clip-rule="evenodd" fill-rule="evenodd"/>
    </g>
    <g stroke="null" id="svg_272">
     <path stroke="null" id="svg_273" d="m100.47139,233.37918c-0.78886,0 -1.56914,-0.29039 -2.17793,-0.85505c-1.19186,-1.12124 -1.19186,-2.9604 0,-4.08164l11.3784,-10.70422c1.19186,-1.12124 3.14685,-1.12124 4.33871,0c1.20043,1.12124 1.20043,2.9604 0,4.08164l-11.3784,10.70422c-0.59164,0.57272 -1.3805,0.85505 -2.16078,0.85505z" fill="#666666" clip-rule="evenodd" fill-rule="evenodd"/>
    </g>
    <g stroke="null" id="svg_274">
     <path stroke="null" id="svg_275" d="m247.06148,176.24429l-16.10296,0c-1.69776,0 -3.06111,-1.28257 -3.06111,-2.87973c0,-1.5891 1.36335,-2.87973 3.06111,-2.87973l16.10296,0c1.69776,0 3.06111,1.29064 3.06111,2.87973c0.00857,1.59716 -1.3462,2.87973 -3.06111,2.87973z" fill="#666666" clip-rule="evenodd" fill-rule="evenodd"/>
    </g>
    <g stroke="null" id="svg_276">
     <path stroke="null" id="svg_277" d="m91.40811,176.24429l-16.10296,0c-1.68918,0 -3.06111,-1.28257 -3.06111,-2.87973c0,-1.5891 1.37192,-2.87973 3.06111,-2.87973l16.10296,0c1.69776,0 3.06111,1.29064 3.06111,2.87973c0,1.59716 -1.36335,2.87973 -3.06111,2.87973z" fill="#666666" clip-rule="evenodd" fill-rule="evenodd"/>
    </g>
    <g stroke="null" id="svg_278">
     <path stroke="null" id="svg_279" d="m161.1876,110.60734c-1.68918,0 -3.06111,-1.28257 -3.06111,-2.87973l0,-15.14885c0,-1.5891 1.37192,-2.87973 3.06111,-2.87973c1.69776,0 3.06111,1.29064 3.06111,2.87973l0,15.14885c0.01715,1.58103 -1.37192,2.87973 -3.06111,2.87973z" fill="#666666" clip-rule="evenodd" fill-rule="evenodd"/>
    </g>
    <g stroke="null" id="svg_280">
     <path stroke="null" id="svg_281" d="m161.1876,257.0301c-1.68918,0 -3.06111,-1.28257 -3.06111,-2.87973l0,-15.14885c0,-1.59716 1.37192,-2.87973 3.06111,-2.87973c1.69776,0 3.06111,1.28257 3.06111,2.87973l0,15.14885c0.01715,1.59716 -1.37192,2.87973 -3.06111,2.87973z" fill="#666666" clip-rule="evenodd" fill-rule="evenodd"/>
    </g>
    <g stroke="null" id="svg_282">
     <path stroke="null" id="svg_283" d="m111.84121,129.82976c-0.78886,0 -1.56914,-0.29039 -2.16935,-0.85505l-11.3784,-10.70422c-1.19186,-1.12124 -1.19186,-2.9604 0,-4.08164c1.20043,-1.12931 3.14685,-1.12931 4.33871,0l11.3784,10.70422c1.20043,1.12124 1.20043,2.9604 0,4.08164c-0.58307,0.56465 -1.37192,0.85505 -2.16935,0.85505z" fill="#666666" clip-rule="evenodd" fill-rule="evenodd"/>
    </g>
    <g stroke="null" id="svg_284">
     <path stroke="null" id="svg_285" d="m221.92097,233.37918c-0.78886,0 -1.56056,-0.29039 -2.16935,-0.85505l-11.36982,-10.70422c-1.19186,-1.12124 -1.19186,-2.9604 0,-4.08164c1.19186,-1.12124 3.13828,-1.12124 4.33871,0l11.3784,10.70422c1.19186,1.12124 1.19186,2.9604 0,4.08164c-0.61737,0.57272 -1.38907,0.85505 -2.17793,0.85505z" fill="#666666" clip-rule="evenodd" fill-rule="evenodd"/>
    </g>
   </g>
   <g stroke="null" id="svg_286">
    <path stroke="null" id="svg_287" d="m169.25623,167.5083c-0.78886,0 -1.56056,-0.29039 -2.16935,-0.85505c-1.19186,-1.12124 -1.19186,-2.9604 0,-4.08164l17.34627,-16.31849c1.20043,-1.12931 3.14685,-1.12931 4.33871,0c1.19186,1.12124 1.19186,2.9604 0,4.08164l-17.34627,16.31849c-0.60022,0.56465 -1.3805,0.85505 -2.16935,0.85505z" clip-rule="evenodd" fill-rule="evenodd"/>
   </g>
   <g stroke="null" id="svg_288">
    <path stroke="null" id="svg_289" d="m144.0214,191.25602c-0.78886,0 -1.56914,-0.29039 -2.16935,-0.85505c-1.19186,-1.12124 -1.19186,-2.95233 0,-4.08164l7.87999,-7.4131c1.19186,-1.12931 3.14685,-1.12931 4.33871,0c1.19186,1.12124 1.19186,2.9604 0,4.08164l-7.87999,7.4131c-0.60879,0.57272 -1.39765,0.85505 -2.16935,0.85505z" clip-rule="evenodd" fill-rule="evenodd"/>
   </g>
   <path stroke="null" id="svg_290" d="m160.57881,187.20664c-3.93571,0 -7.85427,-1.40357 -10.84677,-4.21877c-5.97644,-5.62234 -5.97644,-14.78586 0,-20.4082c5.97644,-5.62234 15.71711,-5.62234 21.69355,0l0,0c5.97644,5.62234 5.97644,14.77779 0,20.4082c-2.99251,2.80714 -6.91964,4.21877 -10.84677,4.21877z" clip-rule="evenodd" fill-rule="evenodd"/>
   <g stroke="null" id="svg_291">
    <path stroke="null" id="svg_292" d="m173.4749,73.01754c-1.68918,0 -3.06111,-1.29064 -3.06111,-2.87973l0,-21.41651l-18.41808,0l0,21.41651c0,1.5891 -1.36335,2.87973 -3.06111,2.87973c-1.69776,0 -3.06111,-1.29064 -3.06111,-2.87973l0,-24.29624c0,-1.5891 1.36335,-2.87973 3.06111,-2.87973l24.53172,0c1.69776,0 3.06111,1.29064 3.06111,2.87973l0,24.31237c0.00857,1.57296 -1.37192,2.8636 -3.05253,2.8636z" fill="#FFB300" clip-rule="evenodd" fill-rule="evenodd"/>
   </g>
   <g stroke="null" id="svg_293">
    <path stroke="null" id="svg_294" d="m90.65355,45.82543l-45.99376,0c-1.69776,0 -3.06111,-1.28257 -3.06111,-2.87973c0,-1.5891 1.36335,-2.87973 3.06111,-2.87973l45.99376,0c1.69776,0 3.06111,1.29064 3.06111,2.87973c0.00857,1.5891 -1.37192,2.87973 -3.06111,2.87973z" fill="#666666" clip-rule="evenodd" fill-rule="evenodd"/>
   </g>
   <g stroke="null" id="svg_295">
    <path stroke="null" id="svg_296" d="m96.78434,60.26443l-64.41184,0c-1.69776,0 -3.06111,-1.28257 -3.06111,-2.87973c0,-1.5891 1.36335,-2.87973 3.06111,-2.87973l64.40326,-0.00807c1.68918,0 3.06111,1.29064 3.06111,2.87973c0.02572,1.5891 -1.37192,2.8878 -3.05253,2.8878z" fill="#666666" clip-rule="evenodd" fill-rule="evenodd"/>
   </g>
   <g stroke="null" id="svg_297">
    <path stroke="null" id="svg_298" d="m78.38341,74.67923l-55.2028,0c-1.68918,0 -3.06111,-1.28257 -3.06111,-2.87973c0,-1.59716 1.37192,-2.87973 3.06111,-2.87973l55.2028,0c1.68918,0 3.06111,1.28257 3.06111,2.87973c0,1.59716 -1.36335,2.87973 -3.06111,2.87973z" fill="#666666" clip-rule="evenodd" fill-rule="evenodd"/>
   </g>
   <g stroke="null" id="svg_299">
    <path stroke="null" id="svg_300" d="m59.98248,89.1021l-27.60997,0c-1.69776,0 -3.06111,-1.29064 -3.06111,-2.87973c0,-1.59716 1.36335,-2.87973 3.06111,-2.87973l27.60997,0c1.68918,0 3.06111,1.28257 3.06111,2.87973c0,1.5891 -1.37192,2.87973 -3.06111,2.87973z" fill="#666666" clip-rule="evenodd" fill-rule="evenodd"/>
   </g>
   <g stroke="null" id="svg_301">
    <path stroke="null" id="svg_302" d="m259.34877,71.80756c-13.52203,0 -24.52314,-10.35736 -24.52314,-23.0782s11.00112,-23.0782 24.52314,-23.0782c13.52203,0 24.53172,10.35736 24.53172,23.0782c-0.00857,12.71277 -11.00969,23.0782 -24.53172,23.0782l0,0zm0,-40.405c-10.15224,0 -18.40093,7.75995 -18.40093,17.31873c0,9.55071 8.24869,17.31873 18.40093,17.31873c10.15224,0 18.40951,-7.76802 18.40951,-17.31873c-0.02572,-9.55071 -8.27442,-17.31873 -18.40951,-17.31873z" fill="#FFB300" clip-rule="evenodd" fill-rule="evenodd"/>
   </g>
   <g stroke="null" id="svg_303">
    <path stroke="null" id="svg_304" d="m47.7209,268.00052c-8.46306,0 -15.33125,-6.47738 -15.33125,-14.42287c0,-7.93742 6.88534,-14.4148 15.33125,-14.4148c8.46306,0 15.32268,6.47738 15.32268,14.4148c0,7.94548 -6.88534,14.42287 -15.32268,14.42287l0,0zm0,-23.0782c-5.08469,0 -9.20047,3.87998 -9.20047,8.65533s4.13292,8.65533 9.20047,8.65533c5.07612,0 9.20047,-3.88804 9.20047,-8.65533s-4.1415,-8.65533 -9.20047,-8.65533z" clip-rule="evenodd" fill-rule="evenodd"/>
   </g>
   <path stroke="null" id="svg_305" d="m194.93693,48.71323l-67.47294,0c-1.69776,0 -3.06111,-1.28257 -3.06111,-2.87973l0,-23.0782c0,-1.5891 1.36335,-2.87973 3.06111,-2.87973l67.47294,-0.00807c1.69776,0 3.06111,1.28257 3.06111,2.87973l0,23.07014c0,1.59716 -1.36335,2.89587 -3.06111,2.89587z" fill="#FFB300" clip-rule="evenodd" fill-rule="evenodd"/>
  </g>
 </g>
</svg>