<svg width="304" height="300" xmlns="http://www.w3.org/2000/svg">

 <g>
  <title>background</title>
  <rect fill="none" id="canvas_background" height="302" width="306" y="-1" x="-1"/>
 </g>
 <g>
  <title>Layer 1</title>
  <path id="svg_627" d="m-140.001,308.157c0.504,-0.084 1.164,-0.155 2.003,-0.155c1.032,0 1.787,0.239 2.268,0.672c0.443,0.383 0.707,0.971 0.707,1.69c0,0.732 -0.216,1.308 -0.624,1.728c-0.551,0.587 -1.451,0.887 -2.47,0.887c-0.313,0 -0.601,-0.012 -0.84,-0.072l0,3.238l-1.044,0l0,-7.988zm1.044,3.897c0.228,0.06 0.516,0.084 0.863,0.084c1.26,0 2.027,-0.611 2.027,-1.727c0,-1.067 -0.756,-1.583 -1.907,-1.583c-0.456,0 -0.804,0.036 -0.983,0.084l0,3.142z" fill="#6D6E71"/>
  <path id="svg_628" d="m-133.844,312.151c0,-0.684 -0.013,-1.271 -0.049,-1.811l0.924,0l0.036,1.14l0.048,0c0.264,-0.779 0.899,-1.27 1.607,-1.27c0.12,0 0.203,0.012 0.3,0.035l0,0.996c-0.108,-0.024 -0.216,-0.037 -0.36,-0.037c-0.743,0 -1.271,0.565 -1.415,1.355c-0.023,0.145 -0.048,0.313 -0.048,0.492l0,3.094l-1.043,0l0,-3.994z" fill="#6D6E71"/>
  <path id="svg_629" d="m43.167,260.96l0,1.016l0.922,0l0,0.49l-0.922,0l0,1.908c0,0.439 0.124,0.688 0.483,0.688c0.168,0 0.292,-0.022 0.373,-0.043l0.029,0.482c-0.124,0.051 -0.321,0.088 -0.57,0.088c-0.299,0 -0.541,-0.095 -0.694,-0.271c-0.183,-0.19 -0.249,-0.504 -0.249,-0.921l0,-1.931l-0.549,0l0,-0.49l0.548,0l0,-0.848l0.629,-0.168z" fill="#6D6E71"/>
  <g id="svg_1085">
   <g id="svg_1086">
    <path id="svg_1087" d="m-21.123,-185.963l-0.591,0c-0.13,0 -0.236,-0.105 -0.236,-0.236c0,-0.13 0.105,-0.236 0.236,-0.236l0.591,0c0.13,0 0.236,0.105 0.236,0.236c0,0.13 -0.105,0.236 -0.236,0.236z" fill="#666666"/>
   </g>
   <g id="svg_1088">
    <path id="svg_1089" d="m0.904,-185.963l-21.32,0c-0.13,0 -0.236,-0.105 -0.236,-0.236c0,-0.13 0.105,-0.236 0.236,-0.236l21.32,0c0.13,0 0.236,0.105 0.236,0.236c0,0.13 -0.105,0.236 -0.236,0.236z" fill="#666666"/>
   </g>
  </g>
  <g id="svg_1323">
   <circle id="svg_1324" r="0.339" cy="282.064" cx="152.962" fill="#41A700"/>
  </g>
  <path id="svg_1346" d="m20.867,-132.727l-0.796,0l0,-0.287l1.938,0l0,0.287l-0.8,0l0,2.33l-0.342,0l0,-2.33z" fill="#6D6E71"/>
  <path id="svg_1347" d="m22.624,-132.805c0.004,0.117 -0.082,0.21 -0.218,0.21c-0.12,0 -0.206,-0.093 -0.206,-0.21c0,-0.12 0.089,-0.213 0.214,-0.213c0.128,0 0.21,0.093 0.21,0.213zm-0.38,2.408l0,-1.88l0.342,0l0,1.88l-0.342,0z" fill="#6D6E71"/>
  <path id="svg_1348" d="m23.153,-131.768c0,-0.194 -0.004,-0.353 -0.016,-0.508l0.299,0l0.015,0.303l0.012,0c0.105,-0.179 0.28,-0.346 0.59,-0.346c0.256,0 0.45,0.155 0.532,0.377l0.008,0c0.058,-0.105 0.132,-0.187 0.21,-0.245c0.113,-0.085 0.237,-0.132 0.416,-0.132c0.249,0 0.618,0.163 0.618,0.816l0,1.107l-0.334,0l0,-1.064c0,-0.361 -0.132,-0.579 -0.408,-0.579c-0.194,0 -0.346,0.144 -0.404,0.311c-0.015,0.047 -0.027,0.109 -0.027,0.171l0,1.161l-0.334,0l0,-1.126c0,-0.299 -0.132,-0.516 -0.392,-0.516c-0.213,0 -0.369,0.171 -0.423,0.342c-0.02,0.05 -0.027,0.108 -0.027,0.167l0,1.134l-0.334,0l0,-1.373l-0.001,0z" fill="#6D6E71"/>
  <path id="svg_1349" d="m26.583,-131.274c0.008,0.462 0.303,0.652 0.645,0.652c0.245,0 0.392,-0.043 0.52,-0.097l0.058,0.245c-0.12,0.054 -0.326,0.117 -0.625,0.117c-0.579,0 -0.924,-0.381 -0.924,-0.948c0,-0.567 0.334,-1.013 0.882,-1.013c0.613,0 0.777,0.54 0.777,0.885c0,0.07 -0.008,0.124 -0.012,0.159l-1.321,0zm1.003,-0.245c0.004,-0.217 -0.089,-0.555 -0.474,-0.555c-0.346,0 -0.497,0.318 -0.524,0.555l0.998,0z" fill="#6D6E71"/>
  <path id="svg_1350" d="m31.381,-131.546c-0.019,-0.365 -0.043,-0.804 -0.039,-1.13l-0.012,0c-0.089,0.307 -0.198,0.633 -0.33,0.994l-0.462,1.27l-0.256,0l-0.423,-1.247c-0.124,-0.369 -0.229,-0.707 -0.303,-1.017l-0.008,0c-0.008,0.326 -0.027,0.765 -0.05,1.157l-0.07,1.123l-0.323,0l0.183,-2.618l0.431,0l0.447,1.266c0.109,0.322 0.198,0.61 0.264,0.882l0.012,0c0.066,-0.264 0.159,-0.551 0.276,-0.882l0.466,-1.266l0.431,0l0.163,2.618l-0.33,0l-0.067,-1.15z" fill="#6D6E71"/>
  <path id="svg_1351" d="m33.352,-130.397l-0.027,-0.237l-0.012,0c-0.105,0.147 -0.307,0.28 -0.575,0.28c-0.38,0 -0.575,-0.268 -0.575,-0.54c0,-0.454 0.404,-0.703 1.13,-0.699l0,-0.039c0,-0.155 -0.043,-0.435 -0.427,-0.435c-0.175,0 -0.357,0.054 -0.49,0.14l-0.077,-0.225c0.155,-0.101 0.38,-0.167 0.617,-0.167c0.575,0 0.715,0.392 0.715,0.769l0,0.703c0,0.163 0.008,0.322 0.031,0.451l-0.31,0l0,-0.001zm-0.051,-0.959c-0.373,-0.008 -0.796,0.058 -0.796,0.423c0,0.221 0.147,0.326 0.322,0.326c0.245,0 0.4,-0.156 0.454,-0.315c0.012,-0.035 0.019,-0.074 0.019,-0.109l0,-0.325l0.001,0z" fill="#6D6E71"/>
  <path id="svg_1352" d="m34.184,-131.768c0,-0.194 -0.004,-0.353 -0.016,-0.508l0.303,0l0.02,0.311l0.008,0c0.093,-0.179 0.311,-0.353 0.621,-0.353c0.26,0 0.664,0.155 0.664,0.8l0,1.123l-0.342,0l0,-1.084c0,-0.303 -0.113,-0.555 -0.435,-0.555c-0.225,0 -0.4,0.159 -0.458,0.349c-0.015,0.043 -0.023,0.101 -0.023,0.159l0,1.13l-0.342,0l0,-1.372z" fill="#6D6E71"/>
  <path id="svg_1353" d="m37.381,-130.397l-0.027,-0.237l-0.012,0c-0.105,0.147 -0.307,0.28 -0.575,0.28c-0.38,0 -0.575,-0.268 -0.575,-0.54c0,-0.454 0.404,-0.703 1.13,-0.699l0,-0.039c0,-0.155 -0.043,-0.435 -0.427,-0.435c-0.175,0 -0.357,0.054 -0.49,0.14l-0.077,-0.225c0.155,-0.101 0.38,-0.167 0.617,-0.167c0.575,0 0.715,0.392 0.715,0.769l0,0.703c0,0.163 0.008,0.322 0.031,0.451l-0.31,0l0,-0.001zm-0.05,-0.959c-0.373,-0.008 -0.796,0.058 -0.796,0.423c0,0.221 0.147,0.326 0.322,0.326c0.245,0 0.4,-0.156 0.454,-0.315c0.012,-0.035 0.019,-0.074 0.019,-0.109l0,-0.325l0.001,0z" fill="#6D6E71"/>
  <path id="svg_1354" d="m39.833,-132.276c-0.008,0.136 -0.015,0.287 -0.015,0.516l0,1.091c0,0.431 -0.085,0.695 -0.268,0.858c-0.182,0.171 -0.447,0.225 -0.683,0.225c-0.225,0 -0.474,-0.054 -0.625,-0.155l0.085,-0.26c0.124,0.077 0.318,0.147 0.551,0.147c0.349,0 0.606,-0.182 0.606,-0.656l0,-0.21l-0.008,0c-0.105,0.175 -0.307,0.315 -0.598,0.315c-0.466,0 -0.8,-0.396 -0.8,-0.916c0,-0.637 0.416,-0.998 0.847,-0.998c0.326,0 0.505,0.171 0.586,0.326l0.008,0l0.015,-0.283l0.299,0zm-0.354,0.741c0,-0.058 -0.004,-0.109 -0.019,-0.155c-0.062,-0.198 -0.229,-0.361 -0.478,-0.361c-0.326,0 -0.559,0.276 -0.559,0.711c0,0.369 0.186,0.676 0.555,0.676c0.21,0 0.4,-0.132 0.474,-0.349c0.02,-0.058 0.027,-0.124 0.027,-0.182l0,-0.34z" fill="#6D6E71"/>
  <path id="svg_1355" d="m40.576,-131.274c0.008,0.462 0.303,0.652 0.645,0.652c0.245,0 0.392,-0.043 0.52,-0.097l0.058,0.245c-0.12,0.054 -0.326,0.117 -0.625,0.117c-0.579,0 -0.924,-0.381 -0.924,-0.948c0,-0.567 0.334,-1.013 0.882,-1.013c0.613,0 0.777,0.54 0.777,0.885c0,0.07 -0.008,0.124 -0.012,0.159l-1.321,0zm1.002,-0.245c0.004,-0.217 -0.089,-0.555 -0.474,-0.555c-0.346,0 -0.497,0.318 -0.524,0.555l0.998,0z" fill="#6D6E71"/>
  <path id="svg_1356" d="m42.332,-131.768c0,-0.194 -0.004,-0.353 -0.016,-0.508l0.299,0l0.015,0.303l0.012,0c0.105,-0.179 0.28,-0.346 0.59,-0.346c0.256,0 0.45,0.155 0.532,0.377l0.008,0c0.058,-0.105 0.132,-0.187 0.21,-0.245c0.113,-0.085 0.237,-0.132 0.416,-0.132c0.249,0 0.618,0.163 0.618,0.816l0,1.107l-0.334,0l0,-1.064c0,-0.361 -0.132,-0.579 -0.408,-0.579c-0.194,0 -0.346,0.144 -0.404,0.311c-0.015,0.047 -0.027,0.109 -0.027,0.171l0,1.161l-0.334,0l0,-1.126c0,-0.299 -0.132,-0.516 -0.392,-0.516c-0.213,0 -0.369,0.171 -0.423,0.342c-0.02,0.05 -0.027,0.108 -0.027,0.167l0,1.134l-0.334,0l0,-1.373l-0.001,0z" fill="#6D6E71"/>
  <path id="svg_1357" d="m45.763,-131.274c0.008,0.462 0.303,0.652 0.645,0.652c0.245,0 0.392,-0.043 0.52,-0.097l0.058,0.245c-0.12,0.054 -0.326,0.117 -0.625,0.117c-0.579,0 -0.924,-0.381 -0.924,-0.948c0,-0.567 0.334,-1.013 0.882,-1.013c0.613,0 0.777,0.54 0.777,0.885c0,0.07 -0.008,0.124 -0.012,0.159l-1.321,0zm1.002,-0.245c0.004,-0.217 -0.089,-0.555 -0.474,-0.555c-0.346,0 -0.497,0.318 -0.524,0.555l0.998,0z" fill="#6D6E71"/>
  <path id="svg_1358" d="m47.52,-131.768c0,-0.194 -0.004,-0.353 -0.016,-0.508l0.303,0l0.02,0.311l0.008,0c0.093,-0.179 0.311,-0.353 0.621,-0.353c0.26,0 0.664,0.155 0.664,0.8l0,1.123l-0.342,0l0,-1.084c0,-0.303 -0.113,-0.555 -0.435,-0.555c-0.225,0 -0.4,0.159 -0.458,0.349c-0.015,0.043 -0.023,0.101 -0.023,0.159l0,1.13l-0.342,0l0,-1.372z" fill="#6D6E71"/>
  <path id="svg_1359" d="m50.072,-132.816l0,0.54l0.49,0l0,0.26l-0.49,0l0,1.014c0,0.233 0.066,0.365 0.256,0.365c0.089,0 0.155,-0.012 0.198,-0.023l0.015,0.256c-0.066,0.027 -0.171,0.047 -0.303,0.047c-0.159,0 -0.287,-0.051 -0.369,-0.144c-0.097,-0.101 -0.132,-0.268 -0.132,-0.489l0,-1.025l-0.291,0l0,-0.26l0.291,0l0,-0.451l0.335,-0.09z" fill="#6D6E71"/>
  <g stroke="null" id="svg_1609">
   <g stroke="null" id="svg_1063">
    <path stroke="null" id="svg_1064" d="m21.48706,285.00692l-8.6702,0c-1.30919,0 -2.37452,-1.172 -2.37452,-2.62812s1.05891,-2.62812 2.37452,-2.62812l8.6702,0c1.30919,0 2.37452,1.172 2.37452,2.62812s-1.05891,2.62812 -2.37452,2.62812z"/>
   </g>
   <path stroke="null" id="svg_1492" d="m78.55253,231.47845l-10.42863,0l0,-22.52372l10.42863,0c2.38735,0 4.32548,2.14512 4.32548,4.78745l0,12.94883c0,2.64233 -1.93812,4.78745 -4.32548,4.78745z" fill="#FDC778"/>
   <g stroke="null" id="svg_1493">
    <path stroke="null" id="svg_1494" d="m103.19618,47.53115c-12.8224,7.50081 -25.53571,16.1381 -34.4562,28.7886c-14.64501,20.76217 -16.55104,51.4899 -4.61427,74.27644c11.93677,22.78654 36.97832,36.21838 60.53098,32.46797c11.19233,-1.78286 21.7814,-7.0249 33.01865,-8.40289c31.26022,-3.83564 61.54497,22.55214 92.36237,15.59116c19.50956,-4.40388 35.32257,-22.50952 40.93157,-43.64815c5.609,-21.13863 1.74559,-44.57155 -8.15038,-63.68581c-9.89597,-19.12137 -25.40094,-34.1656 -42.6515,-45.1682c-18.8678,-12.03254 -46.31596,-27.98596 -67.8599,-21.08891c-23.91847,7.64287 -47.11174,17.99909 -69.11134,30.86979z" fill="#F4F5F5"/>
    <path stroke="null" id="svg_1495" d="m89.55232,108.32603c-0.02567,-2.69915 -2.00871,-4.87268 -4.44741,-4.87268c-0.57759,0 -1.13592,0.12785 -1.64933,0.35515c-0.80862,-3.28871 -3.52327,-5.71084 -6.75134,-5.71084c-3.46551,0 -6.34703,2.79149 -6.89252,6.44245c-0.75728,-0.67479 -1.72634,-1.07966 -2.77883,-1.07966c-2.44511,0 -4.42174,2.18063 -4.44741,4.87268l26.96683,0l0,-0.0071z" fill="#FFFFFF"/>
    <path stroke="null" id="svg_1496" d="m195.26976,39.36976c-0.03851,-4.07004 -3.02912,-7.35164 -6.71283,-7.35164c-0.8728,0 -1.7135,0.19178 -2.49004,0.53273c-1.21935,-4.95792 -5.30737,-8.61598 -10.17834,-8.61598c-5.23036,0 -9.56867,4.205 -10.39654,9.70985c-1.14234,-1.02284 -2.60555,-1.6337 -4.19071,-1.6337c-3.68371,0 -6.67432,3.2816 -6.71283,7.35164l40.68129,0l0,0.0071z" fill="#FFFFFF"/>
   </g>
   <polyline stroke="#000000" id="svg_1497" points="171.8968048095703,112.59498405456543 154.58856201171875,93.15398216247559 174.98362731933594,73.71297264099121 " stroke-miterlimit="10" fill="none"/>
   <path stroke="null" id="svg_1498" d="m180.86862,277.56294l-8.93333,0c-1.62366,0 -2.93285,-1.45612 -2.93285,-3.24609l0,-8.20401c0,-1.79707 1.31561,-3.24609 2.93285,-3.24609l8.93333,0l0,14.69618z" fill="#FDC778"/>
   <g stroke="null" id="svg_1499">
    <line stroke="#000000" id="svg_1500" y2="277.56294" x2="81.87685" y1="277.56294" x1="293.54918" stroke-miterlimit="10" fill="none"/>
    <line stroke="#000000" id="svg_1501" y2="277.56294" x2="56.31548" y1="277.56294" x1="68.84909" stroke-miterlimit="10" fill="none"/>
   </g>
   <path stroke="null" id="svg_1502" d="m281.74076,148.95539l0,97.04167l-213.61686,0l0,-97.04167c0,-3.02589 2.21408,-5.47644 4.94798,-5.47644l203.72089,0c2.73391,0 4.94798,2.45055 4.94798,5.47644z" fill="#FF3300"/>
   <path stroke="#F4F5F5" id="svg_1503" d="m281.74076,148.94828l0,97.04167l-213.61044,0l0,-8.48102l200.31956,0l0,-94.03708l8.35574,0c2.70824,0.0071 4.93515,2.46475 4.93515,5.47644z" stroke-miterlimit="10" fill="none"/>
   <path stroke="null" id="svg_1504" d="m235.33496,186.8856l0,-26.08235c0,-2.03857 1.49531,-3.69358 3.33716,-3.69358l43.06222,0l0,46.99368l-30.84308,0c-8.58677,0 -15.55631,-7.70679 -15.55631,-17.21776z" fill="#67A1D7"/>
   <path stroke="#000000" id="svg_1505" d="m199.91612,117.58128l0,8.94982l-54.10694,0l0,-8.94982c0,-2.76308 2.01513,-4.99343 4.51159,-4.99343l45.08377,0c2.49645,0.0071 4.51159,2.23746 4.51159,4.99343z" stroke-miterlimit="10" stroke-linejoin="round" stroke-linecap="round" fill="#FDC778"/>
   <polyline stroke="#000000" id="svg_1506" points="266.0431823730469,73.69162559509277 245.60308837890625,73.69162559509277 222.66665649414062,73.69162559509277 123.05872344970703,73.69162559509277 100.12213134765625,73.69162559509277 79.68193054199219,73.69162559509277 " stroke-miterlimit="10" fill="none"/>
   <path stroke="#000000" id="svg_1507" d="m123.05871,73.69163c0,7.0178 -5.14051,12.70733 -11.48112,12.70733c-6.31494,0 -11.44903,-5.68953 -11.44903,-12.70733c0,-6.98939 5.14051,-12.67181 11.44903,-12.67181c6.34061,0 11.48112,5.68953 11.48112,12.67181z" stroke-miterlimit="10" stroke-linejoin="round" stroke-linecap="round" stroke-width="2" fill="#D7D7D7"/>
   <path stroke="#000000" id="svg_1508" d="m245.60315,73.69163c0,7.0178 -5.14051,12.70733 -11.48112,12.70733c-6.31494,0 -11.44903,-5.68953 -11.44903,-12.70733c0,-6.98939 5.14051,-12.67181 11.44903,-12.67181c6.34061,0 11.48112,5.68953 11.48112,12.67181z" stroke-miterlimit="10" stroke-linejoin="round" stroke-linecap="round" stroke-width="2" fill="#D7D7D7"/>
   <path stroke="#000000" id="svg_1509" d="m281.74076,148.95539l0,97.04167l-213.61686,0l0,-97.04167c0,-3.02589 2.21408,-5.47644 4.94798,-5.47644l203.72089,0c2.73391,0 4.94798,2.45055 4.94798,5.47644z" stroke-miterlimit="10" fill="none"/>
   <path stroke="null" id="svg_1510" d="m79.4895,189.17988l0,-27.8581c0,-2.19484 1.61082,-3.9777 3.59387,-3.9777l21.93542,0c1.98304,0 3.59387,1.78286 3.59387,3.9777l0,27.8581c0,2.19484 -1.61082,3.9777 -3.59387,3.9777l-21.93542,0c-1.98304,0 -3.59387,-1.77576 -3.59387,-3.9777z" fill="#67A1D7"/>
   <path stroke="null" id="svg_1511" d="m118.41236,189.17988l0,-27.8581c0,-2.19484 1.61082,-3.9777 3.59387,-3.9777l21.93542,0c1.98304,0 3.59387,1.78286 3.59387,3.9777l0,27.8581c0,2.19484 -1.61082,3.9777 -3.59387,3.9777l-21.93542,0c-1.98946,0 -3.59387,-1.77576 -3.59387,-3.9777z" fill="#67A1D7"/>
   <path stroke="null" id="svg_1512" d="m157.3288,189.17988l0,-27.8581c0,-2.19484 1.61082,-3.9777 3.59387,-3.9777l21.93542,0c1.98304,0 3.59387,1.78286 3.59387,3.9777l0,27.8581c0,2.19484 -1.61082,3.9777 -3.59387,3.9777l-21.93542,0c-1.98304,0 -3.59387,-1.77576 -3.59387,-3.9777z" fill="#67A1D7"/>
   <path stroke="null" id="svg_1513" d="m196.25166,188.94548l0,-27.8581c0,-2.19484 1.61082,-3.9777 3.59387,-3.9777l21.93542,0c1.98304,0 3.59387,1.78286 3.59387,3.9777l0,27.8581c0,2.19484 -1.61082,3.9777 -3.59387,3.9777l-21.93542,0c-1.98304,0 -3.59387,-1.78286 -3.59387,-3.9777z" fill="#67A1D7"/>
   <g stroke="null" id="svg_1514">
    <path stroke="null" id="svg_1515" d="m271.85762,195.89224l-20.95994,0c-4.48592,0 -8.14396,-4.04163 -8.14396,-9.00665l0,-18.83725c0,-1.51295 1.10383,-2.73467 2.47078,-2.73467c1.36695,0 2.47078,1.22172 2.47078,2.73467l0,18.83725c0,1.95333 1.43755,3.53731 3.20239,3.53731l20.95994,0c1.36695,0 2.47078,1.22172 2.47078,2.73467c0,1.51295 -1.11025,2.73467 -2.47078,2.73467z" fill="#FFFFFF"/>
   </g>
   <path stroke="#000000" id="svg_1516" d="m111.12836,127.30534l0,16.17361l-18.75228,0l0,-16.17361c0,-2.52868 1.85469,-4.57435 4.13295,-4.57435l10.47997,0c2.29109,0 4.13936,2.04567 4.13936,4.57435z" stroke-miterlimit="10" stroke-linejoin="round" stroke-linecap="round" fill="#FDC778"/>
   <path stroke="#000000" id="svg_1517" d="m257.48216,127.30534l0,16.17361l-18.75228,0l0,-16.17361c0,-2.52868 1.85469,-4.57435 4.13295,-4.57435l10.47997,0c2.28467,0 4.13936,2.04567 4.13936,4.57435z" stroke-miterlimit="10" stroke-linejoin="round" stroke-linecap="round" fill="#FDC778"/>
   <rect stroke="#000000" id="svg_1518" height="16.96205" width="35.43809" stroke-miterlimit="10" stroke-linejoin="round" stroke-linecap="round" fill="#FDC778" y="126.524" x="155.15322"/>
   <path stroke="#000000" id="svg_1519" d="m285.91863,257.41874l-221.9726,0c-2.84942,0 -5.15977,-2.55709 -5.15977,-5.71084l0,0c0,-3.15375 2.31034,-5.71084 5.15977,-5.71084l221.9726,0c2.84942,0 5.15977,2.55709 5.15977,5.71084l0,0c0,3.15375 -2.31034,5.71084 -5.15977,5.71084z" stroke-miterlimit="10" fill="none"/>
   <g stroke="null" id="svg_1520">
    <path stroke="null" id="svg_1521" d="m255.41568,257.41874c0,11.11625 -8.12471,20.14421 -18.20037,20.14421c-10.04357,0 -18.20037,-9.02085 -18.20037,-20.14421c0,-11.11625 8.15038,-20.14421 18.20037,-20.14421c10.07566,0 18.20037,9.02796 18.20037,20.14421z" fill="#B86335"/>
    <path stroke="null" id="svg_1522" d="m130.84328,257.41874c0,11.11625 -8.15038,20.14421 -18.20037,20.14421c-10.07566,0 -18.20037,-9.02085 -18.20037,-20.14421c0,-11.11625 8.12471,-20.14421 18.20037,-20.14421c10.04999,0 18.20037,9.02796 18.20037,20.14421z" fill="#B86335"/>
   </g>
   <g stroke="null" id="svg_1523">
    <path stroke="null" id="svg_1524" d="m255.4221,257.42584c0,11.10204 -8.13112,20.13 -18.2132,20.13c-4.27413,0 -8.20172,-1.6408 -11.29501,-4.40388c1.43113,0.44039 2.93927,0.65348 4.49875,0.65348c10.08208,0 18.2132,-9.02796 18.2132,-20.15841c0,-6.37142 -2.6954,-12.06095 -6.89252,-15.72612c7.88084,2.18773 13.68878,10.09341 13.68878,19.50493z" fill="#AC4B25"/>
    <path stroke="null" id="svg_1525" d="m130.84328,257.42584c0,11.10204 -8.15679,20.13 -18.18753,20.13c-4.27413,0 -8.20172,-1.6408 -11.32068,-4.40388c1.43113,0.44039 2.96494,0.65348 4.52442,0.65348c10.03074,0 18.18753,-9.02796 18.18753,-20.15841c0,-6.37142 -2.6954,-12.06095 -6.89252,-15.72612c7.86158,2.18773 13.68878,10.09341 13.68878,19.50493z" fill="#AC4B25"/>
   </g>
   <g stroke="null" id="svg_1526">
    <path stroke="null" id="svg_1527" d="m255.41568,257.41874c0,11.11625 -8.12471,20.14421 -18.20037,20.14421c-10.04357,0 -18.20037,-9.02085 -18.20037,-20.14421c0,-11.11625 8.15038,-20.14421 18.20037,-20.14421c10.07566,0 18.20037,9.02796 18.20037,20.14421z"/>
    <path stroke="null" id="svg_1528" d="m130.84328,257.41874c0,11.11625 -8.15038,20.14421 -18.20037,20.14421c-10.07566,0 -18.20037,-9.02085 -18.20037,-20.14421c0,-11.11625 8.12471,-20.14421 18.20037,-20.14421c10.04999,0 18.20037,9.02796 18.20037,20.14421z"/>
   </g>
   <circle stroke="null" id="svg_1529" r="4.65779" cy="257.41874" cx="112.64292" fill="#FFFFFF"/>
   <circle stroke="null" id="svg_1530" r="4.65779" cy="257.41874" cx="237.22174" fill="#FFFFFF"/>
  </g>
 </g>
</svg>