<svg width="304" height="300" xmlns="http://www.w3.org/2000/svg">

 <g>
  <title>background</title>
  <rect fill="none" id="canvas_background" height="302" width="306" y="-1" x="-1"/>
 </g>
 <g>
  <title>Layer 1</title>
  <path id="svg_627" d="m-140.001,308.157c0.504,-0.084 1.164,-0.155 2.003,-0.155c1.032,0 1.787,0.239 2.268,0.672c0.443,0.383 0.707,0.971 0.707,1.69c0,0.732 -0.216,1.308 -0.624,1.728c-0.551,0.587 -1.451,0.887 -2.47,0.887c-0.313,0 -0.601,-0.012 -0.84,-0.072l0,3.238l-1.044,0l0,-7.988zm1.044,3.897c0.228,0.06 0.516,0.084 0.863,0.084c1.26,0 2.027,-0.611 2.027,-1.727c0,-1.067 -0.756,-1.583 -1.907,-1.583c-0.456,0 -0.804,0.036 -0.983,0.084l0,3.142z" fill="#6D6E71"/>
  <path id="svg_628" d="m-133.844,312.151c0,-0.684 -0.013,-1.271 -0.049,-1.811l0.924,0l0.036,1.14l0.048,0c0.264,-0.779 0.899,-1.27 1.607,-1.27c0.12,0 0.203,0.012 0.3,0.035l0,0.996c-0.108,-0.024 -0.216,-0.037 -0.36,-0.037c-0.743,0 -1.271,0.565 -1.415,1.355c-0.023,0.145 -0.048,0.313 -0.048,0.492l0,3.094l-1.043,0l0,-3.994z" fill="#6D6E71"/>
  <path id="svg_629" d="m43.167,260.96l0,1.016l0.922,0l0,0.49l-0.922,0l0,1.908c0,0.439 0.124,0.688 0.483,0.688c0.168,0 0.292,-0.022 0.373,-0.043l0.029,0.482c-0.124,0.051 -0.321,0.088 -0.57,0.088c-0.299,0 -0.541,-0.095 -0.694,-0.271c-0.183,-0.19 -0.249,-0.504 -0.249,-0.921l0,-1.931l-0.549,0l0,-0.49l0.548,0l0,-0.848l0.629,-0.168z" fill="#6D6E71"/>
  <text id="svg_708" font-size="2.0198" font-family="'Arial-BoldMT'" fill="#666666" transform="matrix(1,0,0,1,201.6066,233.7194) "/>
  <g id="svg_1085">
   <g id="svg_1086">
    <path id="svg_1087" d="m-21.123,-185.963l-0.591,0c-0.13,0 -0.236,-0.105 -0.236,-0.236c0,-0.13 0.105,-0.236 0.236,-0.236l0.591,0c0.13,0 0.236,0.105 0.236,0.236c0,0.13 -0.105,0.236 -0.236,0.236z" fill="#666666"/>
   </g>
   <g id="svg_1088">
    <path id="svg_1089" d="m0.904,-185.963l-21.32,0c-0.13,0 -0.236,-0.105 -0.236,-0.236c0,-0.13 0.105,-0.236 0.236,-0.236l21.32,0c0.13,0 0.236,0.105 0.236,0.236c0,0.13 -0.105,0.236 -0.236,0.236z" fill="#666666"/>
   </g>
  </g>
  <g id="svg_1233">
   <g id="svg_1234">
    <path id="svg_1235" d="m262.884,287.809l-9.552,0c-0.06,0 -0.108,-0.048 -0.108,-0.108s0.048,-0.108 0.108,-0.108l9.552,0c0.06,0 0.108,0.048 0.108,0.108s-0.048,0.108 -0.108,0.108z" fill="#666666"/>
   </g>
   <g id="svg_1236">
    <path id="svg_1237" d="m263.694,287.809l-0.394,0c-0.06,0 -0.108,-0.048 -0.108,-0.108s0.048,-0.108 0.108,-0.108l0.395,0c0.06,0 0.108,0.048 0.108,0.108s-0.049,0.108 -0.109,0.108z" fill="#666666"/>
   </g>
  </g>
  <path id="svg_1346" d="m20.867,-132.727l-0.796,0l0,-0.287l1.938,0l0,0.287l-0.8,0l0,2.33l-0.342,0l0,-2.33z" fill="#6D6E71"/>
  <path id="svg_1347" d="m22.624,-132.805c0.004,0.117 -0.082,0.21 -0.218,0.21c-0.12,0 -0.206,-0.093 -0.206,-0.21c0,-0.12 0.089,-0.213 0.214,-0.213c0.128,0 0.21,0.093 0.21,0.213zm-0.38,2.408l0,-1.88l0.342,0l0,1.88l-0.342,0z" fill="#6D6E71"/>
  <path id="svg_1348" d="m23.153,-131.768c0,-0.194 -0.004,-0.353 -0.016,-0.508l0.299,0l0.015,0.303l0.012,0c0.105,-0.179 0.28,-0.346 0.59,-0.346c0.256,0 0.45,0.155 0.532,0.377l0.008,0c0.058,-0.105 0.132,-0.187 0.21,-0.245c0.113,-0.085 0.237,-0.132 0.416,-0.132c0.249,0 0.618,0.163 0.618,0.816l0,1.107l-0.334,0l0,-1.064c0,-0.361 -0.132,-0.579 -0.408,-0.579c-0.194,0 -0.346,0.144 -0.404,0.311c-0.015,0.047 -0.027,0.109 -0.027,0.171l0,1.161l-0.334,0l0,-1.126c0,-0.299 -0.132,-0.516 -0.392,-0.516c-0.213,0 -0.369,0.171 -0.423,0.342c-0.02,0.05 -0.027,0.108 -0.027,0.167l0,1.134l-0.334,0l0,-1.373l-0.001,0z" fill="#6D6E71"/>
  <path id="svg_1349" d="m26.583,-131.274c0.008,0.462 0.303,0.652 0.645,0.652c0.245,0 0.392,-0.043 0.52,-0.097l0.058,0.245c-0.12,0.054 -0.326,0.117 -0.625,0.117c-0.579,0 -0.924,-0.381 -0.924,-0.948c0,-0.567 0.334,-1.013 0.882,-1.013c0.613,0 0.777,0.54 0.777,0.885c0,0.07 -0.008,0.124 -0.012,0.159l-1.321,0zm1.003,-0.245c0.004,-0.217 -0.089,-0.555 -0.474,-0.555c-0.346,0 -0.497,0.318 -0.524,0.555l0.998,0z" fill="#6D6E71"/>
  <path id="svg_1350" d="m31.381,-131.546c-0.019,-0.365 -0.043,-0.804 -0.039,-1.13l-0.012,0c-0.089,0.307 -0.198,0.633 -0.33,0.994l-0.462,1.27l-0.256,0l-0.423,-1.247c-0.124,-0.369 -0.229,-0.707 -0.303,-1.017l-0.008,0c-0.008,0.326 -0.027,0.765 -0.05,1.157l-0.07,1.123l-0.323,0l0.183,-2.618l0.431,0l0.447,1.266c0.109,0.322 0.198,0.61 0.264,0.882l0.012,0c0.066,-0.264 0.159,-0.551 0.276,-0.882l0.466,-1.266l0.431,0l0.163,2.618l-0.33,0l-0.067,-1.15z" fill="#6D6E71"/>
  <path id="svg_1351" d="m33.352,-130.397l-0.027,-0.237l-0.012,0c-0.105,0.147 -0.307,0.28 -0.575,0.28c-0.38,0 -0.575,-0.268 -0.575,-0.54c0,-0.454 0.404,-0.703 1.13,-0.699l0,-0.039c0,-0.155 -0.043,-0.435 -0.427,-0.435c-0.175,0 -0.357,0.054 -0.49,0.14l-0.077,-0.225c0.155,-0.101 0.38,-0.167 0.617,-0.167c0.575,0 0.715,0.392 0.715,0.769l0,0.703c0,0.163 0.008,0.322 0.031,0.451l-0.31,0l0,-0.001zm-0.051,-0.959c-0.373,-0.008 -0.796,0.058 -0.796,0.423c0,0.221 0.147,0.326 0.322,0.326c0.245,0 0.4,-0.156 0.454,-0.315c0.012,-0.035 0.019,-0.074 0.019,-0.109l0,-0.325l0.001,0z" fill="#6D6E71"/>
  <path id="svg_1352" d="m34.184,-131.768c0,-0.194 -0.004,-0.353 -0.016,-0.508l0.303,0l0.02,0.311l0.008,0c0.093,-0.179 0.311,-0.353 0.621,-0.353c0.26,0 0.664,0.155 0.664,0.8l0,1.123l-0.342,0l0,-1.084c0,-0.303 -0.113,-0.555 -0.435,-0.555c-0.225,0 -0.4,0.159 -0.458,0.349c-0.015,0.043 -0.023,0.101 -0.023,0.159l0,1.13l-0.342,0l0,-1.372z" fill="#6D6E71"/>
  <path id="svg_1353" d="m37.381,-130.397l-0.027,-0.237l-0.012,0c-0.105,0.147 -0.307,0.28 -0.575,0.28c-0.38,0 -0.575,-0.268 -0.575,-0.54c0,-0.454 0.404,-0.703 1.13,-0.699l0,-0.039c0,-0.155 -0.043,-0.435 -0.427,-0.435c-0.175,0 -0.357,0.054 -0.49,0.14l-0.077,-0.225c0.155,-0.101 0.38,-0.167 0.617,-0.167c0.575,0 0.715,0.392 0.715,0.769l0,0.703c0,0.163 0.008,0.322 0.031,0.451l-0.31,0l0,-0.001zm-0.05,-0.959c-0.373,-0.008 -0.796,0.058 -0.796,0.423c0,0.221 0.147,0.326 0.322,0.326c0.245,0 0.4,-0.156 0.454,-0.315c0.012,-0.035 0.019,-0.074 0.019,-0.109l0,-0.325l0.001,0z" fill="#6D6E71"/>
  <path id="svg_1354" d="m39.833,-132.276c-0.008,0.136 -0.015,0.287 -0.015,0.516l0,1.091c0,0.431 -0.085,0.695 -0.268,0.858c-0.182,0.171 -0.447,0.225 -0.683,0.225c-0.225,0 -0.474,-0.054 -0.625,-0.155l0.085,-0.26c0.124,0.077 0.318,0.147 0.551,0.147c0.349,0 0.606,-0.182 0.606,-0.656l0,-0.21l-0.008,0c-0.105,0.175 -0.307,0.315 -0.598,0.315c-0.466,0 -0.8,-0.396 -0.8,-0.916c0,-0.637 0.416,-0.998 0.847,-0.998c0.326,0 0.505,0.171 0.586,0.326l0.008,0l0.015,-0.283l0.299,0zm-0.354,0.741c0,-0.058 -0.004,-0.109 -0.019,-0.155c-0.062,-0.198 -0.229,-0.361 -0.478,-0.361c-0.326,0 -0.559,0.276 -0.559,0.711c0,0.369 0.186,0.676 0.555,0.676c0.21,0 0.4,-0.132 0.474,-0.349c0.02,-0.058 0.027,-0.124 0.027,-0.182l0,-0.34z" fill="#6D6E71"/>
  <path id="svg_1355" d="m40.576,-131.274c0.008,0.462 0.303,0.652 0.645,0.652c0.245,0 0.392,-0.043 0.52,-0.097l0.058,0.245c-0.12,0.054 -0.326,0.117 -0.625,0.117c-0.579,0 -0.924,-0.381 -0.924,-0.948c0,-0.567 0.334,-1.013 0.882,-1.013c0.613,0 0.777,0.54 0.777,0.885c0,0.07 -0.008,0.124 -0.012,0.159l-1.321,0zm1.002,-0.245c0.004,-0.217 -0.089,-0.555 -0.474,-0.555c-0.346,0 -0.497,0.318 -0.524,0.555l0.998,0z" fill="#6D6E71"/>
  <path id="svg_1356" d="m42.332,-131.768c0,-0.194 -0.004,-0.353 -0.016,-0.508l0.299,0l0.015,0.303l0.012,0c0.105,-0.179 0.28,-0.346 0.59,-0.346c0.256,0 0.45,0.155 0.532,0.377l0.008,0c0.058,-0.105 0.132,-0.187 0.21,-0.245c0.113,-0.085 0.237,-0.132 0.416,-0.132c0.249,0 0.618,0.163 0.618,0.816l0,1.107l-0.334,0l0,-1.064c0,-0.361 -0.132,-0.579 -0.408,-0.579c-0.194,0 -0.346,0.144 -0.404,0.311c-0.015,0.047 -0.027,0.109 -0.027,0.171l0,1.161l-0.334,0l0,-1.126c0,-0.299 -0.132,-0.516 -0.392,-0.516c-0.213,0 -0.369,0.171 -0.423,0.342c-0.02,0.05 -0.027,0.108 -0.027,0.167l0,1.134l-0.334,0l0,-1.373l-0.001,0z" fill="#6D6E71"/>
  <path id="svg_1357" d="m45.763,-131.274c0.008,0.462 0.303,0.652 0.645,0.652c0.245,0 0.392,-0.043 0.52,-0.097l0.058,0.245c-0.12,0.054 -0.326,0.117 -0.625,0.117c-0.579,0 -0.924,-0.381 -0.924,-0.948c0,-0.567 0.334,-1.013 0.882,-1.013c0.613,0 0.777,0.54 0.777,0.885c0,0.07 -0.008,0.124 -0.012,0.159l-1.321,0zm1.002,-0.245c0.004,-0.217 -0.089,-0.555 -0.474,-0.555c-0.346,0 -0.497,0.318 -0.524,0.555l0.998,0z" fill="#6D6E71"/>
  <path id="svg_1358" d="m47.52,-131.768c0,-0.194 -0.004,-0.353 -0.016,-0.508l0.303,0l0.02,0.311l0.008,0c0.093,-0.179 0.311,-0.353 0.621,-0.353c0.26,0 0.664,0.155 0.664,0.8l0,1.123l-0.342,0l0,-1.084c0,-0.303 -0.113,-0.555 -0.435,-0.555c-0.225,0 -0.4,0.159 -0.458,0.349c-0.015,0.043 -0.023,0.101 -0.023,0.159l0,1.13l-0.342,0l0,-1.372z" fill="#6D6E71"/>
  <path id="svg_1359" d="m50.072,-132.816l0,0.54l0.49,0l0,0.26l-0.49,0l0,1.014c0,0.233 0.066,0.365 0.256,0.365c0.089,0 0.155,-0.012 0.198,-0.023l0.015,0.256c-0.066,0.027 -0.171,0.047 -0.303,0.047c-0.159,0 -0.287,-0.051 -0.369,-0.144c-0.097,-0.101 -0.132,-0.268 -0.132,-0.489l0,-1.025l-0.291,0l0,-0.26l0.291,0l0,-0.451l0.335,-0.09z" fill="#6D6E71"/>
  <g stroke="null" id="svg_1609">
   <path stroke="null" id="svg_36" d="m278.16167,123.35473c-0.64166,-32.10548 -13.69892,-62.09445 -37.00235,-84.5812c-23.69047,-23.36118 -55.31511,-36.10004 -88.99713,-36.10004c-9.99155,0 -19.59607,1.12285 -29.06819,3.2493l0,62.29318l-24.02658,0l0,-35.88143c0,-6.69734 -5.55086,-12.11284 -12.4156,-12.11284l-27.90709,0c-4.76661,-10.3143 -15.36927,-17.54821 -27.6932,-17.54821c-16.75444,0 -30.41262,13.32512 -30.41262,29.67099c0,16.34587 13.64799,29.67099 30.41262,29.67099c12.33412,0 22.93677,-7.24386 27.6932,-17.56809l15.4813,0l0,35.88143c0,6.69734 5.55086,12.11284 12.4156,12.11284l36.43199,0l0,37.87871l-51.92348,0c-4.76661,-10.32423 -15.36927,-17.55815 -27.6932,-17.55815c-16.75444,0 -30.41262,13.32512 -30.41262,29.67099c0,16.34587 13.65818,29.67099 30.41262,29.67099c12.32393,0 22.92659,-7.23392 27.6932,-17.55815l51.92348,0l0,37.88864l-36.43199,0c-6.86474,0 -12.4156,5.4155 -12.4156,12.11284l0,35.88143l-15.45075,0c-4.76661,-10.33417 -15.36927,-17.57802 -27.70339,-17.57802c-16.75444,0 -30.41262,13.32512 -30.41262,29.67099s13.64799,29.67099 30.41262,29.67099c12.31375,0 22.90622,-7.22398 27.68302,-17.53828l27.91727,0c6.86474,0 12.4156,-5.4155 12.4156,-12.11284l0,-35.88143l24.02658,0l0,72.40874c0,4.56095 3.78885,8.2574 8.46379,8.2574l79.50465,0c4.67495,0 8.46379,-3.69645 8.46379,-8.2574l0,-41.51554l33.68202,0c13.72947,0 24.97379,-10.96018 24.97379,-24.36479l0,-38.10725l6.274,0c6.274,0 12.03875,-3.00088 15.49149,-7.99904c3.58514,-4.99816 4.35921,-11.36759 2.1796,-16.99176l-23.98584,-36.73598z" fill="#FFB300"/>
   <circle stroke="null" id="svg_212" r="10.84098" cy="98.78127" cx="194.82744" fill="#FFFFFF" clip-rule="evenodd" fill-rule="evenodd"/>
   <path stroke="null" id="svg_213" d="m215.76794,101.19589c-1.35461,0 -2.44442,-1.06323 -2.44442,-2.38481c0,-9.94664 -8.30083,-18.04505 -18.49608,-18.04505c-1.35461,0 -2.44442,-1.06323 -2.44442,-2.38481c0,-1.32158 1.0898,-2.38481 2.44442,-2.38481c12.8943,0 23.3951,10.2348 23.3951,22.8246c-0.01019,1.31164 -1.09999,2.37487 -2.4546,2.37487z" fill="#FFFFFF" clip-rule="evenodd" fill-rule="evenodd"/>
   <path stroke="null" id="svg_214" d="m194.82744,121.59593c-12.88411,0 -23.35436,-10.22487 -23.35436,-22.78486c0,-1.32158 1.0898,-2.38481 2.44442,-2.38481c1.35461,0 2.44442,1.07316 2.44442,2.38481c0,9.91683 8.27028,17.99537 18.44516,17.99537c1.35461,0 2.44442,1.06323 2.44442,2.38481c0.02037,1.32158 -1.07962,2.40468 -2.42405,2.40468z" fill="#FFFFFF" clip-rule="evenodd" fill-rule="evenodd"/>
   <path stroke="null" id="svg_215" d="m199.64497,149.98509l-9.59433,0c-1.14073,0 -2.13886,-0.77506 -2.39349,-1.87804l-2.862,-12.51031c-3.3407,-0.87443 -6.51844,-2.14633 -9.51285,-3.85544l-11.1221,6.86626c-0.96758,0.60614 -2.23053,0.46702 -3.04534,-0.32791l-6.78326,-6.61784c-0.80462,-0.785 -0.9574,-2.02709 -0.33611,-2.97107l7.03788,-10.85088c-1.74165,-2.93133 -3.07589,-6.03158 -3.94162,-9.28088l-12.83319,-2.79221c-1.12036,-0.23848 -1.92498,-1.22221 -1.92498,-2.33512l0,-9.36037c0,-1.11291 0.79444,-2.08671 1.92498,-2.33512l12.83319,-2.79221c0.87592,-3.22943 2.19997,-6.34955 3.94162,-9.28088l-7.03788,-10.85088c-0.6111,-0.94399 -0.4787,-2.17614 0.33611,-2.97107l6.78326,-6.60791c0.81481,-0.79494 2.07775,-0.93405 3.05552,-0.32791l11.13228,6.89607c2.96385,-1.6793 6.15178,-2.98101 9.51285,-3.85544l2.862,-12.52024c0.24444,-1.09304 1.25276,-1.8681 2.39349,-1.8681l9.59433,0c1.14073,0 2.13886,0.77506 2.40368,1.8681l2.862,12.52024c3.36107,0.88437 6.549,2.17614 9.51285,3.85544l11.1221,-6.89607c0.96758,-0.5962 2.24072,-0.46702 3.05552,0.32791l6.78326,6.60791c0.81481,0.79494 0.9574,2.02709 0.33611,2.97107l-7.03788,10.85088c1.74165,2.93133 3.05552,6.03158 3.94162,9.28088l12.823,2.79221c1.12036,0.23848 1.92498,1.22221 1.92498,2.33512l0,9.36037c0,1.11291 -0.79444,2.08671 -1.92498,2.33512l-12.823,2.79221c-0.8861,3.25924 -2.19997,6.35949 -3.94162,9.28088l7.03788,10.85088c0.6111,0.94399 0.4787,2.17614 -0.33611,2.97107l-6.78326,6.61784c-0.81481,0.785 -2.07775,0.93405 -3.04534,0.32791l-11.1221,-6.86626c-3.0046,1.69918 -6.18234,2.98101 -9.51285,3.85544l-2.862,12.51031c-0.30555,1.10297 -1.2935,1.87804 -2.43423,1.87804l0,0zm-7.62862,-4.76962l5.65271,0l2.77034,-12.08303c0.2037,-0.90424 0.92684,-1.60975 1.85368,-1.80848c3.8194,-0.82475 7.45547,-2.30531 10.82673,-4.37215c0.79444,-0.4869 1.82313,-0.4869 2.61756,0l10.75543,6.64765l4.00273,-3.90512l-6.81381,-10.48322c-0.49907,-0.77506 -0.49907,-1.78861 0,-2.56367c2.11849,-3.23936 3.62588,-6.78677 4.48143,-10.55278c0.2037,-0.90424 0.92684,-1.60975 1.85368,-1.80848l12.38504,-2.70278l0,-5.51487l-12.38504,-2.70278c-0.92684,-0.19873 -1.64998,-0.90424 -1.85368,-1.80848c-0.84536,-3.72626 -2.36294,-7.27367 -4.48143,-10.56271c-0.49907,-0.77506 -0.49907,-1.76873 0,-2.56367l6.81381,-10.49316l-4.00273,-3.90512l-10.75543,6.64765c-0.79444,0.49684 -1.83331,0.49684 -2.62775,0c-3.29996,-2.04696 -6.93603,-3.52753 -10.82673,-4.39202c-0.92684,-0.19873 -1.64998,-0.90424 -1.85368,-1.80848l-2.77034,-12.08303l-5.6629,0l-2.77034,12.08303c-0.2037,0.90424 -0.92684,1.60975 -1.85368,1.80848c-3.8907,0.86449 -7.52677,2.33512 -10.82673,4.39202c-0.79444,0.49684 -1.83331,0.49684 -2.62775,0l-10.74525,-6.64765l-4.00273,3.90512l6.81381,10.49316c0.49907,0.77506 0.49907,1.77867 0,2.56367c-2.12868,3.27911 -3.63607,6.82651 -4.48143,10.56271c-0.2037,0.90424 -0.92684,1.60975 -1.85368,1.80848l-12.38504,2.70278l0,5.51487l12.38504,2.70278c0.92684,0.19873 1.64998,0.90424 1.85368,1.80848c0.84536,3.72626 2.36294,7.2836 4.48143,10.56271c0.49907,0.77506 0.49907,1.77867 0,2.56367l-6.81381,10.48322l4.00273,3.90512l10.74525,-6.63772c0.79444,-0.4869 1.83331,-0.4869 2.62775,0c3.32033,2.06683 6.97677,3.52753 10.81654,4.37215c0.92684,0.19873 1.64998,0.90424 1.85368,1.80848l2.80089,12.06316l0,0zm-5.15364,-81.28222l0,0l0,0z" fill="#FFFFFF" clip-rule="evenodd" fill-rule="evenodd"/>
  </g>
 </g>
</svg>